<?xml version="1.0" encoding="UTF-8"?>

<!DOCTYPE svg PUBLIC '-//W3C//DTD SVG 1.0//EN' 'http://www.w3.org/TR/2001/REC-SVG-20010904/DTD/svg10.dtd'>
<svg style="fill-opacity:1; color-rendering:auto; color-interpolation:auto; text-rendering:auto; stroke:black; stroke-linecap:square; stroke-miterlimit:10; shape-rendering:auto; stroke-opacity:1; fill:black; stroke-dasharray:none; font-weight:normal; stroke-width:1; font-family:&apos;Dialog&apos;; font-style:normal; stroke-linejoin:miter; font-size:12; stroke-dashoffset:0; image-rendering:auto;" xmlns="http://www.w3.org/2000/svg" width="748" xmlns:xlink="http://www.w3.org/1999/xlink" height="648">
  <!--Generated by the Batik Graphics2D SVG Generator-->
  <defs id="genericDefs" />
  <g>
    <defs id="defs1">
      <linearGradient x1="80" gradientUnits="userSpaceOnUse" x2="80" y1="170" y2="0" id="linearGradient1" spreadMethod="reflect">
        <stop style="stop-opacity:0.498; stop-color:rgb(0,255,255);" offset="0%" />
        <stop style="stop-opacity:0.498; stop-color:rgb(255,255,255);" offset="100%" />
      </linearGradient>
      <linearGradient x1="155" gradientUnits="userSpaceOnUse" x2="155" y1="60" y2="0" id="linearGradient2" spreadMethod="reflect">
        <stop style="stop-opacity:0.498; stop-color:rgb(255,255,0);" offset="0%" />
        <stop style="stop-opacity:0.498; stop-color:rgb(255,255,255);" offset="100%" />
      </linearGradient>
      <linearGradient x1="90" gradientUnits="userSpaceOnUse" x2="90" y1="60" y2="0" id="linearGradient3" spreadMethod="reflect">
        <stop style="stop-opacity:0.498; stop-color:rgb(255,255,0);" offset="0%" />
        <stop style="stop-opacity:0.498; stop-color:rgb(255,255,255);" offset="100%" />
      </linearGradient>
      <linearGradient x1="155" gradientUnits="userSpaceOnUse" x2="155" y1="80" y2="0" id="linearGradient4" spreadMethod="reflect">
        <stop style="stop-opacity:0.498; stop-color:rgb(255,255,0);" offset="0%" />
        <stop style="stop-opacity:0.498; stop-color:rgb(255,255,255);" offset="100%" />
      </linearGradient>
      <linearGradient x1="70" gradientUnits="userSpaceOnUse" x2="70" y1="60" y2="0" id="linearGradient5" spreadMethod="reflect">
        <stop style="stop-opacity:0.498; stop-color:rgb(255,255,0);" offset="0%" />
        <stop style="stop-opacity:0.498; stop-color:rgb(255,255,255);" offset="100%" />
      </linearGradient>
      <linearGradient x1="95" gradientUnits="userSpaceOnUse" x2="95" y1="60" y2="0" id="linearGradient6" spreadMethod="reflect">
        <stop style="stop-opacity:0.498; stop-color:rgb(255,255,0);" offset="0%" />
        <stop style="stop-opacity:0.498; stop-color:rgb(255,255,255);" offset="100%" />
      </linearGradient>
      <linearGradient x1="140" gradientUnits="userSpaceOnUse" x2="140" y1="110" y2="0" id="linearGradient7" spreadMethod="reflect">
        <stop style="stop-opacity:0.498; stop-color:rgb(255,255,0);" offset="0%" />
        <stop style="stop-opacity:0.498; stop-color:rgb(255,255,255);" offset="100%" />
      </linearGradient>
      <linearGradient x1="170" gradientUnits="userSpaceOnUse" x2="170" y1="90" y2="0" id="linearGradient8" spreadMethod="reflect">
        <stop style="stop-opacity:0.498; stop-color:rgb(255,255,0);" offset="0%" />
        <stop style="stop-opacity:0.498; stop-color:rgb(255,255,255);" offset="100%" />
      </linearGradient>
      <linearGradient x1="160" gradientUnits="userSpaceOnUse" x2="160" y1="60" y2="0" id="linearGradient9" spreadMethod="reflect">
        <stop style="stop-opacity:0.498; stop-color:rgb(255,255,0);" offset="0%" />
        <stop style="stop-opacity:0.498; stop-color:rgb(255,255,255);" offset="100%" />
      </linearGradient>
      <linearGradient x1="160" gradientUnits="userSpaceOnUse" x2="160" y1="60" y2="0" id="linearGradient10" spreadMethod="reflect">
        <stop style="stop-opacity:0.498; stop-color:rgb(255,255,0);" offset="0%" />
        <stop style="stop-opacity:0.498; stop-color:rgb(255,255,255);" offset="100%" />
      </linearGradient>
      <linearGradient x1="80" gradientUnits="userSpaceOnUse" x2="80" y1="60" y2="0" id="linearGradient11" spreadMethod="reflect">
        <stop style="stop-opacity:0.498; stop-color:rgb(255,255,0);" offset="0%" />
        <stop style="stop-opacity:0.498; stop-color:rgb(255,255,255);" offset="100%" />
      </linearGradient>
      <clipPath clipPathUnits="userSpaceOnUse" id="clipPath1">
        <path d="M-4 -4 L168 -4 L168 178 L-4 178 L-4 -4 Z" />
      </clipPath>
      <clipPath clipPathUnits="userSpaceOnUse" id="clipPath2">
        <path d="M0 0 L0 163 L160 163 L160 0 Z" />
      </clipPath>
      <clipPath clipPathUnits="userSpaceOnUse" id="clipPath3">
        <path d="M0 0 L160 0 L160 15 L0 15 L0 0 Z" />
      </clipPath>
      <clipPath clipPathUnits="userSpaceOnUse" id="clipPath4">
        <path d="M-4 -4 L318 -4 L318 68 L-4 68 L-4 -4 Z" />
      </clipPath>
      <clipPath clipPathUnits="userSpaceOnUse" id="clipPath5">
        <path d="M0 0 L0 38 L310 38 L310 0 Z" />
      </clipPath>
      <clipPath clipPathUnits="userSpaceOnUse" id="clipPath6">
        <path d="M0 0 L310 0 L310 30 L0 30 L0 0 Z" />
      </clipPath>
      <clipPath clipPathUnits="userSpaceOnUse" id="clipPath7">
        <path d="M-4 -4 L188 -4 L188 68 L-4 68 L-4 -4 Z" />
      </clipPath>
      <clipPath clipPathUnits="userSpaceOnUse" id="clipPath8">
        <path d="M0 0 L0 53 L180 53 L180 0 Z" />
      </clipPath>
      <clipPath clipPathUnits="userSpaceOnUse" id="clipPath9">
        <path d="M0 0 L180 0 L180 15 L0 15 L0 0 Z" />
      </clipPath>
      <clipPath clipPathUnits="userSpaceOnUse" id="clipPath10">
        <path d="M-4 -4 L318 -4 L318 88 L-4 88 L-4 -4 Z" />
      </clipPath>
      <clipPath clipPathUnits="userSpaceOnUse" id="clipPath11">
        <path d="M0 0 L0 73 L310 73 L310 0 Z" />
      </clipPath>
      <clipPath clipPathUnits="userSpaceOnUse" id="clipPath12">
        <path d="M0 0 L310 0 L310 15 L0 15 L0 0 Z" />
      </clipPath>
      <clipPath clipPathUnits="userSpaceOnUse" id="clipPath13">
        <path d="M-4 -4 L148 -4 L148 68 L-4 68 L-4 -4 Z" />
      </clipPath>
      <clipPath clipPathUnits="userSpaceOnUse" id="clipPath14">
        <path d="M0 0 L0 53 L140 53 L140 0 Z" />
      </clipPath>
      <clipPath clipPathUnits="userSpaceOnUse" id="clipPath15">
        <path d="M0 0 L140 0 L140 15 L0 15 L0 0 Z" />
      </clipPath>
      <clipPath clipPathUnits="userSpaceOnUse" id="clipPath16">
        <path d="M-4 -4 L198 -4 L198 68 L-4 68 L-4 -4 Z" />
      </clipPath>
      <clipPath clipPathUnits="userSpaceOnUse" id="clipPath17">
        <path d="M0 0 L0 53 L190 53 L190 0 Z" />
      </clipPath>
      <clipPath clipPathUnits="userSpaceOnUse" id="clipPath18">
        <path d="M0 0 L190 0 L190 15 L0 15 L0 0 Z" />
      </clipPath>
      <clipPath clipPathUnits="userSpaceOnUse" id="clipPath19">
        <path d="M-4 -4 L288 -4 L288 118 L-4 118 L-4 -4 Z" />
      </clipPath>
      <clipPath clipPathUnits="userSpaceOnUse" id="clipPath20">
        <path d="M0 0 L0 103 L280 103 L280 0 Z" />
      </clipPath>
      <clipPath clipPathUnits="userSpaceOnUse" id="clipPath21">
        <path d="M0 0 L280 0 L280 15 L0 15 L0 0 Z" />
      </clipPath>
      <clipPath clipPathUnits="userSpaceOnUse" id="clipPath22">
        <path d="M-4 -4 L348 -4 L348 98 L-4 98 L-4 -4 Z" />
      </clipPath>
      <clipPath clipPathUnits="userSpaceOnUse" id="clipPath23">
        <path d="M0 0 L0 68 L340 68 L340 0 Z" />
      </clipPath>
      <clipPath clipPathUnits="userSpaceOnUse" id="clipPath24">
        <path d="M0 0 L340 0 L340 30 L0 30 L0 0 Z" />
      </clipPath>
      <clipPath clipPathUnits="userSpaceOnUse" id="clipPath25">
        <path d="M-4 -4 L328 -4 L328 68 L-4 68 L-4 -4 Z" />
      </clipPath>
      <clipPath clipPathUnits="userSpaceOnUse" id="clipPath26">
        <path d="M0 0 L0 53 L320 53 L320 0 Z" />
      </clipPath>
      <clipPath clipPathUnits="userSpaceOnUse" id="clipPath27">
        <path d="M0 0 L320 0 L320 15 L0 15 L0 0 Z" />
      </clipPath>
      <clipPath clipPathUnits="userSpaceOnUse" id="clipPath28">
        <path d="M-4 -4 L168 -4 L168 68 L-4 68 L-4 -4 Z" />
      </clipPath>
      <clipPath clipPathUnits="userSpaceOnUse" id="clipPath29">
        <path d="M0 0 L0 53 L160 53 L160 0 Z" />
      </clipPath>
      <clipPath clipPathUnits="userSpaceOnUse" id="clipPath30">
        <path d="M-3 -3 L57 -3 L57 27 L-3 27 L-3 -3 Z" />
      </clipPath>
      <clipPath clipPathUnits="userSpaceOnUse" id="clipPath31">
        <path d="M-3 -3 L47 -3 L47 27 L-3 27 L-3 -3 Z" />
      </clipPath>
      <clipPath clipPathUnits="userSpaceOnUse" id="clipPath32">
        <path d="M0 0 L227 0 L227 347 L0 347 L0 0 Z" />
      </clipPath>
      <clipPath clipPathUnits="userSpaceOnUse" id="clipPath33">
        <path d="M0 0 L204 0 L204 244 L0 244 L0 0 Z" />
      </clipPath>
      <clipPath clipPathUnits="userSpaceOnUse" id="clipPath34">
        <path d="M0 0 L235 0 L235 147 L0 147 L0 0 Z" />
      </clipPath>
      <clipPath clipPathUnits="userSpaceOnUse" id="clipPath35">
        <path d="M0 0 L147 0 L147 405 L0 405 L0 0 Z" />
      </clipPath>
      <clipPath clipPathUnits="userSpaceOnUse" id="clipPath36">
        <path d="M0 0 L217 0 L217 257 L0 257 L0 0 Z" />
      </clipPath>
      <clipPath clipPathUnits="userSpaceOnUse" id="clipPath37">
        <path d="M0 0 L357 0 L357 305 L0 305 L0 0 Z" />
      </clipPath>
      <clipPath clipPathUnits="userSpaceOnUse" id="clipPath38">
        <path d="M0 0 L215 0 L215 147 L0 147 L0 0 Z" />
      </clipPath>
      <clipPath clipPathUnits="userSpaceOnUse" id="clipPath39">
        <path d="M0 0 L297 0 L297 275 L0 275 L0 0 Z" />
      </clipPath>
      <clipPath clipPathUnits="userSpaceOnUse" id="clipPath40">
        <path d="M0 0 L147 0 L147 185 L0 185 L0 0 Z" />
      </clipPath>
      <clipPath clipPathUnits="userSpaceOnUse" id="clipPath41">
        <path d="M0 0 L147 0 L147 175 L0 175 L0 0 Z" />
      </clipPath>
      <clipPath clipPathUnits="userSpaceOnUse" id="clipPath42">
        <path d="M0 0 L40 0 L40 20 L0 20 L0 0 Z" />
      </clipPath>
      <clipPath clipPathUnits="userSpaceOnUse" id="clipPath43">
        <path d="M0 0 L50 0 L50 20 L0 20 L0 0 Z" />
      </clipPath>
    </defs>
    <g style="fill:white; text-rendering:geometricPrecision; stroke:white;">
      <rect x="0" y="0" width="748" style="stroke:none;" height="648" />
    </g>
    <g transform="translate(234,4)" style="font-size:11; fill:url(#linearGradient1); text-rendering:geometricPrecision; font-family:sans-serif; stroke:url(#linearGradient1); font-weight:bold;">
      <rect x="0" y="0" width="160" style="clip-path:url(#clipPath1); stroke:none;" height="170" />
    </g>
    <g transform="translate(234,4)" style="stroke-linecap:butt; font-size:11; text-rendering:geometricPrecision; stroke-linejoin:round; font-family:sans-serif; font-weight:bold; stroke-width:2; stroke-miterlimit:0;">
      <rect x="0" y="0" width="160" style="clip-path:url(#clipPath1); fill:none;" height="170" />
      <line x1="0" x2="160" y1="15" style="clip-path:url(#clipPath1); fill:none;" y2="15" />
    </g>
    <g style="text-rendering:geometricPrecision; font-size:11; font-family:sans-serif;" transform="translate(234,19)">
      <text x="2" y="14" style="clip-path:url(#clipPath2); stroke:none;" xml:space="preserve">&lt;&lt;Property&gt;&gt; #objectId : long</text>
      <text x="2" y="29" style="clip-path:url(#clipPath2); stroke:none;" xml:space="preserve">-pause : boolean</text>
    </g>
    <g transform="translate(234,19)" style="stroke-linecap:butt; font-size:11; text-rendering:geometricPrecision; stroke-linejoin:bevel; font-family:sans-serif; stroke-width:2; stroke-miterlimit:0;">
      <line x1="0" x2="160" y1="34" style="clip-path:url(#clipPath2); fill:none;" y2="34" />
    </g>
    <g style="text-rendering:geometricPrecision; font-size:11; font-family:sans-serif;" transform="translate(234,19)">
      <text x="2" y="48" style="clip-path:url(#clipPath2); stroke:none;" xml:space="preserve">+Animation(objectId : long)</text>
      <text x="2" y="63" style="clip-path:url(#clipPath2); font-style:italic; stroke:none;" xml:space="preserve">+execute() : void</text>
      <text x="2" y="78" style="clip-path:url(#clipPath2); stroke:none;" xml:space="preserve">+finish() : void</text>
      <text x="2" y="93" style="clip-path:url(#clipPath2); stroke:none;" xml:space="preserve">+pause() : void</text>
      <text x="2" y="108" style="clip-path:url(#clipPath2); stroke:none;" xml:space="preserve">+resume() : void</text>
      <text x="2" y="123" style="clip-path:url(#clipPath2); stroke:none;" xml:space="preserve">+isPaused() : boolean</text>
    </g>
    <g transform="translate(234,4)" style="font-size:11; text-rendering:geometricPrecision; font-family:sans-serif; font-style:italic; font-weight:bold;">
      <text x="53" y="12" style="clip-path:url(#clipPath3); stroke:none;" xml:space="preserve">Animation</text>
    </g>
    <g transform="translate(404,214)" style="font-size:11; fill:url(#linearGradient2); text-rendering:geometricPrecision; font-family:sans-serif; stroke:url(#linearGradient2); font-weight:bold;">
      <rect x="0" y="0" width="310" style="clip-path:url(#clipPath4); stroke:none;" height="60" />
    </g>
    <g transform="translate(404,214)" style="stroke-linecap:butt; font-size:11; text-rendering:geometricPrecision; stroke-linejoin:round; font-family:sans-serif; font-weight:bold; stroke-width:2; stroke-miterlimit:0;">
      <rect x="0" y="0" width="310" style="clip-path:url(#clipPath4); fill:none;" height="60" />
      <line x1="0" x2="310" y1="30" style="clip-path:url(#clipPath4); fill:none;" y2="30" />
    </g>
    <g style="text-rendering:geometricPrecision; font-size:11; font-family:sans-serif;" transform="translate(404,244)">
      <text x="2" y="14" style="clip-path:url(#clipPath5); stroke:none;" xml:space="preserve">+applyResult() : void</text>
    </g>
    <g transform="translate(404,214)" style="text-rendering:geometricPrecision; font-size:11; font-weight:bold; font-family:sans-serif;">
      <text x="138" y="12" style="clip-path:url(#clipPath6); stroke:none;" xml:space="preserve">Result</text>
      <text x="10" y="27" style="clip-path:url(#clipPath6); stroke:none; font-weight:normal;" xml:space="preserve">(::n7::saceca::u3du::model::graphics::animation::Animation)</text>
    </g>
    <g transform="translate(4,244)" style="font-size:11; fill:url(#linearGradient3); text-rendering:geometricPrecision; font-family:sans-serif; stroke:url(#linearGradient3); font-weight:bold;">
      <rect x="0" y="0" width="180" style="clip-path:url(#clipPath7); stroke:none;" height="60" />
    </g>
    <g transform="translate(4,244)" style="stroke-linecap:butt; font-size:11; text-rendering:geometricPrecision; stroke-linejoin:round; font-family:sans-serif; font-weight:bold; stroke-width:2; stroke-miterlimit:0;">
      <rect x="0" y="0" width="180" style="clip-path:url(#clipPath7); fill:none;" height="60" />
      <line x1="0" x2="180" y1="15" style="clip-path:url(#clipPath7); fill:none;" y2="15" />
    </g>
    <g style="text-rendering:geometricPrecision; font-size:11; font-family:sans-serif;" transform="translate(4,259)">
      <text x="2" y="14" style="clip-path:url(#clipPath8); stroke:none;" xml:space="preserve">+AppearAnimation(objectId : long)</text>
      <text x="2" y="29" style="clip-path:url(#clipPath8); stroke:none;" xml:space="preserve">+execute() : void</text>
    </g>
    <g transform="translate(4,244)" style="text-rendering:geometricPrecision; font-size:11; font-weight:bold; font-family:sans-serif;">
      <text x="44" y="12" style="clip-path:url(#clipPath9); stroke:none;" xml:space="preserve">AppearAnimation</text>
    </g>
    <g transform="translate(4,434)" style="font-size:11; fill:url(#linearGradient4); text-rendering:geometricPrecision; font-family:sans-serif; stroke:url(#linearGradient4); font-weight:bold;">
      <rect x="0" y="0" width="310" style="clip-path:url(#clipPath10); stroke:none;" height="80" />
    </g>
    <g transform="translate(4,434)" style="stroke-linecap:butt; font-size:11; text-rendering:geometricPrecision; stroke-linejoin:round; font-family:sans-serif; font-weight:bold; stroke-width:2; stroke-miterlimit:0;">
      <rect x="0" y="0" width="310" style="clip-path:url(#clipPath10); fill:none;" height="80" />
      <line x1="0" x2="310" y1="15" style="clip-path:url(#clipPath10); fill:none;" y2="15" />
    </g>
    <g style="text-rendering:geometricPrecision; font-size:11; font-family:sans-serif;" transform="translate(4,449)">
      <text x="2" y="14" style="clip-path:url(#clipPath11); stroke:none;" xml:space="preserve">#color : LightState</text>
    </g>
    <g transform="translate(4,449)" style="stroke-linecap:butt; font-size:11; text-rendering:geometricPrecision; stroke-linejoin:bevel; font-family:sans-serif; stroke-width:2; stroke-miterlimit:0;">
      <line x1="0" x2="310" y1="19" style="clip-path:url(#clipPath11); fill:none;" y2="19" />
    </g>
    <g style="text-rendering:geometricPrecision; font-size:11; font-family:sans-serif;" transform="translate(4,449)">
      <text x="2" y="33" style="clip-path:url(#clipPath11); stroke:none;" xml:space="preserve">+ChangeTrafficLightAnimation(objId : long, state : LightState)</text>
      <text x="2" y="48" style="clip-path:url(#clipPath11); stroke:none;" xml:space="preserve">+execute() : void</text>
    </g>
    <g transform="translate(4,434)" style="text-rendering:geometricPrecision; font-size:11; font-weight:bold; font-family:sans-serif;">
      <text x="77" y="12" style="clip-path:url(#clipPath12); stroke:none;" xml:space="preserve">ChangeTrafficLightAnimation</text>
    </g>
    <g transform="translate(4,74)" style="font-size:11; fill:url(#linearGradient5); text-rendering:geometricPrecision; font-family:sans-serif; stroke:url(#linearGradient5); font-weight:bold;">
      <rect x="0" y="0" width="140" style="clip-path:url(#clipPath13); stroke:none;" height="60" />
    </g>
    <g transform="translate(4,74)" style="stroke-linecap:butt; font-size:11; text-rendering:geometricPrecision; stroke-linejoin:round; font-family:sans-serif; font-weight:bold; stroke-width:2; stroke-miterlimit:0;">
      <rect x="0" y="0" width="140" style="clip-path:url(#clipPath13); fill:none;" height="60" />
      <line x1="0" x2="140" y1="15" style="clip-path:url(#clipPath13); fill:none;" y2="15" />
    </g>
    <g style="text-rendering:geometricPrecision; font-size:11; font-family:sans-serif;" transform="translate(4,89)">
      <text x="2" y="14" style="clip-path:url(#clipPath14); stroke:none;" xml:space="preserve">+DieAnimation(objId : long)</text>
      <text x="2" y="29" style="clip-path:url(#clipPath14); stroke:none;" xml:space="preserve">+execute() : void</text>
    </g>
    <g transform="translate(4,74)" style="text-rendering:geometricPrecision; font-size:11; font-weight:bold; font-family:sans-serif;">
      <text x="34" y="12" style="clip-path:url(#clipPath15); stroke:none;" xml:space="preserve">DieAnimation</text>
    </g>
    <g transform="translate(4,344)" style="font-size:11; fill:url(#linearGradient6); text-rendering:geometricPrecision; font-family:sans-serif; stroke:url(#linearGradient6); font-weight:bold;">
      <rect x="0" y="0" width="190" style="clip-path:url(#clipPath16); stroke:none;" height="60" />
    </g>
    <g transform="translate(4,344)" style="stroke-linecap:butt; font-size:11; text-rendering:geometricPrecision; stroke-linejoin:round; font-family:sans-serif; font-weight:bold; stroke-width:2; stroke-miterlimit:0;">
      <rect x="0" y="0" width="190" style="clip-path:url(#clipPath16); fill:none;" height="60" />
      <line x1="0" x2="190" y1="15" style="clip-path:url(#clipPath16); fill:none;" y2="15" />
    </g>
    <g style="text-rendering:geometricPrecision; font-size:11; font-family:sans-serif;" transform="translate(4,359)">
      <text x="2" y="14" style="clip-path:url(#clipPath17); stroke:none;" xml:space="preserve">+DisappearAnimation(objectId : long)</text>
      <text x="2" y="29" style="clip-path:url(#clipPath17); stroke:none;" xml:space="preserve">+execute() : void</text>
    </g>
    <g transform="translate(4,344)" style="text-rendering:geometricPrecision; font-size:11; font-weight:bold; font-family:sans-serif;">
      <text x="41" y="12" style="clip-path:url(#clipPath18); stroke:none;" xml:space="preserve">DisappearAnimation</text>
    </g>
    <g transform="translate(334,434)" style="font-size:11; fill:url(#linearGradient7); text-rendering:geometricPrecision; font-family:sans-serif; stroke:url(#linearGradient7); font-weight:bold;">
      <rect x="0" y="0" width="280" style="clip-path:url(#clipPath19); stroke:none;" height="110" />
    </g>
    <g transform="translate(334,434)" style="stroke-linecap:butt; font-size:11; text-rendering:geometricPrecision; stroke-linejoin:round; font-family:sans-serif; font-weight:bold; stroke-width:2; stroke-miterlimit:0;">
      <rect x="0" y="0" width="280" style="clip-path:url(#clipPath19); fill:none;" height="110" />
      <line x1="0" x2="280" y1="15" style="clip-path:url(#clipPath19); fill:none;" y2="15" />
    </g>
    <g style="text-rendering:geometricPrecision; font-size:11; font-family:sans-serif;" transform="translate(334,449)">
      <text x="2" y="14" style="clip-path:url(#clipPath20); stroke:none;" xml:space="preserve">&lt;&lt;Property&gt;&gt; #destinationPoint : Point2f</text>
      <text x="2" y="29" style="clip-path:url(#clipPath20); stroke:none;" xml:space="preserve">#lastUpdateTime : long</text>
    </g>
    <g transform="translate(334,449)" style="stroke-linecap:butt; font-size:11; text-rendering:geometricPrecision; stroke-linejoin:bevel; font-family:sans-serif; stroke-width:2; stroke-miterlimit:0;">
      <line x1="0" x2="280" y1="34" style="clip-path:url(#clipPath20); fill:none;" y2="34" />
    </g>
    <g style="text-rendering:geometricPrecision; font-size:11; font-family:sans-serif;" transform="translate(334,449)">
      <text x="2" y="48" style="clip-path:url(#clipPath20); stroke:none;" xml:space="preserve">+MoveAnimation(objId : long, destinationPoint : Point2f)</text>
      <text x="2" y="63" style="clip-path:url(#clipPath20); stroke:none;" xml:space="preserve">+finish(position : Vector3f) : void</text>
      <text x="2" y="78" style="clip-path:url(#clipPath20); stroke:none;" xml:space="preserve">+updatePosition(position : Vector3f) : void</text>
    </g>
    <g transform="translate(334,434)" style="font-size:11; text-rendering:geometricPrecision; font-family:sans-serif; font-style:italic; font-weight:bold;">
      <text x="99" y="12" style="clip-path:url(#clipPath21); stroke:none;" xml:space="preserve">MoveAnimation</text>
    </g>
    <g transform="translate(404,304)" style="font-size:11; fill:url(#linearGradient8); text-rendering:geometricPrecision; font-family:sans-serif; stroke:url(#linearGradient8); font-weight:bold;">
      <rect x="0" y="0" width="340" style="clip-path:url(#clipPath22); stroke:none;" height="90" />
    </g>
    <g transform="translate(404,304)" style="stroke-linecap:butt; font-size:11; text-rendering:geometricPrecision; stroke-linejoin:round; font-family:sans-serif; font-weight:bold; stroke-width:2; stroke-miterlimit:0;">
      <rect x="0" y="0" width="340" style="clip-path:url(#clipPath22); fill:none;" height="90" />
      <line x1="0" x2="340" y1="30" style="clip-path:url(#clipPath22); fill:none;" y2="30" />
    </g>
    <g style="text-rendering:geometricPrecision; font-size:11; font-family:sans-serif;" transform="translate(404,334)">
      <text x="2" y="14" style="clip-path:url(#clipPath23); stroke:none;" xml:space="preserve">-position : Point2f</text>
    </g>
    <g transform="translate(404,334)" style="stroke-linecap:butt; font-size:11; text-rendering:geometricPrecision; stroke-linejoin:bevel; font-family:sans-serif; stroke-width:2; stroke-miterlimit:0;">
      <line x1="0" x2="340" y1="19" style="clip-path:url(#clipPath23); fill:none;" y2="19" />
    </g>
    <g style="text-rendering:geometricPrecision; font-size:11; font-family:sans-serif;" transform="translate(404,334)">
      <text x="2" y="33" style="clip-path:url(#clipPath23); stroke:none;" xml:space="preserve">+MoveResult(position : Point2f)</text>
      <text x="2" y="48" style="clip-path:url(#clipPath23); stroke:none;" xml:space="preserve">+applyResult() : void</text>
    </g>
    <g transform="translate(404,304)" style="text-rendering:geometricPrecision; font-size:11; font-weight:bold; font-family:sans-serif;">
      <text x="138" y="12" style="clip-path:url(#clipPath24); stroke:none;" xml:space="preserve">MoveResult</text>
      <text x="11" y="27" style="clip-path:url(#clipPath24); stroke:none; font-weight:normal;" xml:space="preserve">(::n7::saceca::u3du::model::graphics::animation::MoveAnimation)</text>
    </g>
    <g transform="translate(84,584)" style="font-size:11; fill:url(#linearGradient9); text-rendering:geometricPrecision; font-family:sans-serif; stroke:url(#linearGradient9); font-weight:bold;">
      <rect x="0" y="0" width="320" style="clip-path:url(#clipPath25); stroke:none;" height="60" />
    </g>
    <g transform="translate(84,584)" style="stroke-linecap:butt; font-size:11; text-rendering:geometricPrecision; stroke-linejoin:round; font-family:sans-serif; font-weight:bold; stroke-width:2; stroke-miterlimit:0;">
      <rect x="0" y="0" width="320" style="clip-path:url(#clipPath25); fill:none;" height="60" />
      <line x1="0" x2="320" y1="15" style="clip-path:url(#clipPath25); fill:none;" y2="15" />
    </g>
    <g style="text-rendering:geometricPrecision; font-size:11; font-family:sans-serif;" transform="translate(84,599)">
      <text x="2" y="14" style="clip-path:url(#clipPath26); stroke:none;" xml:space="preserve">+MoveHumanAnimation(objId : long, destinationPoint : Point2f)</text>
      <text x="2" y="29" style="clip-path:url(#clipPath26); stroke:none;" xml:space="preserve">+execute() : void</text>
    </g>
    <g transform="translate(84,584)" style="text-rendering:geometricPrecision; font-size:11; font-weight:bold; font-family:sans-serif;">
      <text x="99" y="12" style="clip-path:url(#clipPath27); stroke:none;" xml:space="preserve">MoveHumanAnimation</text>
    </g>
    <g transform="translate(424,584)" style="font-size:11; fill:url(#linearGradient10); text-rendering:geometricPrecision; font-family:sans-serif; stroke:url(#linearGradient10); font-weight:bold;">
      <rect x="0" y="0" width="320" style="clip-path:url(#clipPath25); stroke:none;" height="60" />
    </g>
    <g transform="translate(424,584)" style="stroke-linecap:butt; font-size:11; text-rendering:geometricPrecision; stroke-linejoin:round; font-family:sans-serif; font-weight:bold; stroke-width:2; stroke-miterlimit:0;">
      <rect x="0" y="0" width="320" style="clip-path:url(#clipPath25); fill:none;" height="60" />
      <line x1="0" x2="320" y1="15" style="clip-path:url(#clipPath25); fill:none;" y2="15" />
    </g>
    <g style="text-rendering:geometricPrecision; font-size:11; font-family:sans-serif;" transform="translate(424,599)">
      <text x="2" y="14" style="clip-path:url(#clipPath26); stroke:none;" xml:space="preserve">+MoveVehicleAnimation(objId : long, destinationPoint : Point2f)</text>
      <text x="2" y="29" style="clip-path:url(#clipPath26); stroke:none;" xml:space="preserve">+execute() : void</text>
    </g>
    <g transform="translate(424,584)" style="text-rendering:geometricPrecision; font-size:11; font-weight:bold; font-family:sans-serif;">
      <text x="99" y="12" style="clip-path:url(#clipPath27); stroke:none;" xml:space="preserve">MoveVehicleAnimation</text>
    </g>
    <g transform="translate(4,154)" style="font-size:11; fill:url(#linearGradient11); text-rendering:geometricPrecision; font-family:sans-serif; stroke:url(#linearGradient11); font-weight:bold;">
      <rect x="0" y="0" width="160" style="clip-path:url(#clipPath28); stroke:none;" height="60" />
    </g>
    <g transform="translate(4,154)" style="stroke-linecap:butt; font-size:11; text-rendering:geometricPrecision; stroke-linejoin:round; font-family:sans-serif; font-weight:bold; stroke-width:2; stroke-miterlimit:0;">
      <rect x="0" y="0" width="160" style="clip-path:url(#clipPath28); fill:none;" height="60" />
      <line x1="0" x2="160" y1="15" style="clip-path:url(#clipPath28); fill:none;" y2="15" />
    </g>
    <g transform="translate(4,169)" style="stroke-linecap:butt; font-size:11; text-rendering:geometricPrecision; stroke-linejoin:round; font-family:sans-serif; stroke-width:2; stroke-miterlimit:0;">
      <text x="2" y="14" style="clip-path:url(#clipPath29); stroke:none;" xml:space="preserve">+ReviveAnimation(objId : long)</text>
      <text x="2" y="29" style="clip-path:url(#clipPath29); stroke:none;" xml:space="preserve">+execute() : void</text>
    </g>
    <g transform="translate(4,154)" style="stroke-linecap:butt; font-size:11; text-rendering:geometricPrecision; stroke-linejoin:round; font-family:sans-serif; font-weight:bold; stroke-width:2; stroke-miterlimit:0;">
      <text x="34" y="12" style="clip-path:url(#clipPath3); stroke:none;" xml:space="preserve">ReviveAnimation</text>
    </g>
    <g transform="translate(123,103)" style="stroke-linecap:butt; font-size:11; text-rendering:geometricPrecision; font-family:sans-serif; stroke-linejoin:round; stroke-width:2;">
      <line x1="151" x2="151" y1="71" style="clip-path:url(#clipPath32); fill:none;" y2="271" />
      <line x1="151" x2="71" y1="271" style="clip-path:url(#clipPath32); fill:none;" y2="271" />
      <polygon style="fill:white; clip-path:url(#clipPath32); stroke:none;" points=" 151 71 143 84 158 84" />
      <polygon style="fill:none; clip-path:url(#clipPath32);" points=" 151 71 143 84 158 84" />
    </g>
    <g transform="translate(434,444)" style="stroke-linecap:butt; font-size:11; text-rendering:geometricPrecision; font-family:sans-serif; stroke-linejoin:round; stroke-width:2;">
      <line x1="100" x2="100" y1="100" style="clip-path:url(#clipPath33); fill:none;" y2="140" />
      <polygon style="fill:white; clip-path:url(#clipPath33); stroke:none;" points=" 100 100 92 113 107 113" />
      <polygon style="fill:none; clip-path:url(#clipPath33);" points=" 100 100 92 113 107 113" />
    </g>
    <g transform="translate(73,33)" style="stroke-linecap:butt; font-size:11; text-rendering:geometricPrecision; font-family:sans-serif; stroke-linejoin:round; stroke-width:2;">
      <line x1="160" x2="71" y1="71" style="clip-path:url(#clipPath34); fill:none;" y2="71" />
      <polygon style="fill:white; clip-path:url(#clipPath34); stroke:none;" points=" 160 71 146 63 146 78" />
      <polygon style="fill:none; clip-path:url(#clipPath34);" points=" 160 71 146 63 146 78" />
    </g>
    <g transform="translate(223,103)" style="stroke-linecap:butt; font-size:11; text-rendering:geometricPrecision; font-family:sans-serif; stroke-linejoin:round; stroke-width:2;">
      <line x1="71" x2="71" y1="71" style="clip-path:url(#clipPath35); fill:none;" y2="330" />
      <polygon style="fill:white; clip-path:url(#clipPath35); stroke:none;" points=" 71 71 63 84 78 84" />
      <polygon style="fill:none; clip-path:url(#clipPath35);" points=" 71 71 63 84 78 84" />
    </g>
    <g transform="translate(113,103)" style="stroke-linecap:butt; font-size:11; text-rendering:geometricPrecision; font-family:sans-serif; stroke-linejoin:round; stroke-width:2;">
      <line x1="141" x2="141" y1="71" style="clip-path:url(#clipPath36); fill:none;" y2="181" />
      <line x1="141" x2="71" y1="181" style="clip-path:url(#clipPath36); fill:none;" y2="181" />
      <polygon style="fill:white; clip-path:url(#clipPath36); stroke:none;" points=" 141 71 133 84 148 84" />
      <polygon style="fill:none; clip-path:url(#clipPath36);" points=" 141 71 133 84 148 84" />
    </g>
    <g transform="translate(323,-17)" style="stroke-linecap:butt; font-size:11; text-rendering:geometricPrecision; font-family:sans-serif; stroke-linejoin:round; stroke-width:2;">
      <line x1="99" x2="281" y1="71" style="clip-path:url(#clipPath37); fill:none;" y2="71" />
      <line x1="281" x2="281" y1="71" style="clip-path:url(#clipPath37); fill:none;" y2="230" />
      <polygon style="fill:none; clip-path:url(#clipPath37);" points=" 71 71 84 78 99 71 84 63" />
    </g>
    <g transform="translate(264,444)" style="stroke-linecap:butt; font-size:11; text-rendering:geometricPrecision; font-family:sans-serif; stroke-linejoin:round; stroke-width:2;">
      <line x1="100" x2="100" y1="100" style="clip-path:url(#clipPath33); fill:none;" y2="140" />
      <polygon style="fill:white; clip-path:url(#clipPath33); stroke:none;" points=" 100 100 92 113 107 113" />
      <polygon style="fill:none; clip-path:url(#clipPath33);" points=" 100 100 92 113 107 113" />
    </g>
    <g transform="translate(293,103)" style="stroke-linecap:butt; font-size:11; text-rendering:geometricPrecision; font-family:sans-serif; stroke-linejoin:round; stroke-width:2;">
      <line x1="71" x2="71" y1="71" style="clip-path:url(#clipPath35); fill:none;" y2="330" />
      <polygon style="fill:white; clip-path:url(#clipPath35); stroke:none;" points=" 71 71 63 84 78 84" />
      <polygon style="fill:none; clip-path:url(#clipPath35);" points=" 71 71 63 84 78 84" />
    </g>
    <g transform="translate(93,93)" style="stroke-linecap:butt; font-size:11; text-rendering:geometricPrecision; font-family:sans-serif; stroke-linejoin:round; stroke-width:2;">
      <line x1="140" x2="71" y1="71" style="clip-path:url(#clipPath38); fill:none;" y2="71" />
      <polygon style="fill:white; clip-path:url(#clipPath38); stroke:none;" points=" 140 71 126 63 126 78" />
      <polygon style="fill:none; clip-path:url(#clipPath38);" points=" 140 71 126 63 126 78" />
    </g>
    <g transform="translate(323,13)" style="stroke-linecap:butt; font-size:11; text-rendering:geometricPrecision; font-family:sans-serif; stroke-linejoin:round; stroke-width:2;">
      <line x1="71" x2="221" y1="71" style="clip-path:url(#clipPath39); fill:none;" y2="71" />
      <line x1="221" x2="221" y1="71" style="clip-path:url(#clipPath39); fill:none;" y2="200" />
      <circle style="fill:none; clip-path:url(#clipPath39);" r="6" cx="81" cy="71" />
      <line x1="81" x2="81" y1="66" style="clip-path:url(#clipPath39); fill:none;" y2="76" />
    </g>
    <g transform="translate(453,323)" style="stroke-linecap:butt; font-size:11; text-rendering:geometricPrecision; font-family:sans-serif; stroke-linejoin:round; stroke-width:2;">
      <line x1="71" x2="71" y1="110" style="clip-path:url(#clipPath40); fill:none;" y2="71" />
      <line x1="71" x2="71" y1="71" style="clip-path:url(#clipPath40); fill:none;" y2="71" />
      <circle style="fill:none; clip-path:url(#clipPath40);" r="6" cx="71" cy="100" />
      <line x1="76" x2="66" y1="100" style="clip-path:url(#clipPath40); fill:none;" y2="100" />
    </g>
    <g transform="translate(573,203)" style="stroke-linecap:butt; font-size:11; text-rendering:geometricPrecision; font-family:sans-serif; stroke-linejoin:round; stroke-width:2;">
      <line x1="71" x2="71" y1="71" style="clip-path:url(#clipPath41); fill:none;" y2="100" />
      <polygon style="fill:white; clip-path:url(#clipPath41); stroke:none;" points=" 71 71 63 84 78 84" />
      <polygon style="fill:none; clip-path:url(#clipPath41);" points=" 71 71 63 84 78 84" />
    </g>
    <g style="text-rendering:geometricPrecision; font-size:11; font-family:sans-serif;" transform="translate(564,194)">
      <text x="17" y="14" style="clip-path:url(#clipPath42); stroke:none;" xml:space="preserve">1</text>
    </g>
    <g style="text-rendering:geometricPrecision; font-size:11; font-family:sans-serif;" transform="translate(604,194)">
      <text x="11" y="14" style="clip-path:url(#clipPath43); stroke:none;" xml:space="preserve">result</text>
    </g>
  </g>
</svg>
