<?xml version="1.0" encoding="UTF-8"?>

<!DOCTYPE svg PUBLIC '-//W3C//DTD SVG 1.0//EN' 'http://www.w3.org/TR/2001/REC-SVG-20010904/DTD/svg10.dtd'>
<svg style="fill-opacity:1; color-rendering:auto; color-interpolation:auto; text-rendering:auto; stroke:black; stroke-linecap:square; stroke-miterlimit:10; shape-rendering:auto; stroke-opacity:1; fill:black; stroke-dasharray:none; font-weight:normal; stroke-width:1; font-family:&apos;Dialog&apos;; font-style:normal; stroke-linejoin:miter; font-size:12; stroke-dashoffset:0; image-rendering:auto;" xmlns="http://www.w3.org/2000/svg" width="598" xmlns:xlink="http://www.w3.org/1999/xlink" height="708">
  <!--Generated by the Batik Graphics2D SVG Generator-->
  <defs id="genericDefs" />
  <g>
    <defs id="defs1">
      <linearGradient x1="85" gradientUnits="userSpaceOnUse" x2="85" y1="110" y2="0" id="linearGradient1" spreadMethod="reflect">
        <stop style="stop-opacity:0.498; stop-color:rgb(255,255,0);" offset="0%" />
        <stop style="stop-opacity:0.498; stop-color:rgb(255,255,255);" offset="100%" />
      </linearGradient>
      <linearGradient x1="80" gradientUnits="userSpaceOnUse" x2="80" y1="120" y2="0" id="linearGradient2" spreadMethod="reflect">
        <stop style="stop-opacity:0.498; stop-color:rgb(255,255,0);" offset="0%" />
        <stop style="stop-opacity:0.498; stop-color:rgb(255,255,255);" offset="100%" />
      </linearGradient>
      <linearGradient x1="95" gradientUnits="userSpaceOnUse" x2="95" y1="180" y2="0" id="linearGradient3" spreadMethod="reflect">
        <stop style="stop-opacity:0.498; stop-color:rgb(0,255,255);" offset="0%" />
        <stop style="stop-opacity:0.498; stop-color:rgb(255,255,255);" offset="100%" />
      </linearGradient>
      <linearGradient x1="90" gradientUnits="userSpaceOnUse" x2="90" y1="110" y2="0" id="linearGradient4" spreadMethod="reflect">
        <stop style="stop-opacity:0.498; stop-color:rgb(255,255,0);" offset="0%" />
        <stop style="stop-opacity:0.498; stop-color:rgb(255,255,255);" offset="100%" />
      </linearGradient>
      <linearGradient x1="85" gradientUnits="userSpaceOnUse" x2="85" y1="170" y2="0" id="linearGradient5" spreadMethod="reflect">
        <stop style="stop-opacity:0.498; stop-color:rgb(255,255,0);" offset="0%" />
        <stop style="stop-opacity:0.498; stop-color:rgb(255,255,255);" offset="100%" />
      </linearGradient>
      <linearGradient x1="110" gradientUnits="userSpaceOnUse" x2="110" y1="140" y2="0" id="linearGradient6" spreadMethod="reflect">
        <stop style="stop-opacity:0.498; stop-color:rgb(255,255,0);" offset="0%" />
        <stop style="stop-opacity:0.498; stop-color:rgb(255,255,255);" offset="100%" />
      </linearGradient>
      <linearGradient x1="95" gradientUnits="userSpaceOnUse" x2="95" y1="60" y2="0" id="linearGradient7" spreadMethod="reflect">
        <stop style="stop-opacity:0.498; stop-color:rgb(255,255,0);" offset="0%" />
        <stop style="stop-opacity:0.498; stop-color:rgb(255,255,255);" offset="100%" />
      </linearGradient>
      <clipPath clipPathUnits="userSpaceOnUse" id="clipPath1">
        <path d="M-4 -4 L178 -4 L178 118 L-4 118 L-4 -4 Z" />
      </clipPath>
      <clipPath clipPathUnits="userSpaceOnUse" id="clipPath2">
        <path d="M0 0 L0 103 L170 103 L170 0 Z" />
      </clipPath>
      <clipPath clipPathUnits="userSpaceOnUse" id="clipPath3">
        <path d="M0 0 L170 0 L170 15 L0 15 L0 0 Z" />
      </clipPath>
      <clipPath clipPathUnits="userSpaceOnUse" id="clipPath4">
        <path d="M-4 -4 L168 -4 L168 128 L-4 128 L-4 -4 Z" />
      </clipPath>
      <clipPath clipPathUnits="userSpaceOnUse" id="clipPath5">
        <path d="M0 0 L0 113 L160 113 L160 0 Z" />
      </clipPath>
      <clipPath clipPathUnits="userSpaceOnUse" id="clipPath6">
        <path d="M0 0 L160 0 L160 15 L0 15 L0 0 Z" />
      </clipPath>
      <clipPath clipPathUnits="userSpaceOnUse" id="clipPath7">
        <path d="M-4 -4 L198 -4 L198 188 L-4 188 L-4 -4 Z" />
      </clipPath>
      <clipPath clipPathUnits="userSpaceOnUse" id="clipPath8">
        <path d="M0 0 L0 173 L190 173 L190 0 Z" />
      </clipPath>
      <clipPath clipPathUnits="userSpaceOnUse" id="clipPath9">
        <path d="M0 0 L190 0 L190 15 L0 15 L0 0 Z" />
      </clipPath>
      <clipPath clipPathUnits="userSpaceOnUse" id="clipPath10">
        <path d="M-4 -4 L188 -4 L188 118 L-4 118 L-4 -4 Z" />
      </clipPath>
      <clipPath clipPathUnits="userSpaceOnUse" id="clipPath11">
        <path d="M0 0 L0 103 L180 103 L180 0 Z" />
      </clipPath>
      <clipPath clipPathUnits="userSpaceOnUse" id="clipPath12">
        <path d="M0 0 L180 0 L180 15 L0 15 L0 0 Z" />
      </clipPath>
      <clipPath clipPathUnits="userSpaceOnUse" id="clipPath13">
        <path d="M-4 -4 L178 -4 L178 178 L-4 178 L-4 -4 Z" />
      </clipPath>
      <clipPath clipPathUnits="userSpaceOnUse" id="clipPath14">
        <path d="M0 0 L0 163 L170 163 L170 0 Z" />
      </clipPath>
      <clipPath clipPathUnits="userSpaceOnUse" id="clipPath15">
        <path d="M-4 -4 L228 -4 L228 148 L-4 148 L-4 -4 Z" />
      </clipPath>
      <clipPath clipPathUnits="userSpaceOnUse" id="clipPath16">
        <path d="M0 0 L0 133 L220 133 L220 0 Z" />
      </clipPath>
      <clipPath clipPathUnits="userSpaceOnUse" id="clipPath17">
        <path d="M0 0 L220 0 L220 15 L0 15 L0 0 Z" />
      </clipPath>
      <clipPath clipPathUnits="userSpaceOnUse" id="clipPath18">
        <path d="M-4 -4 L198 -4 L198 68 L-4 68 L-4 -4 Z" />
      </clipPath>
      <clipPath clipPathUnits="userSpaceOnUse" id="clipPath19">
        <path d="M0 0 L0 53 L190 53 L190 0 Z" />
      </clipPath>
      <clipPath clipPathUnits="userSpaceOnUse" id="clipPath20">
        <path d="M-3 -3 L47 -3 L47 27 L-3 27 L-3 -3 Z" />
      </clipPath>
      <clipPath clipPathUnits="userSpaceOnUse" id="clipPath21">
        <path d="M0 0 L147 0 L147 215 L0 215 L0 0 Z" />
      </clipPath>
      <clipPath clipPathUnits="userSpaceOnUse" id="clipPath22">
        <path d="M0 0 L171 0 L171 209 L0 209 L0 0 Z" />
      </clipPath>
      <clipPath clipPathUnits="userSpaceOnUse" id="clipPath23">
        <path d="M0 0 L129 0 L129 168 L0 168 L0 0 Z" />
      </clipPath>
      <clipPath clipPathUnits="userSpaceOnUse" id="clipPath24">
        <path d="M0 0 L147 0 L147 245 L0 245 L0 0 Z" />
      </clipPath>
      <clipPath clipPathUnits="userSpaceOnUse" id="clipPath25">
        <path d="M0 0 L129 0 L129 198 L0 198 L0 0 Z" />
      </clipPath>
      <clipPath clipPathUnits="userSpaceOnUse" id="clipPath26">
        <path d="M0 0 L260 0 L260 268 L0 268 L0 0 Z" />
      </clipPath>
      <clipPath clipPathUnits="userSpaceOnUse" id="clipPath27">
        <path d="M0 0 L40 0 L40 20 L0 20 L0 0 Z" />
      </clipPath>
      <clipPath clipPathUnits="userSpaceOnUse" id="clipPath28">
        <path d="M0 0 L235 0 L235 15 L0 15 L0 0 Z" />
      </clipPath>
    </defs>
    <g style="fill:white; text-rendering:geometricPrecision; stroke:white;">
      <rect x="0" y="0" width="598" style="stroke:none;" height="708" />
    </g>
    <g transform="translate(244,464)" style="font-size:11; fill:url(#linearGradient1); text-rendering:geometricPrecision; font-family:sans-serif; stroke:url(#linearGradient1); font-weight:bold;">
      <rect x="0" y="0" width="170" style="clip-path:url(#clipPath1); stroke:none;" height="110" />
    </g>
    <g transform="translate(244,464)" style="stroke-linecap:butt; font-size:11; text-rendering:geometricPrecision; stroke-linejoin:round; font-family:sans-serif; font-weight:bold; stroke-width:2; stroke-miterlimit:0;">
      <rect x="0" y="0" width="170" style="clip-path:url(#clipPath1); fill:none;" height="110" />
      <line x1="0" x2="170" y1="15" style="clip-path:url(#clipPath1); fill:none;" y2="15" />
    </g>
    <g style="text-rendering:geometricPrecision; font-size:11; font-family:sans-serif;" transform="translate(244,479)">
      <text x="2" y="14" style="clip-path:url(#clipPath2); stroke:none;" xml:space="preserve">&lt;&lt;Property&gt;&gt; -eyesHeight : float</text>
    </g>
    <g transform="translate(244,479)" style="stroke-linecap:butt; font-size:11; text-rendering:geometricPrecision; stroke-linejoin:bevel; font-family:sans-serif; stroke-width:2; stroke-miterlimit:0;">
      <line x1="0" x2="170" y1="19" style="clip-path:url(#clipPath2); fill:none;" y2="19" />
    </g>
    <g style="text-rendering:geometricPrecision; font-size:11; font-family:sans-serif;" transform="translate(244,479)">
      <text x="2" y="33" style="clip-path:url(#clipPath2); stroke:none;" xml:space="preserve">+AgentConfiguration()</text>
      <text x="2" y="48" style="clip-path:url(#clipPath2); stroke:none;" xml:space="preserve">+hashCode() : int</text>
      <text x="2" y="63" style="clip-path:url(#clipPath2); stroke:none;" xml:space="preserve">+equals(obj : Object) : boolean</text>
      <text x="2" y="78" style="clip-path:url(#clipPath2); stroke:none;" xml:space="preserve">+toString() : String</text>
    </g>
    <g transform="translate(244,464)" style="text-rendering:geometricPrecision; font-size:11; font-weight:bold; font-family:sans-serif;">
      <text x="32" y="12" style="clip-path:url(#clipPath3); stroke:none;" xml:space="preserve">AgentConfiguration</text>
    </g>
    <g transform="translate(434,464)" style="font-size:11; fill:url(#linearGradient2); text-rendering:geometricPrecision; font-family:sans-serif; stroke:url(#linearGradient2); font-weight:bold;">
      <rect x="0" y="0" width="160" style="clip-path:url(#clipPath4); stroke:none;" height="120" />
    </g>
    <g transform="translate(434,464)" style="stroke-linecap:butt; font-size:11; text-rendering:geometricPrecision; stroke-linejoin:round; font-family:sans-serif; font-weight:bold; stroke-width:2; stroke-miterlimit:0;">
      <rect x="0" y="0" width="160" style="clip-path:url(#clipPath4); fill:none;" height="120" />
      <line x1="0" x2="160" y1="15" style="clip-path:url(#clipPath4); fill:none;" y2="15" />
    </g>
    <g style="text-rendering:geometricPrecision; font-size:11; font-family:sans-serif;" transform="translate(434,479)">
      <text x="2" y="14" style="clip-path:url(#clipPath5); stroke:none;" xml:space="preserve">&lt;&lt;Property&gt;&gt; -width : float</text>
      <text x="2" y="29" style="clip-path:url(#clipPath5); stroke:none;" xml:space="preserve">&lt;&lt;Property&gt;&gt; -length : float</text>
      <text x="2" y="44" style="clip-path:url(#clipPath5); stroke:none;" xml:space="preserve">&lt;&lt;Property&gt;&gt; -height : float</text>
    </g>
    <g transform="translate(434,479)" style="stroke-linecap:butt; font-size:11; text-rendering:geometricPrecision; stroke-linejoin:bevel; font-family:sans-serif; stroke-width:2; stroke-miterlimit:0;">
      <line x1="0" x2="160" y1="49" style="clip-path:url(#clipPath5); fill:none;" y2="49" />
    </g>
    <g style="text-rendering:geometricPrecision; font-size:11; font-family:sans-serif;" transform="translate(434,479)">
      <text x="2" y="63" style="clip-path:url(#clipPath5); stroke:none;" xml:space="preserve">+BoxConfiguration()</text>
      <text x="2" y="78" style="clip-path:url(#clipPath5); stroke:none;" xml:space="preserve">+hashCode() : int</text>
      <text x="2" y="93" style="clip-path:url(#clipPath5); stroke:none;" xml:space="preserve">+equals(obj : Object) : boolean</text>
    </g>
    <g transform="translate(434,464)" style="text-rendering:geometricPrecision; font-size:11; font-weight:bold; font-family:sans-serif;">
      <text x="33" y="12" style="clip-path:url(#clipPath6); stroke:none;" xml:space="preserve">BoxConfiguration</text>
    </g>
    <g transform="translate(274,4)" style="font-size:11; fill:url(#linearGradient3); text-rendering:geometricPrecision; font-family:sans-serif; stroke:url(#linearGradient3); font-weight:bold;">
      <rect x="0" y="0" width="190" style="clip-path:url(#clipPath7); stroke:none;" height="180" />
    </g>
    <g transform="translate(274,4)" style="stroke-linecap:butt; font-size:11; text-rendering:geometricPrecision; stroke-linejoin:round; font-family:sans-serif; font-weight:bold; stroke-width:2; stroke-miterlimit:0;">
      <rect x="0" y="0" width="190" style="clip-path:url(#clipPath7); fill:none;" height="180" />
      <line x1="0" x2="190" y1="15" style="clip-path:url(#clipPath7); fill:none;" y2="15" />
    </g>
    <g style="text-rendering:geometricPrecision; font-size:11; font-family:sans-serif;" transform="translate(274,19)">
      <text x="2" y="14" style="clip-path:url(#clipPath8); stroke:none;" xml:space="preserve">&lt;&lt;Property&gt;&gt; -name : String</text>
      <text x="2" y="29" style="clip-path:url(#clipPath8); stroke:none;" xml:space="preserve">&lt;&lt;Property&gt;&gt; -visible : boolean</text>
      <text x="2" y="44" style="clip-path:url(#clipPath8); stroke:none;" xml:space="preserve">&lt;&lt;Property&gt;&gt; -perceptible : boolean</text>
      <text x="2" y="59" style="clip-path:url(#clipPath8); stroke:none;" xml:space="preserve">&lt;&lt;Property&gt;&gt; -elevation : float</text>
      <text x="2" y="74" style="clip-path:url(#clipPath8); stroke:none;" xml:space="preserve">&lt;&lt;Property&gt;&gt; -correctiveAngle : float</text>
    </g>
    <g transform="translate(274,19)" style="stroke-linecap:butt; font-size:11; text-rendering:geometricPrecision; stroke-linejoin:bevel; font-family:sans-serif; stroke-width:2; stroke-miterlimit:0;">
      <line x1="0" x2="190" y1="79" style="clip-path:url(#clipPath8); fill:none;" y2="79" />
    </g>
    <g style="text-rendering:geometricPrecision; font-size:11; font-family:sans-serif;" transform="translate(274,19)">
      <text x="2" y="93" style="clip-path:url(#clipPath8); stroke:none;" xml:space="preserve">+Configuration()</text>
      <text x="2" y="108" style="clip-path:url(#clipPath8); stroke:none;" xml:space="preserve">+toString() : String</text>
      <text x="2" y="123" style="clip-path:url(#clipPath8); stroke:none;" xml:space="preserve">+hashCode() : int</text>
      <text x="2" y="138" style="clip-path:url(#clipPath8); stroke:none;" xml:space="preserve">+equals(obj : Object) : boolean</text>
      <text x="2" y="153" style="clip-path:url(#clipPath8); stroke:none;" xml:space="preserve">+getStorageLabel() : String</text>
    </g>
    <g transform="translate(274,4)" style="text-rendering:geometricPrecision; font-size:11; font-weight:bold; font-family:sans-serif;">
      <text x="58" y="12" style="clip-path:url(#clipPath9); stroke:none;" xml:space="preserve">Configuration</text>
    </g>
    <g transform="translate(414,254)" style="font-size:11; fill:url(#linearGradient4); text-rendering:geometricPrecision; font-family:sans-serif; stroke:url(#linearGradient4); font-weight:bold;">
      <rect x="0" y="0" width="180" style="clip-path:url(#clipPath10); stroke:none;" height="110" />
    </g>
    <g transform="translate(414,254)" style="stroke-linecap:butt; font-size:11; text-rendering:geometricPrecision; stroke-linejoin:round; font-family:sans-serif; font-weight:bold; stroke-width:2; stroke-miterlimit:0;">
      <rect x="0" y="0" width="180" style="clip-path:url(#clipPath10); fill:none;" height="110" />
      <line x1="0" x2="180" y1="15" style="clip-path:url(#clipPath10); fill:none;" y2="15" />
    </g>
    <g style="text-rendering:geometricPrecision; font-size:11; font-family:sans-serif;" transform="translate(414,269)">
      <text x="2" y="14" style="clip-path:url(#clipPath11); stroke:none;" xml:space="preserve">&lt;&lt;Property&gt;&gt; -pathTexture : String</text>
    </g>
    <g transform="translate(414,269)" style="stroke-linecap:butt; font-size:11; text-rendering:geometricPrecision; stroke-linejoin:bevel; font-family:sans-serif; stroke-width:2; stroke-miterlimit:0;">
      <line x1="0" x2="180" y1="19" style="clip-path:url(#clipPath11); fill:none;" y2="19" />
    </g>
    <g style="text-rendering:geometricPrecision; font-size:11; font-family:sans-serif;" transform="translate(414,269)">
      <text x="2" y="33" style="clip-path:url(#clipPath11); stroke:none;" xml:space="preserve">+ShapeConfiguration()</text>
      <text x="2" y="48" style="clip-path:url(#clipPath11); stroke:none;" xml:space="preserve">+toString() : String</text>
      <text x="2" y="63" style="clip-path:url(#clipPath11); stroke:none;" xml:space="preserve">+hashCode() : int</text>
      <text x="2" y="78" style="clip-path:url(#clipPath11); stroke:none;" xml:space="preserve">+equals(obj : Object) : boolean</text>
    </g>
    <g transform="translate(414,254)" style="font-size:11; text-rendering:geometricPrecision; font-family:sans-serif; font-style:italic; font-weight:bold;">
      <text x="36" y="12" style="clip-path:url(#clipPath12); stroke:none;" xml:space="preserve">ShapeConfiguration</text>
    </g>
    <g transform="translate(134,254)" style="font-size:11; fill:url(#linearGradient5); text-rendering:geometricPrecision; font-family:sans-serif; stroke:url(#linearGradient5); font-weight:bold;">
      <rect x="0" y="0" width="170" style="clip-path:url(#clipPath13); stroke:none;" height="170" />
    </g>
    <g transform="translate(134,254)" style="stroke-linecap:butt; font-size:11; text-rendering:geometricPrecision; stroke-linejoin:round; font-family:sans-serif; font-weight:bold; stroke-width:2; stroke-miterlimit:0;">
      <rect x="0" y="0" width="170" style="clip-path:url(#clipPath13); fill:none;" height="170" />
      <line x1="0" x2="170" y1="15" style="clip-path:url(#clipPath13); fill:none;" y2="15" />
    </g>
    <g style="text-rendering:geometricPrecision; font-size:11; font-family:sans-serif;" transform="translate(134,269)">
      <text x="2" y="14" style="clip-path:url(#clipPath14); stroke:none;" xml:space="preserve">&lt;&lt;Property&gt;&gt; -pathModel : String</text>
      <text x="2" y="29" style="clip-path:url(#clipPath14); stroke:none;" xml:space="preserve">&lt;&lt;Property&gt;&gt; -scaleX : float</text>
      <text x="2" y="44" style="clip-path:url(#clipPath14); stroke:none;" xml:space="preserve">&lt;&lt;Property&gt;&gt; -scaleY : float</text>
      <text x="2" y="59" style="clip-path:url(#clipPath14); stroke:none;" xml:space="preserve">&lt;&lt;Property&gt;&gt; -scaleZ : float</text>
    </g>
    <g transform="translate(134,269)" style="stroke-linecap:butt; font-size:11; text-rendering:geometricPrecision; stroke-linejoin:bevel; font-family:sans-serif; stroke-width:2; stroke-miterlimit:0;">
      <line x1="0" x2="170" y1="64" style="clip-path:url(#clipPath14); fill:none;" y2="64" />
    </g>
    <g style="text-rendering:geometricPrecision; font-size:11; font-family:sans-serif;" transform="translate(134,269)">
      <text x="2" y="78" style="clip-path:url(#clipPath14); stroke:none;" xml:space="preserve">+SpatialConfiguration()</text>
      <text x="2" y="93" style="clip-path:url(#clipPath14); stroke:none;" xml:space="preserve">+toString() : String</text>
      <text x="2" y="108" style="clip-path:url(#clipPath14); stroke:none;" xml:space="preserve">+hashCode() : int</text>
      <text x="2" y="123" style="clip-path:url(#clipPath14); stroke:none;" xml:space="preserve">+equals(obj : Object) : boolean</text>
      <text x="2" y="138" style="clip-path:url(#clipPath14); stroke:none;" xml:space="preserve">#toInnerString() : String</text>
    </g>
    <g transform="translate(134,254)" style="text-rendering:geometricPrecision; font-size:11; font-weight:bold; font-family:sans-serif;">
      <text x="30" y="12" style="clip-path:url(#clipPath3); stroke:none;" xml:space="preserve">SpatialConfiguration</text>
    </g>
    <g transform="translate(4,464)" style="font-size:11; fill:url(#linearGradient6); text-rendering:geometricPrecision; font-family:sans-serif; stroke:url(#linearGradient6); font-weight:bold;">
      <rect x="0" y="0" width="220" style="clip-path:url(#clipPath15); stroke:none;" height="140" />
    </g>
    <g transform="translate(4,464)" style="stroke-linecap:butt; font-size:11; text-rendering:geometricPrecision; stroke-linejoin:round; font-family:sans-serif; font-weight:bold; stroke-width:2; stroke-miterlimit:0;">
      <rect x="0" y="0" width="220" style="clip-path:url(#clipPath15); fill:none;" height="140" />
      <line x1="0" x2="220" y1="15" style="clip-path:url(#clipPath15); fill:none;" y2="15" />
    </g>
    <g style="text-rendering:geometricPrecision; font-size:11; font-family:sans-serif;" transform="translate(4,479)">
      <text x="2" y="14" style="clip-path:url(#clipPath16); stroke:none;" xml:space="preserve">&lt;&lt;Property&gt;&gt; -collisionShapeRadius : float</text>
      <text x="2" y="29" style="clip-path:url(#clipPath16); stroke:none;" xml:space="preserve">&lt;&lt;Property&gt;&gt; -collisionShapeHeight : float</text>
      <text x="2" y="44" style="clip-path:url(#clipPath16); stroke:none;" xml:space="preserve">&lt;&lt;Property&gt;&gt; -stepHeight : float</text>
    </g>
    <g transform="translate(4,479)" style="stroke-linecap:butt; font-size:11; text-rendering:geometricPrecision; stroke-linejoin:bevel; font-family:sans-serif; stroke-width:2; stroke-miterlimit:0;">
      <line x1="0" x2="220" y1="49" style="clip-path:url(#clipPath16); fill:none;" y2="49" />
    </g>
    <g style="text-rendering:geometricPrecision; font-size:11; font-family:sans-serif;" transform="translate(4,479)">
      <text x="2" y="63" style="clip-path:url(#clipPath16); stroke:none;" xml:space="preserve">+VehicleConfiguration()</text>
      <text x="2" y="78" style="clip-path:url(#clipPath16); stroke:none;" xml:space="preserve">+hashCode() : int</text>
      <text x="2" y="93" style="clip-path:url(#clipPath16); stroke:none;" xml:space="preserve">+equals(obj : Object) : boolean</text>
      <text x="2" y="108" style="clip-path:url(#clipPath16); stroke:none;" xml:space="preserve">+toString() : String</text>
    </g>
    <g transform="translate(4,464)" style="text-rendering:geometricPrecision; font-size:11; font-weight:bold; font-family:sans-serif;">
      <text x="54" y="12" style="clip-path:url(#clipPath17); stroke:none;" xml:space="preserve">VehicleConfiguration</text>
    </g>
    <g transform="translate(234,644)" style="font-size:11; fill:url(#linearGradient7); text-rendering:geometricPrecision; font-family:sans-serif; stroke:url(#linearGradient7); font-weight:bold;">
      <rect x="0" y="0" width="190" style="clip-path:url(#clipPath18); stroke:none;" height="60" />
    </g>
    <g transform="translate(234,644)" style="stroke-linecap:butt; font-size:11; text-rendering:geometricPrecision; stroke-linejoin:round; font-family:sans-serif; font-weight:bold; stroke-width:2; stroke-miterlimit:0;">
      <rect x="0" y="0" width="190" style="clip-path:url(#clipPath18); fill:none;" height="60" />
      <line x1="0" x2="190" y1="15" style="clip-path:url(#clipPath18); fill:none;" y2="15" />
    </g>
    <g style="text-rendering:geometricPrecision; font-size:11; font-family:sans-serif;" transform="translate(234,659)">
      <text x="2" y="14" style="clip-path:url(#clipPath19); stroke:none;" xml:space="preserve">&lt;&lt;Property&gt;&gt; -terrainSize : int</text>
    </g>
    <g transform="translate(234,659)" style="stroke-linecap:butt; font-size:11; text-rendering:geometricPrecision; stroke-linejoin:bevel; font-family:sans-serif; stroke-width:2; stroke-miterlimit:0;">
      <line x1="0" x2="190" y1="19" style="clip-path:url(#clipPath19); fill:none;" y2="19" />
    </g>
    <g style="text-rendering:geometricPrecision; font-size:11; font-family:sans-serif;" transform="translate(234,659)">
      <text x="2" y="33" style="clip-path:url(#clipPath19); stroke:none;" xml:space="preserve">+WorldConfiguration(terrainSize : int)</text>
    </g>
    <g transform="translate(234,644)" style="text-rendering:geometricPrecision; font-size:11; font-weight:bold; font-family:sans-serif;">
      <text x="42" y="12" style="clip-path:url(#clipPath9); stroke:none;" xml:space="preserve">WorldConfiguration</text>
    </g>
    <g transform="translate(363,113)" style="stroke-linecap:butt; font-size:11; text-rendering:geometricPrecision; font-family:sans-serif; stroke-linejoin:round; stroke-width:2;">
      <line x1="71" x2="71" y1="71" style="clip-path:url(#clipPath21); fill:none;" y2="140" />
      <polygon style="fill:white; clip-path:url(#clipPath21); stroke:none;" points=" 71 71 63 84 78 84" />
      <polygon style="fill:none; clip-path:url(#clipPath21);" points=" 71 71 63 84 78 84" />
    </g>
    <g transform="translate(91,341)" style="stroke-linecap:butt; font-size:11; text-rendering:geometricPrecision; font-family:sans-serif; stroke-linejoin:round; stroke-width:2;">
      <line x1="83" x2="83" y1="83" style="clip-path:url(#clipPath22); fill:none;" y2="122" />
      <polygon style="fill:white; clip-path:url(#clipPath22); stroke:none;" points=" 83 83 75 96 90 96" />
      <polygon style="fill:none; clip-path:url(#clipPath22);" points=" 83 83 75 96 90 96" />
    </g>
    <g transform="translate(212,362)" style="stroke-linecap:butt; font-size:11; text-rendering:geometricPrecision; font-family:sans-serif; stroke-linejoin:round; stroke-width:2;">
      <line x1="63" x2="63" y1="63" style="clip-path:url(#clipPath23); fill:none;" y2="101" />
      <polygon style="fill:white; clip-path:url(#clipPath23); stroke:none;" points=" 63 63 55 76 70 76" />
      <polygon style="fill:none; clip-path:url(#clipPath23);" points=" 63 63 55 76 70 76" />
    </g>
    <g transform="translate(443,293)" style="stroke-linecap:butt; font-size:11; text-rendering:geometricPrecision; font-family:sans-serif; stroke-linejoin:round; stroke-width:2;">
      <line x1="71" x2="71" y1="71" style="clip-path:url(#clipPath24); fill:none;" y2="170" />
      <polygon style="fill:white; clip-path:url(#clipPath24); stroke:none;" points=" 71 71 63 84 78 84" />
      <polygon style="fill:none; clip-path:url(#clipPath24);" points=" 71 71 63 84 78 84" />
    </g>
    <g transform="translate(222,122)" style="stroke-linecap:butt; font-size:11; text-rendering:geometricPrecision; font-family:sans-serif; stroke-linejoin:round; stroke-width:2;">
      <line x1="63" x2="63" y1="63" style="clip-path:url(#clipPath25); fill:none;" y2="131" />
      <polygon style="fill:white; clip-path:url(#clipPath25); stroke:none;" points=" 63 63 55 76 70 76" />
      <polygon style="fill:none; clip-path:url(#clipPath25);" points=" 63 63 55 76 70 76" />
    </g>
    <g transform="translate(20,152)" style="stroke-linecap:butt; font-size:11; text-rendering:geometricPrecision; font-family:sans-serif; stroke-linejoin:round; stroke-width:2;">
      <line x1="194" x2="194" y1="101" style="clip-path:url(#clipPath26); fill:none;" y2="63" />
      <line x1="194" x2="63" y1="63" style="clip-path:url(#clipPath26); fill:none;" y2="63" />
      <line x1="63" x2="63" y1="63" style="clip-path:url(#clipPath26); fill:none;" y2="201" />
      <line x1="63" x2="85" y1="201" style="clip-path:url(#clipPath26); fill:none;" y2="201" />
      <polygon style="clip-path:url(#clipPath26); stroke:none;" points=" 113 201 99 193 85 201 99 208" />
      <polygon style="fill:none; clip-path:url(#clipPath26);" points=" 113 201 99 193 85 201 99 208" />
    </g>
    <g style="text-rendering:geometricPrecision; font-size:11; font-family:sans-serif;" transform="translate(204,234)">
      <text x="18" y="14" style="clip-path:url(#clipPath27); stroke:none;" xml:space="preserve">*</text>
    </g>
    <g style="text-rendering:geometricPrecision; font-size:11; font-family:sans-serif;" transform="translate(34,194)">
      <text x="12" y="12" style="clip-path:url(#clipPath28); stroke:none;" xml:space="preserve">children : Map&lt;String, SpatialConfiguration&gt;</text>
    </g>
  </g>
</svg>
