<?xml version="1.0" encoding="UTF-8"?>

<!DOCTYPE svg PUBLIC '-//W3C//DTD SVG 1.0//EN' 'http://www.w3.org/TR/2001/REC-SVG-20010904/DTD/svg10.dtd'>
<svg style="fill-opacity:1; color-rendering:auto; color-interpolation:auto; text-rendering:auto; stroke:black; stroke-linecap:square; stroke-miterlimit:10; shape-rendering:auto; stroke-opacity:1; fill:black; stroke-dasharray:none; font-weight:normal; stroke-width:1; font-family:&apos;Dialog&apos;; font-style:normal; stroke-linejoin:miter; font-size:12; stroke-dashoffset:0; image-rendering:auto;" xmlns="http://www.w3.org/2000/svg" width="718" xmlns:xlink="http://www.w3.org/1999/xlink" height="1008">
  <!--Generated by the Batik Graphics2D SVG Generator-->
  <defs id="genericDefs" />
  <g>
    <defs id="defs1">
      <linearGradient x1="135" gradientUnits="userSpaceOnUse" x2="135" y1="240" y2="0" id="linearGradient1" spreadMethod="reflect">
        <stop style="stop-opacity:0.498; stop-color:rgb(0,255,255);" offset="0%" />
        <stop style="stop-opacity:0.498; stop-color:rgb(255,255,255);" offset="100%" />
      </linearGradient>
      <linearGradient x1="125" gradientUnits="userSpaceOnUse" x2="125" y1="180" y2="0" id="linearGradient2" spreadMethod="reflect">
        <stop style="stop-opacity:0.498; stop-color:rgb(255,255,0);" offset="0%" />
        <stop style="stop-opacity:0.498; stop-color:rgb(255,255,255);" offset="100%" />
      </linearGradient>
      <linearGradient x1="60" gradientUnits="userSpaceOnUse" x2="60" y1="60" y2="0" id="linearGradient3" spreadMethod="reflect">
        <stop style="stop-opacity:0.498; stop-color:rgb(255,255,0);" offset="0%" />
        <stop style="stop-opacity:0.498; stop-color:rgb(255,255,255);" offset="100%" />
      </linearGradient>
      <linearGradient x1="100" gradientUnits="userSpaceOnUse" x2="100" y1="90" y2="0" id="linearGradient4" spreadMethod="reflect">
        <stop style="stop-opacity:0.498; stop-color:rgb(255,255,0);" offset="0%" />
        <stop style="stop-opacity:0.498; stop-color:rgb(255,255,255);" offset="100%" />
      </linearGradient>
      <linearGradient x1="125" gradientUnits="userSpaceOnUse" x2="125" y1="100" y2="0" id="linearGradient5" spreadMethod="reflect">
        <stop style="stop-opacity:0.498; stop-color:rgb(255,255,0);" offset="0%" />
        <stop style="stop-opacity:0.498; stop-color:rgb(255,255,255);" offset="100%" />
      </linearGradient>
      <linearGradient x1="110" gradientUnits="userSpaceOnUse" x2="110" y1="90" y2="0" id="linearGradient6" spreadMethod="reflect">
        <stop style="stop-opacity:0.498; stop-color:rgb(255,255,0);" offset="0%" />
        <stop style="stop-opacity:0.498; stop-color:rgb(255,255,255);" offset="100%" />
      </linearGradient>
      <linearGradient x1="110" gradientUnits="userSpaceOnUse" x2="110" y1="90" y2="0" id="linearGradient7" spreadMethod="reflect">
        <stop style="stop-opacity:0.498; stop-color:rgb(255,255,0);" offset="0%" />
        <stop style="stop-opacity:0.498; stop-color:rgb(255,255,255);" offset="100%" />
      </linearGradient>
      <linearGradient x1="100" gradientUnits="userSpaceOnUse" x2="100" y1="90" y2="0" id="linearGradient8" spreadMethod="reflect">
        <stop style="stop-opacity:0.498; stop-color:rgb(255,255,0);" offset="0%" />
        <stop style="stop-opacity:0.498; stop-color:rgb(255,255,255);" offset="100%" />
      </linearGradient>
      <linearGradient x1="90" gradientUnits="userSpaceOnUse" x2="90" y1="170" y2="0" id="linearGradient9" spreadMethod="reflect">
        <stop style="stop-opacity:0.498; stop-color:rgb(255,255,0);" offset="0%" />
        <stop style="stop-opacity:0.498; stop-color:rgb(255,255,255);" offset="100%" />
      </linearGradient>
      <linearGradient x1="95" gradientUnits="userSpaceOnUse" x2="95" y1="90" y2="0" id="linearGradient10" spreadMethod="reflect">
        <stop style="stop-opacity:0.498; stop-color:rgb(255,255,0);" offset="0%" />
        <stop style="stop-opacity:0.498; stop-color:rgb(255,255,255);" offset="100%" />
      </linearGradient>
      <linearGradient x1="95" gradientUnits="userSpaceOnUse" x2="95" y1="120" y2="0" id="linearGradient11" spreadMethod="reflect">
        <stop style="stop-opacity:0.498; stop-color:rgb(255,255,0);" offset="0%" />
        <stop style="stop-opacity:0.498; stop-color:rgb(255,255,255);" offset="100%" />
      </linearGradient>
      <clipPath clipPathUnits="userSpaceOnUse" id="clipPath1">
        <path d="M-4 -4 L278 -4 L278 248 L-4 248 L-4 -4 Z" />
      </clipPath>
      <clipPath clipPathUnits="userSpaceOnUse" id="clipPath2">
        <path d="M0 0 L0 233 L270 233 L270 0 Z" />
      </clipPath>
      <clipPath clipPathUnits="userSpaceOnUse" id="clipPath3">
        <path d="M0 0 L270 0 L270 15 L0 15 L0 0 Z" />
      </clipPath>
      <clipPath clipPathUnits="userSpaceOnUse" id="clipPath4">
        <path d="M-4 -4 L258 -4 L258 188 L-4 188 L-4 -4 Z" />
      </clipPath>
      <clipPath clipPathUnits="userSpaceOnUse" id="clipPath5">
        <path d="M0 0 L0 173 L250 173 L250 0 Z" />
      </clipPath>
      <clipPath clipPathUnits="userSpaceOnUse" id="clipPath6">
        <path d="M0 0 L250 0 L250 15 L0 15 L0 0 Z" />
      </clipPath>
      <clipPath clipPathUnits="userSpaceOnUse" id="clipPath7">
        <path d="M-4 -4 L128 -4 L128 68 L-4 68 L-4 -4 Z" />
      </clipPath>
      <clipPath clipPathUnits="userSpaceOnUse" id="clipPath8">
        <path d="M0 0 L0 38 L120 38 L120 0 Z" />
      </clipPath>
      <clipPath clipPathUnits="userSpaceOnUse" id="clipPath9">
        <path d="M0 0 L120 0 L120 30 L0 30 L0 0 Z" />
      </clipPath>
      <clipPath clipPathUnits="userSpaceOnUse" id="clipPath10">
        <path d="M-4 -4 L208 -4 L208 98 L-4 98 L-4 -4 Z" />
      </clipPath>
      <clipPath clipPathUnits="userSpaceOnUse" id="clipPath11">
        <path d="M0 0 L0 83 L200 83 L200 0 Z" />
      </clipPath>
      <clipPath clipPathUnits="userSpaceOnUse" id="clipPath12">
        <path d="M0 0 L200 0 L200 15 L0 15 L0 0 Z" />
      </clipPath>
      <clipPath clipPathUnits="userSpaceOnUse" id="clipPath13">
        <path d="M-4 -4 L258 -4 L258 108 L-4 108 L-4 -4 Z" />
      </clipPath>
      <clipPath clipPathUnits="userSpaceOnUse" id="clipPath14">
        <path d="M0 0 L0 93 L250 93 L250 0 Z" />
      </clipPath>
      <clipPath clipPathUnits="userSpaceOnUse" id="clipPath15">
        <path d="M-4 -4 L228 -4 L228 98 L-4 98 L-4 -4 Z" />
      </clipPath>
      <clipPath clipPathUnits="userSpaceOnUse" id="clipPath16">
        <path d="M0 0 L0 83 L220 83 L220 0 Z" />
      </clipPath>
      <clipPath clipPathUnits="userSpaceOnUse" id="clipPath17">
        <path d="M0 0 L220 0 L220 15 L0 15 L0 0 Z" />
      </clipPath>
      <clipPath clipPathUnits="userSpaceOnUse" id="clipPath18">
        <path d="M-4 -4 L188 -4 L188 178 L-4 178 L-4 -4 Z" />
      </clipPath>
      <clipPath clipPathUnits="userSpaceOnUse" id="clipPath19">
        <path d="M0 0 L0 163 L180 163 L180 0 Z" />
      </clipPath>
      <clipPath clipPathUnits="userSpaceOnUse" id="clipPath20">
        <path d="M0 0 L180 0 L180 15 L0 15 L0 0 Z" />
      </clipPath>
      <clipPath clipPathUnits="userSpaceOnUse" id="clipPath21">
        <path d="M-4 -19 L204 -19 L204 97 L-4 97 L-4 -19 Z" />
      </clipPath>
      <clipPath clipPathUnits="userSpaceOnUse" id="clipPath22">
        <path d="M0 0 L0 82 L190 82 L190 0 Z" />
      </clipPath>
      <clipPath clipPathUnits="userSpaceOnUse" id="clipPath23">
        <path d="M0 0 L190 0 L190 15 L0 15 L0 0 Z" />
      </clipPath>
      <clipPath clipPathUnits="userSpaceOnUse" id="clipPath24">
        <path d="M-3 -3 L20 -3 L20 29 L-3 29 L-3 -3 Z" />
      </clipPath>
      <clipPath clipPathUnits="userSpaceOnUse" id="clipPath25">
        <path d="M0 0 L13 0 L13 22 L0 22 L0 0 Z" />
      </clipPath>
      <clipPath clipPathUnits="userSpaceOnUse" id="clipPath26">
        <path d="M-4 -19 L204 -19 L204 127 L-4 127 L-4 -19 Z" />
      </clipPath>
      <clipPath clipPathUnits="userSpaceOnUse" id="clipPath27">
        <path d="M0 0 L0 112 L190 112 L190 0 Z" />
      </clipPath>
      <clipPath clipPathUnits="userSpaceOnUse" id="clipPath28">
        <path d="M-3 -3 L21 -3 L21 28 L-3 28 L-3 -3 Z" />
      </clipPath>
      <clipPath clipPathUnits="userSpaceOnUse" id="clipPath29">
        <path d="M0 0 L14 0 L14 21 L0 21 L0 0 Z" />
      </clipPath>
      <clipPath clipPathUnits="userSpaceOnUse" id="clipPath30">
        <path d="M-3 -3 L47 -3 L47 27 L-3 27 L-3 -3 Z" />
      </clipPath>
      <clipPath clipPathUnits="userSpaceOnUse" id="clipPath31">
        <path d="M-3 -3 L87 -3 L87 27 L-3 27 L-3 -3 Z" />
      </clipPath>
      <clipPath clipPathUnits="userSpaceOnUse" id="clipPath32">
        <path d="M0 0 L184 0 L184 115 L0 115 L0 0 Z" />
      </clipPath>
      <clipPath clipPathUnits="userSpaceOnUse" id="clipPath33">
        <path d="M0 0 L205 0 L205 147 L0 147 L0 0 Z" />
      </clipPath>
      <clipPath clipPathUnits="userSpaceOnUse" id="clipPath34">
        <path d="M0 0 L129 0 L129 198 L0 198 L0 0 Z" />
      </clipPath>
      <clipPath clipPathUnits="userSpaceOnUse" id="clipPath35">
        <path d="M0 0 L174 0 L174 115 L0 115 L0 0 Z" />
      </clipPath>
      <clipPath clipPathUnits="userSpaceOnUse" id="clipPath36">
        <path d="M0 0 L147 0 L147 245 L0 245 L0 0 Z" />
      </clipPath>
      <clipPath clipPathUnits="userSpaceOnUse" id="clipPath37">
        <path d="M0 0 L162 0 L162 219 L0 219 L0 0 Z" />
      </clipPath>
      <clipPath clipPathUnits="userSpaceOnUse" id="clipPath38">
        <path d="M0 0 L171 0 L171 259 L0 259 L0 0 Z" />
      </clipPath>
      <clipPath clipPathUnits="userSpaceOnUse" id="clipPath39">
        <path d="M0 0 L147 0 L147 195 L0 195 L0 0 Z" />
      </clipPath>
      <clipPath clipPathUnits="userSpaceOnUse" id="clipPath40">
        <path d="M0 0 L147 0 L147 235 L0 235 L0 0 Z" />
      </clipPath>
      <clipPath clipPathUnits="userSpaceOnUse" id="clipPath41">
        <path d="M0 0 L40 0 L40 20 L0 20 L0 0 Z" />
      </clipPath>
      <clipPath clipPathUnits="userSpaceOnUse" id="clipPath42">
        <path d="M0 0 L80 0 L80 20 L0 20 L0 0 Z" />
      </clipPath>
    </defs>
    <g style="fill:white; text-rendering:geometricPrecision; stroke:white;">
      <rect x="0" y="0" width="718" style="stroke:none;" height="1008" />
    </g>
    <g transform="translate(344,114)" style="font-size:11; fill:url(#linearGradient1); text-rendering:geometricPrecision; font-family:sans-serif; stroke:url(#linearGradient1); font-weight:bold;">
      <rect x="0" y="0" width="270" style="clip-path:url(#clipPath1); stroke:none;" height="240" />
    </g>
    <g transform="translate(344,114)" style="stroke-linecap:butt; font-size:11; text-rendering:geometricPrecision; stroke-linejoin:round; font-family:sans-serif; font-weight:bold; stroke-width:2; stroke-miterlimit:0;">
      <rect x="0" y="0" width="270" style="clip-path:url(#clipPath1); fill:none;" height="240" />
      <line x1="0" x2="270" y1="15" style="clip-path:url(#clipPath1); fill:none;" y2="15" />
    </g>
    <g style="text-rendering:geometricPrecision; font-size:11; font-family:sans-serif;" transform="translate(344,129)">
      <text x="2" y="14" style="clip-path:url(#clipPath2); stroke:none;" xml:space="preserve">-NB_MAX_RULES_TESTS : int = 100</text>
      <line x1="2" x2="176" y1="16" style="clip-path:url(#clipPath2); fill:none;" y2="16" />
      <text x="2" y="29" style="clip-path:url(#clipPath2); stroke:none;" xml:space="preserve">-MAX_REASONING_TIME : int = 1000</text>
      <line x1="2" x2="179" y1="31" style="clip-path:url(#clipPath2); fill:none;" y2="31" />
      <text x="2" y="44" style="clip-path:url(#clipPath2); stroke:none;" xml:space="preserve">+TOP_PRIORITY : int = 100</text>
      <line x1="2" x2="130" y1="46" style="clip-path:url(#clipPath2); fill:none;" y2="46" />
      <text x="2" y="59" style="clip-path:url(#clipPath2); stroke:none;" xml:space="preserve">+EMERGENCY_PRIORITY : int = 150</text>
      <line x1="2" x2="173" y1="61" style="clip-path:url(#clipPath2); fill:none;" y2="61" />
      <text x="2" y="74" style="clip-path:url(#clipPath2); stroke:none;" xml:space="preserve">+GAUGE_REFILL : double = 0.80</text>
      <line x1="2" x2="158" y1="76" style="clip-path:url(#clipPath2); fill:none;" y2="76" />
      <text x="2" y="89" style="clip-path:url(#clipPath2); stroke:none;" xml:space="preserve">+SURVIVAL_GAUGE_THRESHOLD : double = 0.20</text>
      <line x1="2" x2="245" y1="91" style="clip-path:url(#clipPath2); fill:none;" y2="91" />
      <text x="2" y="104" style="clip-path:url(#clipPath2); stroke:none;" xml:space="preserve">+UNREACHABLE_GOAL_PRIORITY : int = 0</text>
      <line x1="2" x2="210" y1="106" style="clip-path:url(#clipPath2); fill:none;" y2="106" />
      <text x="2" y="119" style="clip-path:url(#clipPath2); stroke:none;" xml:space="preserve">+SURROUNDING_DISTANCE : int = 20</text>
      <line x1="2" x2="182" y1="121" style="clip-path:url(#clipPath2); fill:none;" y2="121" />
      <text x="2" y="134" style="clip-path:url(#clipPath2); stroke:none;" xml:space="preserve">-agent : Agent</text>
    </g>
    <g transform="translate(344,129)" style="stroke-linecap:butt; font-size:11; text-rendering:geometricPrecision; stroke-linejoin:bevel; font-family:sans-serif; stroke-width:2; stroke-miterlimit:0;">
      <line x1="0" x2="270" y1="139" style="clip-path:url(#clipPath2); fill:none;" y2="139" />
    </g>
    <g style="text-rendering:geometricPrecision; font-size:11; font-family:sans-serif;" transform="translate(344,129)">
      <text x="2" y="153" style="clip-path:url(#clipPath2); stroke:none;" xml:space="preserve">+DefaultReasoningModule(agent : Agent)</text>
      <text x="2" y="168" style="clip-path:url(#clipPath2); stroke:none;" xml:space="preserve">+reason() : void</text>
      <text x="2" y="183" style="clip-path:url(#clipPath2); stroke:none;" xml:space="preserve">+applyRules() : void</text>
      <text x="2" y="198" style="clip-path:url(#clipPath2); stroke:none;" xml:space="preserve">+sortGoals() : void</text>
      <text x="2" y="213" style="clip-path:url(#clipPath2); stroke:none;" xml:space="preserve">+getStorageLabel() : String</text>
    </g>
    <g transform="translate(344,114)" style="text-rendering:geometricPrecision; font-size:11; font-weight:bold; font-family:sans-serif;">
      <text x="68" y="12" style="clip-path:url(#clipPath3); stroke:none;" xml:space="preserve">DefaultReasoningModule</text>
    </g>
    <g transform="translate(84,824)" style="font-size:11; fill:url(#linearGradient2); text-rendering:geometricPrecision; font-family:sans-serif; stroke:url(#linearGradient2); font-weight:bold;">
      <rect x="0" y="0" width="250" style="clip-path:url(#clipPath4); stroke:none;" height="180" />
    </g>
    <g transform="translate(84,824)" style="stroke-linecap:butt; font-size:11; text-rendering:geometricPrecision; stroke-linejoin:round; font-family:sans-serif; font-weight:bold; stroke-width:2; stroke-miterlimit:0;">
      <rect x="0" y="0" width="250" style="clip-path:url(#clipPath4); fill:none;" height="180" />
      <line x1="0" x2="250" y1="15" style="clip-path:url(#clipPath4); fill:none;" y2="15" />
    </g>
    <g style="text-rendering:geometricPrecision; font-size:11; font-family:sans-serif;" transform="translate(84,839)">
      <text x="2" y="14" style="clip-path:url(#clipPath5); stroke:none;" xml:space="preserve">&lt;&lt;Property&gt;&gt; -successCondition : String</text>
      <text x="2" y="29" style="clip-path:url(#clipPath5); stroke:none;" xml:space="preserve">&lt;&lt;Property&gt;&gt; -priority : Integer</text>
      <text x="2" y="44" style="clip-path:url(#clipPath5); stroke:none;" xml:space="preserve">&lt;&lt;Property&gt;&gt; -reachable : boolean</text>
      <text x="2" y="59" style="clip-path:url(#clipPath5); stroke:none;" xml:space="preserve">&lt;&lt;Property&gt;&gt; -reached : boolean</text>
    </g>
    <g transform="translate(84,839)" style="stroke-linecap:butt; font-size:11; text-rendering:geometricPrecision; stroke-linejoin:bevel; font-family:sans-serif; stroke-width:2; stroke-miterlimit:0;">
      <line x1="0" x2="250" y1="64" style="clip-path:url(#clipPath5); fill:none;" y2="64" />
    </g>
    <g style="text-rendering:geometricPrecision; font-size:11; font-family:sans-serif;" transform="translate(84,839)">
      <text x="2" y="78" style="clip-path:url(#clipPath5); stroke:none;" xml:space="preserve">+Goal(successCondition : String, priority : int)</text>
      <text x="2" y="93" style="clip-path:url(#clipPath5); stroke:none;" xml:space="preserve">+Goal(successCondition : String)</text>
      <text x="2" y="108" style="clip-path:url(#clipPath5); stroke:none;" xml:space="preserve">+setPriority(priority : int) : void</text>
      <text x="2" y="123" style="clip-path:url(#clipPath5); stroke:none;" xml:space="preserve">+seemsReached(context : JexlContext) : boolean</text>
      <text x="2" y="138" style="clip-path:url(#clipPath5); stroke:none;" xml:space="preserve">+toString() : String</text>
      <text x="2" y="153" style="clip-path:url(#clipPath5); stroke:none;" xml:space="preserve">+clone() : Goal</text>
    </g>
    <g transform="translate(84,824)" style="text-rendering:geometricPrecision; font-size:11; font-weight:bold; font-family:sans-serif;">
      <text x="112" y="12" style="clip-path:url(#clipPath6); stroke:none;" xml:space="preserve">Goal</text>
    </g>
    <g transform="translate(404,4)" style="font-size:11; fill:url(#linearGradient3); text-rendering:geometricPrecision; font-family:sans-serif; stroke:url(#linearGradient3); font-weight:bold;">
      <rect x="0" y="0" width="120" style="clip-path:url(#clipPath7); stroke:none;" height="60" />
    </g>
    <g transform="translate(404,4)" style="stroke-linecap:butt; font-size:11; text-rendering:geometricPrecision; stroke-linejoin:round; font-family:sans-serif; font-weight:bold; stroke-width:2; stroke-miterlimit:0;">
      <rect x="0" y="0" width="120" style="clip-path:url(#clipPath7); fill:none;" height="60" />
      <line x1="0" x2="120" y1="30" style="clip-path:url(#clipPath7); fill:none;" y2="30" />
    </g>
    <g style="text-rendering:geometricPrecision; font-size:11; font-family:sans-serif;" transform="translate(404,34)">
      <text x="2" y="14" style="clip-path:url(#clipPath8); stroke:none;" xml:space="preserve">+reason() : void</text>
    </g>
    <g transform="translate(404,4)" style="text-rendering:geometricPrecision; font-size:11; font-weight:bold; font-family:sans-serif;">
      <text x="23" y="12" style="clip-path:url(#clipPath9); stroke:none;" xml:space="preserve">&lt;&lt;Interface&gt;&gt;</text>
      <text x="12" y="27" style="clip-path:url(#clipPath9); stroke:none;" xml:space="preserve">ReasoningModule</text>
    </g>
    <g transform="translate(4,664)" style="font-size:11; fill:url(#linearGradient4); text-rendering:geometricPrecision; font-family:sans-serif; stroke:url(#linearGradient4); font-weight:bold;">
      <rect x="0" y="0" width="200" style="clip-path:url(#clipPath10); stroke:none;" height="90" />
    </g>
    <g transform="translate(4,664)" style="stroke-linecap:butt; font-size:11; text-rendering:geometricPrecision; stroke-linejoin:round; font-family:sans-serif; font-weight:bold; stroke-width:2; stroke-miterlimit:0;">
      <rect x="0" y="0" width="200" style="clip-path:url(#clipPath10); fill:none;" height="90" />
      <line x1="0" x2="200" y1="15" style="clip-path:url(#clipPath10); fill:none;" y2="15" />
    </g>
    <g style="text-rendering:geometricPrecision; font-size:11; font-family:sans-serif;" transform="translate(4,679)">
      <text x="2" y="14" style="clip-path:url(#clipPath11); stroke:none;" xml:space="preserve">+ChooseGoalToReach(agent : Agent)</text>
      <text x="2" y="29" style="clip-path:url(#clipPath11); stroke:none;" xml:space="preserve">+reset() : void</text>
      <text x="2" y="44" style="clip-path:url(#clipPath11); stroke:none;" xml:space="preserve">#checkConditions() : boolean</text>
      <text x="2" y="59" style="clip-path:url(#clipPath11); stroke:none;" xml:space="preserve">#applyEffects() : void</text>
    </g>
    <g transform="translate(4,664)" style="text-rendering:geometricPrecision; font-size:11; font-weight:bold; font-family:sans-serif;">
      <text x="43" y="12" style="clip-path:url(#clipPath12); stroke:none;" xml:space="preserve">ChooseGoalToReach</text>
    </g>
    <g transform="translate(464,664)" style="font-size:11; fill:url(#linearGradient5); text-rendering:geometricPrecision; font-family:sans-serif; stroke:url(#linearGradient5); font-weight:bold;">
      <rect x="0" y="0" width="250" style="clip-path:url(#clipPath13); stroke:none;" height="100" />
    </g>
    <g transform="translate(464,664)" style="stroke-linecap:butt; font-size:11; text-rendering:geometricPrecision; stroke-linejoin:round; font-family:sans-serif; font-weight:bold; stroke-width:2; stroke-miterlimit:0;">
      <rect x="0" y="0" width="250" style="clip-path:url(#clipPath13); fill:none;" height="100" />
      <line x1="0" x2="250" y1="15" style="clip-path:url(#clipPath13); fill:none;" y2="15" />
    </g>
    <g style="text-rendering:geometricPrecision; font-size:11; font-family:sans-serif;" transform="translate(464,679)">
      <text x="2" y="14" style="clip-path:url(#clipPath14); stroke:none;" xml:space="preserve">+CreateGaugeGoal(agent : Agent)</text>
      <text x="2" y="29" style="clip-path:url(#clipPath14); stroke:none;" xml:space="preserve">+reset() : void</text>
      <text x="2" y="44" style="clip-path:url(#clipPath14); stroke:none;" xml:space="preserve">+checkConditions() : boolean</text>
      <text x="2" y="59" style="clip-path:url(#clipPath14); stroke:none;" xml:space="preserve">+applyEffects() : void</text>
      <text x="2" y="74" style="clip-path:url(#clipPath14); stroke:none;" xml:space="preserve">-createSuccessCondition(gauge : Gauge) : String</text>
    </g>
    <g transform="translate(464,664)" style="text-rendering:geometricPrecision; font-size:11; font-weight:bold; font-family:sans-serif;">
      <text x="78" y="12" style="clip-path:url(#clipPath6); stroke:none;" xml:space="preserve">CreateGaugeGoal</text>
    </g>
    <g transform="translate(494,404)" style="font-size:11; fill:url(#linearGradient6); text-rendering:geometricPrecision; font-family:sans-serif; stroke:url(#linearGradient6); font-weight:bold;">
      <rect x="0" y="0" width="220" style="clip-path:url(#clipPath15); stroke:none;" height="90" />
    </g>
    <g transform="translate(494,404)" style="stroke-linecap:butt; font-size:11; text-rendering:geometricPrecision; stroke-linejoin:round; font-family:sans-serif; font-weight:bold; stroke-width:2; stroke-miterlimit:0;">
      <rect x="0" y="0" width="220" style="clip-path:url(#clipPath15); fill:none;" height="90" />
      <line x1="0" x2="220" y1="15" style="clip-path:url(#clipPath15); fill:none;" y2="15" />
    </g>
    <g style="text-rendering:geometricPrecision; font-size:11; font-family:sans-serif;" transform="translate(494,419)">
      <text x="2" y="14" style="clip-path:url(#clipPath16); stroke:none;" xml:space="preserve">+PenalizeUnreachableGoal(agent : Agent)</text>
      <text x="2" y="29" style="clip-path:url(#clipPath16); stroke:none;" xml:space="preserve">+reset() : void</text>
      <text x="2" y="44" style="clip-path:url(#clipPath16); stroke:none;" xml:space="preserve">+checkConditions() : boolean</text>
      <text x="2" y="59" style="clip-path:url(#clipPath16); stroke:none;" xml:space="preserve">+applyEffects() : void</text>
    </g>
    <g transform="translate(494,404)" style="text-rendering:geometricPrecision; font-size:11; font-weight:bold; font-family:sans-serif;">
      <text x="42" y="12" style="clip-path:url(#clipPath17); stroke:none;" xml:space="preserve">PenalizeUnreachableGoal</text>
    </g>
    <g transform="translate(224,664)" style="font-size:11; fill:url(#linearGradient7); text-rendering:geometricPrecision; font-family:sans-serif; stroke:url(#linearGradient7); font-weight:bold;">
      <rect x="0" y="0" width="220" style="clip-path:url(#clipPath15); stroke:none;" height="90" />
    </g>
    <g transform="translate(224,664)" style="stroke-linecap:butt; font-size:11; text-rendering:geometricPrecision; stroke-linejoin:round; font-family:sans-serif; font-weight:bold; stroke-width:2; stroke-miterlimit:0;">
      <rect x="0" y="0" width="220" style="clip-path:url(#clipPath15); fill:none;" height="90" />
      <line x1="0" x2="220" y1="15" style="clip-path:url(#clipPath15); fill:none;" y2="15" />
    </g>
    <g style="text-rendering:geometricPrecision; font-size:11; font-family:sans-serif;" transform="translate(224,679)">
      <text x="2" y="14" style="clip-path:url(#clipPath16); stroke:none;" xml:space="preserve">+RemoveGoalSameGauge(agent : Agent)</text>
      <text x="2" y="29" style="clip-path:url(#clipPath16); stroke:none;" xml:space="preserve">+reset() : void</text>
      <text x="2" y="44" style="clip-path:url(#clipPath16); stroke:none;" xml:space="preserve">+checkConditions() : boolean</text>
      <text x="2" y="59" style="clip-path:url(#clipPath16); stroke:none;" xml:space="preserve">+applyEffects() : void</text>
    </g>
    <g transform="translate(224,664)" style="text-rendering:geometricPrecision; font-size:11; font-weight:bold; font-family:sans-serif;">
      <text x="44" y="12" style="clip-path:url(#clipPath17); stroke:none;" xml:space="preserve">RemoveGoalSameGauge</text>
    </g>
    <g transform="translate(504,524)" style="font-size:11; fill:url(#linearGradient8); text-rendering:geometricPrecision; font-family:sans-serif; stroke:url(#linearGradient8); font-weight:bold;">
      <rect x="0" y="0" width="200" style="clip-path:url(#clipPath10); stroke:none;" height="90" />
    </g>
    <g transform="translate(504,524)" style="stroke-linecap:butt; font-size:11; text-rendering:geometricPrecision; stroke-linejoin:round; font-family:sans-serif; font-weight:bold; stroke-width:2; stroke-miterlimit:0;">
      <rect x="0" y="0" width="200" style="clip-path:url(#clipPath10); fill:none;" height="90" />
      <line x1="0" x2="200" y1="15" style="clip-path:url(#clipPath10); fill:none;" y2="15" />
    </g>
    <g style="text-rendering:geometricPrecision; font-size:11; font-family:sans-serif;" transform="translate(504,539)">
      <text x="2" y="14" style="clip-path:url(#clipPath11); stroke:none;" xml:space="preserve">+RemoveReachedGoal(agent : Agent)</text>
      <text x="2" y="29" style="clip-path:url(#clipPath11); stroke:none;" xml:space="preserve">+reset() : void</text>
      <text x="2" y="44" style="clip-path:url(#clipPath11); stroke:none;" xml:space="preserve">+checkConditions() : boolean</text>
      <text x="2" y="59" style="clip-path:url(#clipPath11); stroke:none;" xml:space="preserve">+applyEffects() : void</text>
    </g>
    <g transform="translate(504,524)" style="text-rendering:geometricPrecision; font-size:11; font-weight:bold; font-family:sans-serif;">
      <text x="42" y="12" style="clip-path:url(#clipPath12); stroke:none;" xml:space="preserve">RemoveReachedGoal</text>
    </g>
    <g transform="translate(104,214)" style="font-size:11; fill:url(#linearGradient9); text-rendering:geometricPrecision; font-family:sans-serif; stroke:url(#linearGradient9); font-weight:bold;">
      <rect x="0" y="0" width="180" style="clip-path:url(#clipPath18); stroke:none;" height="170" />
    </g>
    <g transform="translate(104,214)" style="stroke-linecap:butt; font-size:11; text-rendering:geometricPrecision; stroke-linejoin:round; font-family:sans-serif; font-weight:bold; stroke-width:2; stroke-miterlimit:0;">
      <rect x="0" y="0" width="180" style="clip-path:url(#clipPath18); fill:none;" height="170" />
      <line x1="0" x2="180" y1="15" style="clip-path:url(#clipPath18); fill:none;" y2="15" />
    </g>
    <g style="text-rendering:geometricPrecision; font-size:11; font-family:sans-serif;" transform="translate(104,229)">
      <text x="2" y="14" style="clip-path:url(#clipPath19); stroke:none;" xml:space="preserve">#agent : Agent</text>
    </g>
    <g transform="translate(104,229)" style="stroke-linecap:butt; font-size:11; text-rendering:geometricPrecision; stroke-linejoin:bevel; font-family:sans-serif; stroke-width:2; stroke-miterlimit:0;">
      <line x1="0" x2="180" y1="19" style="clip-path:url(#clipPath19); fill:none;" y2="19" />
    </g>
    <g style="text-rendering:geometricPrecision; font-size:11; font-family:sans-serif;" transform="translate(104,229)">
      <text x="2" y="33" style="clip-path:url(#clipPath19); stroke:none;" xml:space="preserve">+Rule(agent : Agent)</text>
      <text x="2" y="48" style="clip-path:url(#clipPath19); stroke:none;" xml:space="preserve">+isApplicable() : boolean</text>
      <text x="2" y="63" style="clip-path:url(#clipPath19); font-style:italic; stroke:none;" xml:space="preserve">+reset() : void</text>
      <text x="2" y="78" style="clip-path:url(#clipPath19); font-style:italic; stroke:none;" xml:space="preserve">#hasElementsToCheck() : boolean</text>
      <text x="2" y="93" style="clip-path:url(#clipPath19); font-style:italic; stroke:none;" xml:space="preserve">#checkConditions() : boolean</text>
      <text x="2" y="108" style="clip-path:url(#clipPath19); stroke:none;" xml:space="preserve">+apply() : void</text>
      <text x="2" y="123" style="clip-path:url(#clipPath19); font-style:italic; stroke:none;" xml:space="preserve">#applyEffects() : void</text>
      <text x="2" y="138" style="clip-path:url(#clipPath19); font-style:italic; stroke:none;" xml:space="preserve">#removeElements() : void</text>
    </g>
    <g transform="translate(104,214)" style="font-size:11; text-rendering:geometricPrecision; font-family:sans-serif; font-style:italic; font-weight:bold;">
      <text x="78" y="12" style="clip-path:url(#clipPath20); stroke:none;" xml:space="preserve">Rule</text>
    </g>
    <g transform="translate(244,485)" style="font-size:11; fill:url(#linearGradient10); text-rendering:geometricPrecision; font-family:sans-serif; stroke:url(#linearGradient10); font-weight:bold;">
      <rect x="0" y="0" width="190" style="clip-path:url(#clipPath21); stroke:none;" height="90" />
    </g>
    <g transform="translate(244,485)" style="stroke-linecap:butt; font-size:11; text-rendering:geometricPrecision; stroke-linejoin:round; font-family:sans-serif; font-weight:bold; stroke-width:2; stroke-miterlimit:0;">
      <rect x="0" y="0" width="190" style="clip-path:url(#clipPath21); fill:none;" height="90" />
      <line x1="0" x2="190" y1="15" style="clip-path:url(#clipPath21); fill:none;" y2="15" />
    </g>
    <g style="text-rendering:geometricPrecision; font-size:11; font-family:sans-serif;" transform="translate(244,500)">
      <text x="2" y="14" style="clip-path:url(#clipPath22); stroke:none;" xml:space="preserve">#elementsToCheck : List&lt;T&gt;</text>
    </g>
    <g transform="translate(244,500)" style="stroke-linecap:butt; font-size:11; text-rendering:geometricPrecision; stroke-linejoin:bevel; font-family:sans-serif; stroke-width:2; stroke-miterlimit:0;">
      <line x1="0" x2="190" y1="19" style="clip-path:url(#clipPath22); fill:none;" y2="19" />
    </g>
    <g style="text-rendering:geometricPrecision; font-size:11; font-family:sans-serif;" transform="translate(244,500)">
      <text x="2" y="33" style="clip-path:url(#clipPath22); stroke:none;" xml:space="preserve">+SameElementsRule(agent : Agent)</text>
      <text x="2" y="48" style="clip-path:url(#clipPath22); stroke:none;" xml:space="preserve">#hasElementsToCheck() : boolean</text>
      <text x="2" y="63" style="clip-path:url(#clipPath22); stroke:none;" xml:space="preserve">#removeElements() : void</text>
    </g>
    <g transform="translate(244,485)" style="font-size:11; text-rendering:geometricPrecision; font-family:sans-serif; font-style:italic; font-weight:bold;">
      <text x="43" y="12" style="clip-path:url(#clipPath23); stroke:none;" xml:space="preserve">SameElementsRule</text>
    </g>
    <g transform="translate(431,466)" style="font-size:11; fill:white; text-rendering:geometricPrecision; font-family:sans-serif; stroke:white;">
      <rect x="0" y="0" width="12" style="clip-path:url(#clipPath24); stroke:none;" height="21" />
    </g>
    <g transform="translate(431,466)" style="stroke-linecap:butt; font-size:11; text-rendering:geometricPrecision; stroke-linejoin:bevel; font-family:sans-serif; stroke-dasharray:8,3; stroke-miterlimit:0;">
      <rect x="0" y="0" width="12" style="clip-path:url(#clipPath24); fill:none;" height="21" />
    </g>
    <g transform="translate(431,466)" style="stroke-linecap:butt; font-size:11; text-rendering:geometricPrecision; stroke-linejoin:bevel; font-family:sans-serif; stroke-dasharray:8,3; stroke-miterlimit:0;">
      <text x="3" y="15" style="clip-path:url(#clipPath25); stroke:none;" xml:space="preserve">T</text>
    </g>
    <g transform="translate(14,475)" style="font-size:11; fill:url(#linearGradient11); text-rendering:geometricPrecision; font-family:sans-serif; stroke:url(#linearGradient11); font-weight:bold;">
      <rect x="0" y="0" width="190" style="clip-path:url(#clipPath26); stroke:none;" height="120" />
    </g>
    <g transform="translate(14,475)" style="stroke-linecap:butt; font-size:11; text-rendering:geometricPrecision; stroke-linejoin:round; font-family:sans-serif; font-weight:bold; stroke-width:2; stroke-miterlimit:0;">
      <rect x="0" y="0" width="190" style="clip-path:url(#clipPath26); fill:none;" height="120" />
      <line x1="0" x2="190" y1="15" style="clip-path:url(#clipPath26); fill:none;" y2="15" />
    </g>
    <g style="text-rendering:geometricPrecision; font-size:11; font-family:sans-serif;" transform="translate(14,490)">
      <text x="2" y="14" style="clip-path:url(#clipPath27); stroke:none;" xml:space="preserve">#element : T</text>
      <text x="2" y="29" style="clip-path:url(#clipPath27); stroke:none;" xml:space="preserve">-elementChecked : boolean</text>
    </g>
    <g transform="translate(14,490)" style="stroke-linecap:butt; font-size:11; text-rendering:geometricPrecision; stroke-linejoin:bevel; font-family:sans-serif; stroke-width:2; stroke-miterlimit:0;">
      <line x1="0" x2="190" y1="34" style="clip-path:url(#clipPath27); fill:none;" y2="34" />
    </g>
    <g style="text-rendering:geometricPrecision; font-size:11; font-family:sans-serif;" transform="translate(14,490)">
      <text x="2" y="48" style="clip-path:url(#clipPath27); stroke:none;" xml:space="preserve">+UniqueElementRule(agent : Agent)</text>
      <text x="2" y="63" style="clip-path:url(#clipPath27); stroke:none;" xml:space="preserve">+reset() : void</text>
      <text x="2" y="78" style="clip-path:url(#clipPath27); stroke:none;" xml:space="preserve">#hasElementsToCheck() : boolean</text>
      <text x="2" y="93" style="clip-path:url(#clipPath27); stroke:none;" xml:space="preserve">#removeElements() : void</text>
    </g>
    <g transform="translate(14,475)" style="font-size:11; text-rendering:geometricPrecision; font-family:sans-serif; font-style:italic; font-weight:bold;">
      <text x="43" y="12" style="clip-path:url(#clipPath23); stroke:none;" xml:space="preserve">UniqueElementRule</text>
    </g>
    <g transform="translate(200,456)" style="font-size:11; fill:white; text-rendering:geometricPrecision; font-family:sans-serif; stroke:white;">
      <rect x="0" y="0" width="13" style="clip-path:url(#clipPath28); stroke:none;" height="20" />
    </g>
    <g transform="translate(200,456)" style="stroke-linecap:butt; font-size:11; text-rendering:geometricPrecision; stroke-linejoin:bevel; font-family:sans-serif; stroke-dasharray:8,3; stroke-miterlimit:0;">
      <rect x="0" y="0" width="13" style="clip-path:url(#clipPath28); fill:none;" height="20" />
    </g>
    <g transform="translate(200,456)" style="stroke-linecap:butt; font-size:11; text-rendering:geometricPrecision; stroke-linejoin:bevel; font-family:sans-serif; stroke-dasharray:8,3; stroke-miterlimit:0;">
      <text x="3" y="15" style="clip-path:url(#clipPath29); stroke:none;" xml:space="preserve">T</text>
    </g>
    <g transform="translate(378,498)" style="stroke-linecap:butt; font-size:11; text-rendering:geometricPrecision; font-family:sans-serif; stroke-linejoin:round; stroke-width:2;">
      <line x1="56" x2="124" y1="56" style="clip-path:url(#clipPath32); fill:none;" y2="56" />
      <polygon style="fill:white; clip-path:url(#clipPath32); stroke:none;" points=" 56 56 69 63 69 48" />
      <polygon style="fill:none; clip-path:url(#clipPath32);" points=" 56 56 69 63 69 48" />
    </g>
    <g transform="translate(213,193)" style="stroke-linecap:butt; font-size:11; text-rendering:geometricPrecision; font-family:sans-serif; stroke-linejoin:round; stroke-width:2;">
      <line x1="102" x2="71" y1="71" style="clip-path:url(#clipPath33); fill:none;" y2="71" />
      <polygon style="fill:none; clip-path:url(#clipPath33);" points=" 130 71 116 63 102 71 116 78" />
    </g>
    <g transform="translate(202,692)" style="stroke-linecap:butt; font-size:11; text-rendering:geometricPrecision; font-family:sans-serif; stroke-linejoin:round; stroke-width:2;">
      <line x1="63" x2="63" y1="91" style="clip-path:url(#clipPath34); fill:none;" y2="131" />
      <polygon style="fill:none; clip-path:url(#clipPath34);" points=" 63 63 55 76 63 91 70 76" />
    </g>
    <g transform="translate(378,430)" style="stroke-linecap:butt; font-size:11; text-rendering:geometricPrecision; font-family:sans-serif; stroke-linejoin:round; stroke-width:2;">
      <line x1="56" x2="114" y1="56" style="clip-path:url(#clipPath35); fill:none;" y2="56" />
      <polygon style="fill:white; clip-path:url(#clipPath35); stroke:none;" points=" 56 56 69 63 69 48" />
      <polygon style="fill:none; clip-path:url(#clipPath35);" points=" 56 56 69 63 69 48" />
    </g>
    <g transform="translate(173,313)" style="stroke-linecap:butt; font-size:11; text-rendering:geometricPrecision; font-family:sans-serif; stroke-linejoin:round; stroke-width:2;">
      <line x1="71" x2="71" y1="71" style="clip-path:url(#clipPath36); fill:none;" y2="170" />
      <polygon style="fill:white; clip-path:url(#clipPath36); stroke:none;" points=" 71 71 63 84 78 84" />
      <polygon style="fill:none; clip-path:url(#clipPath36);" points=" 71 71 63 84 78 84" />
    </g>
    <g transform="translate(370,512)" style="stroke-linecap:butt; font-size:11; text-rendering:geometricPrecision; font-family:sans-serif; stroke-linejoin:round; stroke-width:2;">
      <line x1="63" x2="95" y1="63" style="clip-path:url(#clipPath37); fill:none;" y2="153" />
      <polygon style="fill:white; clip-path:url(#clipPath37); stroke:none;" points=" 63 63 60 77 74 73" />
      <polygon style="fill:none; clip-path:url(#clipPath37);" points=" 63 63 60 77 74 73" />
    </g>
    <g transform="translate(42,532)" style="stroke-linecap:butt; font-size:11; text-rendering:geometricPrecision; font-family:sans-serif; stroke-linejoin:round; stroke-width:2;">
      <line x1="63" x2="63" y1="63" style="clip-path:url(#clipPath34); fill:none;" y2="131" />
      <polygon style="fill:white; clip-path:url(#clipPath34); stroke:none;" points=" 63 63 55 76 70 76" />
      <polygon style="fill:none; clip-path:url(#clipPath34);" points=" 63 63 55 76 70 76" />
    </g>
    <g transform="translate(351,491)" style="stroke-linecap:butt; font-size:11; text-rendering:geometricPrecision; font-family:sans-serif; stroke-linejoin:round; stroke-width:2;">
      <line x1="83" x2="83" y1="83" style="clip-path:url(#clipPath38); fill:none;" y2="172" />
      <polygon style="fill:white; clip-path:url(#clipPath38); stroke:none;" points=" 83 83 75 96 90 96" />
      <polygon style="fill:none; clip-path:url(#clipPath38);" points=" 83 83 75 96 90 96" />
    </g>
    <g transform="translate(383,-7)" style="stroke-linecap:butt; font-size:11; stroke-dashoffset:1; text-rendering:geometricPrecision; stroke-linejoin:round; font-family:sans-serif; stroke-dasharray:5; stroke-width:2;">
      <line x1="71" x2="71" y1="71" style="clip-path:url(#clipPath39); fill:none;" y2="120" />
    </g>
    <g transform="translate(383,-7)" style="stroke-linecap:butt; font-size:11; fill:white; text-rendering:geometricPrecision; stroke-linejoin:round; font-family:sans-serif; stroke:white; stroke-width:2;">
      <polygon style="clip-path:url(#clipPath39); stroke:none;" points=" 71 71 63 84 78 84" />
      <polygon style="fill:none; clip-path:url(#clipPath39); stroke:black;" points=" 71 71 63 84 78 84" />
    </g>
    <g transform="translate(72,692)" style="stroke-linecap:butt; font-size:11; text-rendering:geometricPrecision; font-family:sans-serif; stroke-linejoin:round; stroke-width:2;">
      <line x1="63" x2="63" y1="91" style="clip-path:url(#clipPath34); fill:none;" y2="131" />
      <polygon style="fill:none; clip-path:url(#clipPath34);" points=" 63 63 55 76 63 91 70 76" />
    </g>
    <g transform="translate(93,313)" style="stroke-linecap:butt; font-size:11; text-rendering:geometricPrecision; font-family:sans-serif; stroke-linejoin:round; stroke-width:2;">
      <line x1="71" x2="71" y1="71" style="clip-path:url(#clipPath40); fill:none;" y2="160" />
      <polygon style="fill:white; clip-path:url(#clipPath40); stroke:none;" points=" 71 71 63 84 78 84" />
      <polygon style="fill:none; clip-path:url(#clipPath40);" points=" 71 71 63 84 78 84" />
    </g>
    <g style="text-rendering:geometricPrecision; font-size:11; font-family:sans-serif;" transform="translate(94,814)">
      <text x="17" y="14" style="clip-path:url(#clipPath41); stroke:none;" xml:space="preserve">1</text>
    </g>
    <g style="text-rendering:geometricPrecision; font-size:11; font-family:sans-serif;" transform="translate(134,804)">
      <text x="6" y="14" style="clip-path:url(#clipPath42); stroke:none;" xml:space="preserve">-goalToReach</text>
    </g>
    <g style="text-rendering:geometricPrecision; font-size:11; font-family:sans-serif;" transform="translate(234,804)">
      <text x="17" y="14" style="clip-path:url(#clipPath41); stroke:none;" xml:space="preserve">1</text>
    </g>
    <g style="text-rendering:geometricPrecision; font-size:11; font-family:sans-serif;" transform="translate(274,804)">
      <text x="6" y="14" style="clip-path:url(#clipPath42); stroke:none;" xml:space="preserve">-goalToDelete</text>
    </g>
    <g style="text-rendering:geometricPrecision; font-size:11; font-family:sans-serif;" transform="translate(284,244)">
      <text x="18" y="14" style="clip-path:url(#clipPath41); stroke:none;" xml:space="preserve">*</text>
    </g>
    <g style="text-rendering:geometricPrecision; font-size:11; font-family:sans-serif;" transform="translate(284,264)">
      <text x="6" y="14" style="clip-path:url(#clipPath41); stroke:none;" xml:space="preserve">-rules</text>
    </g>
  </g>
</svg>
