<?xml version="1.0" encoding="UTF-8"?>

<!DOCTYPE svg PUBLIC '-//W3C//DTD SVG 1.0//EN' 'http://www.w3.org/TR/2001/REC-SVG-20010904/DTD/svg10.dtd'>
<svg style="fill-opacity:1; color-rendering:auto; color-interpolation:auto; text-rendering:auto; stroke:black; stroke-linecap:square; stroke-miterlimit:10; shape-rendering:auto; stroke-opacity:1; fill:black; stroke-dasharray:none; font-weight:normal; stroke-width:1; font-family:&apos;Dialog&apos;; font-style:normal; stroke-linejoin:miter; font-size:12; stroke-dashoffset:0; image-rendering:auto;" xmlns="http://www.w3.org/2000/svg" width="509" xmlns:xlink="http://www.w3.org/1999/xlink" height="1046">
  <!--Generated by the Batik Graphics2D SVG Generator-->
  <defs id="genericDefs" />
  <g>
    <defs id="defs1">
      <linearGradient x1="220" gradientUnits="userSpaceOnUse" x2="220" y1="90" y2="0" id="linearGradient1" spreadMethod="reflect">
        <stop style="stop-opacity:0.498; stop-color:rgb(255,255,0);" offset="0%" />
        <stop style="stop-opacity:0.498; stop-color:rgb(255,255,255);" offset="100%" />
      </linearGradient>
      <linearGradient x1="220" gradientUnits="userSpaceOnUse" x2="220" y1="90" y2="0" id="linearGradient2" spreadMethod="reflect">
        <stop style="stop-opacity:0.498; stop-color:rgb(255,255,0);" offset="0%" />
        <stop style="stop-opacity:0.498; stop-color:rgb(255,255,255);" offset="100%" />
      </linearGradient>
      <linearGradient x1="220" gradientUnits="userSpaceOnUse" x2="220" y1="90" y2="0" id="linearGradient3" spreadMethod="reflect">
        <stop style="stop-opacity:0.498; stop-color:rgb(255,255,0);" offset="0%" />
        <stop style="stop-opacity:0.498; stop-color:rgb(255,255,255);" offset="100%" />
      </linearGradient>
      <linearGradient x1="90" gradientUnits="userSpaceOnUse" x2="90" y1="80" y2="0" id="linearGradient4" spreadMethod="reflect">
        <stop style="stop-opacity:0.498; stop-color:rgb(255,255,0);" offset="0%" />
        <stop style="stop-opacity:0.498; stop-color:rgb(255,255,255);" offset="100%" />
      </linearGradient>
      <linearGradient x1="115" gradientUnits="userSpaceOnUse" x2="115" y1="70" y2="0" id="linearGradient5" spreadMethod="reflect">
        <stop style="stop-opacity:0.498; stop-color:rgb(0,255,255);" offset="0%" />
        <stop style="stop-opacity:0.498; stop-color:rgb(255,255,255);" offset="100%" />
      </linearGradient>
      <linearGradient x1="204" gradientUnits="userSpaceOnUse" x2="204" y1="90" y2="0" id="linearGradient6" spreadMethod="reflect">
        <stop style="stop-opacity:0.498; stop-color:rgb(255,255,0);" offset="0%" />
        <stop style="stop-opacity:0.498; stop-color:rgb(255,255,255);" offset="100%" />
      </linearGradient>
      <linearGradient x1="150" gradientUnits="userSpaceOnUse" x2="150" y1="60" y2="0" id="linearGradient7" spreadMethod="reflect">
        <stop style="stop-opacity:0.498; stop-color:rgb(255,255,0);" offset="0%" />
        <stop style="stop-opacity:0.498; stop-color:rgb(255,255,255);" offset="100%" />
      </linearGradient>
      <linearGradient x1="155" gradientUnits="userSpaceOnUse" x2="155" y1="90" y2="0" id="linearGradient8" spreadMethod="reflect">
        <stop style="stop-opacity:0.498; stop-color:rgb(255,255,0);" offset="0%" />
        <stop style="stop-opacity:0.498; stop-color:rgb(255,255,255);" offset="100%" />
      </linearGradient>
      <clipPath clipPathUnits="userSpaceOnUse" id="clipPath1">
        <path d="M-4 -4 L448 -4 L448 98 L-4 98 L-4 -4 Z" />
      </clipPath>
      <clipPath clipPathUnits="userSpaceOnUse" id="clipPath2">
        <path d="M0 0 L0 83 L440 83 L440 0 Z" />
      </clipPath>
      <clipPath clipPathUnits="userSpaceOnUse" id="clipPath3">
        <path d="M0 0 L440 0 L440 15 L0 15 L0 0 Z" />
      </clipPath>
      <clipPath clipPathUnits="userSpaceOnUse" id="clipPath4">
        <path d="M-4 -4 L188 -4 L188 88 L-4 88 L-4 -4 Z" />
      </clipPath>
      <clipPath clipPathUnits="userSpaceOnUse" id="clipPath5">
        <path d="M0 0 L0 73 L180 73 L180 0 Z" />
      </clipPath>
      <clipPath clipPathUnits="userSpaceOnUse" id="clipPath6">
        <path d="M0 0 L180 0 L180 15 L0 15 L0 0 Z" />
      </clipPath>
      <clipPath clipPathUnits="userSpaceOnUse" id="clipPath7">
        <path d="M-4 -4 L238 -4 L238 78 L-4 78 L-4 -4 Z" />
      </clipPath>
      <clipPath clipPathUnits="userSpaceOnUse" id="clipPath8">
        <path d="M0 0 L0 40 L230 40 L230 0 Z" />
      </clipPath>
      <clipPath clipPathUnits="userSpaceOnUse" id="clipPath9">
        <path d="M0 0 L230 0 L230 30 L0 30 L0 0 Z" />
      </clipPath>
      <clipPath clipPathUnits="userSpaceOnUse" id="clipPath10">
        <path d="M-4 -4 L416 -4 L416 98 L-4 98 L-4 -4 Z" />
      </clipPath>
      <clipPath clipPathUnits="userSpaceOnUse" id="clipPath11">
        <path d="M0 0 L0 83 L408 83 L408 0 Z" />
      </clipPath>
      <clipPath clipPathUnits="userSpaceOnUse" id="clipPath12">
        <path d="M0 0 L408 0 L408 15 L0 15 L0 0 Z" />
      </clipPath>
      <clipPath clipPathUnits="userSpaceOnUse" id="clipPath13">
        <path d="M-4 -4 L308 -4 L308 68 L-4 68 L-4 -4 Z" />
      </clipPath>
      <clipPath clipPathUnits="userSpaceOnUse" id="clipPath14">
        <path d="M0 0 L0 53 L300 53 L300 0 Z" />
      </clipPath>
      <clipPath clipPathUnits="userSpaceOnUse" id="clipPath15">
        <path d="M0 0 L300 0 L300 15 L0 15 L0 0 Z" />
      </clipPath>
      <clipPath clipPathUnits="userSpaceOnUse" id="clipPath16">
        <path d="M-4 -4 L318 -4 L318 98 L-4 98 L-4 -4 Z" />
      </clipPath>
      <clipPath clipPathUnits="userSpaceOnUse" id="clipPath17">
        <path d="M0 0 L0 83 L310 83 L310 0 Z" />
      </clipPath>
      <clipPath clipPathUnits="userSpaceOnUse" id="clipPath18">
        <path d="M0 0 L310 0 L310 15 L0 15 L0 0 Z" />
      </clipPath>
      <clipPath clipPathUnits="userSpaceOnUse" id="clipPath19">
        <path d="M0 0 L205 0 L205 964 L0 964 L0 0 Z" />
      </clipPath>
      <clipPath clipPathUnits="userSpaceOnUse" id="clipPath20">
        <path d="M0 0 L185 0 L185 806 L0 806 L0 0 Z" />
      </clipPath>
      <clipPath clipPathUnits="userSpaceOnUse" id="clipPath21">
        <path d="M0 0 L496 0 L496 761 L0 761 L0 0 Z" />
      </clipPath>
      <clipPath clipPathUnits="userSpaceOnUse" id="clipPath22">
        <path d="M0 0 L204 0 L204 294 L0 294 L0 0 Z" />
      </clipPath>
      <clipPath clipPathUnits="userSpaceOnUse" id="clipPath23">
        <path d="M0 0 L406 0 L406 454 L0 454 L0 0 Z" />
      </clipPath>
      <clipPath clipPathUnits="userSpaceOnUse" id="clipPath24">
        <path d="M0 0 L165 0 L165 516 L0 516 L0 0 Z" />
      </clipPath>
      <clipPath clipPathUnits="userSpaceOnUse" id="clipPath25">
        <path d="M0 0 L254 0 L254 314 L0 314 L0 0 Z" />
      </clipPath>
    </defs>
    <g style="fill:white; text-rendering:geometricPrecision; stroke:white;">
      <rect x="0" y="0" width="509" style="stroke:none;" height="1046" />
    </g>
    <g transform="translate(63,950)" style="font-size:11; fill:url(#linearGradient1); text-rendering:geometricPrecision; font-family:sans-serif; stroke:url(#linearGradient1); font-weight:bold;">
      <rect x="0" y="0" width="440" style="clip-path:url(#clipPath1); stroke:none;" height="90" />
    </g>
    <g transform="translate(63,950)" style="stroke-linecap:butt; font-size:11; text-rendering:geometricPrecision; stroke-linejoin:round; font-family:sans-serif; font-weight:bold; stroke-width:2; stroke-miterlimit:0;">
      <rect x="0" y="0" width="440" style="clip-path:url(#clipPath1); fill:none;" height="90" />
      <line x1="0" x2="440" y1="15" style="clip-path:url(#clipPath1); fill:none;" y2="15" />
    </g>
    <g style="text-rendering:geometricPrecision; font-size:11; font-family:sans-serif;" transform="translate(63,965)">
      <text x="2" y="14" style="clip-path:url(#clipPath2); stroke:none;" xml:space="preserve">-objectId : long</text>
      <text x="2" y="29" style="clip-path:url(#clipPath2); stroke:none;" xml:space="preserve">-condition : Condition</text>
    </g>
    <g transform="translate(63,965)" style="stroke-linecap:butt; font-size:11; text-rendering:geometricPrecision; stroke-linejoin:bevel; font-family:sans-serif; stroke-width:2; stroke-miterlimit:0;">
      <line x1="0" x2="440" y1="34" style="clip-path:url(#clipPath2); fill:none;" y2="34" />
    </g>
    <g style="text-rendering:geometricPrecision; font-size:11; font-family:sans-serif;" transform="translate(63,965)">
      <text x="2" y="48" style="clip-path:url(#clipPath2); stroke:none;" xml:space="preserve">+CanYouMakeItNoAnswerMessage(agent : Agent, condition : Condition, objectId : long)</text>
      <text x="2" y="63" style="clip-path:url(#clipPath2); stroke:none;" xml:space="preserve">+toString() : String</text>
    </g>
    <g transform="translate(63,950)" style="text-rendering:geometricPrecision; font-size:11; font-weight:bold; font-family:sans-serif;">
      <text x="131" y="12" style="clip-path:url(#clipPath3); stroke:none;" xml:space="preserve">CanYouMakeItNoAnswerMessage</text>
    </g>
    <g transform="translate(63,690)" style="font-size:11; fill:url(#linearGradient2); text-rendering:geometricPrecision; font-family:sans-serif; stroke:url(#linearGradient2); font-weight:bold;">
      <rect x="0" y="0" width="440" style="clip-path:url(#clipPath1); stroke:none;" height="90" />
    </g>
    <g transform="translate(63,690)" style="stroke-linecap:butt; font-size:11; text-rendering:geometricPrecision; stroke-linejoin:round; font-family:sans-serif; font-weight:bold; stroke-width:2; stroke-miterlimit:0;">
      <rect x="0" y="0" width="440" style="clip-path:url(#clipPath1); fill:none;" height="90" />
      <line x1="0" x2="440" y1="15" style="clip-path:url(#clipPath1); fill:none;" y2="15" />
    </g>
    <g style="text-rendering:geometricPrecision; font-size:11; font-family:sans-serif;" transform="translate(63,705)">
      <text x="2" y="14" style="clip-path:url(#clipPath2); stroke:none;" xml:space="preserve">&lt;&lt;Property&gt;&gt; -objectId : long</text>
      <text x="2" y="29" style="clip-path:url(#clipPath2); stroke:none;" xml:space="preserve">&lt;&lt;Property&gt;&gt; -condition : Condition</text>
    </g>
    <g transform="translate(63,705)" style="stroke-linecap:butt; font-size:11; text-rendering:geometricPrecision; stroke-linejoin:bevel; font-family:sans-serif; stroke-width:2; stroke-miterlimit:0;">
      <line x1="0" x2="440" y1="34" style="clip-path:url(#clipPath2); fill:none;" y2="34" />
    </g>
    <g style="text-rendering:geometricPrecision; font-size:11; font-family:sans-serif;" transform="translate(63,705)">
      <text x="2" y="48" style="clip-path:url(#clipPath2); stroke:none;" xml:space="preserve">+CanYouMakeItQuestionMessage(sender : Agent, objectId : long, condition : Condition)</text>
      <text x="2" y="63" style="clip-path:url(#clipPath2); stroke:none;" xml:space="preserve">+toString() : String</text>
    </g>
    <g transform="translate(63,690)" style="text-rendering:geometricPrecision; font-size:11; font-weight:bold; font-family:sans-serif;">
      <text x="135" y="12" style="clip-path:url(#clipPath3); stroke:none;" xml:space="preserve">CanYouMakeItQuestionMessage</text>
    </g>
    <g transform="translate(63,810)" style="font-size:11; fill:url(#linearGradient3); text-rendering:geometricPrecision; font-family:sans-serif; stroke:url(#linearGradient3); font-weight:bold;">
      <rect x="0" y="0" width="440" style="clip-path:url(#clipPath1); stroke:none;" height="90" />
    </g>
    <g transform="translate(63,810)" style="stroke-linecap:butt; font-size:11; text-rendering:geometricPrecision; stroke-linejoin:round; font-family:sans-serif; font-weight:bold; stroke-width:2; stroke-miterlimit:0;">
      <rect x="0" y="0" width="440" style="clip-path:url(#clipPath1); fill:none;" height="90" />
      <line x1="0" x2="440" y1="15" style="clip-path:url(#clipPath1); fill:none;" y2="15" />
    </g>
    <g style="text-rendering:geometricPrecision; font-size:11; font-family:sans-serif;" transform="translate(63,825)">
      <text x="2" y="14" style="clip-path:url(#clipPath2); stroke:none;" xml:space="preserve">-objectId : long</text>
      <text x="2" y="29" style="clip-path:url(#clipPath2); stroke:none;" xml:space="preserve">-condition : Condition</text>
    </g>
    <g transform="translate(63,825)" style="stroke-linecap:butt; font-size:11; text-rendering:geometricPrecision; stroke-linejoin:bevel; font-family:sans-serif; stroke-width:2; stroke-miterlimit:0;">
      <line x1="0" x2="440" y1="34" style="clip-path:url(#clipPath2); fill:none;" y2="34" />
    </g>
    <g style="text-rendering:geometricPrecision; font-size:11; font-family:sans-serif;" transform="translate(63,825)">
      <text x="2" y="48" style="clip-path:url(#clipPath2); stroke:none;" xml:space="preserve">+CanYouMakeItYesAnswerMessage(agent : Agent, condition : Condition, objectId : long)</text>
      <text x="2" y="63" style="clip-path:url(#clipPath2); stroke:none;" xml:space="preserve">+toString() : String</text>
    </g>
    <g transform="translate(63,810)" style="text-rendering:geometricPrecision; font-size:11; font-weight:bold; font-family:sans-serif;">
      <text x="129" y="12" style="clip-path:url(#clipPath3); stroke:none;" xml:space="preserve">CanYouMakeItYesAnswerMessage</text>
    </g>
    <g transform="translate(63,160)" style="font-size:11; fill:url(#linearGradient4); text-rendering:geometricPrecision; font-family:sans-serif; stroke:url(#linearGradient4); font-weight:bold;">
      <rect x="0" y="0" width="180" style="clip-path:url(#clipPath4); stroke:none;" height="80" />
    </g>
    <g transform="translate(63,160)" style="stroke-linecap:butt; font-size:11; text-rendering:geometricPrecision; stroke-linejoin:round; font-family:sans-serif; font-weight:bold; stroke-width:2; stroke-miterlimit:0;">
      <rect x="0" y="0" width="180" style="clip-path:url(#clipPath4); fill:none;" height="80" />
      <line x1="0" x2="180" y1="15" style="clip-path:url(#clipPath4); fill:none;" y2="15" />
    </g>
    <g style="text-rendering:geometricPrecision; font-size:11; font-family:sans-serif;" transform="translate(63,175)">
      <text x="2" y="14" style="clip-path:url(#clipPath5); stroke:none;" xml:space="preserve">&lt;&lt;Property&gt;&gt; -sender : Agent</text>
    </g>
    <g transform="translate(63,175)" style="stroke-linecap:butt; font-size:11; text-rendering:geometricPrecision; stroke-linejoin:bevel; font-family:sans-serif; stroke-width:2; stroke-miterlimit:0;">
      <line x1="0" x2="180" y1="19" style="clip-path:url(#clipPath5); fill:none;" y2="19" />
    </g>
    <g style="text-rendering:geometricPrecision; font-size:11; font-family:sans-serif;" transform="translate(63,175)">
      <text x="2" y="33" style="clip-path:url(#clipPath5); stroke:none;" xml:space="preserve">+DefaultMessage(sender : Agent)</text>
      <text x="2" y="48" style="clip-path:url(#clipPath5); stroke:none;" xml:space="preserve">+toString() : String</text>
    </g>
    <g transform="translate(63,160)" style="font-size:11; text-rendering:geometricPrecision; font-family:sans-serif; font-style:italic; font-weight:bold;">
      <text x="48" y="12" style="clip-path:url(#clipPath6); stroke:none;" xml:space="preserve">DefaultMessage</text>
    </g>
    <g transform="translate(63,0)" style="font-size:11; fill:url(#linearGradient5); text-rendering:geometricPrecision; font-family:sans-serif; stroke:url(#linearGradient5); font-weight:bold;">
      <rect x="0" y="0" width="230" style="clip-path:url(#clipPath7); stroke:none;" height="70" />
    </g>
    <g transform="translate(63,0)" style="stroke-linecap:butt; font-size:11; text-rendering:geometricPrecision; stroke-linejoin:round; font-family:sans-serif; font-weight:bold; stroke-width:2; stroke-miterlimit:0;">
      <rect x="0" y="0" width="230" style="clip-path:url(#clipPath7); fill:none;" height="70" />
      <line x1="0" x2="230" y1="30" style="clip-path:url(#clipPath7); fill:none;" y2="30" />
    </g>
    <g style="text-rendering:geometricPrecision; font-size:11; font-family:sans-serif;" transform="translate(63,30)">
      <text x="2" y="14" style="clip-path:url(#clipPath8); stroke:none;" xml:space="preserve">+STOP_CONVERSATION : Message = null</text>
      <line x1="2" x2="203" y1="16" style="clip-path:url(#clipPath8); fill:none;" y2="16" />
      <text x="2" y="29" style="clip-path:url(#clipPath8); stroke:none;" xml:space="preserve">&lt;&lt;Property&gt;&gt; +sender : Agent</text>
    </g>
    <g transform="translate(63,0)" style="text-rendering:geometricPrecision; font-size:11; font-weight:bold; font-family:sans-serif;">
      <text x="79" y="12" style="clip-path:url(#clipPath9); stroke:none;" xml:space="preserve">&lt;&lt;Interface&gt;&gt;</text>
      <text x="91" y="27" style="clip-path:url(#clipPath9); stroke:none;" xml:space="preserve">Message</text>
    </g>
    <g transform="translate(63,420)" style="font-size:11; fill:url(#linearGradient6); text-rendering:geometricPrecision; font-family:sans-serif; stroke:url(#linearGradient6); font-weight:bold;">
      <rect x="0" y="0" width="408" style="clip-path:url(#clipPath10); stroke:none;" height="90" />
    </g>
    <g transform="translate(63,420)" style="stroke-linecap:butt; font-size:11; text-rendering:geometricPrecision; stroke-linejoin:round; font-family:sans-serif; font-weight:bold; stroke-width:2; stroke-miterlimit:0;">
      <rect x="0" y="0" width="408" style="clip-path:url(#clipPath10); fill:none;" height="90" />
      <line x1="0" x2="408" y1="15" style="clip-path:url(#clipPath10); fill:none;" y2="15" />
    </g>
    <g transform="translate(63,435)" style="stroke-linecap:butt; font-size:11; text-rendering:geometricPrecision; stroke-linejoin:round; font-family:sans-serif; stroke-width:2; stroke-miterlimit:0;">
      <text x="2" y="14" style="clip-path:url(#clipPath11); stroke:none;" xml:space="preserve">&lt;&lt;Property&gt;&gt; -id : long</text>
      <text x="2" y="29" style="clip-path:url(#clipPath11); stroke:none;" xml:space="preserve">&lt;&lt;Property&gt;&gt; -position : Oriented2DPosition</text>
      <line x1="0" x2="408" y1="34" style="clip-path:url(#clipPath11); fill:none; stroke-linejoin:bevel;" y2="34" />
      <text x="2" y="48" style="clip-path:url(#clipPath11); stroke:none;" xml:space="preserve">+WhereIsItAnswerMessage(agent : Agent, id : long, position : Oriented2DPosition)</text>
      <text x="2" y="63" style="clip-path:url(#clipPath11); stroke:none;" xml:space="preserve">+toString() : String</text>
    </g>
    <g transform="translate(63,420)" style="stroke-linecap:butt; font-size:11; text-rendering:geometricPrecision; stroke-linejoin:round; font-family:sans-serif; font-weight:bold; stroke-width:2; stroke-miterlimit:0;">
      <text x="136" y="12" style="clip-path:url(#clipPath12); stroke:none;" xml:space="preserve">WhereIsItAnswerMessage</text>
    </g>
    <g transform="translate(63,550)" style="font-size:11; fill:url(#linearGradient7); text-rendering:geometricPrecision; font-family:sans-serif; stroke:url(#linearGradient7); font-weight:bold;">
      <rect x="0" y="0" width="300" style="clip-path:url(#clipPath13); stroke:none;" height="60" />
    </g>
    <g transform="translate(63,550)" style="stroke-linecap:butt; font-size:11; text-rendering:geometricPrecision; stroke-linejoin:round; font-family:sans-serif; font-weight:bold; stroke-width:2; stroke-miterlimit:0;">
      <rect x="0" y="0" width="300" style="clip-path:url(#clipPath13); fill:none;" height="60" />
      <line x1="0" x2="300" y1="15" style="clip-path:url(#clipPath13); fill:none;" y2="15" />
    </g>
    <g style="text-rendering:geometricPrecision; font-size:11; font-family:sans-serif;" transform="translate(63,565)">
      <text x="2" y="14" style="clip-path:url(#clipPath14); stroke:none;" xml:space="preserve">+WhereIsItDunnoAnswerMessage(agent : Agent, id : long)</text>
      <text x="2" y="29" style="clip-path:url(#clipPath14); stroke:none;" xml:space="preserve">+toString() : String</text>
    </g>
    <g transform="translate(63,550)" style="text-rendering:geometricPrecision; font-size:11; font-weight:bold; font-family:sans-serif;">
      <text x="64" y="12" style="clip-path:url(#clipPath15); stroke:none;" xml:space="preserve">WhereIsItDunnoAnswerMessage</text>
    </g>
    <g transform="translate(63,300)" style="font-size:11; fill:url(#linearGradient8); text-rendering:geometricPrecision; font-family:sans-serif; stroke:url(#linearGradient8); font-weight:bold;">
      <rect x="0" y="0" width="310" style="clip-path:url(#clipPath16); stroke:none;" height="90" />
    </g>
    <g transform="translate(63,300)" style="stroke-linecap:butt; font-size:11; text-rendering:geometricPrecision; stroke-linejoin:round; font-family:sans-serif; font-weight:bold; stroke-width:2; stroke-miterlimit:0;">
      <rect x="0" y="0" width="310" style="clip-path:url(#clipPath16); fill:none;" height="90" />
      <line x1="0" x2="310" y1="15" style="clip-path:url(#clipPath16); fill:none;" y2="15" />
    </g>
    <g style="text-rendering:geometricPrecision; font-size:11; font-family:sans-serif;" transform="translate(63,315)">
      <text x="2" y="14" style="clip-path:url(#clipPath17); stroke:none;" xml:space="preserve">-objectId : long</text>
    </g>
    <g transform="translate(63,315)" style="stroke-linecap:butt; font-size:11; text-rendering:geometricPrecision; stroke-linejoin:bevel; font-family:sans-serif; stroke-width:2; stroke-miterlimit:0;">
      <line x1="0" x2="310" y1="19" style="clip-path:url(#clipPath17); fill:none;" y2="19" />
    </g>
    <g style="text-rendering:geometricPrecision; font-size:11; font-family:sans-serif;" transform="translate(63,315)">
      <text x="2" y="33" style="clip-path:url(#clipPath17); stroke:none;" xml:space="preserve">+WhereIsItQuestionMessage(sender : Agent, objectId : long)</text>
      <text x="2" y="48" style="clip-path:url(#clipPath17); stroke:none;" xml:space="preserve">+getId() : long</text>
      <text x="2" y="63" style="clip-path:url(#clipPath17); stroke:none;" xml:space="preserve">+toString() : String</text>
    </g>
    <g transform="translate(63,300)" style="text-rendering:geometricPrecision; font-size:11; font-weight:bold; font-family:sans-serif;">
      <text x="83" y="12" style="clip-path:url(#clipPath18); stroke:none;" xml:space="preserve">WhereIsItQuestionMessage</text>
    </g>
    <g transform="translate(-69,101)" style="stroke-linecap:butt; font-size:11; text-rendering:geometricPrecision; font-family:sans-serif; stroke-linejoin:round; stroke-width:2;">
      <line x1="130" x2="74" y1="71" style="clip-path:url(#clipPath19); fill:none;" y2="71" />
      <line x1="74" x2="71" y1="71" style="clip-path:url(#clipPath19); fill:none;" y2="889" />
      <line x1="71" x2="130" y1="889" style="clip-path:url(#clipPath19); fill:none;" y2="889" />
      <polygon style="fill:white; clip-path:url(#clipPath19); stroke:none;" points=" 130 71 116 63 116 78" />
      <polygon style="fill:none; clip-path:url(#clipPath19);" points=" 130 71 116 63 116 78" />
    </g>
    <g transform="translate(-49,118)" style="stroke-linecap:butt; font-size:11; text-rendering:geometricPrecision; font-family:sans-serif; stroke-linejoin:round; stroke-width:2;">
      <line x1="110" x2="71" y1="71" style="clip-path:url(#clipPath20); fill:none;" y2="71" />
      <line x1="71" x2="71" y1="71" style="clip-path:url(#clipPath20); fill:none;" y2="731" />
      <line x1="71" x2="110" y1="731" style="clip-path:url(#clipPath20); fill:none;" y2="731" />
      <polygon style="fill:white; clip-path:url(#clipPath20); stroke:none;" points=" 110 71 96 63 96 78" />
      <polygon style="fill:none; clip-path:url(#clipPath20);" points=" 110 71 96 63 96 78" />
    </g>
    <g transform="translate(118,57)" style="stroke-linecap:butt; font-size:11; text-rendering:geometricPrecision; font-family:sans-serif; stroke-linejoin:round; stroke-width:2;">
      <line x1="125" x2="367" y1="125" style="clip-path:url(#clipPath21); fill:none;" y2="125" />
      <line x1="367" x2="367" y1="125" style="clip-path:url(#clipPath21); fill:none;" y2="632" />
      <polygon style="fill:white; clip-path:url(#clipPath21); stroke:none;" points=" 125 125 138 132 138 117" />
      <polygon style="fill:none; clip-path:url(#clipPath21);" points=" 125 125 138 132 138 117" />
    </g>
    <g transform="translate(75,-30)" style="stroke-linecap:butt; font-size:11; stroke-dashoffset:1; text-rendering:geometricPrecision; stroke-linejoin:round; font-family:sans-serif; stroke-dasharray:5; stroke-width:2;">
      <line x1="100" x2="100" y1="100" style="clip-path:url(#clipPath22); fill:none;" y2="190" />
    </g>
    <g transform="translate(75,-30)" style="stroke-linecap:butt; font-size:11; fill:white; text-rendering:geometricPrecision; stroke-linejoin:round; font-family:sans-serif; stroke:white; stroke-width:2;">
      <polygon style="clip-path:url(#clipPath22); stroke:none;" points=" 100 100 92 113 107 113" />
      <polygon style="fill:none; clip-path:url(#clipPath22); stroke:black;" points=" 100 100 92 113 107 113" />
    </g>
    <g transform="translate(118,95)" style="stroke-linecap:butt; font-size:11; text-rendering:geometricPrecision; font-family:sans-serif; stroke-linejoin:round; stroke-width:2;">
      <line x1="125" x2="277" y1="125" style="clip-path:url(#clipPath23); fill:none;" y2="125" />
      <line x1="277" x2="277" y1="125" style="clip-path:url(#clipPath23); fill:none;" y2="325" />
      <polygon style="fill:white; clip-path:url(#clipPath23); stroke:none;" points=" 125 125 138 132 138 117" />
      <polygon style="fill:none; clip-path:url(#clipPath23);" points=" 125 125 138 132 138 117" />
    </g>
    <g transform="translate(-29,138)" style="stroke-linecap:butt; font-size:11; text-rendering:geometricPrecision; font-family:sans-serif; stroke-linejoin:round; stroke-width:2;">
      <line x1="90" x2="71" y1="71" style="clip-path:url(#clipPath24); fill:none;" y2="71" />
      <line x1="71" x2="71" y1="71" style="clip-path:url(#clipPath24); fill:none;" y2="441" />
      <line x1="71" x2="90" y1="441" style="clip-path:url(#clipPath24); fill:none;" y2="441" />
      <polygon style="fill:white; clip-path:url(#clipPath24); stroke:none;" points=" 90 71 76 63 76 78" />
      <polygon style="fill:none; clip-path:url(#clipPath24);" points=" 90 71 76 63 76 78" />
    </g>
    <g transform="translate(30,115)" style="stroke-linecap:butt; font-size:11; text-rendering:geometricPrecision; font-family:sans-serif; stroke-linejoin:round; stroke-width:2;">
      <line x1="125" x2="125" y1="125" style="clip-path:url(#clipPath25); fill:none;" y2="185" />
      <polygon style="fill:white; clip-path:url(#clipPath25); stroke:none;" points=" 125 125 117 138 132 138" />
      <polygon style="fill:none; clip-path:url(#clipPath25);" points=" 125 125 117 138 132 138" />
    </g>
  </g>
</svg>
