<?xml version="1.0" encoding="UTF-8"?>

<!DOCTYPE svg PUBLIC '-//W3C//DTD SVG 1.0//EN' 'http://www.w3.org/TR/2001/REC-SVG-20010904/DTD/svg10.dtd'>
<svg style="fill-opacity:1; color-rendering:auto; color-interpolation:auto; text-rendering:auto; stroke:black; stroke-linecap:square; stroke-miterlimit:10; shape-rendering:auto; stroke-opacity:1; fill:black; stroke-dasharray:none; font-weight:normal; stroke-width:1; font-family:&apos;Dialog&apos;; font-style:normal; stroke-linejoin:miter; font-size:12; stroke-dashoffset:0; image-rendering:auto;" xmlns="http://www.w3.org/2000/svg" width="818" xmlns:xlink="http://www.w3.org/1999/xlink" height="648">
  <!--Generated by the Batik Graphics2D SVG Generator-->
  <defs id="genericDefs" />
  <g>
    <defs id="defs1">
      <linearGradient x1="130" gradientUnits="userSpaceOnUse" x2="130" y1="130" y2="0" id="linearGradient1" spreadMethod="reflect">
        <stop style="stop-opacity:0.498; stop-color:rgb(255,255,0);" offset="0%" />
        <stop style="stop-opacity:0.498; stop-color:rgb(255,255,255);" offset="100%" />
      </linearGradient>
      <linearGradient x1="245" gradientUnits="userSpaceOnUse" x2="245" y1="300" y2="0" id="linearGradient2" spreadMethod="reflect">
        <stop style="stop-opacity:0.498; stop-color:rgb(0,255,255);" offset="0%" />
        <stop style="stop-opacity:0.498; stop-color:rgb(255,255,255);" offset="100%" />
      </linearGradient>
      <linearGradient x1="100" gradientUnits="userSpaceOnUse" x2="100" y1="100" y2="0" id="linearGradient3" spreadMethod="reflect">
        <stop style="stop-opacity:0.498; stop-color:rgb(255,255,0);" offset="0%" />
        <stop style="stop-opacity:0.498; stop-color:rgb(255,255,255);" offset="100%" />
      </linearGradient>
      <linearGradient x1="230" gradientUnits="userSpaceOnUse" x2="230" y1="120" y2="0" id="linearGradient4" spreadMethod="reflect">
        <stop style="stop-opacity:0.498; stop-color:rgb(255,255,0);" offset="0%" />
        <stop style="stop-opacity:0.498; stop-color:rgb(255,255,255);" offset="100%" />
      </linearGradient>
      <linearGradient x1="245" gradientUnits="userSpaceOnUse" x2="245" y1="140" y2="0" id="linearGradient5" spreadMethod="reflect">
        <stop style="stop-opacity:0.498; stop-color:rgb(255,255,0);" offset="0%" />
        <stop style="stop-opacity:0.498; stop-color:rgb(255,255,255);" offset="100%" />
      </linearGradient>
      <clipPath clipPathUnits="userSpaceOnUse" id="clipPath1">
        <path d="M-4 -4 L268 -4 L268 138 L-4 138 L-4 -4 Z" />
      </clipPath>
      <clipPath clipPathUnits="userSpaceOnUse" id="clipPath2">
        <path d="M0 0 L0 123 L260 123 L260 0 Z" />
      </clipPath>
      <clipPath clipPathUnits="userSpaceOnUse" id="clipPath3">
        <path d="M0 0 L260 0 L260 15 L0 15 L0 0 Z" />
      </clipPath>
      <clipPath clipPathUnits="userSpaceOnUse" id="clipPath4">
        <path d="M-4 -4 L498 -4 L498 308 L-4 308 L-4 -4 Z" />
      </clipPath>
      <clipPath clipPathUnits="userSpaceOnUse" id="clipPath5">
        <path d="M0 0 L0 293 L490 293 L490 0 Z" />
      </clipPath>
      <clipPath clipPathUnits="userSpaceOnUse" id="clipPath6">
        <path d="M0 0 L490 0 L490 15 L0 15 L0 0 Z" />
      </clipPath>
      <clipPath clipPathUnits="userSpaceOnUse" id="clipPath7">
        <path d="M-4 -4 L208 -4 L208 108 L-4 108 L-4 -4 Z" />
      </clipPath>
      <clipPath clipPathUnits="userSpaceOnUse" id="clipPath8">
        <path d="M0 0 L0 78 L200 78 L200 0 Z" />
      </clipPath>
      <clipPath clipPathUnits="userSpaceOnUse" id="clipPath9">
        <path d="M0 0 L200 0 L200 30 L0 30 L0 0 Z" />
      </clipPath>
      <clipPath clipPathUnits="userSpaceOnUse" id="clipPath10">
        <path d="M-4 -4 L468 -4 L468 128 L-4 128 L-4 -4 Z" />
      </clipPath>
      <clipPath clipPathUnits="userSpaceOnUse" id="clipPath11">
        <path d="M0 0 L0 113 L460 113 L460 0 Z" />
      </clipPath>
      <clipPath clipPathUnits="userSpaceOnUse" id="clipPath12">
        <path d="M0 0 L460 0 L460 15 L0 15 L0 0 Z" />
      </clipPath>
      <clipPath clipPathUnits="userSpaceOnUse" id="clipPath13">
        <path d="M-4 -4 L498 -4 L498 148 L-4 148 L-4 -4 Z" />
      </clipPath>
      <clipPath clipPathUnits="userSpaceOnUse" id="clipPath14">
        <path d="M0 0 L0 118 L490 118 L490 0 Z" />
      </clipPath>
      <clipPath clipPathUnits="userSpaceOnUse" id="clipPath15">
        <path d="M0 0 L490 0 L490 30 L0 30 L0 0 Z" />
      </clipPath>
      <clipPath clipPathUnits="userSpaceOnUse" id="clipPath16">
        <path d="M-3 -3 L107 -3 L107 27 L-3 27 L-3 -3 Z" />
      </clipPath>
      <clipPath clipPathUnits="userSpaceOnUse" id="clipPath17">
        <path d="M-3 -3 L47 -3 L47 27 L-3 27 L-3 -3 Z" />
      </clipPath>
      <clipPath clipPathUnits="userSpaceOnUse" id="clipPath18">
        <path d="M-3 -3 L77 -3 L77 27 L-3 27 L-3 -3 Z" />
      </clipPath>
      <clipPath clipPathUnits="userSpaceOnUse" id="clipPath19">
        <path d="M-3 -3 L87 -3 L87 27 L-3 27 L-3 -3 Z" />
      </clipPath>
      <clipPath clipPathUnits="userSpaceOnUse" id="clipPath20">
        <path d="M0 0 L261 0 L261 241 L0 241 L0 0 Z" />
      </clipPath>
      <clipPath clipPathUnits="userSpaceOnUse" id="clipPath21">
        <path d="M0 0 L294 0 L294 204 L0 204 L0 0 Z" />
      </clipPath>
      <clipPath clipPathUnits="userSpaceOnUse" id="clipPath22">
        <path d="M0 0 L171 0 L171 329 L0 329 L0 0 Z" />
      </clipPath>
      <clipPath clipPathUnits="userSpaceOnUse" id="clipPath23">
        <path d="M0 0 L171 0 L171 209 L0 209 L0 0 Z" />
      </clipPath>
      <clipPath clipPathUnits="userSpaceOnUse" id="clipPath24">
        <path d="M0 0 L171 0 L171 289 L0 289 L0 0 Z" />
      </clipPath>
      <clipPath clipPathUnits="userSpaceOnUse" id="clipPath25">
        <path d="M0 0 L40 0 L40 20 L0 20 L0 0 Z" />
      </clipPath>
      <clipPath clipPathUnits="userSpaceOnUse" id="clipPath26">
        <path d="M0 0 L100 0 L100 20 L0 20 L0 0 Z" />
      </clipPath>
      <clipPath clipPathUnits="userSpaceOnUse" id="clipPath27">
        <path d="M0 0 L80 0 L80 20 L0 20 L0 0 Z" />
      </clipPath>
      <clipPath clipPathUnits="userSpaceOnUse" id="clipPath28">
        <path d="M0 0 L70 0 L70 20 L0 20 L0 0 Z" />
      </clipPath>
    </defs>
    <g style="fill:white; text-rendering:geometricPrecision; stroke:white;">
      <rect x="0" y="0" width="818" style="stroke:none;" height="648" />
    </g>
    <g transform="translate(14,234)" style="font-size:11; fill:url(#linearGradient1); text-rendering:geometricPrecision; font-family:sans-serif; stroke:url(#linearGradient1); font-weight:bold;">
      <rect x="0" y="0" width="260" style="clip-path:url(#clipPath1); stroke:none;" height="130" />
    </g>
    <g transform="translate(14,234)" style="stroke-linecap:butt; font-size:11; text-rendering:geometricPrecision; stroke-linejoin:round; font-family:sans-serif; font-weight:bold; stroke-width:2; stroke-miterlimit:0;">
      <rect x="0" y="0" width="260" style="clip-path:url(#clipPath1); fill:none;" height="130" />
      <line x1="0" x2="260" y1="15" style="clip-path:url(#clipPath1); fill:none;" y2="15" />
    </g>
    <g style="text-rendering:geometricPrecision; font-size:11; font-family:sans-serif;" transform="translate(14,249)">
      <text x="2" y="14" style="clip-path:url(#clipPath2); stroke:none;" xml:space="preserve">+DefaultPlan()</text>
      <text x="2" y="29" style="clip-path:url(#clipPath2); stroke:none;" xml:space="preserve">+iterator() : Iterator&lt;PlanElement&gt;</text>
      <text x="2" y="44" style="clip-path:url(#clipPath2); stroke:none;" xml:space="preserve">+cons(planElement : PlanElement) : DefaultPlan</text>
      <text x="2" y="59" style="clip-path:url(#clipPath2); stroke:none;" xml:space="preserve">+append(planElement : PlanElement) : DefaultPlan</text>
      <text x="2" y="74" style="clip-path:url(#clipPath2); stroke:none;" xml:space="preserve">+toString() : String</text>
      <text x="2" y="89" style="clip-path:url(#clipPath2); stroke:none;" xml:space="preserve">+get(i : int) : PlanElement</text>
      <text x="2" y="104" style="clip-path:url(#clipPath2); stroke:none;" xml:space="preserve">+size() : int</text>
    </g>
    <g transform="translate(14,234)" style="text-rendering:geometricPrecision; font-size:11; font-weight:bold; font-family:sans-serif;">
      <text x="99" y="12" style="clip-path:url(#clipPath3); stroke:none;" xml:space="preserve">DefaultPlan</text>
    </g>
    <g transform="translate(324,184)" style="font-size:11; fill:url(#linearGradient2); text-rendering:geometricPrecision; font-family:sans-serif; stroke:url(#linearGradient2); font-weight:bold;">
      <rect x="0" y="0" width="490" style="clip-path:url(#clipPath4); stroke:none;" height="300" />
    </g>
    <g transform="translate(324,184)" style="stroke-linecap:butt; font-size:11; text-rendering:geometricPrecision; stroke-linejoin:round; font-family:sans-serif; font-weight:bold; stroke-width:2; stroke-miterlimit:0;">
      <rect x="0" y="0" width="490" style="clip-path:url(#clipPath4); fill:none;" height="300" />
      <line x1="0" x2="490" y1="15" style="clip-path:url(#clipPath4); fill:none;" y2="15" />
    </g>
    <g style="text-rendering:geometricPrecision; font-size:11; font-family:sans-serif;" transform="translate(324,199)">
      <text x="2" y="14" style="clip-path:url(#clipPath5); stroke:none;" xml:space="preserve">-logger : Logger = Logger.getLogger(DefaultPlanningModule.class)</text>
      <line x1="2" x2="322" y1="16" style="clip-path:url(#clipPath5); fill:none;" y2="16" />
      <text x="2" y="29" style="clip-path:url(#clipPath5); stroke:none;" xml:space="preserve">+COLLECTION_SHUFFLE_ENABLED : boolean = true</text>
      <line x1="2" x2="253" y1="31" style="clip-path:url(#clipPath5); fill:none;" y2="31" />
      <text x="2" y="44" style="clip-path:url(#clipPath5); stroke:none;" xml:space="preserve">+PLAN_MAX_DEPTH : int = 50</text>
      <line x1="2" x2="146" y1="46" style="clip-path:url(#clipPath5); fill:none;" y2="46" />
      <text x="2" y="59" style="clip-path:url(#clipPath5); stroke:none;" xml:space="preserve">&lt;&lt;Property&gt;&gt; -currentIndex : int = 0</text>
      <text x="2" y="74" style="clip-path:url(#clipPath5); stroke:none;" xml:space="preserve">-forcePlan : boolean = false</text>
      <text x="2" y="89" style="clip-path:url(#clipPath5); stroke:none;" xml:space="preserve">-NO_PLAN_FOUND : Plan = null</text>
      <line x1="2" x2="152" y1="91" style="clip-path:url(#clipPath5); fill:none;" y2="91" />
      <text x="2" y="104" style="clip-path:url(#clipPath5); stroke:none;" xml:space="preserve">-agent : Agent</text>
      <text x="2" y="119" style="clip-path:url(#clipPath5); stroke:none;" xml:space="preserve">&lt;&lt;Property&gt;&gt; -currentGoal : Goal = null</text>
    </g>
    <g transform="translate(324,199)" style="stroke-linecap:butt; font-size:11; text-rendering:geometricPrecision; stroke-linejoin:bevel; font-family:sans-serif; stroke-width:2; stroke-miterlimit:0;">
      <line x1="0" x2="490" y1="124" style="clip-path:url(#clipPath5); fill:none;" y2="124" />
    </g>
    <g style="text-rendering:geometricPrecision; font-size:11; font-family:sans-serif;" transform="translate(324,199)">
      <text x="2" y="138" style="clip-path:url(#clipPath5); stroke:none;" xml:space="preserve">+DefaultPlanningModule(agent : Agent)</text>
      <text x="2" y="153" style="clip-path:url(#clipPath5); stroke:none;" xml:space="preserve">+planAndExecute() : void</text>
      <text x="2" y="168" style="clip-path:url(#clipPath5); stroke:none;" xml:space="preserve">+buildPlan(agent : Agent, goal : Goal, currentDepth : int, maxDepth : int) : Plan</text>
      <text x="2" y="183" style="clip-path:url(#clipPath5); stroke:none;" xml:space="preserve">-handleWalkTo(provider : WorldObject, consumer : Agent, maxDist : int) : PlanElement</text>
      <text x="2" y="198" style="clip-path:url(#clipPath5); stroke:none;" xml:space="preserve">+execute() : void</text>
      <text x="2" y="213" style="clip-path:url(#clipPath5); stroke:none;" xml:space="preserve">+getStorageLabel() : String</text>
      <text x="2" y="228" style="clip-path:url(#clipPath5); stroke:none;" xml:space="preserve">+toString() : String</text>
      <text x="2" y="243" style="clip-path:url(#clipPath5); stroke:none;" xml:space="preserve">+getPlan() : Plan</text>
      <text x="2" y="258" style="clip-path:url(#clipPath5); stroke:none;" xml:space="preserve">+forceExecution(serviceName : String, params : List&lt;Object&gt;, clearPreviousPlan : boolean) : void</text>
      <text x="2" y="273" style="clip-path:url(#clipPath5); stroke:none;" xml:space="preserve">+enablePlanning() : void</text>
    </g>
    <g transform="translate(324,184)" style="text-rendering:geometricPrecision; font-size:11; font-weight:bold; font-family:sans-serif;">
      <text x="183" y="12" style="clip-path:url(#clipPath6); stroke:none;" xml:space="preserve">DefaultPlanningModule</text>
    </g>
    <g transform="translate(34,14)" style="font-size:11; fill:url(#linearGradient3); text-rendering:geometricPrecision; font-family:sans-serif; stroke:url(#linearGradient3); font-weight:bold;">
      <rect x="0" y="0" width="200" style="clip-path:url(#clipPath7); stroke:none;" height="100" />
    </g>
    <g transform="translate(34,14)" style="stroke-linecap:butt; font-size:11; text-rendering:geometricPrecision; stroke-linejoin:round; font-family:sans-serif; font-weight:bold; stroke-width:2; stroke-miterlimit:0;">
      <rect x="0" y="0" width="200" style="clip-path:url(#clipPath7); fill:none;" height="100" />
      <line x1="0" x2="200" y1="30" style="clip-path:url(#clipPath7); fill:none;" y2="30" />
    </g>
    <g style="text-rendering:geometricPrecision; font-size:11; font-family:sans-serif;" transform="translate(34,44)">
      <text x="2" y="14" style="clip-path:url(#clipPath8); stroke:none;" xml:space="preserve">+cons(element : PlanElement) : Plan</text>
      <text x="2" y="29" style="clip-path:url(#clipPath8); stroke:none;" xml:space="preserve">+append(element : PlanElement) : Plan</text>
      <text x="2" y="44" style="clip-path:url(#clipPath8); stroke:none;" xml:space="preserve">+get(i : int) : PlanElement</text>
      <text x="2" y="59" style="clip-path:url(#clipPath8); stroke:none;" xml:space="preserve">+size() : int</text>
    </g>
    <g transform="translate(34,14)" style="text-rendering:geometricPrecision; font-size:11; font-weight:bold; font-family:sans-serif;">
      <text x="64" y="12" style="clip-path:url(#clipPath9); stroke:none;" xml:space="preserve">&lt;&lt;Interface&gt;&gt;</text>
      <text x="87" y="27" style="clip-path:url(#clipPath9); stroke:none;" xml:space="preserve">Plan</text>
    </g>
    <g transform="translate(4,524)" style="font-size:11; fill:url(#linearGradient4); text-rendering:geometricPrecision; font-family:sans-serif; stroke:url(#linearGradient4); font-weight:bold;">
      <rect x="0" y="0" width="460" style="clip-path:url(#clipPath10); stroke:none;" height="120" />
    </g>
    <g transform="translate(4,524)" style="stroke-linecap:butt; font-size:11; text-rendering:geometricPrecision; stroke-linejoin:round; font-family:sans-serif; font-weight:bold; stroke-width:2; stroke-miterlimit:0;">
      <rect x="0" y="0" width="460" style="clip-path:url(#clipPath10); fill:none;" height="120" />
      <line x1="0" x2="460" y1="15" style="clip-path:url(#clipPath10); fill:none;" y2="15" />
    </g>
    <g style="text-rendering:geometricPrecision; font-size:11; font-family:sans-serif;" transform="translate(4,539)">
      <text x="2" y="14" style="clip-path:url(#clipPath11); stroke:none;" xml:space="preserve">&lt;&lt;Property&gt;&gt; -parameters : Map&lt;String, Object&gt;</text>
      <text x="2" y="29" style="clip-path:url(#clipPath11); stroke:none;" xml:space="preserve">&lt;&lt;Property&gt;&gt; -service : Service</text>
      <text x="2" y="44" style="clip-path:url(#clipPath11); stroke:none;" xml:space="preserve">&lt;&lt;Property&gt;&gt; -provider : WorldObject</text>
    </g>
    <g transform="translate(4,539)" style="stroke-linecap:butt; font-size:11; text-rendering:geometricPrecision; stroke-linejoin:bevel; font-family:sans-serif; stroke-width:2; stroke-miterlimit:0;">
      <line x1="0" x2="460" y1="49" style="clip-path:url(#clipPath11); fill:none;" y2="49" />
    </g>
    <g style="text-rendering:geometricPrecision; font-size:11; font-family:sans-serif;" transform="translate(4,539)">
      <text x="2" y="63" style="clip-path:url(#clipPath11); stroke:none;" xml:space="preserve">+PlanElement(service : Service, provider : WorldObject, parameters : Map&lt;String, Object&gt;)</text>
      <text x="2" y="78" style="clip-path:url(#clipPath11); stroke:none;" xml:space="preserve">+toString() : String</text>
      <text x="2" y="93" style="clip-path:url(#clipPath11); stroke:none;" xml:space="preserve">+execute(consumer : WorldObject, mode : ExecutionMode) : ExecutionStatus</text>
    </g>
    <g transform="translate(4,524)" style="text-rendering:geometricPrecision; font-size:11; font-weight:bold; font-family:sans-serif;">
      <text x="196" y="12" style="clip-path:url(#clipPath12); stroke:none;" xml:space="preserve">PlanElement</text>
    </g>
    <g transform="translate(324,4)" style="font-size:11; fill:url(#linearGradient5); text-rendering:geometricPrecision; font-family:sans-serif; stroke:url(#linearGradient5); font-weight:bold;">
      <rect x="0" y="0" width="490" style="clip-path:url(#clipPath13); stroke:none;" height="140" />
    </g>
    <g transform="translate(324,4)" style="stroke-linecap:butt; font-size:11; text-rendering:geometricPrecision; stroke-linejoin:round; font-family:sans-serif; font-weight:bold; stroke-width:2; stroke-miterlimit:0;">
      <rect x="0" y="0" width="490" style="clip-path:url(#clipPath13); fill:none;" height="140" />
      <line x1="0" x2="490" y1="30" style="clip-path:url(#clipPath13); fill:none;" y2="30" />
    </g>
    <g style="text-rendering:geometricPrecision; font-size:11; font-family:sans-serif;" transform="translate(324,34)">
      <text x="2" y="14" style="clip-path:url(#clipPath14); stroke:none;" xml:space="preserve">&lt;&lt;Property&gt;&gt; +currentIndex : int</text>
      <text x="2" y="29" style="clip-path:url(#clipPath14); stroke:none;" xml:space="preserve">&lt;&lt;Property&gt;&gt; +currentGoal : Goal</text>
    </g>
    <g transform="translate(324,34)" style="stroke-linecap:butt; font-size:11; text-rendering:geometricPrecision; stroke-linejoin:bevel; font-family:sans-serif; stroke-width:2; stroke-miterlimit:0;">
      <line x1="0" x2="490" y1="34" style="clip-path:url(#clipPath14); fill:none;" y2="34" />
    </g>
    <g style="text-rendering:geometricPrecision; font-size:11; font-family:sans-serif;" transform="translate(324,34)">
      <text x="2" y="48" style="clip-path:url(#clipPath14); stroke:none;" xml:space="preserve">+planAndExecute() : void</text>
      <text x="2" y="63" style="clip-path:url(#clipPath14); stroke:none;" xml:space="preserve">+buildPlan(agent : Agent, goal : Goal, currentDepth : int, maxDepth : int) : Plan</text>
      <text x="2" y="78" style="clip-path:url(#clipPath14); stroke:none;" xml:space="preserve">+forceExecution(serviceName : String, params : List&lt;Object&gt;, clearPreviousPlan : boolean) : void</text>
      <text x="2" y="93" style="clip-path:url(#clipPath14); stroke:none;" xml:space="preserve">+enablePlanning() : void</text>
    </g>
    <g transform="translate(324,4)" style="text-rendering:geometricPrecision; font-size:11; font-weight:bold; font-family:sans-serif;">
      <text x="208" y="12" style="clip-path:url(#clipPath15); stroke:none;" xml:space="preserve">&lt;&lt;Interface&gt;&gt;</text>
      <text x="202" y="27" style="clip-path:url(#clipPath15); stroke:none;" xml:space="preserve">PlanningModule</text>
    </g>
    <g transform="translate(151,31)" style="stroke-linecap:butt; font-size:11; text-rendering:geometricPrecision; font-family:sans-serif; stroke-linejoin:round; stroke-width:2;">
      <line x1="151" x2="83" y1="136" style="clip-path:url(#clipPath20); fill:none;" y2="83" />
      <polygon style="fill:none; clip-path:url(#clipPath20);" points=" 173 153 167 139 151 136 158 150" />
    </g>
    <g transform="translate(134,-56)" style="stroke-linecap:butt; font-size:11; text-rendering:geometricPrecision; font-family:sans-serif; stroke-linejoin:round; stroke-width:2;">
      <line x1="162" x2="100" y1="100" style="clip-path:url(#clipPath21); fill:none;" y2="100" />
      <polygon style="fill:none; clip-path:url(#clipPath21);" points=" 190 100 176 92 162 100 176 107" />
    </g>
    <g transform="translate(61,281)" style="stroke-linecap:butt; font-size:11; text-rendering:geometricPrecision; font-family:sans-serif; stroke-linejoin:round; stroke-width:2;">
      <line x1="83" x2="83" y1="111" style="clip-path:url(#clipPath22); fill:none;" y2="242" />
      <polygon style="clip-path:url(#clipPath22); stroke:none;" points=" 83 83 75 96 83 111 90 96" />
      <polygon style="fill:none; clip-path:url(#clipPath22);" points=" 83 83 75 96 83 111 90 96" />
    </g>
    <g transform="translate(134,-6)" style="stroke-linecap:butt; font-size:11; text-rendering:geometricPrecision; font-family:sans-serif; stroke-linejoin:round; stroke-width:2;">
      <line x1="162" x2="100" y1="100" style="clip-path:url(#clipPath21); fill:none;" y2="100" />
      <polygon style="fill:none; clip-path:url(#clipPath21);" points=" 190 100 176 92 162 100 176 107" />
    </g>
    <g transform="translate(461,61)" style="stroke-linecap:butt; font-size:11; stroke-dashoffset:1; text-rendering:geometricPrecision; stroke-linejoin:round; font-family:sans-serif; stroke-dasharray:5; stroke-width:2;">
      <line x1="83" x2="83" y1="83" style="clip-path:url(#clipPath23); fill:none;" y2="122" />
    </g>
    <g transform="translate(461,61)" style="stroke-linecap:butt; font-size:11; fill:white; text-rendering:geometricPrecision; stroke-linejoin:round; font-family:sans-serif; stroke:white; stroke-width:2;">
      <polygon style="clip-path:url(#clipPath23); stroke:none;" points=" 83 83 75 96 90 96" />
      <polygon style="fill:none; clip-path:url(#clipPath23); stroke:black;" points=" 83 83 75 96 90 96" />
    </g>
    <g transform="translate(61,31)" style="stroke-linecap:butt; font-size:11; stroke-dashoffset:1; text-rendering:geometricPrecision; stroke-linejoin:round; font-family:sans-serif; stroke-dasharray:5; stroke-width:2;">
      <line x1="83" x2="83" y1="83" style="clip-path:url(#clipPath24); fill:none;" y2="202" />
    </g>
    <g transform="translate(61,31)" style="stroke-linecap:butt; font-size:11; fill:white; text-rendering:geometricPrecision; stroke-linejoin:round; font-family:sans-serif; stroke:white; stroke-width:2;">
      <polygon style="clip-path:url(#clipPath24); stroke:none;" points=" 83 83 75 96 90 96" />
      <polygon style="fill:none; clip-path:url(#clipPath24); stroke:black;" points=" 83 83 75 96 90 96" />
    </g>
    <g style="text-rendering:geometricPrecision; font-size:11; font-family:sans-serif;" transform="translate(224,94)">
      <text x="17" y="14" style="clip-path:url(#clipPath25); stroke:none;" xml:space="preserve">1</text>
    </g>
    <g style="text-rendering:geometricPrecision; font-size:11; font-family:sans-serif;" transform="translate(234,74)">
      <text x="9" y="14" style="clip-path:url(#clipPath25); stroke:none;" xml:space="preserve">plan</text>
    </g>
    <g style="text-rendering:geometricPrecision; font-size:11; font-family:sans-serif;" transform="translate(104,504)">
      <text x="18" y="14" style="clip-path:url(#clipPath25); stroke:none;" xml:space="preserve">*</text>
    </g>
    <g style="text-rendering:geometricPrecision; font-size:11; font-family:sans-serif;" transform="translate(144,504)">
      <text x="8" y="14" style="clip-path:url(#clipPath26); stroke:none;" xml:space="preserve">backingCollection</text>
    </g>
    <g style="text-rendering:geometricPrecision; font-size:11; font-family:sans-serif;" transform="translate(234,24)">
      <text x="17" y="14" style="clip-path:url(#clipPath25); stroke:none;" xml:space="preserve">1</text>
    </g>
    <g style="text-rendering:geometricPrecision; font-size:11; font-family:sans-serif;" transform="translate(234,44)">
      <text x="12" y="14" style="clip-path:url(#clipPath27); stroke:none;" xml:space="preserve">currentPlan</text>
    </g>
    <g style="text-rendering:geometricPrecision; font-size:11; font-family:sans-serif;" transform="translate(214,124)">
      <text x="17" y="14" style="clip-path:url(#clipPath25); stroke:none;" xml:space="preserve">1</text>
    </g>
    <g style="text-rendering:geometricPrecision; font-size:11; font-family:sans-serif;" transform="translate(174,114)">
      <text x="7" y="14" style="clip-path:url(#clipPath28); stroke:none;" xml:space="preserve">currentPlan</text>
    </g>
  </g>
</svg>
