<?xml version="1.0" encoding="UTF-8"?>

<!DOCTYPE svg PUBLIC '-//W3C//DTD SVG 1.0//EN' 'http://www.w3.org/TR/2001/REC-SVG-20010904/DTD/svg10.dtd'>
<svg style="fill-opacity:1; color-rendering:auto; color-interpolation:auto; text-rendering:auto; stroke:black; stroke-linecap:square; stroke-miterlimit:10; shape-rendering:auto; stroke-opacity:1; fill:black; stroke-dasharray:none; font-weight:normal; stroke-width:1; font-family:&apos;Dialog&apos;; font-style:normal; stroke-linejoin:miter; font-size:12; stroke-dashoffset:0; image-rendering:auto;" xmlns="http://www.w3.org/2000/svg" width="747" xmlns:xlink="http://www.w3.org/1999/xlink" height="907">
  <!--Generated by the Batik Graphics2D SVG Generator-->
  <defs id="genericDefs" />
  <g>
    <defs id="defs1">
      <linearGradient x1="95" gradientUnits="userSpaceOnUse" x2="95" y1="90" y2="0" id="linearGradient1" spreadMethod="reflect">
        <stop style="stop-opacity:0.498; stop-color:rgb(0,255,255);" offset="0%" />
        <stop style="stop-opacity:0.498; stop-color:rgb(255,255,255);" offset="100%" />
      </linearGradient>
      <linearGradient x1="165" gradientUnits="userSpaceOnUse" x2="165" y1="170" y2="0" id="linearGradient2" spreadMethod="reflect">
        <stop style="stop-opacity:0.498; stop-color:rgb(255,255,0);" offset="0%" />
        <stop style="stop-opacity:0.498; stop-color:rgb(255,255,255);" offset="100%" />
      </linearGradient>
      <linearGradient x1="185" gradientUnits="userSpaceOnUse" x2="185" y1="40" y2="0" id="linearGradient3" spreadMethod="reflect">
        <stop style="stop-opacity:0.498; stop-color:rgb(255,255,0);" offset="0%" />
        <stop style="stop-opacity:0.498; stop-color:rgb(255,255,255);" offset="100%" />
      </linearGradient>
      <linearGradient x1="200" gradientUnits="userSpaceOnUse" x2="200" y1="80" y2="0" id="linearGradient4" spreadMethod="reflect">
        <stop style="stop-opacity:0.498; stop-color:rgb(255,255,0);" offset="0%" />
        <stop style="stop-opacity:0.498; stop-color:rgb(255,255,255);" offset="100%" />
      </linearGradient>
      <linearGradient x1="185" gradientUnits="userSpaceOnUse" x2="185" y1="40" y2="0" id="linearGradient5" spreadMethod="reflect">
        <stop style="stop-opacity:0.498; stop-color:rgb(255,255,0);" offset="0%" />
        <stop style="stop-opacity:0.498; stop-color:rgb(255,255,255);" offset="100%" />
      </linearGradient>
      <linearGradient x1="170" gradientUnits="userSpaceOnUse" x2="170" y1="80" y2="0" id="linearGradient6" spreadMethod="reflect">
        <stop style="stop-opacity:0.498; stop-color:rgb(0,255,255);" offset="0%" />
        <stop style="stop-opacity:0.498; stop-color:rgb(255,255,255);" offset="100%" />
      </linearGradient>
      <linearGradient x1="95" gradientUnits="userSpaceOnUse" x2="95" y1="40" y2="0" id="linearGradient7" spreadMethod="reflect">
        <stop style="stop-opacity:0.498; stop-color:rgb(255,255,0);" offset="0%" />
        <stop style="stop-opacity:0.498; stop-color:rgb(255,255,255);" offset="100%" />
      </linearGradient>
      <linearGradient x1="185" gradientUnits="userSpaceOnUse" x2="185" y1="80" y2="0" id="linearGradient8" spreadMethod="reflect">
        <stop style="stop-opacity:0.498; stop-color:rgb(255,255,0);" offset="0%" />
        <stop style="stop-opacity:0.498; stop-color:rgb(255,255,255);" offset="100%" />
      </linearGradient>
      <linearGradient x1="180" gradientUnits="userSpaceOnUse" x2="180" y1="40" y2="0" id="linearGradient9" spreadMethod="reflect">
        <stop style="stop-opacity:0.498; stop-color:rgb(255,255,0);" offset="0%" />
        <stop style="stop-opacity:0.498; stop-color:rgb(255,255,255);" offset="100%" />
      </linearGradient>
      <linearGradient x1="195" gradientUnits="userSpaceOnUse" x2="195" y1="80" y2="0" id="linearGradient10" spreadMethod="reflect">
        <stop style="stop-opacity:0.498; stop-color:rgb(255,255,0);" offset="0%" />
        <stop style="stop-opacity:0.498; stop-color:rgb(255,255,255);" offset="100%" />
      </linearGradient>
      <clipPath clipPathUnits="userSpaceOnUse" id="clipPath1">
        <path d="M-4 -4 L198 -4 L198 98 L-4 98 L-4 -4 Z" />
      </clipPath>
      <clipPath clipPathUnits="userSpaceOnUse" id="clipPath2">
        <path d="M0 0 L0 68 L190 68 L190 0 Z" />
      </clipPath>
      <clipPath clipPathUnits="userSpaceOnUse" id="clipPath3">
        <path d="M0 0 L190 0 L190 30 L0 30 L0 0 Z" />
      </clipPath>
      <clipPath clipPathUnits="userSpaceOnUse" id="clipPath4">
        <path d="M-4 -4 L338 -4 L338 178 L-4 178 L-4 -4 Z" />
      </clipPath>
      <clipPath clipPathUnits="userSpaceOnUse" id="clipPath5">
        <path d="M0 0 L0 163 L330 163 L330 0 Z" />
      </clipPath>
      <clipPath clipPathUnits="userSpaceOnUse" id="clipPath6">
        <path d="M0 0 L330 0 L330 15 L0 15 L0 0 Z" />
      </clipPath>
      <clipPath clipPathUnits="userSpaceOnUse" id="clipPath7">
        <path d="M-4 -4 L378 -4 L378 48 L-4 48 L-4 -4 Z" />
      </clipPath>
      <clipPath clipPathUnits="userSpaceOnUse" id="clipPath8">
        <path d="M0 0 L0 33 L370 33 L370 0 Z" />
      </clipPath>
      <clipPath clipPathUnits="userSpaceOnUse" id="clipPath9">
        <path d="M0 0 L370 0 L370 15 L0 15 L0 0 Z" />
      </clipPath>
      <clipPath clipPathUnits="userSpaceOnUse" id="clipPath10">
        <path d="M-4 -4 L408 -4 L408 88 L-4 88 L-4 -4 Z" />
      </clipPath>
      <clipPath clipPathUnits="userSpaceOnUse" id="clipPath11">
        <path d="M0 0 L0 73 L400 73 L400 0 Z" />
      </clipPath>
      <clipPath clipPathUnits="userSpaceOnUse" id="clipPath12">
        <path d="M0 0 L400 0 L400 15 L0 15 L0 0 Z" />
      </clipPath>
      <clipPath clipPathUnits="userSpaceOnUse" id="clipPath13">
        <path d="M-4 -4 L348 -4 L348 88 L-4 88 L-4 -4 Z" />
      </clipPath>
      <clipPath clipPathUnits="userSpaceOnUse" id="clipPath14">
        <path d="M0 0 L0 58 L340 58 L340 0 Z" />
      </clipPath>
      <clipPath clipPathUnits="userSpaceOnUse" id="clipPath15">
        <path d="M0 0 L340 0 L340 30 L0 30 L0 0 Z" />
      </clipPath>
      <clipPath clipPathUnits="userSpaceOnUse" id="clipPath16">
        <path d="M-4 -4 L198 -4 L198 48 L-4 48 L-4 -4 Z" />
      </clipPath>
      <clipPath clipPathUnits="userSpaceOnUse" id="clipPath17">
        <path d="M0 0 L0 33 L190 33 L190 0 Z" />
      </clipPath>
      <clipPath clipPathUnits="userSpaceOnUse" id="clipPath18">
        <path d="M0 0 L190 0 L190 15 L0 15 L0 0 Z" />
      </clipPath>
      <clipPath clipPathUnits="userSpaceOnUse" id="clipPath19">
        <path d="M-4 -4 L378 -4 L378 88 L-4 88 L-4 -4 Z" />
      </clipPath>
      <clipPath clipPathUnits="userSpaceOnUse" id="clipPath20">
        <path d="M0 0 L0 73 L370 73 L370 0 Z" />
      </clipPath>
      <clipPath clipPathUnits="userSpaceOnUse" id="clipPath21">
        <path d="M-4 -4 L368 -4 L368 48 L-4 48 L-4 -4 Z" />
      </clipPath>
      <clipPath clipPathUnits="userSpaceOnUse" id="clipPath22">
        <path d="M0 0 L0 33 L360 33 L360 0 Z" />
      </clipPath>
      <clipPath clipPathUnits="userSpaceOnUse" id="clipPath23">
        <path d="M0 0 L360 0 L360 15 L0 15 L0 0 Z" />
      </clipPath>
      <clipPath clipPathUnits="userSpaceOnUse" id="clipPath24">
        <path d="M-4 -4 L398 -4 L398 88 L-4 88 L-4 -4 Z" />
      </clipPath>
      <clipPath clipPathUnits="userSpaceOnUse" id="clipPath25">
        <path d="M0 0 L0 73 L390 73 L390 0 Z" />
      </clipPath>
      <clipPath clipPathUnits="userSpaceOnUse" id="clipPath26">
        <path d="M0 0 L390 0 L390 15 L0 15 L0 0 Z" />
      </clipPath>
      <clipPath clipPathUnits="userSpaceOnUse" id="clipPath27">
        <path d="M-3 -3 L77 -3 L77 27 L-3 27 L-3 -3 Z" />
      </clipPath>
      <clipPath clipPathUnits="userSpaceOnUse" id="clipPath28">
        <path d="M-3 -3 L47 -3 L47 27 L-3 27 L-3 -3 Z" />
      </clipPath>
      <clipPath clipPathUnits="userSpaceOnUse" id="clipPath29">
        <path d="M0 0 L215 0 L215 865 L0 865 L0 0 Z" />
      </clipPath>
      <clipPath clipPathUnits="userSpaceOnUse" id="clipPath30">
        <path d="M0 0 L254 0 L254 584 L0 584 L0 0 Z" />
      </clipPath>
      <clipPath clipPathUnits="userSpaceOnUse" id="clipPath31">
        <path d="M0 0 L157 0 L157 407 L0 407 L0 0 Z" />
      </clipPath>
      <clipPath clipPathUnits="userSpaceOnUse" id="clipPath32">
        <path d="M0 0 L220 0 L220 198 L0 198 L0 0 Z" />
      </clipPath>
      <clipPath clipPathUnits="userSpaceOnUse" id="clipPath33">
        <path d="M0 0 L314 0 L314 594 L0 594 L0 0 Z" />
      </clipPath>
      <clipPath clipPathUnits="userSpaceOnUse" id="clipPath34">
        <path d="M0 0 L175 0 L175 405 L0 405 L0 0 Z" />
      </clipPath>
      <clipPath clipPathUnits="userSpaceOnUse" id="clipPath35">
        <path d="M0 0 L354 0 L354 884 L0 884 L0 0 Z" />
      </clipPath>
      <clipPath clipPathUnits="userSpaceOnUse" id="clipPath36">
        <path d="M0 0 L129 0 L129 158 L0 158 L0 0 Z" />
      </clipPath>
      <clipPath clipPathUnits="userSpaceOnUse" id="clipPath37">
        <path d="M0 0 L404 0 L404 924 L0 924 L0 0 Z" />
      </clipPath>
      <clipPath clipPathUnits="userSpaceOnUse" id="clipPath38">
        <path d="M0 0 L387 0 L387 807 L0 807 L0 0 Z" />
      </clipPath>
      <clipPath clipPathUnits="userSpaceOnUse" id="clipPath39">
        <path d="M0 0 L254 0 L254 624 L0 624 L0 0 Z" />
      </clipPath>
      <clipPath clipPathUnits="userSpaceOnUse" id="clipPath40">
        <path d="M0 0 L129 0 L129 148 L0 148 L0 0 Z" />
      </clipPath>
      <clipPath clipPathUnits="userSpaceOnUse" id="clipPath41">
        <path d="M0 0 L129 0 L129 258 L0 258 L0 0 Z" />
      </clipPath>
      <clipPath clipPathUnits="userSpaceOnUse" id="clipPath42">
        <path d="M0 0 L129 0 L129 368 L0 368 L0 0 Z" />
      </clipPath>
      <clipPath clipPathUnits="userSpaceOnUse" id="clipPath43">
        <path d="M0 0 L129 0 L129 538 L0 538 L0 0 Z" />
      </clipPath>
      <clipPath clipPathUnits="userSpaceOnUse" id="clipPath44">
        <path d="M0 0 L129 0 L129 638 L0 638 L0 0 Z" />
      </clipPath>
      <clipPath clipPathUnits="userSpaceOnUse" id="clipPath45">
        <path d="M0 0 L129 0 L129 698 L0 698 L0 0 Z" />
      </clipPath>
      <clipPath clipPathUnits="userSpaceOnUse" id="clipPath46">
        <path d="M0 0 L40 0 L40 20 L0 20 L0 0 Z" />
      </clipPath>
      <clipPath clipPathUnits="userSpaceOnUse" id="clipPath47">
        <path d="M0 0 L70 0 L70 20 L0 20 L0 0 Z" />
      </clipPath>
    </defs>
    <g style="fill:white; text-rendering:geometricPrecision; stroke:white;">
      <rect x="0" y="0" width="747" style="stroke:none;" height="907" />
    </g>
    <g transform="translate(72.4286,12)" style="font-size:11; fill:url(#linearGradient1); text-rendering:geometricPrecision; font-family:sans-serif; stroke:url(#linearGradient1); font-weight:bold;">
      <rect x="0" y="0" width="190" style="clip-path:url(#clipPath1); stroke:none;" height="90" />
    </g>
    <g transform="translate(72.4286,12)" style="stroke-linecap:butt; font-size:11; text-rendering:geometricPrecision; stroke-linejoin:round; font-family:sans-serif; font-weight:bold; stroke-width:2; stroke-miterlimit:0;">
      <rect x="0" y="0" width="190" style="clip-path:url(#clipPath1); fill:none;" height="90" />
      <line x1="0" x2="190" y1="30" style="clip-path:url(#clipPath1); fill:none;" y2="30" />
    </g>
    <g style="text-rendering:geometricPrecision; font-size:11; font-family:sans-serif;" transform="translate(72.4286,42)">
      <text x="2" y="14" style="clip-path:url(#clipPath2); stroke:none;" xml:space="preserve">&lt;&lt;Property&gt;&gt; +agent : Agent</text>
    </g>
    <g transform="translate(72.4286,42)" style="stroke-linecap:butt; font-size:11; text-rendering:geometricPrecision; stroke-linejoin:bevel; font-family:sans-serif; stroke-width:2; stroke-miterlimit:0;">
      <line x1="0" x2="190" y1="19" style="clip-path:url(#clipPath2); fill:none;" y2="19" />
    </g>
    <g style="text-rendering:geometricPrecision; font-size:11; font-family:sans-serif;" transform="translate(72.4286,42)">
      <text x="2" y="33" style="clip-path:url(#clipPath2); stroke:none;" xml:space="preserve">+communicate() : void</text>
      <text x="2" y="48" style="clip-path:url(#clipPath2); stroke:none;" xml:space="preserve">+addMessage(msg : Message) : void</text>
    </g>
    <g transform="translate(72.4286,12)" style="text-rendering:geometricPrecision; font-size:11; font-weight:bold; font-family:sans-serif;">
      <text x="59" y="12" style="clip-path:url(#clipPath3); stroke:none;" xml:space="preserve">&lt;&lt;Interface&gt;&gt;</text>
      <text x="34" y="27" style="clip-path:url(#clipPath3); stroke:none;" xml:space="preserve">CommunicationModule</text>
    </g>
    <g transform="translate(72.4286,122)" style="font-size:11; fill:url(#linearGradient2); text-rendering:geometricPrecision; font-family:sans-serif; stroke:url(#linearGradient2); font-weight:bold;">
      <rect x="0" y="0" width="330" style="clip-path:url(#clipPath4); stroke:none;" height="170" />
    </g>
    <g transform="translate(72.4286,122)" style="stroke-linecap:butt; font-size:11; text-rendering:geometricPrecision; stroke-linejoin:round; font-family:sans-serif; font-weight:bold; stroke-width:2; stroke-miterlimit:0;">
      <rect x="0" y="0" width="330" style="clip-path:url(#clipPath4); fill:none;" height="170" />
      <line x1="0" x2="330" y1="15" style="clip-path:url(#clipPath4); fill:none;" y2="15" />
    </g>
    <g style="text-rendering:geometricPrecision; font-size:11; font-family:sans-serif;" transform="translate(72.4286,137)">
      <text x="2" y="14" style="clip-path:url(#clipPath5); stroke:none;" xml:space="preserve">+DEFAULT_MAX_DIST : int = 10</text>
      <line x1="2" x2="155" y1="16" style="clip-path:url(#clipPath5); fill:none;" y2="16" />
      <text x="2" y="29" style="clip-path:url(#clipPath5); stroke:none;" xml:space="preserve">-handlers : Map&lt;Class&lt;? extends Message&gt;, MessageHandler&gt;</text>
      <text x="2" y="44" style="clip-path:url(#clipPath5); stroke:none;" xml:space="preserve">&lt;&lt;Property&gt;&gt; -agent : Agent</text>
    </g>
    <g transform="translate(72.4286,137)" style="stroke-linecap:butt; font-size:11; text-rendering:geometricPrecision; stroke-linejoin:bevel; font-family:sans-serif; stroke-width:2; stroke-miterlimit:0;">
      <line x1="0" x2="330" y1="49" style="clip-path:url(#clipPath5); fill:none;" y2="49" />
    </g>
    <g style="text-rendering:geometricPrecision; font-size:11; font-family:sans-serif;" transform="translate(72.4286,137)">
      <text x="2" y="63" style="clip-path:url(#clipPath5); stroke:none;" xml:space="preserve">+DefaultCommunicationModule(agent : Agent)</text>
      <text x="2" y="78" style="clip-path:url(#clipPath5); stroke:none;" xml:space="preserve">+communicate() : void</text>
      <text x="2" y="93" style="clip-path:url(#clipPath5); stroke:none;" xml:space="preserve">+getStorageLabel() : String</text>
      <text x="2" y="108" style="clip-path:url(#clipPath5); stroke:none;" xml:space="preserve">+addMessage(msg : Message) : void</text>
      <text x="2" y="123" style="clip-path:url(#clipPath5); stroke:none;" xml:space="preserve">+addMessageHandler(handler : MessageHandler) : void</text>
      <text x="2" y="138" style="clip-path:url(#clipPath5); stroke:none;" xml:space="preserve">-handleMessage(message : Message) : Message</text>
    </g>
    <g transform="translate(72.4286,122)" style="text-rendering:geometricPrecision; font-size:11; font-weight:bold; font-family:sans-serif;">
      <text x="85" y="12" style="clip-path:url(#clipPath6); stroke:none;" xml:space="preserve">DefaultCommunicationModule</text>
    </g>
    <g transform="translate(72.4286,862)" style="font-size:11; fill:url(#linearGradient3); text-rendering:geometricPrecision; font-family:sans-serif; stroke:url(#linearGradient3); font-weight:bold;">
      <rect x="0" y="0" width="370" style="clip-path:url(#clipPath7); stroke:none;" height="40" />
    </g>
    <g transform="translate(72.4286,862)" style="stroke-linecap:butt; font-size:11; text-rendering:geometricPrecision; stroke-linejoin:round; font-family:sans-serif; font-weight:bold; stroke-width:2; stroke-miterlimit:0;">
      <rect x="0" y="0" width="370" style="clip-path:url(#clipPath7); fill:none;" height="40" />
      <line x1="0" x2="370" y1="15" style="clip-path:url(#clipPath7); fill:none;" y2="15" />
    </g>
    <g transform="translate(72.4286,877)" style="stroke-linecap:butt; font-size:11; text-rendering:geometricPrecision; stroke-linejoin:round; font-family:sans-serif; stroke-width:2; stroke-miterlimit:0;">
      <text x="2" y="14" style="clip-path:url(#clipPath8); stroke:none;" xml:space="preserve">+getHandledMessageType() : Class&lt;CanYouMakeItNoAnswerMessage&gt;</text>
    </g>
    <g transform="translate(72.4286,862)" style="stroke-linecap:butt; font-size:11; text-rendering:geometricPrecision; stroke-linejoin:round; font-family:sans-serif; font-weight:bold; stroke-width:2; stroke-miterlimit:0;">
      <text x="76" y="12" style="clip-path:url(#clipPath9); stroke:none;" xml:space="preserve">CanYouMakeItNoAnswerMessageHandler</text>
    </g>
    <g transform="translate(72.4286,702)" style="font-size:11; fill:url(#linearGradient4); text-rendering:geometricPrecision; font-family:sans-serif; stroke:url(#linearGradient4); font-weight:bold;">
      <rect x="0" y="0" width="400" style="clip-path:url(#clipPath10); stroke:none;" height="80" />
    </g>
    <g transform="translate(72.4286,702)" style="stroke-linecap:butt; font-size:11; text-rendering:geometricPrecision; stroke-linejoin:round; font-family:sans-serif; font-weight:bold; stroke-width:2; stroke-miterlimit:0;">
      <rect x="0" y="0" width="400" style="clip-path:url(#clipPath10); fill:none;" height="80" />
      <line x1="0" x2="400" y1="15" style="clip-path:url(#clipPath10); fill:none;" y2="15" />
    </g>
    <g style="text-rendering:geometricPrecision; font-size:11; font-family:sans-serif;" transform="translate(72.4286,717)">
      <text x="2" y="14" style="clip-path:url(#clipPath11); stroke:none;" xml:space="preserve">+CanYouMakeItQuestionMessageHandler(commMod : CommunicationModule)</text>
      <text x="2" y="29" style="clip-path:url(#clipPath11); stroke:none;" xml:space="preserve">+getHandledMessageType() : Class&lt;CanYouMakeItQuestionMessage&gt;</text>
      <text x="2" y="44" style="clip-path:url(#clipPath11); stroke:none;" xml:space="preserve">+handle(msg : Message) : Message</text>
    </g>
    <g transform="translate(72.4286,702)" style="text-rendering:geometricPrecision; font-size:11; font-weight:bold; font-family:sans-serif;">
      <text x="94" y="12" style="clip-path:url(#clipPath12); stroke:none;" xml:space="preserve">CanYouMakeItQuestionMessageHandler</text>
    </g>
    <g transform="translate(72.4286,802)" style="font-size:11; fill:url(#linearGradient5); text-rendering:geometricPrecision; font-family:sans-serif; stroke:url(#linearGradient5); font-weight:bold;">
      <rect x="0" y="0" width="370" style="clip-path:url(#clipPath7); stroke:none;" height="40" />
    </g>
    <g transform="translate(72.4286,802)" style="stroke-linecap:butt; font-size:11; text-rendering:geometricPrecision; stroke-linejoin:round; font-family:sans-serif; font-weight:bold; stroke-width:2; stroke-miterlimit:0;">
      <rect x="0" y="0" width="370" style="clip-path:url(#clipPath7); fill:none;" height="40" />
      <line x1="0" x2="370" y1="15" style="clip-path:url(#clipPath7); fill:none;" y2="15" />
    </g>
    <g style="text-rendering:geometricPrecision; font-size:11; font-family:sans-serif;" transform="translate(72.4286,817)">
      <text x="2" y="14" style="clip-path:url(#clipPath8); stroke:none;" xml:space="preserve">+getHandledMessageType() : Class&lt;CanYouMakeItYesAnswerMessage&gt;</text>
    </g>
    <g transform="translate(72.4286,802)" style="text-rendering:geometricPrecision; font-size:11; font-weight:bold; font-family:sans-serif;">
      <text x="73" y="12" style="clip-path:url(#clipPath9); stroke:none;" xml:space="preserve">CanYouMakeItYesAnswerMessageHandler</text>
    </g>
    <g transform="translate(402.4286,12)" style="font-size:11; fill:url(#linearGradient6); text-rendering:geometricPrecision; font-family:sans-serif; stroke:url(#linearGradient6); font-weight:bold;">
      <rect x="0" y="0" width="340" style="clip-path:url(#clipPath13); stroke:none;" height="80" />
    </g>
    <g transform="translate(402.4286,12)" style="stroke-linecap:butt; font-size:11; text-rendering:geometricPrecision; stroke-linejoin:round; font-family:sans-serif; font-weight:bold; stroke-width:2; stroke-miterlimit:0;">
      <rect x="0" y="0" width="340" style="clip-path:url(#clipPath13); fill:none;" height="80" />
      <line x1="0" x2="340" y1="30" style="clip-path:url(#clipPath13); fill:none;" y2="30" />
    </g>
    <g style="text-rendering:geometricPrecision; font-size:11; font-family:sans-serif;" transform="translate(402.4286,42)">
      <text x="2" y="14" style="clip-path:url(#clipPath14); stroke:none;" xml:space="preserve">&lt;&lt;Property&gt;&gt; +handledMessageType : Class&lt;? extends Message&gt;</text>
    </g>
    <g transform="translate(402.4286,42)" style="stroke-linecap:butt; font-size:11; text-rendering:geometricPrecision; stroke-linejoin:bevel; font-family:sans-serif; stroke-width:2; stroke-miterlimit:0;">
      <line x1="0" x2="340" y1="19" style="clip-path:url(#clipPath14); fill:none;" y2="19" />
    </g>
    <g style="text-rendering:geometricPrecision; font-size:11; font-family:sans-serif;" transform="translate(402.4286,42)">
      <text x="2" y="33" style="clip-path:url(#clipPath14); stroke:none;" xml:space="preserve">+handle(msg : Message) : Message</text>
    </g>
    <g transform="translate(402.4286,12)" style="text-rendering:geometricPrecision; font-size:11; font-weight:bold; font-family:sans-serif;">
      <text x="133" y="12" style="clip-path:url(#clipPath15); stroke:none;" xml:space="preserve">&lt;&lt;Interface&gt;&gt;</text>
      <text x="125" y="27" style="clip-path:url(#clipPath15); stroke:none;" xml:space="preserve">MessageHandler</text>
    </g>
    <g transform="translate(512.4286,122)" style="font-size:11; fill:url(#linearGradient7); text-rendering:geometricPrecision; font-family:sans-serif; stroke:url(#linearGradient7); font-weight:bold;">
      <rect x="0" y="0" width="190" style="clip-path:url(#clipPath16); stroke:none;" height="40" />
    </g>
    <g transform="translate(512.4286,122)" style="stroke-linecap:butt; font-size:11; text-rendering:geometricPrecision; stroke-linejoin:round; font-family:sans-serif; font-weight:bold; stroke-width:2; stroke-miterlimit:0;">
      <rect x="0" y="0" width="190" style="clip-path:url(#clipPath16); fill:none;" height="40" />
      <line x1="0" x2="190" y1="15" style="clip-path:url(#clipPath16); fill:none;" y2="15" />
    </g>
    <g style="text-rendering:geometricPrecision; font-size:11; font-family:sans-serif;" transform="translate(512.4286,137)">
      <text x="2" y="14" style="clip-path:url(#clipPath17); stroke:none;" xml:space="preserve">+handle(msg : Message) : Message</text>
    </g>
    <g transform="translate(512.4286,122)" style="font-size:11; text-rendering:geometricPrecision; font-family:sans-serif; font-style:italic; font-weight:bold;">
      <text x="38" y="12" style="clip-path:url(#clipPath18); stroke:none;" xml:space="preserve">VoidMessageHandler</text>
    </g>
    <g transform="translate(72.4286,422)" style="font-size:11; fill:url(#linearGradient8); text-rendering:geometricPrecision; font-family:sans-serif; stroke:url(#linearGradient8); font-weight:bold;">
      <rect x="0" y="0" width="370" style="clip-path:url(#clipPath19); stroke:none;" height="80" />
    </g>
    <g transform="translate(72.4286,422)" style="stroke-linecap:butt; font-size:11; text-rendering:geometricPrecision; stroke-linejoin:round; font-family:sans-serif; font-weight:bold; stroke-width:2; stroke-miterlimit:0;">
      <rect x="0" y="0" width="370" style="clip-path:url(#clipPath19); fill:none;" height="80" />
      <line x1="0" x2="370" y1="15" style="clip-path:url(#clipPath19); fill:none;" y2="15" />
    </g>
    <g style="text-rendering:geometricPrecision; font-size:11; font-family:sans-serif;" transform="translate(72.4286,437)">
      <text x="2" y="14" style="clip-path:url(#clipPath20); stroke:none;" xml:space="preserve">+WhereIsItAnswerMessageHandler(commMod : CommunicationModule)</text>
      <text x="2" y="29" style="clip-path:url(#clipPath20); stroke:none;" xml:space="preserve">+getHandledMessageType() : Class&lt;WhereIsItAnswerMessage&gt;</text>
      <text x="2" y="44" style="clip-path:url(#clipPath20); stroke:none;" xml:space="preserve">+handle(msg : Message) : Message</text>
    </g>
    <g transform="translate(72.4286,422)" style="text-rendering:geometricPrecision; font-size:11; font-weight:bold; font-family:sans-serif;">
      <text x="96" y="12" style="clip-path:url(#clipPath9); stroke:none;" xml:space="preserve">WhereIsItAnswerMessageHandler</text>
    </g>
    <g transform="translate(72.4286,532)" style="font-size:11; fill:url(#linearGradient9); text-rendering:geometricPrecision; font-family:sans-serif; stroke:url(#linearGradient9); font-weight:bold;">
      <rect x="0" y="0" width="360" style="clip-path:url(#clipPath21); stroke:none;" height="40" />
    </g>
    <g transform="translate(72.4286,532)" style="stroke-linecap:butt; font-size:11; text-rendering:geometricPrecision; stroke-linejoin:round; font-family:sans-serif; font-weight:bold; stroke-width:2; stroke-miterlimit:0;">
      <rect x="0" y="0" width="360" style="clip-path:url(#clipPath21); fill:none;" height="40" />
      <line x1="0" x2="360" y1="15" style="clip-path:url(#clipPath21); fill:none;" y2="15" />
    </g>
    <g style="text-rendering:geometricPrecision; font-size:11; font-family:sans-serif;" transform="translate(72.4286,547)">
      <text x="2" y="14" style="clip-path:url(#clipPath22); stroke:none;" xml:space="preserve">+getHandledMessageType() : Class&lt;WhereIsItDunnoAnswerMessage&gt;</text>
    </g>
    <g transform="translate(72.4286,532)" style="text-rendering:geometricPrecision; font-size:11; font-weight:bold; font-family:sans-serif;">
      <text x="73" y="12" style="clip-path:url(#clipPath23); stroke:none;" xml:space="preserve">WhereIsItDunnoAnswerMessageHandler</text>
    </g>
    <g transform="translate(72.4286,312)" style="font-size:11; fill:url(#linearGradient10); text-rendering:geometricPrecision; font-family:sans-serif; stroke:url(#linearGradient10); font-weight:bold;">
      <rect x="0" y="0" width="390" style="clip-path:url(#clipPath24); stroke:none;" height="80" />
    </g>
    <g transform="translate(72.4286,312)" style="stroke-linecap:butt; font-size:11; text-rendering:geometricPrecision; stroke-linejoin:round; font-family:sans-serif; font-weight:bold; stroke-width:2; stroke-miterlimit:0;">
      <rect x="0" y="0" width="390" style="clip-path:url(#clipPath24); fill:none;" height="80" />
      <line x1="0" x2="390" y1="15" style="clip-path:url(#clipPath24); fill:none;" y2="15" />
    </g>
    <g style="text-rendering:geometricPrecision; font-size:11; font-family:sans-serif;" transform="translate(72.4286,327)">
      <text x="2" y="14" style="clip-path:url(#clipPath25); stroke:none;" xml:space="preserve">+WhereIsItQuestionMessageHandler(commModule : CommunicationModule)</text>
      <text x="2" y="29" style="clip-path:url(#clipPath25); stroke:none;" xml:space="preserve">+getHandledMessageType() : Class&lt;WhereIsItQuestionMessage&gt;</text>
      <text x="2" y="44" style="clip-path:url(#clipPath25); stroke:none;" xml:space="preserve">+handle(msg : Message) : Message</text>
    </g>
    <g transform="translate(72.4286,312)" style="text-rendering:geometricPrecision; font-size:11; font-weight:bold; font-family:sans-serif;">
      <text x="102" y="12" style="clip-path:url(#clipPath26); stroke:none;" xml:space="preserve">WhereIsItQuestionMessageHandler</text>
    </g>
    <g transform="translate(-68.5714,-48)" style="stroke-linecap:butt; font-size:11; text-rendering:geometricPrecision; font-family:sans-serif; stroke-linejoin:round; stroke-width:2;">
      <line x1="112" x2="71" y1="790" style="clip-path:url(#clipPath29); fill:none;" y2="790" />
      <line x1="71" x2="73" y1="790" style="clip-path:url(#clipPath29); fill:none;" y2="71" />
      <line x1="73" x2="140" y1="71" style="clip-path:url(#clipPath29); fill:none;" y2="71" />
      <polygon style="fill:none; clip-path:url(#clipPath29);" points=" 140 790 126 782 112 790 126 797" />
    </g>
    <g transform="translate(342.4286,-8)" style="stroke-linecap:butt; font-size:11; stroke-dashoffset:1; text-rendering:geometricPrecision; stroke-linejoin:round; font-family:sans-serif; stroke-dasharray:5; stroke-width:2;">
      <line x1="150" x2="150" y1="100" style="clip-path:url(#clipPath30); fill:none;" y2="480" />
      <line x1="150" x2="100" y1="480" style="clip-path:url(#clipPath30); fill:none;" y2="480" />
    </g>
    <g transform="translate(342.4286,-8)" style="stroke-linecap:butt; font-size:11; fill:white; text-rendering:geometricPrecision; stroke-linejoin:round; font-family:sans-serif; stroke:white; stroke-width:2;">
      <polygon style="clip-path:url(#clipPath30); stroke:none;" points=" 150 100 142 113 157 113" />
      <polygon style="fill:none; clip-path:url(#clipPath30); stroke:black;" points=" 150 100 142 113 157 113" />
    </g>
    <g transform="translate(391.4286,21)" style="stroke-linecap:butt; font-size:11; stroke-dashoffset:1; text-rendering:geometricPrecision; stroke-linejoin:round; font-family:sans-serif; stroke-dasharray:5; stroke-width:2;">
      <line x1="81" x2="81" y1="71" style="clip-path:url(#clipPath31); fill:none;" y2="331" />
      <line x1="81" x2="71" y1="331" style="clip-path:url(#clipPath31); fill:none;" y2="331" />
    </g>
    <g transform="translate(391.4286,21)" style="stroke-linecap:butt; font-size:11; fill:white; text-rendering:geometricPrecision; stroke-linejoin:round; font-family:sans-serif; stroke:white; stroke-width:2;">
      <polygon style="clip-path:url(#clipPath31); stroke:none;" points=" 81 71 73 84 88 84" />
      <polygon style="fill:none; clip-path:url(#clipPath31); stroke:black;" points=" 81 71 73 84 88 84" />
    </g>
    <g transform="translate(200.4286,-10)" style="stroke-linecap:butt; font-size:11; stroke-dashoffset:1; text-rendering:geometricPrecision; stroke-linejoin:round; font-family:sans-serif; stroke-dasharray:5; stroke-width:2;">
      <line x1="64" x2="154" y1="64" style="clip-path:url(#clipPath32); fill:none;" y2="64" />
      <line x1="154" x2="154" y1="64" style="clip-path:url(#clipPath32); fill:none;" y2="132" />
    </g>
    <g transform="translate(200.4286,-10)" style="stroke-linecap:butt; font-size:11; fill:white; text-rendering:geometricPrecision; stroke-linejoin:round; font-family:sans-serif; stroke:white; stroke-width:2;">
      <polygon style="clip-path:url(#clipPath32); stroke:none;" points=" 64 64 77 71 77 56" />
      <polygon style="fill:none; clip-path:url(#clipPath32); stroke:black;" points=" 64 64 77 71 77 56" />
    </g>
    <g transform="translate(332.4286,62)" style="stroke-linecap:butt; font-size:11; text-rendering:geometricPrecision; font-family:sans-serif; stroke-linejoin:round; stroke-width:2;">
      <line x1="210" x2="210" y1="100" style="clip-path:url(#clipPath33); fill:none;" y2="490" />
      <line x1="210" x2="100" y1="490" style="clip-path:url(#clipPath33); fill:none;" y2="490" />
      <polygon style="fill:white; clip-path:url(#clipPath33); stroke:none;" points=" 210 100 202 113 217 113" />
      <polygon style="fill:none; clip-path:url(#clipPath33);" points=" 210 100 202 113 217 113" />
    </g>
    <g transform="translate(-28.5714,22)" style="stroke-linecap:butt; font-size:11; text-rendering:geometricPrecision; font-family:sans-serif; stroke-linejoin:round; stroke-width:2;">
      <line x1="72" x2="71" y1="330" style="clip-path:url(#clipPath34); fill:none;" y2="330" />
      <line x1="71" x2="73" y1="330" style="clip-path:url(#clipPath34); fill:none;" y2="71" />
      <line x1="73" x2="100" y1="71" style="clip-path:url(#clipPath34); fill:none;" y2="71" />
      <polygon style="fill:none; clip-path:url(#clipPath34);" points=" 100 330 86 322 72 330 86 337" />
    </g>
    <g transform="translate(342.4286,62)" style="stroke-linecap:butt; font-size:11; text-rendering:geometricPrecision; font-family:sans-serif; stroke-linejoin:round; stroke-width:2;">
      <line x1="250" x2="250" y1="100" style="clip-path:url(#clipPath35); fill:none;" y2="780" />
      <line x1="250" x2="100" y1="780" style="clip-path:url(#clipPath35); fill:none;" y2="780" />
      <polygon style="fill:white; clip-path:url(#clipPath35); stroke:none;" points=" 250 100 242 113 257 113" />
      <polygon style="fill:none; clip-path:url(#clipPath35);" points=" 250 100 242 113 257 113" />
    </g>
    <g transform="translate(540.4286,30)" style="stroke-linecap:butt; font-size:11; stroke-dashoffset:1; text-rendering:geometricPrecision; stroke-linejoin:round; font-family:sans-serif; stroke-dasharray:5; stroke-width:2;">
      <line x1="63" x2="63" y1="63" style="clip-path:url(#clipPath36); fill:none;" y2="91" />
    </g>
    <g transform="translate(540.4286,30)" style="stroke-linecap:butt; font-size:11; fill:white; text-rendering:geometricPrecision; stroke-linejoin:round; font-family:sans-serif; stroke:white; stroke-width:2;">
      <polygon style="clip-path:url(#clipPath36); stroke:none;" points=" 63 63 55 76 70 76" />
      <polygon style="fill:none; clip-path:url(#clipPath36); stroke:black;" points=" 63 63 55 76 70 76" />
    </g>
    <g transform="translate(342.4286,62)" style="stroke-linecap:butt; font-size:11; text-rendering:geometricPrecision; font-family:sans-serif; stroke-linejoin:round; stroke-width:2;">
      <line x1="300" x2="300" y1="100" style="clip-path:url(#clipPath37); fill:none;" y2="820" />
      <line x1="300" x2="100" y1="820" style="clip-path:url(#clipPath37); fill:none;" y2="820" />
      <polygon style="fill:white; clip-path:url(#clipPath37); stroke:none;" points=" 300 100 292 113 307 113" />
      <polygon style="fill:none; clip-path:url(#clipPath37);" points=" 300 100 292 113 307 113" />
    </g>
    <g transform="translate(401.4286,21)" style="stroke-linecap:butt; font-size:11; stroke-dashoffset:1; text-rendering:geometricPrecision; stroke-linejoin:round; font-family:sans-serif; stroke-dasharray:5; stroke-width:2;">
      <line x1="311" x2="311" y1="71" style="clip-path:url(#clipPath38); fill:none;" y2="731" />
      <line x1="311" x2="71" y1="731" style="clip-path:url(#clipPath38); fill:none;" y2="731" />
    </g>
    <g transform="translate(401.4286,21)" style="stroke-linecap:butt; font-size:11; fill:white; text-rendering:geometricPrecision; stroke-linejoin:round; font-family:sans-serif; stroke:white; stroke-width:2;">
      <polygon style="clip-path:url(#clipPath38); stroke:none;" points=" 311 71 303 84 318 84" />
      <polygon style="fill:none; clip-path:url(#clipPath38); stroke:black;" points=" 311 71 303 84 318 84" />
    </g>
    <g transform="translate(-77.5714,-38)" style="stroke-linecap:butt; font-size:11; text-rendering:geometricPrecision; font-family:sans-serif; stroke-linejoin:round; stroke-width:2;">
      <line x1="122" x2="100" y1="520" style="clip-path:url(#clipPath39); fill:none;" y2="520" />
      <line x1="100" x2="100" y1="520" style="clip-path:url(#clipPath39); fill:none;" y2="100" />
      <line x1="100" x2="150" y1="100" style="clip-path:url(#clipPath39); fill:none;" y2="100" />
      <polygon style="fill:none; clip-path:url(#clipPath39);" points=" 150 520 136 512 122 520 136 527" />
    </g>
    <g transform="translate(280.4286,230)" style="stroke-linecap:butt; font-size:11; stroke-dashoffset:1; text-rendering:geometricPrecision; stroke-linejoin:round; font-family:sans-serif; stroke-dasharray:5; stroke-width:2;">
      <line x1="63" x2="63" y1="63" style="clip-path:url(#clipPath40); fill:none;" y2="81" />
      <line x1="63" x2="70" y1="81" style="clip-path:url(#clipPath40); stroke-dashoffset:0; fill:none; stroke-dasharray:none;" y2="67" />
      <line x1="63" x2="55" y1="81" style="clip-path:url(#clipPath40); stroke-dashoffset:0; fill:none; stroke-dasharray:none;" y2="67" />
    </g>
    <g transform="translate(290.4286,230)" style="stroke-linecap:butt; font-size:11; stroke-dashoffset:1; text-rendering:geometricPrecision; stroke-linejoin:round; font-family:sans-serif; stroke-dasharray:5; stroke-width:2;">
      <line x1="63" x2="63" y1="63" style="clip-path:url(#clipPath41); fill:none;" y2="191" />
      <line x1="63" x2="70" y1="191" style="clip-path:url(#clipPath41); stroke-dashoffset:0; fill:none; stroke-dasharray:none;" y2="177" />
      <line x1="63" x2="55" y1="191" style="clip-path:url(#clipPath41); stroke-dashoffset:0; fill:none; stroke-dasharray:none;" y2="177" />
    </g>
    <g transform="translate(300.4286,230)" style="stroke-linecap:butt; font-size:11; stroke-dashoffset:1; text-rendering:geometricPrecision; stroke-linejoin:round; font-family:sans-serif; stroke-dasharray:5; stroke-width:2;">
      <line x1="63" x2="63" y1="63" style="clip-path:url(#clipPath42); fill:none;" y2="301" />
      <line x1="63" x2="70" y1="301" style="clip-path:url(#clipPath42); stroke-dashoffset:0; fill:none; stroke-dasharray:none;" y2="287" />
      <line x1="63" x2="55" y1="301" style="clip-path:url(#clipPath42); stroke-dashoffset:0; fill:none; stroke-dasharray:none;" y2="287" />
    </g>
    <g transform="translate(310.4286,230)" style="stroke-linecap:butt; font-size:11; stroke-dashoffset:1; text-rendering:geometricPrecision; stroke-linejoin:round; font-family:sans-serif; stroke-dasharray:5; stroke-width:2;">
      <line x1="63" x2="63" y1="63" style="clip-path:url(#clipPath43); fill:none;" y2="471" />
      <line x1="63" x2="70" y1="471" style="clip-path:url(#clipPath43); stroke-dashoffset:0; fill:none; stroke-dasharray:none;" y2="457" />
      <line x1="63" x2="55" y1="471" style="clip-path:url(#clipPath43); stroke-dashoffset:0; fill:none; stroke-dasharray:none;" y2="457" />
    </g>
    <g transform="translate(320.4286,230)" style="stroke-linecap:butt; font-size:11; stroke-dashoffset:1; text-rendering:geometricPrecision; stroke-linejoin:round; font-family:sans-serif; stroke-dasharray:5; stroke-width:2;">
      <line x1="63" x2="63" y1="63" style="clip-path:url(#clipPath44); fill:none;" y2="571" />
      <line x1="63" x2="70" y1="571" style="clip-path:url(#clipPath44); stroke-dashoffset:0; fill:none; stroke-dasharray:none;" y2="557" />
      <line x1="63" x2="55" y1="571" style="clip-path:url(#clipPath44); stroke-dashoffset:0; fill:none; stroke-dasharray:none;" y2="557" />
    </g>
    <g transform="translate(330.4286,230)" style="stroke-linecap:butt; font-size:11; stroke-dashoffset:1; text-rendering:geometricPrecision; stroke-linejoin:round; font-family:sans-serif; stroke-dasharray:5; stroke-width:2;">
      <line x1="63" x2="63" y1="63" style="clip-path:url(#clipPath45); fill:none;" y2="631" />
      <line x1="63" x2="70" y1="631" style="clip-path:url(#clipPath45); stroke-dashoffset:0; fill:none; stroke-dasharray:none;" y2="617" />
      <line x1="63" x2="55" y1="631" style="clip-path:url(#clipPath45); stroke-dashoffset:0; fill:none; stroke-dasharray:none;" y2="617" />
    </g>
    <g style="text-rendering:geometricPrecision; font-size:11; font-family:sans-serif;" transform="translate(32.4286,62)">
      <text x="17" y="14" style="clip-path:url(#clipPath46); stroke:none;" xml:space="preserve">1</text>
    </g>
    <g style="text-rendering:geometricPrecision; font-size:11; font-family:sans-serif;" transform="translate(2.4286,42)">
      <text x="10" y="14" style="clip-path:url(#clipPath47); stroke:none;" xml:space="preserve">commMod</text>
    </g>
    <g style="text-rendering:geometricPrecision; font-size:11; font-family:sans-serif;" transform="translate(42.4286,72)">
      <text x="17" y="14" style="clip-path:url(#clipPath46); stroke:none;" xml:space="preserve">1</text>
    </g>
    <g style="text-rendering:geometricPrecision; font-size:11; font-family:sans-serif;" transform="translate(52.4286,102)">
      <text x="10" y="14" style="clip-path:url(#clipPath47); stroke:none;" xml:space="preserve">commMod</text>
    </g>
    <g style="text-rendering:geometricPrecision; font-size:11; font-family:sans-serif;" transform="translate(32.4286,22)">
      <text x="17" y="14" style="clip-path:url(#clipPath46); stroke:none;" xml:space="preserve">1</text>
    </g>
    <g style="text-rendering:geometricPrecision; font-size:11; font-family:sans-serif;" transform="translate(2.4286,2)">
      <text x="10" y="14" style="clip-path:url(#clipPath47); stroke:none;" xml:space="preserve">commMod</text>
    </g>
  </g>
</svg>
