<?xml version="1.0" encoding="UTF-8"?>

<!DOCTYPE svg PUBLIC '-//W3C//DTD SVG 1.0//EN' 'http://www.w3.org/TR/2001/REC-SVG-20010904/DTD/svg10.dtd'>
<svg style="fill-opacity:1; color-rendering:auto; color-interpolation:auto; text-rendering:auto; stroke:black; stroke-linecap:square; stroke-miterlimit:10; shape-rendering:auto; stroke-opacity:1; fill:black; stroke-dasharray:none; font-weight:normal; stroke-width:1; font-family:&apos;Dialog&apos;; font-style:normal; stroke-linejoin:miter; font-size:12; stroke-dashoffset:0; image-rendering:auto;" xmlns="http://www.w3.org/2000/svg" width="536" xmlns:xlink="http://www.w3.org/1999/xlink" height="900">
  <!--Generated by the Batik Graphics2D SVG Generator-->
  <defs id="genericDefs" />
  <g>
    <defs id="defs1">
      <linearGradient x1="185" gradientUnits="userSpaceOnUse" x2="185" y1="140" y2="0" id="linearGradient1" spreadMethod="reflect">
        <stop style="stop-opacity:0.498; stop-color:rgb(0,255,255);" offset="0%" />
        <stop style="stop-opacity:0.498; stop-color:rgb(255,255,255);" offset="100%" />
      </linearGradient>
      <linearGradient x1="90" gradientUnits="userSpaceOnUse" x2="90" y1="350" y2="0" id="linearGradient2" spreadMethod="reflect">
        <stop style="stop-opacity:0.498; stop-color:rgb(255,255,0);" offset="0%" />
        <stop style="stop-opacity:0.498; stop-color:rgb(255,255,255);" offset="100%" />
      </linearGradient>
      <linearGradient x1="89.5" gradientUnits="userSpaceOnUse" x2="89.5" y1="379" y2="0" id="linearGradient3" spreadMethod="reflect">
        <stop style="stop-opacity:0.498; stop-color:rgb(255,255,0);" offset="0%" />
        <stop style="stop-opacity:0.498; stop-color:rgb(255,255,255);" offset="100%" />
      </linearGradient>
      <linearGradient x1="70" gradientUnits="userSpaceOnUse" x2="70" y1="60" y2="0" id="linearGradient4" spreadMethod="reflect">
        <stop style="stop-opacity:0.498; stop-color:rgb(255,255,0);" offset="0%" />
        <stop style="stop-opacity:0.498; stop-color:rgb(255,255,255);" offset="100%" />
      </linearGradient>
      <linearGradient x1="135" gradientUnits="userSpaceOnUse" x2="135" y1="90" y2="0" id="linearGradient5" spreadMethod="reflect">
        <stop style="stop-opacity:0.498; stop-color:rgb(255,255,0);" offset="0%" />
        <stop style="stop-opacity:0.498; stop-color:rgb(255,255,255);" offset="100%" />
      </linearGradient>
      <linearGradient x1="65" gradientUnits="userSpaceOnUse" x2="65" y1="60" y2="0" id="linearGradient6" spreadMethod="reflect">
        <stop style="stop-opacity:0.498; stop-color:rgb(255,255,0);" offset="0%" />
        <stop style="stop-opacity:0.498; stop-color:rgb(255,255,255);" offset="100%" />
      </linearGradient>
      <clipPath clipPathUnits="userSpaceOnUse" id="clipPath1">
        <path d="M-4 -4 L378 -4 L378 148 L-4 148 L-4 -4 Z" />
      </clipPath>
      <clipPath clipPathUnits="userSpaceOnUse" id="clipPath2">
        <path d="M0 0 L0 133 L370 133 L370 0 Z" />
      </clipPath>
      <clipPath clipPathUnits="userSpaceOnUse" id="clipPath3">
        <path d="M0 0 L370 0 L370 15 L0 15 L0 0 Z" />
      </clipPath>
      <clipPath clipPathUnits="userSpaceOnUse" id="clipPath4">
        <path d="M-4 -4 L188 -4 L188 358 L-4 358 L-4 -4 Z" />
      </clipPath>
      <clipPath clipPathUnits="userSpaceOnUse" id="clipPath5">
        <path d="M0 0 L0 343 L180 343 L180 0 Z" />
      </clipPath>
      <clipPath clipPathUnits="userSpaceOnUse" id="clipPath6">
        <path d="M0 0 L180 0 L180 15 L0 15 L0 0 Z" />
      </clipPath>
      <clipPath clipPathUnits="userSpaceOnUse" id="clipPath7">
        <path d="M-3 -3 L67 -3 L67 27 L-3 27 L-3 -3 Z" />
      </clipPath>
      <clipPath clipPathUnits="userSpaceOnUse" id="clipPath8">
        <path d="M-3 -3 L47 -3 L47 27 L-3 27 L-3 -3 Z" />
      </clipPath>
      <clipPath clipPathUnits="userSpaceOnUse" id="clipPath9">
        <path d="M-4 -20 L192 -20 L192 386 L-4 386 L-4 -20 Z" />
      </clipPath>
      <clipPath clipPathUnits="userSpaceOnUse" id="clipPath10">
        <path d="M0 0 L0 356 L179 356 L179 0 Z" />
      </clipPath>
      <clipPath clipPathUnits="userSpaceOnUse" id="clipPath11">
        <path d="M0 0 L179 0 L179 30 L0 30 L0 0 Z" />
      </clipPath>
      <clipPath clipPathUnits="userSpaceOnUse" id="clipPath12">
        <path d="M-3 -3 L71 -3 L71 28 L-3 28 L-3 -3 Z" />
      </clipPath>
      <clipPath clipPathUnits="userSpaceOnUse" id="clipPath13">
        <path d="M0 0 L64 0 L64 21 L0 21 L0 0 Z" />
      </clipPath>
      <clipPath clipPathUnits="userSpaceOnUse" id="clipPath14">
        <path d="M-4 -4 L148 -4 L148 68 L-4 68 L-4 -4 Z" />
      </clipPath>
      <clipPath clipPathUnits="userSpaceOnUse" id="clipPath15">
        <path d="M0 0 L0 38 L140 38 L140 0 Z" />
      </clipPath>
      <clipPath clipPathUnits="userSpaceOnUse" id="clipPath16">
        <path d="M0 0 L140 0 L140 30 L0 30 L0 0 Z" />
      </clipPath>
      <clipPath clipPathUnits="userSpaceOnUse" id="clipPath17">
        <path d="M-4 -19 L284 -19 L284 97 L-4 97 L-4 -19 Z" />
      </clipPath>
      <clipPath clipPathUnits="userSpaceOnUse" id="clipPath18">
        <path d="M0 0 L0 82 L270 82 L270 0 Z" />
      </clipPath>
      <clipPath clipPathUnits="userSpaceOnUse" id="clipPath19">
        <path d="M0 0 L270 0 L270 15 L0 15 L0 0 Z" />
      </clipPath>
      <clipPath clipPathUnits="userSpaceOnUse" id="clipPath20">
        <path d="M-3 -3 L21 -3 L21 29 L-3 29 L-3 -3 Z" />
      </clipPath>
      <clipPath clipPathUnits="userSpaceOnUse" id="clipPath21">
        <path d="M0 0 L14 0 L14 22 L0 22 L0 0 Z" />
      </clipPath>
      <clipPath clipPathUnits="userSpaceOnUse" id="clipPath22">
        <path d="M-4 -20 L144 -20 L144 67 L-4 67 L-4 -20 Z" />
      </clipPath>
      <clipPath clipPathUnits="userSpaceOnUse" id="clipPath23">
        <path d="M0 0 L0 52 L130 52 L130 0 Z" />
      </clipPath>
      <clipPath clipPathUnits="userSpaceOnUse" id="clipPath24">
        <path d="M0 0 L130 0 L130 15 L0 15 L0 0 Z" />
      </clipPath>
      <clipPath clipPathUnits="userSpaceOnUse" id="clipPath25">
        <path d="M-3 -3 L127 -3 L127 27 L-3 27 L-3 -3 Z" />
      </clipPath>
      <clipPath clipPathUnits="userSpaceOnUse" id="clipPath26">
        <path d="M-3 -3 L117 -3 L117 27 L-3 27 L-3 -3 Z" />
      </clipPath>
      <clipPath clipPathUnits="userSpaceOnUse" id="clipPath27">
        <path d="M-3 -3 L147 -3 L147 27 L-3 27 L-3 -3 Z" />
      </clipPath>
      <clipPath clipPathUnits="userSpaceOnUse" id="clipPath28">
        <path d="M-3 -3 L137 -3 L137 27 L-3 27 L-3 -3 Z" />
      </clipPath>
      <clipPath clipPathUnits="userSpaceOnUse" id="clipPath29">
        <path d="M-3 -3 L157 -3 L157 27 L-3 27 L-3 -3 Z" />
      </clipPath>
      <clipPath clipPathUnits="userSpaceOnUse" id="clipPath30">
        <path d="M-3 -3 L107 -3 L107 27 L-3 27 L-3 -3 Z" />
      </clipPath>
      <clipPath clipPathUnits="userSpaceOnUse" id="clipPath31">
        <path d="M-3 -3 L167 -3 L167 27 L-3 27 L-3 -3 Z" />
      </clipPath>
      <clipPath clipPathUnits="userSpaceOnUse" id="clipPath32">
        <path d="M0 0 L204 0 L204 304 L0 304 L0 0 Z" />
      </clipPath>
      <clipPath clipPathUnits="userSpaceOnUse" id="clipPath33">
        <path d="M0 0 L305 0 L305 147 L0 147 L0 0 Z" />
      </clipPath>
      <clipPath clipPathUnits="userSpaceOnUse" id="clipPath34">
        <path d="M0 0 L204 0 L204 244 L0 244 L0 0 Z" />
      </clipPath>
      <clipPath clipPathUnits="userSpaceOnUse" id="clipPath35">
        <path d="M0 0 L147 0 L147 227 L0 227 L0 0 Z" />
      </clipPath>
      <clipPath clipPathUnits="userSpaceOnUse" id="clipPath36">
        <path d="M0 0 L204 0 L204 294 L0 294 L0 0 Z" />
      </clipPath>
      <clipPath clipPathUnits="userSpaceOnUse" id="clipPath37">
        <path d="M0 0 L334 0 L334 204 L0 204 L0 0 Z" />
      </clipPath>
      <clipPath clipPathUnits="userSpaceOnUse" id="clipPath38">
        <path d="M0 0 L40 0 L40 20 L0 20 L0 0 Z" />
      </clipPath>
      <clipPath clipPathUnits="userSpaceOnUse" id="clipPath39">
        <path d="M0 0 L120 0 L120 16 L0 16 L0 0 Z" />
      </clipPath>
      <clipPath clipPathUnits="userSpaceOnUse" id="clipPath40">
        <path d="M0 0 L160 0 L160 20 L0 20 L0 0 Z" />
      </clipPath>
      <clipPath clipPathUnits="userSpaceOnUse" id="clipPath41">
        <path d="M0 0 L120 0 L120 20 L0 20 L0 0 Z" />
      </clipPath>
      <clipPath clipPathUnits="userSpaceOnUse" id="clipPath42">
        <path d="M0 0 L110 0 L110 20 L0 20 L0 0 Z" />
      </clipPath>
      <clipPath clipPathUnits="userSpaceOnUse" id="clipPath43">
        <path d="M0 0 L100 0 L100 20 L0 20 L0 0 Z" />
      </clipPath>
      <clipPath clipPathUnits="userSpaceOnUse" id="clipPath44">
        <path d="M0 0 L150 0 L150 20 L0 20 L0 0 Z" />
      </clipPath>
      <clipPath clipPathUnits="userSpaceOnUse" id="clipPath45">
        <path d="M0 0 L130 0 L130 20 L0 20 L0 0 Z" />
      </clipPath>
      <clipPath clipPathUnits="userSpaceOnUse" id="clipPath46">
        <path d="M0 0 L140 0 L140 20 L0 20 L0 0 Z" />
      </clipPath>
      <clipPath clipPathUnits="userSpaceOnUse" id="clipPath47">
        <path d="M0 0 L60 0 L60 20 L0 20 L0 0 Z" />
      </clipPath>
    </defs>
    <g style="fill:white; text-rendering:geometricPrecision; stroke:white;">
      <rect x="0" y="0" width="536" style="stroke:none;" height="900" />
    </g>
    <g transform="translate(74,4)" style="font-size:11; fill:url(#linearGradient1); text-rendering:geometricPrecision; font-family:sans-serif; stroke:url(#linearGradient1); font-weight:bold;">
      <rect x="0" y="0" width="370" style="clip-path:url(#clipPath1); stroke:none;" height="140" />
    </g>
    <g transform="translate(74,4)" style="stroke-linecap:butt; font-size:11; text-rendering:geometricPrecision; stroke-linejoin:round; font-family:sans-serif; font-weight:bold; stroke-width:2; stroke-miterlimit:0;">
      <rect x="0" y="0" width="370" style="clip-path:url(#clipPath1); fill:none;" height="140" />
      <line x1="0" x2="370" y1="15" style="clip-path:url(#clipPath1); fill:none;" y2="15" />
    </g>
    <g style="text-rendering:geometricPrecision; font-size:11; font-family:sans-serif;" transform="translate(74,19)">
      <text x="2" y="14" style="clip-path:url(#clipPath2); stroke:none;" xml:space="preserve">+DEFAULT_POSITION : Oriented2DPosition</text>
      <line x1="2" x2="206" y1="16" style="clip-path:url(#clipPath2); fill:none;" y2="16" />
      <text x="2" y="29" style="clip-path:url(#clipPath2); stroke:none;" xml:space="preserve">-worldObjectCommonProperties : Set&lt;PropertyModel&lt;?&gt;&gt;</text>
      <line x1="2" x2="279" y1="31" style="clip-path:url(#clipPath2); fill:none;" y2="31" />
      <text x="2" y="44" style="clip-path:url(#clipPath2); stroke:none;" xml:space="preserve">-agentCommonProperties : Set&lt;PropertyModel&lt;?&gt;&gt;</text>
      <line x1="2" x2="247" y1="46" style="clip-path:url(#clipPath2); fill:none;" y2="46" />
    </g>
    <g transform="translate(74,19)" style="stroke-linecap:butt; font-size:11; text-rendering:geometricPrecision; stroke-linejoin:bevel; font-family:sans-serif; stroke-width:2; stroke-miterlimit:0;">
      <line x1="0" x2="370" y1="49" style="clip-path:url(#clipPath2); fill:none;" y2="49" />
    </g>
    <g style="text-rendering:geometricPrecision; font-size:11; font-family:sans-serif;" transform="translate(74,19)">
      <text x="2" y="63" style="clip-path:url(#clipPath2); stroke:none;" xml:space="preserve">+EntitiesFactory(materials : EntitiesFactoryMaterials)</text>
      <text x="2" y="78" style="clip-path:url(#clipPath2); stroke:none;" xml:space="preserve">+repairBelongings(objects : Collection&lt;WorldObject&gt;) : void</text>
      <line x1="2" x2="287" y1="80" style="clip-path:url(#clipPath2); fill:none;" y2="80" />
      <text x="2" y="93" style="clip-path:url(#clipPath2); stroke:none;" xml:space="preserve">+createAgent(modelName : String) : Agent</text>
      <text x="2" y="108" style="clip-path:url(#clipPath2); stroke:none;" xml:space="preserve">+createWorldObject(modelName : String) : WorldObject</text>
    </g>
    <g transform="translate(74,4)" style="text-rendering:geometricPrecision; font-size:11; font-weight:bold; font-family:sans-serif;">
      <text x="144" y="12" style="clip-path:url(#clipPath3); stroke:none;" xml:space="preserve">EntitiesFactory</text>
    </g>
    <g transform="translate(4,244)" style="font-size:11; fill:url(#linearGradient2); text-rendering:geometricPrecision; font-family:sans-serif; stroke:url(#linearGradient2); font-weight:bold;">
      <rect x="0" y="0" width="180" style="clip-path:url(#clipPath4); stroke:none;" height="350" />
    </g>
    <g transform="translate(4,244)" style="stroke-linecap:butt; font-size:11; text-rendering:geometricPrecision; stroke-linejoin:round; font-family:sans-serif; font-weight:bold; stroke-width:2; stroke-miterlimit:0;">
      <rect x="0" y="0" width="180" style="clip-path:url(#clipPath4); fill:none;" height="350" />
      <line x1="0" x2="180" y1="15" style="clip-path:url(#clipPath4); fill:none;" y2="15" />
    </g>
    <g style="text-rendering:geometricPrecision; font-size:11; font-family:sans-serif;" transform="translate(4,259)">
      <text x="2" y="14" style="clip-path:url(#clipPath5); stroke:none;" xml:space="preserve">+EntitiesFactoryMaterials()</text>
    </g>
    <g transform="translate(4,244)" style="text-rendering:geometricPrecision; font-size:11; font-weight:bold; font-family:sans-serif;">
      <text x="25" y="12" style="clip-path:url(#clipPath6); stroke:none;" xml:space="preserve">EntitiesFactoryMaterials</text>
    </g>
    <g transform="translate(344,235)" style="font-size:11; fill:url(#linearGradient3); text-rendering:geometricPrecision; font-family:sans-serif; stroke:url(#linearGradient3); font-weight:bold;">
      <rect x="0" y="0" width="179" style="clip-path:url(#clipPath9); stroke:none;" height="379" />
    </g>
    <g transform="translate(344,235)" style="stroke-linecap:butt; font-size:11; text-rendering:geometricPrecision; stroke-linejoin:round; font-family:sans-serif; font-weight:bold; stroke-width:2; stroke-miterlimit:0;">
      <rect x="0" y="0" width="179" style="clip-path:url(#clipPath9); fill:none;" height="379" />
      <line x1="0" x2="179" y1="30" style="clip-path:url(#clipPath9); fill:none;" y2="30" />
    </g>
    <g style="text-rendering:geometricPrecision; font-size:11; font-family:sans-serif;" transform="translate(344,265)">
      <text x="2" y="14" style="clip-path:url(#clipPath10); stroke:none;" xml:space="preserve">+clear() : void</text>
      <text x="2" y="29" style="clip-path:url(#clipPath10); stroke:none;" xml:space="preserve">+contains(label : String) : boolean</text>
      <text x="2" y="44" style="clip-path:url(#clipPath10); stroke:none;" xml:space="preserve">+contains(element : T) : boolean</text>
      <text x="2" y="59" style="clip-path:url(#clipPath10); stroke:none;" xml:space="preserve">+get(label : String) : T</text>
      <text x="2" y="74" style="clip-path:url(#clipPath10); stroke:none;" xml:space="preserve">+put(element : T) : void</text>
      <text x="2" y="89" style="clip-path:url(#clipPath10); stroke:none;" xml:space="preserve">+remove(label : String) : void</text>
      <text x="2" y="104" style="clip-path:url(#clipPath10); stroke:none;" xml:space="preserve">+remove(element : T) : void</text>
    </g>
    <g transform="translate(344,235)" style="text-rendering:geometricPrecision; font-size:11; font-weight:bold; font-family:sans-serif;">
      <text x="53" y="12" style="clip-path:url(#clipPath11); stroke:none;" xml:space="preserve">&lt;&lt;Interface&gt;&gt;</text>
      <text x="59" y="27" style="clip-path:url(#clipPath11); stroke:none;" xml:space="preserve">Repository</text>
    </g>
    <g transform="translate(468,215)" style="font-size:11; fill:white; text-rendering:geometricPrecision; font-family:sans-serif; stroke:white;">
      <rect x="0" y="0" width="63" style="clip-path:url(#clipPath12); stroke:none;" height="20" />
    </g>
    <g transform="translate(468,215)" style="stroke-linecap:butt; font-size:11; text-rendering:geometricPrecision; stroke-linejoin:bevel; font-family:sans-serif; stroke-dasharray:8,3; stroke-miterlimit:0;">
      <rect x="0" y="0" width="63" style="clip-path:url(#clipPath12); fill:none;" height="20" />
    </g>
    <g transform="translate(468,215)" style="stroke-linecap:butt; font-size:11; text-rendering:geometricPrecision; stroke-linejoin:bevel; font-family:sans-serif; stroke-dasharray:8,3; stroke-miterlimit:0;">
      <text x="3" y="15" style="clip-path:url(#clipPath13); stroke:none;" xml:space="preserve">T : Storable</text>
    </g>
    <g transform="translate(94,704)" style="font-size:11; fill:url(#linearGradient4); text-rendering:geometricPrecision; font-family:sans-serif; stroke:url(#linearGradient4); font-weight:bold;">
      <rect x="0" y="0" width="140" style="clip-path:url(#clipPath14); stroke:none;" height="60" />
    </g>
    <g transform="translate(94,704)" style="stroke-linecap:butt; font-size:11; text-rendering:geometricPrecision; stroke-linejoin:round; font-family:sans-serif; font-weight:bold; stroke-width:2; stroke-miterlimit:0;">
      <rect x="0" y="0" width="140" style="clip-path:url(#clipPath14); fill:none;" height="60" />
      <line x1="0" x2="140" y1="30" style="clip-path:url(#clipPath14); fill:none;" y2="30" />
    </g>
    <g style="text-rendering:geometricPrecision; font-size:11; font-family:sans-serif;" transform="translate(94,734)">
      <text x="2" y="14" style="clip-path:url(#clipPath15); stroke:none;" xml:space="preserve">+getStorageLabel() : String</text>
    </g>
    <g transform="translate(94,704)" style="text-rendering:geometricPrecision; font-size:11; font-weight:bold; font-family:sans-serif;">
      <text x="34" y="12" style="clip-path:url(#clipPath16); stroke:none;" xml:space="preserve">&lt;&lt;Interface&gt;&gt;</text>
      <text x="47" y="27" style="clip-path:url(#clipPath16); stroke:none;" xml:space="preserve">Storable</text>
    </g>
    <g transform="translate(24,805)" style="font-size:11; fill:url(#linearGradient5); text-rendering:geometricPrecision; font-family:sans-serif; stroke:url(#linearGradient5); font-weight:bold;">
      <rect x="0" y="0" width="270" style="clip-path:url(#clipPath17); stroke:none;" height="90" />
    </g>
    <g transform="translate(24,805)" style="stroke-linecap:butt; font-size:11; text-rendering:geometricPrecision; stroke-linejoin:round; font-family:sans-serif; font-weight:bold; stroke-width:2; stroke-miterlimit:0;">
      <rect x="0" y="0" width="270" style="clip-path:url(#clipPath17); fill:none;" height="90" />
      <line x1="0" x2="270" y1="15" style="clip-path:url(#clipPath17); fill:none;" y2="15" />
    </g>
    <g style="text-rendering:geometricPrecision; font-size:11; font-family:sans-serif;" transform="translate(24,820)">
      <text x="2" y="14" style="clip-path:url(#clipPath18); stroke:none;" xml:space="preserve">-clazz : Class&lt;? extends T&gt;</text>
    </g>
    <g transform="translate(24,820)" style="stroke-linecap:butt; font-size:11; text-rendering:geometricPrecision; stroke-linejoin:bevel; font-family:sans-serif; stroke-width:2; stroke-miterlimit:0;">
      <line x1="0" x2="270" y1="19" style="clip-path:url(#clipPath18); fill:none;" y2="19" />
    </g>
    <g style="text-rendering:geometricPrecision; font-size:11; font-family:sans-serif;" transform="translate(24,820)">
      <text x="2" y="33" style="clip-path:url(#clipPath18); stroke:none;" xml:space="preserve">+StorableClassWrapper(clazz : Class&lt;? extends T&gt;)</text>
      <text x="2" y="48" style="clip-path:url(#clipPath18); stroke:none;" xml:space="preserve">+getWrappedClass() : Class&lt;? extends T&gt;</text>
      <text x="2" y="63" style="clip-path:url(#clipPath18); stroke:none;" xml:space="preserve">+newInstance() : T</text>
    </g>
    <g transform="translate(24,805)" style="text-rendering:geometricPrecision; font-size:11; font-weight:bold; font-family:sans-serif;">
      <text x="76" y="12" style="clip-path:url(#clipPath19); stroke:none;" xml:space="preserve">StorableClassWrapper</text>
    </g>
    <g transform="translate(290,786)" style="font-size:11; fill:white; text-rendering:geometricPrecision; font-family:sans-serif; stroke:white;">
      <rect x="0" y="0" width="13" style="clip-path:url(#clipPath20); stroke:none;" height="21" />
    </g>
    <g transform="translate(290,786)" style="stroke-linecap:butt; font-size:11; text-rendering:geometricPrecision; stroke-linejoin:bevel; font-family:sans-serif; stroke-dasharray:8,3; stroke-miterlimit:0;">
      <rect x="0" y="0" width="13" style="clip-path:url(#clipPath20); fill:none;" height="21" />
    </g>
    <g transform="translate(290,786)" style="stroke-linecap:butt; font-size:11; text-rendering:geometricPrecision; stroke-linejoin:bevel; font-family:sans-serif; stroke-dasharray:8,3; stroke-miterlimit:0;">
      <text x="3" y="15" style="clip-path:url(#clipPath21); stroke:none;" xml:space="preserve">T</text>
    </g>
    <g transform="translate(364,695)" style="font-size:11; fill:url(#linearGradient6); text-rendering:geometricPrecision; font-family:sans-serif; stroke:url(#linearGradient6); font-weight:bold;">
      <rect x="0" y="0" width="130" style="clip-path:url(#clipPath22); stroke:none;" height="60" />
    </g>
    <g transform="translate(364,695)" style="stroke-linecap:butt; font-size:11; text-rendering:geometricPrecision; stroke-linejoin:round; font-family:sans-serif; font-weight:bold; stroke-width:2; stroke-miterlimit:0;">
      <rect x="0" y="0" width="130" style="clip-path:url(#clipPath22); fill:none;" height="60" />
      <line x1="0" x2="130" y1="15" style="clip-path:url(#clipPath22); fill:none;" y2="15" />
    </g>
    <g style="text-rendering:geometricPrecision; font-size:11; font-family:sans-serif;" transform="translate(364,710)">
      <text x="2" y="14" style="clip-path:url(#clipPath23); stroke:none;" xml:space="preserve">-repositoryName : String</text>
    </g>
    <g transform="translate(364,710)" style="stroke-linecap:butt; font-size:11; text-rendering:geometricPrecision; stroke-linejoin:bevel; font-family:sans-serif; stroke-width:2; stroke-miterlimit:0;">
      <line x1="0" x2="130" y1="19" style="clip-path:url(#clipPath23); fill:none;" y2="19" />
    </g>
    <g style="text-rendering:geometricPrecision; font-size:11; font-family:sans-serif;" transform="translate(364,710)">
      <text x="2" y="33" style="clip-path:url(#clipPath23); stroke:none;" xml:space="preserve">+toString() : String</text>
    </g>
    <g transform="translate(364,695)" style="text-rendering:geometricPrecision; font-size:11; font-weight:bold; font-family:sans-serif;">
      <text x="11" y="12" style="clip-path:url(#clipPath24); stroke:none;" xml:space="preserve">HashMapRepository</text>
    </g>
    <g transform="translate(440,675)" style="font-size:11; fill:white; text-rendering:geometricPrecision; font-family:sans-serif; stroke:white;">
      <rect x="0" y="0" width="63" style="clip-path:url(#clipPath12); stroke:none;" height="20" />
    </g>
    <g transform="translate(440,675)" style="stroke-linecap:butt; font-size:11; text-rendering:geometricPrecision; stroke-linejoin:bevel; font-family:sans-serif; stroke-dasharray:8,3; stroke-miterlimit:0;">
      <rect x="0" y="0" width="63" style="clip-path:url(#clipPath12); fill:none;" height="20" />
    </g>
    <g transform="translate(440,675)" style="stroke-linecap:butt; font-size:11; text-rendering:geometricPrecision; stroke-linejoin:bevel; font-family:sans-serif; stroke-dasharray:8,3; stroke-miterlimit:0;">
      <text x="3" y="15" style="clip-path:url(#clipPath13); stroke:none;" xml:space="preserve">T : Storable</text>
    </g>
    <g transform="translate(34,44)" style="stroke-linecap:butt; font-size:11; text-rendering:geometricPrecision; font-family:sans-serif; stroke-linejoin:round; stroke-width:2;">
      <line x1="100" x2="100" y1="128" style="clip-path:url(#clipPath32); fill:none;" y2="200" />
      <polygon style="fill:none; clip-path:url(#clipPath32);" points=" 100 100 92 113 100 128 107 113" />
    </g>
    <g transform="translate(113,433)" style="stroke-linecap:butt; font-size:11; text-rendering:geometricPrecision; font-family:sans-serif; stroke-linejoin:round; stroke-width:2;">
      <line x1="99" x2="230" y1="71" style="clip-path:url(#clipPath33); fill:none;" y2="71" />
      <polygon style="clip-path:url(#clipPath33); stroke:none;" points=" 71 71 84 78 99 71 84 63" />
      <polygon style="fill:none; clip-path:url(#clipPath33);" points=" 71 71 84 78 99 71 84 63" />
    </g>
    <g transform="translate(64,664)" style="stroke-linecap:butt; font-size:11; stroke-dashoffset:1; text-rendering:geometricPrecision; stroke-linejoin:round; font-family:sans-serif; stroke-dasharray:5; stroke-width:2;">
      <line x1="100" x2="100" y1="100" style="clip-path:url(#clipPath34); fill:none;" y2="140" />
    </g>
    <g transform="translate(64,664)" style="stroke-linecap:butt; font-size:11; fill:white; text-rendering:geometricPrecision; stroke-linejoin:round; font-family:sans-serif; stroke:white; stroke-width:2;">
      <polygon style="clip-path:url(#clipPath34); stroke:none;" points=" 100 100 92 113 107 113" />
      <polygon style="fill:none; clip-path:url(#clipPath34); stroke:black;" points=" 100 100 92 113 107 113" />
    </g>
    <g transform="translate(113,243)" style="stroke-linecap:butt; font-size:11; text-rendering:geometricPrecision; font-family:sans-serif; stroke-linejoin:round; stroke-width:2;">
      <line x1="99" x2="230" y1="71" style="clip-path:url(#clipPath33); fill:none;" y2="71" />
      <polygon style="clip-path:url(#clipPath33); stroke:none;" points=" 71 71 84 78 99 71 84 63" />
      <polygon style="fill:none; clip-path:url(#clipPath33);" points=" 71 71 84 78 99 71 84 63" />
    </g>
    <g transform="translate(351,541)" style="stroke-linecap:butt; font-size:11; stroke-dashoffset:1; text-rendering:geometricPrecision; stroke-linejoin:round; font-family:sans-serif; stroke-dasharray:5; stroke-width:2;">
      <line x1="71" x2="71" y1="71" style="clip-path:url(#clipPath35); fill:none;" y2="151" />
    </g>
    <g transform="translate(351,541)" style="stroke-linecap:butt; font-size:11; fill:white; text-rendering:geometricPrecision; stroke-linejoin:round; font-family:sans-serif; stroke:white; stroke-width:2;">
      <polygon style="clip-path:url(#clipPath35); stroke:none;" points=" 71 71 63 84 78 84" />
      <polygon style="fill:none; clip-path:url(#clipPath35); stroke:black;" points=" 71 71 63 84 78 84" />
    </g>
    <g transform="translate(113,213)" style="stroke-linecap:butt; font-size:11; text-rendering:geometricPrecision; font-family:sans-serif; stroke-linejoin:round; stroke-width:2;">
      <line x1="99" x2="230" y1="71" style="clip-path:url(#clipPath33); fill:none;" y2="71" />
      <polygon style="clip-path:url(#clipPath33); stroke:none;" points=" 71 71 84 78 99 71 84 63" />
      <polygon style="fill:none; clip-path:url(#clipPath33);" points=" 71 71 84 78 99 71 84 63" />
    </g>
    <g transform="translate(113,313)" style="stroke-linecap:butt; font-size:11; text-rendering:geometricPrecision; font-family:sans-serif; stroke-linejoin:round; stroke-width:2;">
      <line x1="99" x2="230" y1="71" style="clip-path:url(#clipPath33); fill:none;" y2="71" />
      <polygon style="clip-path:url(#clipPath33); stroke:none;" points=" 71 71 84 78 99 71 84 63" />
      <polygon style="fill:none; clip-path:url(#clipPath33);" points=" 71 71 84 78 99 71 84 63" />
    </g>
    <g transform="translate(113,513)" style="stroke-linecap:butt; font-size:11; text-rendering:geometricPrecision; font-family:sans-serif; stroke-linejoin:round; stroke-width:2;">
      <line x1="99" x2="230" y1="71" style="clip-path:url(#clipPath33); fill:none;" y2="71" />
      <polygon style="clip-path:url(#clipPath33); stroke:none;" points=" 71 71 84 78 99 71 84 63" />
      <polygon style="fill:none; clip-path:url(#clipPath33);" points=" 71 71 84 78 99 71 84 63" />
    </g>
    <g transform="translate(113,343)" style="stroke-linecap:butt; font-size:11; text-rendering:geometricPrecision; font-family:sans-serif; stroke-linejoin:round; stroke-width:2;">
      <line x1="99" x2="230" y1="71" style="clip-path:url(#clipPath33); fill:none;" y2="71" />
      <polygon style="clip-path:url(#clipPath33); stroke:none;" points=" 71 71 84 78 99 71 84 63" />
      <polygon style="fill:none; clip-path:url(#clipPath33);" points=" 71 71 84 78 99 71 84 63" />
    </g>
    <g transform="translate(113,403)" style="stroke-linecap:butt; font-size:11; text-rendering:geometricPrecision; font-family:sans-serif; stroke-linejoin:round; stroke-width:2;">
      <line x1="99" x2="230" y1="71" style="clip-path:url(#clipPath33); fill:none;" y2="71" />
      <polygon style="clip-path:url(#clipPath33); stroke:none;" points=" 71 71 84 78 99 71 84 63" />
      <polygon style="fill:none; clip-path:url(#clipPath33);" points=" 71 71 84 78 99 71 84 63" />
    </g>
    <g transform="translate(113,283)" style="stroke-linecap:butt; font-size:11; text-rendering:geometricPrecision; font-family:sans-serif; stroke-linejoin:round; stroke-width:2;">
      <line x1="99" x2="230" y1="71" style="clip-path:url(#clipPath33); fill:none;" y2="71" />
      <polygon style="clip-path:url(#clipPath33); stroke:none;" points=" 71 71 84 78 99 71 84 63" />
      <polygon style="fill:none; clip-path:url(#clipPath33);" points=" 71 71 84 78 99 71 84 63" />
    </g>
    <g transform="translate(113,483)" style="stroke-linecap:butt; font-size:11; text-rendering:geometricPrecision; font-family:sans-serif; stroke-linejoin:round; stroke-width:2;">
      <line x1="99" x2="230" y1="71" style="clip-path:url(#clipPath33); fill:none;" y2="71" />
      <polygon style="clip-path:url(#clipPath33); stroke:none;" points=" 71 71 84 78 99 71 84 63" />
      <polygon style="fill:none; clip-path:url(#clipPath33);" points=" 71 71 84 78 99 71 84 63" />
    </g>
    <g transform="translate(294,44)" style="stroke-linecap:butt; font-size:11; text-rendering:geometricPrecision; font-family:sans-serif; stroke-linejoin:round; stroke-width:2;">
      <line x1="100" x2="100" y1="128" style="clip-path:url(#clipPath36); fill:none;" y2="190" />
      <polygon style="clip-path:url(#clipPath36); stroke:none;" points=" 100 100 92 113 100 128 107 113" />
      <polygon style="fill:none; clip-path:url(#clipPath36);" points=" 100 100 92 113 100 128 107 113" />
    </g>
    <g transform="translate(113,373)" style="stroke-linecap:butt; font-size:11; text-rendering:geometricPrecision; font-family:sans-serif; stroke-linejoin:round; stroke-width:2;">
      <line x1="99" x2="230" y1="71" style="clip-path:url(#clipPath33); fill:none;" y2="71" />
      <polygon style="clip-path:url(#clipPath33); stroke:none;" points=" 71 71 84 78 99 71 84 63" />
      <polygon style="fill:none; clip-path:url(#clipPath33);" points=" 71 71 84 78 99 71 84 63" />
    </g>
    <g transform="translate(113,183)" style="stroke-linecap:butt; font-size:11; text-rendering:geometricPrecision; font-family:sans-serif; stroke-linejoin:round; stroke-width:2;">
      <line x1="99" x2="230" y1="71" style="clip-path:url(#clipPath33); fill:none;" y2="71" />
      <polygon style="clip-path:url(#clipPath33); stroke:none;" points=" 71 71 84 78 99 71 84 63" />
      <polygon style="fill:none; clip-path:url(#clipPath33);" points=" 71 71 84 78 99 71 84 63" />
    </g>
    <g transform="translate(134,624)" style="stroke-linecap:butt; font-size:11; text-rendering:geometricPrecision; font-family:sans-serif; stroke-linejoin:round; stroke-width:2;">
      <line x1="202" x2="100" y1="100" style="clip-path:url(#clipPath37); fill:none;" y2="100" />
      <polygon style="fill:none; clip-path:url(#clipPath37);" points=" 230 100 216 92 202 100 216 107" />
    </g>
    <g style="text-rendering:geometricPrecision; font-size:11; font-family:sans-serif;" transform="translate(234,704)">
      <text x="18" y="14" style="clip-path:url(#clipPath38); stroke:none;" xml:space="preserve">*</text>
    </g>
    <g style="text-rendering:geometricPrecision; font-size:11; font-family:sans-serif;" transform="translate(234,734)">
      <text x="12" y="12" style="clip-path:url(#clipPath39); stroke:none;" xml:space="preserve">Map&lt;String, T&gt; map</text>
    </g>
    <g style="text-rendering:geometricPrecision; font-size:11; font-family:sans-serif;" transform="translate(304,264)">
      <text x="17" y="14" style="clip-path:url(#clipPath38); stroke:none;" xml:space="preserve">1</text>
    </g>
    <g style="text-rendering:geometricPrecision; font-size:11; font-family:sans-serif;" transform="translate(184,224)">
      <text x="8" y="14" style="clip-path:url(#clipPath40); stroke:none;" xml:space="preserve">-worldObjectModelRepository</text>
    </g>
    <g style="text-rendering:geometricPrecision; font-size:11; font-family:sans-serif;" transform="translate(304,454)">
      <text x="17" y="14" style="clip-path:url(#clipPath38); stroke:none;" xml:space="preserve">1</text>
    </g>
    <g style="text-rendering:geometricPrecision; font-size:11; font-family:sans-serif;" transform="translate(224,424)">
      <text x="7" y="14" style="clip-path:url(#clipPath41); stroke:none;" xml:space="preserve">-reasoningRepository</text>
    </g>
    <g style="text-rendering:geometricPrecision; font-size:11; font-family:sans-serif;" transform="translate(364,204)">
      <text x="17" y="14" style="clip-path:url(#clipPath38); stroke:none;" xml:space="preserve">1</text>
    </g>
    <g style="text-rendering:geometricPrecision; font-size:11; font-family:sans-serif;" transform="translate(384,194)">
      <text x="6" y="14" style="clip-path:url(#clipPath41); stroke:none;" xml:space="preserve">-categoriesRepository</text>
    </g>
    <g style="text-rendering:geometricPrecision; font-size:11; font-family:sans-serif;" transform="translate(304,564)">
      <text x="17" y="14" style="clip-path:url(#clipPath38); stroke:none;" xml:space="preserve">1</text>
    </g>
    <g style="text-rendering:geometricPrecision; font-size:11; font-family:sans-serif;" transform="translate(234,534)">
      <text x="8" y="14" style="clip-path:url(#clipPath42); stroke:none;" xml:space="preserve">-serviceRepository</text>
    </g>
    <g style="text-rendering:geometricPrecision; font-size:11; font-family:sans-serif;" transform="translate(304,354)">
      <text x="17" y="14" style="clip-path:url(#clipPath38); stroke:none;" xml:space="preserve">1</text>
    </g>
    <g style="text-rendering:geometricPrecision; font-size:11; font-family:sans-serif;" transform="translate(234,334)">
      <text x="6" y="14" style="clip-path:url(#clipPath42); stroke:none;" xml:space="preserve">-behaviorRepository</text>
    </g>
    <g style="text-rendering:geometricPrecision; font-size:11; font-family:sans-serif;" transform="translate(304,474)">
      <text x="17" y="14" style="clip-path:url(#clipPath38); stroke:none;" xml:space="preserve">1</text>
    </g>
    <g style="text-rendering:geometricPrecision; font-size:11; font-family:sans-serif;" transform="translate(234,454)">
      <text x="7" y="14" style="clip-path:url(#clipPath42); stroke:none;" xml:space="preserve">-planningRepository</text>
    </g>
    <g style="text-rendering:geometricPrecision; font-size:11; font-family:sans-serif;" transform="translate(304,424)">
      <text x="17" y="14" style="clip-path:url(#clipPath38); stroke:none;" xml:space="preserve">1</text>
    </g>
    <g style="text-rendering:geometricPrecision; font-size:11; font-family:sans-serif;" transform="translate(224,394)">
      <text x="6" y="14" style="clip-path:url(#clipPath41); stroke:none;" xml:space="preserve">-perceptionRepository</text>
    </g>
    <g style="text-rendering:geometricPrecision; font-size:11; font-family:sans-serif;" transform="translate(304,584)">
      <text x="17" y="14" style="clip-path:url(#clipPath38); stroke:none;" xml:space="preserve">1</text>
    </g>
    <g style="text-rendering:geometricPrecision; font-size:11; font-family:sans-serif;" transform="translate(244,564)">
      <text x="7" y="14" style="clip-path:url(#clipPath43); stroke:none;" xml:space="preserve">-actionRepository</text>
    </g>
    <g style="text-rendering:geometricPrecision; font-size:11; font-family:sans-serif;" transform="translate(304,394)">
      <text x="17" y="14" style="clip-path:url(#clipPath38); stroke:none;" xml:space="preserve">1</text>
    </g>
    <g style="text-rendering:geometricPrecision; font-size:11; font-family:sans-serif;" transform="translate(204,364)">
      <text x="11" y="14" style="clip-path:url(#clipPath44); stroke:none;" xml:space="preserve">-communicationRepository</text>
    </g>
    <g style="text-rendering:geometricPrecision; font-size:11; font-family:sans-serif;" transform="translate(304,284)">
      <text x="17" y="14" style="clip-path:url(#clipPath38); stroke:none;" xml:space="preserve">1</text>
    </g>
    <g style="text-rendering:geometricPrecision; font-size:11; font-family:sans-serif;" transform="translate(214,264)">
      <text x="9" y="14" style="clip-path:url(#clipPath45); stroke:none;" xml:space="preserve">-agentModelRepository</text>
    </g>
    <g style="text-rendering:geometricPrecision; font-size:11; font-family:sans-serif;" transform="translate(304,314)">
      <text x="17" y="14" style="clip-path:url(#clipPath38); stroke:none;" xml:space="preserve">1</text>
    </g>
    <g style="text-rendering:geometricPrecision; font-size:11; font-family:sans-serif;" transform="translate(204,294)">
      <text x="6" y="14" style="clip-path:url(#clipPath46); stroke:none;" xml:space="preserve">-categoryModelRepository</text>
    </g>
    <g style="text-rendering:geometricPrecision; font-size:11; font-family:sans-serif;" transform="translate(304,514)">
      <text x="17" y="14" style="clip-path:url(#clipPath38); stroke:none;" xml:space="preserve">1</text>
    </g>
    <g style="text-rendering:geometricPrecision; font-size:11; font-family:sans-serif;" transform="translate(234,484)">
      <text x="8" y="14" style="clip-path:url(#clipPath42); stroke:none;" xml:space="preserve">-emotionRepository</text>
    </g>
    <g style="text-rendering:geometricPrecision; font-size:11; font-family:sans-serif;" transform="translate(124,224)">
      <text x="17" y="14" style="clip-path:url(#clipPath38); stroke:none;" xml:space="preserve">1</text>
    </g>
    <g style="text-rendering:geometricPrecision; font-size:11; font-family:sans-serif;" transform="translate(74,224)">
      <text x="6" y="14" style="clip-path:url(#clipPath47); stroke:none;" xml:space="preserve">-materials</text>
    </g>
  </g>
</svg>
