<?xml version="1.0" encoding="UTF-8"?>

<!DOCTYPE svg PUBLIC '-//W3C//DTD SVG 1.0//EN' 'http://www.w3.org/TR/2001/REC-SVG-20010904/DTD/svg10.dtd'>
<svg style="fill-opacity:1; color-rendering:auto; color-interpolation:auto; text-rendering:auto; stroke:black; stroke-linecap:square; stroke-miterlimit:10; shape-rendering:auto; stroke-opacity:1; fill:black; stroke-dasharray:none; font-weight:normal; stroke-width:1; font-family:&apos;Dialog&apos;; font-style:normal; stroke-linejoin:miter; font-size:12; stroke-dashoffset:0; image-rendering:auto;" xmlns="http://www.w3.org/2000/svg" width="658" xmlns:xlink="http://www.w3.org/1999/xlink" height="948">
  <!--Generated by the Batik Graphics2D SVG Generator-->
  <defs id="genericDefs" />
  <g>
    <defs id="defs1">
      <linearGradient x1="200" gradientUnits="userSpaceOnUse" x2="200" y1="80" y2="0" id="linearGradient1" spreadMethod="reflect">
        <stop style="stop-opacity:0.498; stop-color:rgb(255,255,0);" offset="0%" />
        <stop style="stop-opacity:0.498; stop-color:rgb(255,255,255);" offset="100%" />
      </linearGradient>
      <linearGradient x1="100" gradientUnits="userSpaceOnUse" x2="100" y1="70" y2="0" id="linearGradient2" spreadMethod="reflect">
        <stop style="stop-opacity:0.498; stop-color:rgb(255,255,0);" offset="0%" />
        <stop style="stop-opacity:0.498; stop-color:rgb(255,255,255);" offset="100%" />
      </linearGradient>
      <linearGradient x1="100" gradientUnits="userSpaceOnUse" x2="100" y1="70" y2="0" id="linearGradient3" spreadMethod="reflect">
        <stop style="stop-opacity:0.498; stop-color:rgb(255,255,0);" offset="0%" />
        <stop style="stop-opacity:0.498; stop-color:rgb(255,255,255);" offset="100%" />
      </linearGradient>
      <linearGradient x1="175" gradientUnits="userSpaceOnUse" x2="175" y1="60" y2="0" id="linearGradient4" spreadMethod="reflect">
        <stop style="stop-opacity:0.498; stop-color:rgb(255,255,0);" offset="0%" />
        <stop style="stop-opacity:0.498; stop-color:rgb(255,255,255);" offset="100%" />
      </linearGradient>
      <linearGradient x1="50" gradientUnits="userSpaceOnUse" x2="50" y1="40" y2="0" id="linearGradient5" spreadMethod="reflect">
        <stop style="stop-opacity:0.498; stop-color:rgb(255,255,0);" offset="0%" />
        <stop style="stop-opacity:0.498; stop-color:rgb(255,255,255);" offset="100%" />
      </linearGradient>
      <linearGradient x1="90" gradientUnits="userSpaceOnUse" x2="90" y1="60" y2="0" id="linearGradient6" spreadMethod="reflect">
        <stop style="stop-opacity:0.498; stop-color:rgb(0,255,255);" offset="0%" />
        <stop style="stop-opacity:0.498; stop-color:rgb(255,255,255);" offset="100%" />
      </linearGradient>
      <linearGradient x1="175" gradientUnits="userSpaceOnUse" x2="175" y1="150" y2="0" id="linearGradient7" spreadMethod="reflect">
        <stop style="stop-opacity:0.498; stop-color:rgb(255,255,0);" offset="0%" />
        <stop style="stop-opacity:0.498; stop-color:rgb(255,255,255);" offset="100%" />
      </linearGradient>
      <linearGradient x1="325" gradientUnits="userSpaceOnUse" x2="325" y1="210" y2="0" id="linearGradient8" spreadMethod="reflect">
        <stop style="stop-opacity:0.498; stop-color:rgb(255,255,0);" offset="0%" />
        <stop style="stop-opacity:0.498; stop-color:rgb(255,255,255);" offset="100%" />
      </linearGradient>
      <linearGradient x1="185" gradientUnits="userSpaceOnUse" x2="185" y1="150" y2="0" id="linearGradient9" spreadMethod="reflect">
        <stop style="stop-opacity:0.498; stop-color:rgb(255,255,0);" offset="0%" />
        <stop style="stop-opacity:0.498; stop-color:rgb(255,255,255);" offset="100%" />
      </linearGradient>
      <clipPath clipPathUnits="userSpaceOnUse" id="clipPath1">
        <path d="M-4 -4 L408 -4 L408 88 L-4 88 L-4 -4 Z" />
      </clipPath>
      <clipPath clipPathUnits="userSpaceOnUse" id="clipPath2">
        <path d="M0 0 L0 73 L400 73 L400 0 Z" />
      </clipPath>
      <clipPath clipPathUnits="userSpaceOnUse" id="clipPath3">
        <path d="M0 0 L400 0 L400 15 L0 15 L0 0 Z" />
      </clipPath>
      <clipPath clipPathUnits="userSpaceOnUse" id="clipPath4">
        <path d="M-4 -4 L208 -4 L208 78 L-4 78 L-4 -4 Z" />
      </clipPath>
      <clipPath clipPathUnits="userSpaceOnUse" id="clipPath5">
        <path d="M0 0 L0 48 L200 48 L200 0 Z" />
      </clipPath>
      <clipPath clipPathUnits="userSpaceOnUse" id="clipPath6">
        <path d="M0 0 L200 0 L200 30 L0 30 L0 0 Z" />
      </clipPath>
      <clipPath clipPathUnits="userSpaceOnUse" id="clipPath7">
        <path d="M0 0 L0 63 L200 63 L200 0 Z" />
      </clipPath>
      <clipPath clipPathUnits="userSpaceOnUse" id="clipPath8">
        <path d="M0 0 L200 0 L200 15 L0 15 L0 0 Z" />
      </clipPath>
      <clipPath clipPathUnits="userSpaceOnUse" id="clipPath9">
        <path d="M-4 -4 L358 -4 L358 68 L-4 68 L-4 -4 Z" />
      </clipPath>
      <clipPath clipPathUnits="userSpaceOnUse" id="clipPath10">
        <path d="M0 0 L0 53 L350 53 L350 0 Z" />
      </clipPath>
      <clipPath clipPathUnits="userSpaceOnUse" id="clipPath11">
        <path d="M0 0 L350 0 L350 15 L0 15 L0 0 Z" />
      </clipPath>
      <clipPath clipPathUnits="userSpaceOnUse" id="clipPath12">
        <path d="M-4 -4 L108 -4 L108 48 L-4 48 L-4 -4 Z" />
      </clipPath>
      <clipPath clipPathUnits="userSpaceOnUse" id="clipPath13">
        <path d="M0 0 L0 18 L100 18 L100 0 Z" />
      </clipPath>
      <clipPath clipPathUnits="userSpaceOnUse" id="clipPath14">
        <path d="M0 0 L100 0 L100 30 L0 30 L0 0 Z" />
      </clipPath>
      <clipPath clipPathUnits="userSpaceOnUse" id="clipPath15">
        <path d="M-4 -19 L194 -19 L194 67 L-4 67 L-4 -19 Z" />
      </clipPath>
      <clipPath clipPathUnits="userSpaceOnUse" id="clipPath16">
        <path d="M0 0 L0 37 L180 37 L180 0 Z" />
      </clipPath>
      <clipPath clipPathUnits="userSpaceOnUse" id="clipPath17">
        <path d="M0 0 L180 0 L180 30 L0 30 L0 0 Z" />
      </clipPath>
      <clipPath clipPathUnits="userSpaceOnUse" id="clipPath18">
        <path d="M-3 -3 L20 -3 L20 29 L-3 29 L-3 -3 Z" />
      </clipPath>
      <clipPath clipPathUnits="userSpaceOnUse" id="clipPath19">
        <path d="M0 0 L13 0 L13 22 L0 22 L0 0 Z" />
      </clipPath>
      <clipPath clipPathUnits="userSpaceOnUse" id="clipPath20">
        <path d="M-4 -4 L358 -4 L358 158 L-4 158 L-4 -4 Z" />
      </clipPath>
      <clipPath clipPathUnits="userSpaceOnUse" id="clipPath21">
        <path d="M0 0 L0 143 L350 143 L350 0 Z" />
      </clipPath>
      <clipPath clipPathUnits="userSpaceOnUse" id="clipPath22">
        <path d="M-4 -4 L658 -4 L658 218 L-4 218 L-4 -4 Z" />
      </clipPath>
      <clipPath clipPathUnits="userSpaceOnUse" id="clipPath23">
        <path d="M0 0 L0 203 L650 203 L650 0 Z" />
      </clipPath>
      <clipPath clipPathUnits="userSpaceOnUse" id="clipPath24">
        <path d="M0 0 L650 0 L650 15 L0 15 L0 0 Z" />
      </clipPath>
      <clipPath clipPathUnits="userSpaceOnUse" id="clipPath25">
        <path d="M-4 -19 L384 -19 L384 157 L-4 157 L-4 -19 Z" />
      </clipPath>
      <clipPath clipPathUnits="userSpaceOnUse" id="clipPath26">
        <path d="M0 0 L0 142 L370 142 L370 0 Z" />
      </clipPath>
      <clipPath clipPathUnits="userSpaceOnUse" id="clipPath27">
        <path d="M0 0 L370 0 L370 15 L0 15 L0 0 Z" />
      </clipPath>
      <clipPath clipPathUnits="userSpaceOnUse" id="clipPath28">
        <path d="M-3 -3 L57 -3 L57 27 L-3 27 L-3 -3 Z" />
      </clipPath>
      <clipPath clipPathUnits="userSpaceOnUse" id="clipPath29">
        <path d="M-3 -3 L47 -3 L47 27 L-3 27 L-3 -3 Z" />
      </clipPath>
      <clipPath clipPathUnits="userSpaceOnUse" id="clipPath30">
        <path d="M-3 -3 L77 -3 L77 27 L-3 27 L-3 -3 Z" />
      </clipPath>
      <clipPath clipPathUnits="userSpaceOnUse" id="clipPath31">
        <path d="M0 0 L129 0 L129 157 L0 157 L0 0 Z" />
      </clipPath>
      <clipPath clipPathUnits="userSpaceOnUse" id="clipPath32">
        <path d="M0 0 L171 0 L171 229 L0 229 L0 0 Z" />
      </clipPath>
      <clipPath clipPathUnits="userSpaceOnUse" id="clipPath33">
        <path d="M0 0 L129 0 L129 347 L0 347 L0 0 Z" />
      </clipPath>
      <clipPath clipPathUnits="userSpaceOnUse" id="clipPath34">
        <path d="M0 0 L129 0 L129 377 L0 377 L0 0 Z" />
      </clipPath>
      <clipPath clipPathUnits="userSpaceOnUse" id="clipPath35">
        <path d="M0 0 L129 0 L129 177 L0 177 L0 0 Z" />
      </clipPath>
      <clipPath clipPathUnits="userSpaceOnUse" id="clipPath36">
        <path d="M0 0 L129 0 L129 167 L0 167 L0 0 Z" />
      </clipPath>
      <clipPath clipPathUnits="userSpaceOnUse" id="clipPath37">
        <path d="M0 0 L217 0 L217 129 L0 129 L0 0 Z" />
      </clipPath>
      <clipPath clipPathUnits="userSpaceOnUse" id="clipPath38">
        <path d="M0 0 L40 0 L40 20 L0 20 L0 0 Z" />
      </clipPath>
      <clipPath clipPathUnits="userSpaceOnUse" id="clipPath39">
        <path d="M0 0 L70 0 L70 20 L0 20 L0 0 Z" />
      </clipPath>
      <clipPath clipPathUnits="userSpaceOnUse" id="clipPath40">
        <path d="M0 0 L50 0 L50 20 L0 20 L0 0 Z" />
      </clipPath>
    </defs>
    <g style="fill:white; text-rendering:geometricPrecision; stroke:white;">
      <rect x="0" y="0" width="658" style="stroke:none;" height="948" />
    </g>
    <g transform="translate(254,864)" style="font-size:11; fill:url(#linearGradient1); text-rendering:geometricPrecision; font-family:sans-serif; stroke:url(#linearGradient1); font-weight:bold;">
      <rect x="0" y="0" width="400" style="clip-path:url(#clipPath1); stroke:none;" height="80" />
    </g>
    <g transform="translate(254,864)" style="stroke-linecap:butt; font-size:11; text-rendering:geometricPrecision; stroke-linejoin:round; font-family:sans-serif; font-weight:bold; stroke-width:2; stroke-miterlimit:0;">
      <rect x="0" y="0" width="400" style="clip-path:url(#clipPath1); fill:none;" height="80" />
      <line x1="0" x2="400" y1="15" style="clip-path:url(#clipPath1); fill:none;" y2="15" />
    </g>
    <g style="text-rendering:geometricPrecision; font-size:11; font-family:sans-serif;" transform="translate(254,879)">
      <text x="2" y="14" style="clip-path:url(#clipPath2); stroke:none;" xml:space="preserve">#ALLOWED_COMPOUND_OPERATORS : char[] = { '+', '-', '*', '/', '&amp;', '^', '|', '~' }</text>
      <line x1="2" x2="366" y1="16" style="clip-path:url(#clipPath2); fill:none;" y2="16" />
    </g>
    <g transform="translate(254,879)" style="stroke-linecap:butt; font-size:11; text-rendering:geometricPrecision; stroke-linejoin:bevel; font-family:sans-serif; stroke-width:2; stroke-miterlimit:0;">
      <line x1="0" x2="400" y1="19" style="clip-path:url(#clipPath2); fill:none;" y2="19" />
    </g>
    <g style="text-rendering:geometricPrecision; font-size:11; font-family:sans-serif;" transform="translate(254,879)">
      <text x="2" y="33" style="clip-path:url(#clipPath2); stroke:none;" xml:space="preserve">+CompoundOperatorAssignmentEffect(expression : String)</text>
      <text x="2" y="48" style="clip-path:url(#clipPath2); stroke:none;" xml:space="preserve">-transform(initExpr : String) : String</text>
      <line x1="2" x2="170" y1="50" style="clip-path:url(#clipPath2); fill:none;" y2="50" />
    </g>
    <g transform="translate(254,864)" style="text-rendering:geometricPrecision; font-size:11; font-weight:bold; font-family:sans-serif;">
      <text x="100" y="12" style="clip-path:url(#clipPath3); stroke:none;" xml:space="preserve">CompoundOperatorAssignmentEffect</text>
    </g>
    <g transform="translate(14,474)" style="font-size:11; fill:url(#linearGradient2); text-rendering:geometricPrecision; font-family:sans-serif; stroke:url(#linearGradient2); font-weight:bold;">
      <rect x="0" y="0" width="200" style="clip-path:url(#clipPath4); stroke:none;" height="70" />
    </g>
    <g transform="translate(14,474)" style="stroke-linecap:butt; font-size:11; text-rendering:geometricPrecision; stroke-linejoin:round; font-family:sans-serif; font-weight:bold; stroke-width:2; stroke-miterlimit:0;">
      <rect x="0" y="0" width="200" style="clip-path:url(#clipPath4); fill:none;" height="70" />
      <line x1="0" x2="200" y1="30" style="clip-path:url(#clipPath4); fill:none;" y2="30" />
    </g>
    <g style="text-rendering:geometricPrecision; font-size:11; font-family:sans-serif;" transform="translate(14,504)">
      <text x="2" y="14" style="clip-path:url(#clipPath5); stroke:none;" xml:space="preserve">+check(context : JexlContext) : boolean</text>
      <text x="2" y="29" style="clip-path:url(#clipPath5); stroke:none;" xml:space="preserve">+reset() : void</text>
    </g>
    <g transform="translate(14,474)" style="text-rendering:geometricPrecision; font-size:11; font-weight:bold; font-family:sans-serif;">
      <text x="64" y="12" style="clip-path:url(#clipPath6); stroke:none;" xml:space="preserve">&lt;&lt;Interface&gt;&gt;</text>
      <text x="73" y="27" style="clip-path:url(#clipPath6); stroke:none;" xml:space="preserve">Condition</text>
    </g>
    <g transform="translate(14,764)" style="font-size:11; fill:url(#linearGradient3); text-rendering:geometricPrecision; font-family:sans-serif; stroke:url(#linearGradient3); font-weight:bold;">
      <rect x="0" y="0" width="200" style="clip-path:url(#clipPath4); stroke:none;" height="70" />
    </g>
    <g transform="translate(14,764)" style="stroke-linecap:butt; font-size:11; text-rendering:geometricPrecision; stroke-linejoin:round; font-family:sans-serif; font-weight:bold; stroke-width:2; stroke-miterlimit:0;">
      <rect x="0" y="0" width="200" style="clip-path:url(#clipPath4); fill:none;" height="70" />
      <line x1="0" x2="200" y1="15" style="clip-path:url(#clipPath4); fill:none;" y2="15" />
    </g>
    <g style="text-rendering:geometricPrecision; font-size:11; font-family:sans-serif;" transform="translate(14,779)">
      <text x="2" y="14" style="clip-path:url(#clipPath7); stroke:none;" xml:space="preserve">+DefaultCondition(expression : String)</text>
      <text x="2" y="29" style="clip-path:url(#clipPath7); stroke:none;" xml:space="preserve">+check(context : JexlContext) : boolean</text>
      <text x="2" y="44" style="clip-path:url(#clipPath7); stroke:none;" xml:space="preserve">+reset() : void</text>
    </g>
    <g transform="translate(14,764)" style="text-rendering:geometricPrecision; font-size:11; font-weight:bold; font-family:sans-serif;">
      <text x="55" y="12" style="clip-path:url(#clipPath8); stroke:none;" xml:space="preserve">DefaultCondition</text>
    </g>
    <g transform="translate(304,764)" style="font-size:11; fill:url(#linearGradient4); text-rendering:geometricPrecision; font-family:sans-serif; stroke:url(#linearGradient4); font-weight:bold;">
      <rect x="0" y="0" width="350" style="clip-path:url(#clipPath9); stroke:none;" height="60" />
    </g>
    <g transform="translate(304,764)" style="stroke-linecap:butt; font-size:11; text-rendering:geometricPrecision; stroke-linejoin:round; font-family:sans-serif; font-weight:bold; stroke-width:2; stroke-miterlimit:0;">
      <rect x="0" y="0" width="350" style="clip-path:url(#clipPath9); fill:none;" height="60" />
      <line x1="0" x2="350" y1="15" style="clip-path:url(#clipPath9); fill:none;" y2="15" />
    </g>
    <g style="text-rendering:geometricPrecision; font-size:11; font-family:sans-serif;" transform="translate(304,779)">
      <text x="2" y="14" style="clip-path:url(#clipPath10); stroke:none;" xml:space="preserve">+DefaultEffect(expression : String)</text>
      <text x="2" y="29" style="clip-path:url(#clipPath10); stroke:none;" xml:space="preserve">+DefaultEffect(rawExpression : String, internalRepresentation : String)</text>
    </g>
    <g transform="translate(304,764)" style="text-rendering:geometricPrecision; font-size:11; font-weight:bold; font-family:sans-serif;">
      <text x="141" y="12" style="clip-path:url(#clipPath11); stroke:none;" xml:space="preserve">DefaultEffect</text>
    </g>
    <g transform="translate(524,474)" style="font-size:11; fill:url(#linearGradient5); text-rendering:geometricPrecision; font-family:sans-serif; stroke:url(#linearGradient5); font-weight:bold;">
      <rect x="0" y="0" width="100" style="clip-path:url(#clipPath12); stroke:none;" height="40" />
    </g>
    <g transform="translate(524,474)" style="stroke-linecap:butt; font-size:11; text-rendering:geometricPrecision; stroke-linejoin:round; font-family:sans-serif; font-weight:bold; stroke-width:2; stroke-miterlimit:0;">
      <rect x="0" y="0" width="100" style="clip-path:url(#clipPath12); fill:none;" height="40" />
      <line x1="0" x2="100" y1="30" style="clip-path:url(#clipPath12); fill:none;" y2="30" />
    </g>
    <g transform="translate(524,474)" style="text-rendering:geometricPrecision; font-size:11; font-weight:bold; font-family:sans-serif;">
      <text x="14" y="12" style="clip-path:url(#clipPath14); stroke:none;" xml:space="preserve">&lt;&lt;Interface&gt;&gt;</text>
      <text x="34" y="27" style="clip-path:url(#clipPath14); stroke:none;" xml:space="preserve">Effect</text>
    </g>
    <g transform="translate(254,475)" style="font-size:11; fill:url(#linearGradient6); text-rendering:geometricPrecision; font-family:sans-serif; stroke:url(#linearGradient6); font-weight:bold;">
      <rect x="0" y="0" width="180" style="clip-path:url(#clipPath15); stroke:none;" height="60" />
    </g>
    <g transform="translate(254,475)" style="stroke-linecap:butt; font-size:11; text-rendering:geometricPrecision; stroke-linejoin:round; font-family:sans-serif; font-weight:bold; stroke-width:2; stroke-miterlimit:0;">
      <rect x="0" y="0" width="180" style="clip-path:url(#clipPath15); fill:none;" height="60" />
      <line x1="0" x2="180" y1="30" style="clip-path:url(#clipPath15); fill:none;" y2="30" />
    </g>
    <g style="text-rendering:geometricPrecision; font-size:11; font-family:sans-serif;" transform="translate(254,505)">
      <text x="2" y="14" style="clip-path:url(#clipPath16); stroke:none;" xml:space="preserve">+evaluate(context : JexlContext) : T</text>
    </g>
    <g transform="translate(254,475)" style="text-rendering:geometricPrecision; font-size:11; font-weight:bold; font-family:sans-serif;">
      <text x="54" y="12" style="clip-path:url(#clipPath17); stroke:none;" xml:space="preserve">&lt;&lt;Interface&gt;&gt;</text>
      <text x="62" y="27" style="clip-path:url(#clipPath17); stroke:none;" xml:space="preserve">Statement</text>
    </g>
    <g transform="translate(431,456)" style="font-size:11; fill:white; text-rendering:geometricPrecision; font-family:sans-serif; stroke:white;">
      <rect x="0" y="0" width="12" style="clip-path:url(#clipPath18); stroke:none;" height="21" />
    </g>
    <g transform="translate(431,456)" style="stroke-linecap:butt; font-size:11; text-rendering:geometricPrecision; stroke-linejoin:bevel; font-family:sans-serif; stroke-dasharray:8,3; stroke-miterlimit:0;">
      <rect x="0" y="0" width="12" style="clip-path:url(#clipPath18); fill:none;" height="21" />
    </g>
    <g transform="translate(431,456)" style="stroke-linecap:butt; font-size:11; text-rendering:geometricPrecision; stroke-linejoin:bevel; font-family:sans-serif; stroke-dasharray:8,3; stroke-miterlimit:0;">
      <text x="3" y="15" style="clip-path:url(#clipPath19); stroke:none;" xml:space="preserve">T</text>
    </g>
    <g transform="translate(154,4)" style="font-size:11; fill:url(#linearGradient7); text-rendering:geometricPrecision; font-family:sans-serif; stroke:url(#linearGradient7); font-weight:bold;">
      <rect x="0" y="0" width="350" style="clip-path:url(#clipPath20); stroke:none;" height="150" />
    </g>
    <g transform="translate(154,4)" style="stroke-linecap:butt; font-size:11; text-rendering:geometricPrecision; stroke-linejoin:round; font-family:sans-serif; font-weight:bold; stroke-width:2; stroke-miterlimit:0;">
      <rect x="0" y="0" width="350" style="clip-path:url(#clipPath20); fill:none;" height="150" />
      <line x1="0" x2="350" y1="15" style="clip-path:url(#clipPath20); fill:none;" y2="15" />
    </g>
    <g style="text-rendering:geometricPrecision; font-size:11; font-family:sans-serif;" transform="translate(154,19)">
      <text x="2" y="14" style="clip-path:url(#clipPath21); stroke:none;" xml:space="preserve">#COMPOUND_OPS_PATTERN : Pattern = Pattern</text>
      <text x="2" y="29" style="clip-path:url(#clipPath21); stroke:none;" xml:space="preserve">			.compile(".+[" + getRegExpFriendlyOperators() + "]=.+")</text>
      <line x1="2" x2="498" y1="31" style="clip-path:url(#clipPath21); fill:none;" y2="31" />
      <text x="2" y="44" style="clip-path:url(#clipPath21); stroke:none;" xml:space="preserve">#WAIT_PATTERN : Pattern = Pattern.compile(".*timer\\:wait\\(.*\\).*")</text>
      <line x1="2" x2="324" y1="46" style="clip-path:url(#clipPath21); fill:none;" y2="46" />
      <text x="2" y="59" style="clip-path:url(#clipPath21); stroke:none;" xml:space="preserve">&lt;&lt;Property&gt;&gt; #instance : StatementFactory = null</text>
      <line x1="2" x2="239" y1="61" style="clip-path:url(#clipPath21); fill:none;" y2="61" />
    </g>
    <g transform="translate(154,19)" style="stroke-linecap:butt; font-size:11; text-rendering:geometricPrecision; stroke-linejoin:bevel; font-family:sans-serif; stroke-width:2; stroke-miterlimit:0;">
      <line x1="0" x2="350" y1="64" style="clip-path:url(#clipPath21); fill:none;" y2="64" />
    </g>
    <g style="text-rendering:geometricPrecision; font-size:11; font-family:sans-serif;" transform="translate(154,19)">
      <text x="2" y="78" style="clip-path:url(#clipPath21); stroke:none;" xml:space="preserve">#StatementFactory()</text>
      <text x="2" y="93" style="clip-path:url(#clipPath21); stroke:none;" xml:space="preserve">-getRegExpFriendlyOperators() : String</text>
      <line x1="2" x2="190" y1="95" style="clip-path:url(#clipPath21); fill:none;" y2="95" />
      <text x="2" y="108" style="clip-path:url(#clipPath21); stroke:none;" xml:space="preserve">+createActionStatement(expression : String) : Effect</text>
      <text x="2" y="123" style="clip-path:url(#clipPath21); stroke:none;" xml:space="preserve">+createTestStatement(expression : String) : Condition</text>
    </g>
    <g transform="translate(154,4)" style="text-rendering:geometricPrecision; font-size:11; font-weight:bold; font-family:sans-serif;">
      <text x="128" y="12" style="clip-path:url(#clipPath11); stroke:none;" xml:space="preserve">StatementFactory</text>
    </g>
    <g transform="translate(4,204)" style="font-size:11; fill:url(#linearGradient8); text-rendering:geometricPrecision; font-family:sans-serif; stroke:url(#linearGradient8); font-weight:bold;">
      <rect x="0" y="0" width="650" style="clip-path:url(#clipPath22); stroke:none;" height="210" />
    </g>
    <g transform="translate(4,204)" style="stroke-linecap:butt; font-size:11; text-rendering:geometricPrecision; stroke-linejoin:round; font-family:sans-serif; font-weight:bold; stroke-width:2; stroke-miterlimit:0;">
      <rect x="0" y="0" width="650" style="clip-path:url(#clipPath22); fill:none;" height="210" />
      <line x1="0" x2="650" y1="15" style="clip-path:url(#clipPath22); fill:none;" y2="15" />
    </g>
    <g style="text-rendering:geometricPrecision; font-size:11; font-family:sans-serif;" transform="translate(4,219)">
      <text x="2" y="14" style="clip-path:url(#clipPath23); stroke:none;" xml:space="preserve">+StatementsGroup(conditions : List&lt;Condition&gt;, effects : List&lt;Effect&gt;)</text>
      <text x="2" y="29" style="clip-path:url(#clipPath23); stroke:none;" xml:space="preserve">+checkConditions(provider : WorldObject, consumer : WorldObject, parameters : Map&lt;String, Object&gt;) : boolean</text>
      <text x="2" y="44" style="clip-path:url(#clipPath23); stroke:none;" xml:space="preserve">+executeEffects(provider : WorldObject, consumer : WorldObject, parameters : Map&lt;String, Object&gt;, mode : ExecutionMode) : void</text>
      <text x="2" y="59" style="clip-path:url(#clipPath23); stroke:none;" xml:space="preserve">+getActions() : List&lt;Effect&gt;</text>
      <text x="2" y="74" style="clip-path:url(#clipPath23); stroke:none;" xml:space="preserve">+getFalseStatements(provider : WorldObject, consumer : WorldObject, parameters : Map&lt;String, Object&gt;) : Collection&lt;Condition&gt;</text>
      <text x="2" y="89" style="clip-path:url(#clipPath23); stroke:none;" xml:space="preserve">+getTests() : List&lt;Condition&gt;</text>
      <text x="2" y="104" style="clip-path:url(#clipPath23); stroke:none;" xml:space="preserve">+setActions(actions : List&lt;Effect&gt;) : void</text>
      <text x="2" y="119" style="clip-path:url(#clipPath23); stroke:none;" xml:space="preserve">+setTests(tests : List&lt;Condition&gt;) : void</text>
      <text x="2" y="134" style="clip-path:url(#clipPath23); stroke:none;" xml:space="preserve">+toString() : String</text>
      <text x="2" y="149" style="clip-path:url(#clipPath23); stroke:none;" xml:space="preserve">+hashCode() : int</text>
      <text x="2" y="164" style="clip-path:url(#clipPath23); stroke:none;" xml:space="preserve">+equals(obj : Object) : boolean</text>
      <text x="2" y="179" style="clip-path:url(#clipPath23); stroke:none;" xml:space="preserve">+readResolve() : StatementsGroup</text>
    </g>
    <g transform="translate(4,204)" style="text-rendering:geometricPrecision; font-size:11; font-weight:bold; font-family:sans-serif;">
      <text x="278" y="12" style="clip-path:url(#clipPath24); stroke:none;" xml:space="preserve">StatementsGroup</text>
    </g>
    <g transform="translate(144,585)" style="font-size:11; fill:url(#linearGradient9); text-rendering:geometricPrecision; font-family:sans-serif; stroke:url(#linearGradient9); font-weight:bold;">
      <rect x="0" y="0" width="370" style="clip-path:url(#clipPath25); stroke:none;" height="150" />
    </g>
    <g transform="translate(144,585)" style="stroke-linecap:butt; font-size:11; text-rendering:geometricPrecision; stroke-linejoin:round; font-family:sans-serif; font-weight:bold; stroke-width:2; stroke-miterlimit:0;">
      <rect x="0" y="0" width="370" style="clip-path:url(#clipPath25); fill:none;" height="150" />
      <line x1="0" x2="370" y1="15" style="clip-path:url(#clipPath25); fill:none;" y2="15" />
    </g>
    <g style="text-rendering:geometricPrecision; font-size:11; font-family:sans-serif;" transform="translate(144,600)">
      <text x="2" y="14" style="clip-path:url(#clipPath26); stroke:none;" xml:space="preserve">#expression : Expression</text>
      <text x="2" y="29" style="clip-path:url(#clipPath26); stroke:none;" xml:space="preserve">&lt;&lt;Property&gt;&gt; #rawExpression : String</text>
    </g>
    <g transform="translate(144,600)" style="stroke-linecap:butt; font-size:11; text-rendering:geometricPrecision; stroke-linejoin:bevel; font-family:sans-serif; stroke-width:2; stroke-miterlimit:0;">
      <line x1="0" x2="370" y1="34" style="clip-path:url(#clipPath26); fill:none;" y2="34" />
    </g>
    <g style="text-rendering:geometricPrecision; font-size:11; font-family:sans-serif;" transform="translate(144,600)">
      <text x="2" y="48" style="clip-path:url(#clipPath26); stroke:none;" xml:space="preserve">+U3duExpression(string : String)</text>
      <text x="2" y="63" style="clip-path:url(#clipPath26); stroke:none;" xml:space="preserve">+U3duExpression(rawExpression : String, internalRepresentation : String)</text>
      <text x="2" y="78" style="clip-path:url(#clipPath26); stroke:none;" xml:space="preserve">+evaluate(context : JexlContext) : T</text>
      <text x="2" y="93" style="clip-path:url(#clipPath26); stroke:none;" xml:space="preserve">+toString() : String</text>
      <text x="2" y="108" style="clip-path:url(#clipPath26); stroke:none;" xml:space="preserve">+hashCode() : int</text>
      <text x="2" y="123" style="clip-path:url(#clipPath26); stroke:none;" xml:space="preserve">+equals(obj : Object) : boolean</text>
    </g>
    <g transform="translate(144,585)" style="text-rendering:geometricPrecision; font-size:11; font-weight:bold; font-family:sans-serif;">
      <text x="141" y="12" style="clip-path:url(#clipPath27); stroke:none;" xml:space="preserve">U3duExpression</text>
    </g>
    <g transform="translate(511,566)" style="font-size:11; fill:white; text-rendering:geometricPrecision; font-family:sans-serif; stroke:white;">
      <rect x="0" y="0" width="12" style="clip-path:url(#clipPath18); stroke:none;" height="21" />
    </g>
    <g transform="translate(511,566)" style="stroke-linecap:butt; font-size:11; text-rendering:geometricPrecision; stroke-linejoin:bevel; font-family:sans-serif; stroke-dasharray:8,3; stroke-miterlimit:0;">
      <rect x="0" y="0" width="12" style="clip-path:url(#clipPath18); fill:none;" height="21" />
    </g>
    <g transform="translate(511,566)" style="stroke-linecap:butt; font-size:11; text-rendering:geometricPrecision; stroke-linejoin:bevel; font-family:sans-serif; stroke-dasharray:8,3; stroke-miterlimit:0;">
      <text x="3" y="15" style="clip-path:url(#clipPath19); stroke:none;" xml:space="preserve">T</text>
    </g>
    <g transform="translate(122,672)" style="stroke-linecap:butt; font-size:11; text-rendering:geometricPrecision; font-family:sans-serif; stroke-linejoin:round; stroke-width:2;">
      <line x1="63" x2="63" y1="63" style="clip-path:url(#clipPath31); fill:none;" y2="92" />
      <polygon style="fill:white; clip-path:url(#clipPath31); stroke:none;" points=" 63 63 55 76 70 76" />
      <polygon style="fill:none; clip-path:url(#clipPath31);" points=" 63 63 55 76 70 76" />
    </g>
    <g transform="translate(491,331)" style="stroke-linecap:butt; font-size:11; text-rendering:geometricPrecision; font-family:sans-serif; stroke-linejoin:round; stroke-width:2;">
      <line x1="83" x2="83" y1="111" style="clip-path:url(#clipPath32); fill:none;" y2="142" />
      <polygon style="clip-path:url(#clipPath32); stroke:none;" points=" 83 83 75 96 83 111 90 96" />
      <polygon style="fill:none; clip-path:url(#clipPath32);" points=" 83 83 75 96 83 111 90 96" />
    </g>
    <g transform="translate(12,482)" style="stroke-linecap:butt; font-size:11; stroke-dashoffset:1; text-rendering:geometricPrecision; stroke-linejoin:round; font-family:sans-serif; stroke-dasharray:5; stroke-width:2;">
      <line x1="63" x2="63" y1="63" style="clip-path:url(#clipPath33); fill:none;" y2="282" />
    </g>
    <g transform="translate(12,482)" style="stroke-linecap:butt; font-size:11; fill:white; text-rendering:geometricPrecision; stroke-linejoin:round; font-family:sans-serif; stroke:white; stroke-width:2;">
      <polygon style="clip-path:url(#clipPath33); stroke:none;" points=" 63 63 55 76 70 76" />
      <polygon style="fill:none; clip-path:url(#clipPath33); stroke:black;" points=" 63 63 55 76 70 76" />
    </g>
    <g transform="translate(392,672)" style="stroke-linecap:butt; font-size:11; text-rendering:geometricPrecision; font-family:sans-serif; stroke-linejoin:round; stroke-width:2;">
      <line x1="63" x2="63" y1="63" style="clip-path:url(#clipPath31); fill:none;" y2="92" />
      <polygon style="fill:white; clip-path:url(#clipPath31); stroke:none;" points=" 63 63 55 76 70 76" />
      <polygon style="fill:none; clip-path:url(#clipPath31);" points=" 63 63 55 76 70 76" />
    </g>
    <g transform="translate(532,452)" style="stroke-linecap:butt; font-size:11; stroke-dashoffset:1; text-rendering:geometricPrecision; stroke-linejoin:round; font-family:sans-serif; stroke-dasharray:5; stroke-width:2;">
      <line x1="63" x2="63" y1="63" style="clip-path:url(#clipPath34); fill:none;" y2="312" />
    </g>
    <g transform="translate(532,452)" style="stroke-linecap:butt; font-size:11; fill:white; text-rendering:geometricPrecision; stroke-linejoin:round; font-family:sans-serif; stroke:white; stroke-width:2;">
      <polygon style="clip-path:url(#clipPath34); stroke:none;" points=" 63 63 55 76 70 76" />
      <polygon style="fill:none; clip-path:url(#clipPath34); stroke:black;" points=" 63 63 55 76 70 76" />
    </g>
    <g transform="translate(282,472)" style="stroke-linecap:butt; font-size:11; stroke-dashoffset:1; text-rendering:geometricPrecision; stroke-linejoin:round; font-family:sans-serif; stroke-dasharray:5; stroke-width:2;">
      <line x1="63" x2="63" y1="63" style="clip-path:url(#clipPath35); fill:none;" y2="112" />
    </g>
    <g transform="translate(282,472)" style="stroke-linecap:butt; font-size:11; fill:white; text-rendering:geometricPrecision; stroke-linejoin:round; font-family:sans-serif; stroke:white; stroke-width:2;">
      <polygon style="clip-path:url(#clipPath35); stroke:none;" points=" 63 63 55 76 70 76" />
      <polygon style="fill:none; clip-path:url(#clipPath35); stroke:black;" points=" 63 63 55 76 70 76" />
    </g>
    <g transform="translate(41,331)" style="stroke-linecap:butt; font-size:11; text-rendering:geometricPrecision; font-family:sans-serif; stroke-linejoin:round; stroke-width:2;">
      <line x1="83" x2="83" y1="111" style="clip-path:url(#clipPath32); fill:none;" y2="142" />
      <polygon style="clip-path:url(#clipPath32); stroke:none;" points=" 83 83 75 96 83 111 90 96" />
      <polygon style="fill:none; clip-path:url(#clipPath32);" points=" 83 83 75 96 83 111 90 96" />
    </g>
    <g transform="translate(462,762)" style="stroke-linecap:butt; font-size:11; text-rendering:geometricPrecision; font-family:sans-serif; stroke-linejoin:round; stroke-width:2;">
      <line x1="63" x2="63" y1="63" style="clip-path:url(#clipPath36); fill:none;" y2="102" />
      <polygon style="fill:white; clip-path:url(#clipPath36); stroke:none;" points=" 63 63 55 76 70 76" />
      <polygon style="fill:none; clip-path:url(#clipPath36);" points=" 63 63 55 76 70 76" />
    </g>
    <g transform="translate(372,432)" style="stroke-linecap:butt; font-size:11; text-rendering:geometricPrecision; font-family:sans-serif; stroke-linejoin:round; stroke-width:2;">
      <line x1="63" x2="152" y1="63" style="clip-path:url(#clipPath37); fill:none;" y2="63" />
      <polygon style="fill:white; clip-path:url(#clipPath37); stroke:none;" points=" 63 63 76 70 76 55" />
      <polygon style="fill:none; clip-path:url(#clipPath37);" points=" 63 63 76 70 76 55" />
    </g>
    <g style="text-rendering:geometricPrecision; font-size:11; font-family:sans-serif;" transform="translate(114,454)">
      <text x="18" y="14" style="clip-path:url(#clipPath38); stroke:none;" xml:space="preserve">*</text>
    </g>
    <g style="text-rendering:geometricPrecision; font-size:11; font-family:sans-serif;" transform="translate(54,454)">
      <text x="10" y="14" style="clip-path:url(#clipPath39); stroke:none;" xml:space="preserve">conditions</text>
    </g>
    <g style="text-rendering:geometricPrecision; font-size:11; font-family:sans-serif;" transform="translate(534,454)">
      <text x="18" y="14" style="clip-path:url(#clipPath38); stroke:none;" xml:space="preserve">*</text>
    </g>
    <g style="text-rendering:geometricPrecision; font-size:11; font-family:sans-serif;" transform="translate(574,454)">
      <text x="7" y="14" style="clip-path:url(#clipPath40); stroke:none;" xml:space="preserve">effects</text>
    </g>
  </g>
</svg>
