<?xml version="1.0" encoding="UTF-8"?>

<!DOCTYPE svg PUBLIC '-//W3C//DTD SVG 1.0//EN' 'http://www.w3.org/TR/2001/REC-SVG-20010904/DTD/svg10.dtd'>
<svg style="fill-opacity:1; color-rendering:auto; color-interpolation:auto; text-rendering:auto; stroke:black; stroke-linecap:square; stroke-miterlimit:10; shape-rendering:auto; stroke-opacity:1; fill:black; stroke-dasharray:none; font-weight:normal; stroke-width:1; font-family:&apos;Dialog&apos;; font-style:normal; stroke-linejoin:miter; font-size:12; stroke-dashoffset:0; image-rendering:auto;" xmlns="http://www.w3.org/2000/svg" width="540" xmlns:xlink="http://www.w3.org/1999/xlink" height="300">
  <!--Generated by the Batik Graphics2D SVG Generator-->
  <defs id="genericDefs" />
  <g>
    <defs id="defs1">
      <linearGradient x1="265" gradientUnits="userSpaceOnUse" x2="265" y1="120" y2="0" id="linearGradient1" spreadMethod="reflect">
        <stop style="stop-opacity:0.498; stop-color:rgb(255,255,0);" offset="0%" />
        <stop style="stop-opacity:0.498; stop-color:rgb(255,255,255);" offset="100%" />
      </linearGradient>
      <linearGradient x1="205" gradientUnits="userSpaceOnUse" x2="205" y1="120" y2="0" id="linearGradient2" spreadMethod="reflect">
        <stop style="stop-opacity:0.498; stop-color:rgb(255,255,0);" offset="0%" />
        <stop style="stop-opacity:0.498; stop-color:rgb(255,255,255);" offset="100%" />
      </linearGradient>
      <clipPath clipPathUnits="userSpaceOnUse" id="clipPath1">
        <path d="M-4 -4 L538 -4 L538 128 L-4 128 L-4 -4 Z" />
      </clipPath>
      <clipPath clipPathUnits="userSpaceOnUse" id="clipPath2">
        <path d="M0 0 L0 113 L530 113 L530 0 Z" />
      </clipPath>
      <clipPath clipPathUnits="userSpaceOnUse" id="clipPath3">
        <path d="M0 0 L530 0 L530 15 L0 15 L0 0 Z" />
      </clipPath>
      <clipPath clipPathUnits="userSpaceOnUse" id="clipPath4">
        <path d="M-4 -4 L418 -4 L418 128 L-4 128 L-4 -4 Z" />
      </clipPath>
      <clipPath clipPathUnits="userSpaceOnUse" id="clipPath5">
        <path d="M0 0 L0 113 L410 113 L410 0 Z" />
      </clipPath>
      <clipPath clipPathUnits="userSpaceOnUse" id="clipPath6">
        <path d="M0 0 L410 0 L410 15 L0 15 L0 0 Z" />
      </clipPath>
      <clipPath clipPathUnits="userSpaceOnUse" id="clipPath7">
        <path d="M-3 -3 L67 -3 L67 27 L-3 27 L-3 -3 Z" />
      </clipPath>
      <clipPath clipPathUnits="userSpaceOnUse" id="clipPath8">
        <path d="M-3 -3 L47 -3 L47 27 L-3 27 L-3 -3 Z" />
      </clipPath>
      <clipPath clipPathUnits="userSpaceOnUse" id="clipPath9">
        <path d="M0 0 L104 0 L104 153 L0 153 L0 0 Z" />
      </clipPath>
      <clipPath clipPathUnits="userSpaceOnUse" id="clipPath10">
        <path d="M0 0 L40 0 L40 20 L0 20 L0 0 Z" />
      </clipPath>
      <clipPath clipPathUnits="userSpaceOnUse" id="clipPath11">
        <path d="M0 0 L60 0 L60 20 L0 20 L0 0 Z" />
      </clipPath>
    </defs>
    <g style="fill:white; text-rendering:geometricPrecision; stroke:white;">
      <rect x="0" y="0" width="540" style="stroke:none;" height="300" />
    </g>
    <g transform="translate(4,4)" style="font-size:11; fill:url(#linearGradient1); text-rendering:geometricPrecision; font-family:sans-serif; stroke:url(#linearGradient1); font-weight:bold;">
      <rect x="0" y="0" width="530" style="clip-path:url(#clipPath1); stroke:none;" height="120" />
    </g>
    <g transform="translate(4,4)" style="stroke-linecap:butt; font-size:11; text-rendering:geometricPrecision; stroke-linejoin:round; font-family:sans-serif; font-weight:bold; stroke-width:2; stroke-miterlimit:0;">
      <rect x="0" y="0" width="530" style="clip-path:url(#clipPath1); fill:none;" height="120" />
      <line x1="0" x2="530" y1="15" style="clip-path:url(#clipPath1); fill:none;" y2="15" />
    </g>
    <g style="text-rendering:geometricPrecision; font-size:11; font-family:sans-serif;" transform="translate(4,19)">
      <text x="2" y="14" style="clip-path:url(#clipPath2); stroke:none;" xml:space="preserve">+GraphicsFactory(materials : GraphicsFactoryMaterials)</text>
      <text x="2" y="29" style="clip-path:url(#clipPath2); stroke:none;" xml:space="preserve">+createGraphicalAgent(aiAgent : Agent) : GraphicalAgent</text>
      <text x="2" y="44" style="clip-path:url(#clipPath2); stroke:none;" xml:space="preserve">-createGraphicalBox(object : WorldObject, boxConfiguration : BoxConfiguration) : GraphicalShape</text>
      <text x="2" y="59" style="clip-path:url(#clipPath2); stroke:none;" xml:space="preserve">+createGraphicalVehicle(vehicle : WorldObject, configuration : VehicleConfiguration) : GraphicalVehicule</text>
      <text x="2" y="74" style="clip-path:url(#clipPath2); stroke:none;" xml:space="preserve">-createGraphicalWorldObject(object : WorldObject, configuration : SpatialConfiguration) : GraphicalObject</text>
      <text x="2" y="89" style="clip-path:url(#clipPath2); stroke:none;" xml:space="preserve">+createGraphicalObject(object : WorldObject) : GraphicalObject</text>
    </g>
    <g transform="translate(4,4)" style="text-rendering:geometricPrecision; font-size:11; font-weight:bold; font-family:sans-serif;">
      <text x="220" y="12" style="clip-path:url(#clipPath3); stroke:none;" xml:space="preserve">GraphicsFactory</text>
    </g>
    <g transform="translate(64,174)" style="font-size:11; fill:url(#linearGradient2); text-rendering:geometricPrecision; font-family:sans-serif; stroke:url(#linearGradient2); font-weight:bold;">
      <rect x="0" y="0" width="410" style="clip-path:url(#clipPath4); stroke:none;" height="120" />
    </g>
    <g transform="translate(64,174)" style="stroke-linecap:butt; font-size:11; text-rendering:geometricPrecision; stroke-linejoin:round; font-family:sans-serif; font-weight:bold; stroke-width:2; stroke-miterlimit:0;">
      <rect x="0" y="0" width="410" style="clip-path:url(#clipPath4); fill:none;" height="120" />
      <line x1="0" x2="410" y1="15" style="clip-path:url(#clipPath4); fill:none;" y2="15" />
    </g>
    <g style="text-rendering:geometricPrecision; font-size:11; font-family:sans-serif;" transform="translate(64,189)">
      <text x="2" y="14" style="clip-path:url(#clipPath5); stroke:none;" xml:space="preserve">&lt;&lt;Property&gt;&gt; -engine : Engine3D</text>
      <text x="2" y="29" style="clip-path:url(#clipPath5); stroke:none;" xml:space="preserve">&lt;&lt;Property&gt;&gt; -agentConfigurationRepository : Repository&lt;AgentConfiguration&gt;</text>
      <text x="2" y="44" style="clip-path:url(#clipPath5); stroke:none;" xml:space="preserve">&lt;&lt;Property&gt;&gt; -boxConfigurationRepository : Repository&lt;BoxConfiguration&gt;</text>
      <text x="2" y="59" style="clip-path:url(#clipPath5); stroke:none;" xml:space="preserve">&lt;&lt;Property&gt;&gt; -vehicleConfigurationRepository : Repository&lt;VehicleConfiguration&gt;</text>
      <text x="2" y="74" style="clip-path:url(#clipPath5); stroke:none;" xml:space="preserve">&lt;&lt;Property&gt;&gt; -spatialConfigurationRepository : Repository&lt;SpatialConfiguration&gt;</text>
    </g>
    <g transform="translate(64,189)" style="stroke-linecap:butt; font-size:11; text-rendering:geometricPrecision; stroke-linejoin:bevel; font-family:sans-serif; stroke-width:2; stroke-miterlimit:0;">
      <line x1="0" x2="410" y1="79" style="clip-path:url(#clipPath5); fill:none;" y2="79" />
    </g>
    <g style="text-rendering:geometricPrecision; font-size:11; font-family:sans-serif;" transform="translate(64,189)">
      <text x="2" y="93" style="clip-path:url(#clipPath5); stroke:none;" xml:space="preserve">+GraphicsFactoryMaterials()</text>
    </g>
    <g transform="translate(64,174)" style="text-rendering:geometricPrecision; font-size:11; font-weight:bold; font-family:sans-serif;">
      <text x="136" y="12" style="clip-path:url(#clipPath6); stroke:none;" xml:space="preserve">GraphicsFactoryMaterials</text>
    </g>
    <g transform="translate(224,74)" style="stroke-linecap:butt; font-size:11; text-rendering:geometricPrecision; font-family:sans-serif; stroke-linejoin:round; stroke-width:2;">
      <line x1="50" x2="50" y1="78" style="clip-path:url(#clipPath9); fill:none;" y2="99" />
      <polygon style="clip-path:url(#clipPath9); stroke:none;" points=" 50 50 42 63 50 78 57 63" />
      <polygon style="fill:none; clip-path:url(#clipPath9);" points=" 50 50 42 63 50 78 57 63" />
    </g>
    <g style="text-rendering:geometricPrecision; font-size:11; font-family:sans-serif;" transform="translate(234,154)">
      <text x="17" y="14" style="clip-path:url(#clipPath10); stroke:none;" xml:space="preserve">1</text>
    </g>
    <g style="text-rendering:geometricPrecision; font-size:11; font-family:sans-serif;" transform="translate(274,154)">
      <text x="6" y="14" style="clip-path:url(#clipPath11); stroke:none;" xml:space="preserve">-materials</text>
    </g>
  </g>
</svg>
