<?xml version="1.0" encoding="UTF-8"?>

<!DOCTYPE svg PUBLIC '-//W3C//DTD SVG 1.0//EN' 'http://www.w3.org/TR/2001/REC-SVG-20010904/DTD/svg10.dtd'>
<svg style="fill-opacity:1; color-rendering:auto; color-interpolation:auto; text-rendering:auto; stroke:black; stroke-linecap:square; stroke-miterlimit:10; shape-rendering:auto; stroke-opacity:1; fill:black; stroke-dasharray:none; font-weight:normal; stroke-width:1; font-family:&apos;Dialog&apos;; font-style:normal; stroke-linejoin:miter; font-size:12; stroke-dashoffset:0; image-rendering:auto;" xmlns="http://www.w3.org/2000/svg" width="739" xmlns:xlink="http://www.w3.org/1999/xlink" height="975">
  <!--Generated by the Batik Graphics2D SVG Generator-->
  <defs id="genericDefs" />
  <g>
    <defs id="defs1">
      <linearGradient x1="170" gradientUnits="userSpaceOnUse" x2="170" y1="140" y2="0" id="linearGradient1" spreadMethod="reflect">
        <stop style="stop-opacity:0.498; stop-color:rgb(255,255,0);" offset="0%" />
        <stop style="stop-opacity:0.498; stop-color:rgb(255,255,255);" offset="100%" />
      </linearGradient>
      <linearGradient x1="65" gradientUnits="userSpaceOnUse" x2="65" y1="70" y2="0" id="linearGradient2" spreadMethod="reflect">
        <stop style="stop-opacity:0.498; stop-color:rgb(255,255,0);" offset="0%" />
        <stop style="stop-opacity:0.498; stop-color:rgb(255,255,255);" offset="100%" />
      </linearGradient>
      <linearGradient x1="130" gradientUnits="userSpaceOnUse" x2="130" y1="100" y2="0" id="linearGradient3" spreadMethod="reflect">
        <stop style="stop-opacity:0.498; stop-color:rgb(255,255,0);" offset="0%" />
        <stop style="stop-opacity:0.498; stop-color:rgb(255,255,255);" offset="100%" />
      </linearGradient>
      <linearGradient x1="160" gradientUnits="userSpaceOnUse" x2="160" y1="90" y2="0" id="linearGradient4" spreadMethod="reflect">
        <stop style="stop-opacity:0.498; stop-color:rgb(255,255,0);" offset="0%" />
        <stop style="stop-opacity:0.498; stop-color:rgb(255,255,255);" offset="100%" />
      </linearGradient>
      <linearGradient x1="130" gradientUnits="userSpaceOnUse" x2="130" y1="80" y2="0" id="linearGradient5" spreadMethod="reflect">
        <stop style="stop-opacity:0.498; stop-color:rgb(255,255,0);" offset="0%" />
        <stop style="stop-opacity:0.498; stop-color:rgb(255,255,255);" offset="100%" />
      </linearGradient>
      <linearGradient x1="360" gradientUnits="userSpaceOnUse" x2="360" y1="210" y2="0" id="linearGradient6" spreadMethod="reflect">
        <stop style="stop-opacity:0.498; stop-color:rgb(0,255,255);" offset="0%" />
        <stop style="stop-opacity:0.498; stop-color:rgb(255,255,255);" offset="100%" />
      </linearGradient>
      <linearGradient x1="185" gradientUnits="userSpaceOnUse" x2="185" y1="90" y2="0" id="linearGradient7" spreadMethod="reflect">
        <stop style="stop-opacity:0.498; stop-color:rgb(255,255,0);" offset="0%" />
        <stop style="stop-opacity:0.498; stop-color:rgb(255,255,255);" offset="100%" />
      </linearGradient>
      <linearGradient x1="120" gradientUnits="userSpaceOnUse" x2="120" y1="90" y2="0" id="linearGradient8" spreadMethod="reflect">
        <stop style="stop-opacity:0.498; stop-color:rgb(255,255,0);" offset="0%" />
        <stop style="stop-opacity:0.498; stop-color:rgb(255,255,255);" offset="100%" />
      </linearGradient>
      <linearGradient x1="155" gradientUnits="userSpaceOnUse" x2="155" y1="200" y2="0" id="linearGradient9" spreadMethod="reflect">
        <stop style="stop-opacity:0.498; stop-color:rgb(255,255,0);" offset="0%" />
        <stop style="stop-opacity:0.498; stop-color:rgb(255,255,255);" offset="100%" />
      </linearGradient>
      <linearGradient x1="130" gradientUnits="userSpaceOnUse" x2="130" y1="40" y2="0" id="linearGradient10" spreadMethod="reflect">
        <stop style="stop-opacity:0.498; stop-color:rgb(255,255,0);" offset="0%" />
        <stop style="stop-opacity:0.498; stop-color:rgb(255,255,255);" offset="100%" />
      </linearGradient>
      <clipPath clipPathUnits="userSpaceOnUse" id="clipPath1">
        <path d="M-4 -4 L348 -4 L348 148 L-4 148 L-4 -4 Z" />
      </clipPath>
      <clipPath clipPathUnits="userSpaceOnUse" id="clipPath2">
        <path d="M0 0 L0 133 L340 133 L340 0 Z" />
      </clipPath>
      <clipPath clipPathUnits="userSpaceOnUse" id="clipPath3">
        <path d="M0 0 L340 0 L340 15 L0 15 L0 0 Z" />
      </clipPath>
      <clipPath clipPathUnits="userSpaceOnUse" id="clipPath4">
        <path d="M-4 -4 L138 -4 L138 78 L-4 78 L-4 -4 Z" />
      </clipPath>
      <clipPath clipPathUnits="userSpaceOnUse" id="clipPath5">
        <path d="M0 0 L0 48 L130 48 L130 0 Z" />
      </clipPath>
      <clipPath clipPathUnits="userSpaceOnUse" id="clipPath6">
        <path d="M0 0 L130 0 L130 30 L0 30 L0 0 Z" />
      </clipPath>
      <clipPath clipPathUnits="userSpaceOnUse" id="clipPath7">
        <path d="M-4 -4 L268 -4 L268 108 L-4 108 L-4 -4 Z" />
      </clipPath>
      <clipPath clipPathUnits="userSpaceOnUse" id="clipPath8">
        <path d="M0 0 L0 85 L260 85 L260 0 Z" />
      </clipPath>
      <clipPath clipPathUnits="userSpaceOnUse" id="clipPath9">
        <path d="M0 0 L260 0 L260 15 L0 15 L0 0 Z" />
      </clipPath>
      <clipPath clipPathUnits="userSpaceOnUse" id="clipPath10">
        <path d="M-4 -4 L328 -4 L328 98 L-4 98 L-4 -4 Z" />
      </clipPath>
      <clipPath clipPathUnits="userSpaceOnUse" id="clipPath11">
        <path d="M0 0 L0 83 L320 83 L320 0 Z" />
      </clipPath>
      <clipPath clipPathUnits="userSpaceOnUse" id="clipPath12">
        <path d="M0 0 L320 0 L320 15 L0 15 L0 0 Z" />
      </clipPath>
      <clipPath clipPathUnits="userSpaceOnUse" id="clipPath13">
        <path d="M-4 -4 L268 -4 L268 88 L-4 88 L-4 -4 Z" />
      </clipPath>
      <clipPath clipPathUnits="userSpaceOnUse" id="clipPath14">
        <path d="M0 0 L0 73 L260 73 L260 0 Z" />
      </clipPath>
      <clipPath clipPathUnits="userSpaceOnUse" id="clipPath15">
        <path d="M-4 -4 L728 -4 L728 218 L-4 218 L-4 -4 Z" />
      </clipPath>
      <clipPath clipPathUnits="userSpaceOnUse" id="clipPath16">
        <path d="M0 0 L0 203 L720 203 L720 0 Z" />
      </clipPath>
      <clipPath clipPathUnits="userSpaceOnUse" id="clipPath17">
        <path d="M0 0 L720 0 L720 15 L0 15 L0 0 Z" />
      </clipPath>
      <clipPath clipPathUnits="userSpaceOnUse" id="clipPath18">
        <path d="M-4 -4 L378 -4 L378 98 L-4 98 L-4 -4 Z" />
      </clipPath>
      <clipPath clipPathUnits="userSpaceOnUse" id="clipPath19">
        <path d="M0 0 L0 83 L370 83 L370 0 Z" />
      </clipPath>
      <clipPath clipPathUnits="userSpaceOnUse" id="clipPath20">
        <path d="M0 0 L370 0 L370 15 L0 15 L0 0 Z" />
      </clipPath>
      <clipPath clipPathUnits="userSpaceOnUse" id="clipPath21">
        <path d="M-4 -4 L248 -4 L248 98 L-4 98 L-4 -4 Z" />
      </clipPath>
      <clipPath clipPathUnits="userSpaceOnUse" id="clipPath22">
        <path d="M0 0 L0 83 L240 83 L240 0 Z" />
      </clipPath>
      <clipPath clipPathUnits="userSpaceOnUse" id="clipPath23">
        <path d="M0 0 L240 0 L240 15 L0 15 L0 0 Z" />
      </clipPath>
      <clipPath clipPathUnits="userSpaceOnUse" id="clipPath24">
        <path d="M-4 -4 L318 -4 L318 208 L-4 208 L-4 -4 Z" />
      </clipPath>
      <clipPath clipPathUnits="userSpaceOnUse" id="clipPath25">
        <path d="M0 0 L0 185 L310 185 L310 0 Z" />
      </clipPath>
      <clipPath clipPathUnits="userSpaceOnUse" id="clipPath26">
        <path d="M0 0 L310 0 L310 15 L0 15 L0 0 Z" />
      </clipPath>
      <clipPath clipPathUnits="userSpaceOnUse" id="clipPath27">
        <path d="M-4 -4 L268 -4 L268 48 L-4 48 L-4 -4 Z" />
      </clipPath>
      <clipPath clipPathUnits="userSpaceOnUse" id="clipPath28">
        <path d="M0 0 L0 33 L260 33 L260 0 Z" />
      </clipPath>
      <clipPath clipPathUnits="userSpaceOnUse" id="clipPath29">
        <path d="M-3 -3 L57 -3 L57 27 L-3 27 L-3 -3 Z" />
      </clipPath>
      <clipPath clipPathUnits="userSpaceOnUse" id="clipPath30">
        <path d="M-3 -3 L47 -3 L47 27 L-3 27 L-3 -3 Z" />
      </clipPath>
      <clipPath clipPathUnits="userSpaceOnUse" id="clipPath31">
        <path d="M-3 -3 L97 -3 L97 27 L-3 27 L-3 -3 Z" />
      </clipPath>
      <clipPath clipPathUnits="userSpaceOnUse" id="clipPath32">
        <path d="M0 0 L189 0 L189 340 L0 340 L0 0 Z" />
      </clipPath>
      <clipPath clipPathUnits="userSpaceOnUse" id="clipPath33">
        <path d="M0 0 L104 0 L104 153 L0 153 L0 0 Z" />
      </clipPath>
      <clipPath clipPathUnits="userSpaceOnUse" id="clipPath34">
        <path d="M0 0 L170 0 L170 249 L0 249 L0 0 Z" />
      </clipPath>
      <clipPath clipPathUnits="userSpaceOnUse" id="clipPath35">
        <path d="M0 0 L170 0 L170 399 L0 399 L0 0 Z" />
      </clipPath>
      <clipPath clipPathUnits="userSpaceOnUse" id="clipPath36">
        <path d="M0 0 L123 0 L123 104 L0 104 L0 0 Z" />
      </clipPath>
      <clipPath clipPathUnits="userSpaceOnUse" id="clipPath37">
        <path d="M0 0 L203 0 L203 224 L0 224 L0 0 Z" />
      </clipPath>
      <clipPath clipPathUnits="userSpaceOnUse" id="clipPath38">
        <path d="M0 0 L284 0 L284 184 L0 184 L0 0 Z" />
      </clipPath>
      <clipPath clipPathUnits="userSpaceOnUse" id="clipPath39">
        <path d="M0 0 L170 0 L170 299 L0 299 L0 0 Z" />
      </clipPath>
      <clipPath clipPathUnits="userSpaceOnUse" id="clipPath40">
        <path d="M0 0 L209 0 L209 170 L0 170 L0 0 Z" />
      </clipPath>
      <clipPath clipPathUnits="userSpaceOnUse" id="clipPath41">
        <path d="M0 0 L170 0 L170 209 L0 209 L0 0 Z" />
      </clipPath>
      <clipPath clipPathUnits="userSpaceOnUse" id="clipPath42">
        <path d="M0 0 L40 0 L40 20 L0 20 L0 0 Z" />
      </clipPath>
      <clipPath clipPathUnits="userSpaceOnUse" id="clipPath43">
        <path d="M0 0 L90 0 L90 20 L0 20 L0 0 Z" />
      </clipPath>
      <clipPath clipPathUnits="userSpaceOnUse" id="clipPath44">
        <path d="M0 0 L50 0 L50 20 L0 20 L0 0 Z" />
      </clipPath>
    </defs>
    <g style="fill:white; text-rendering:geometricPrecision; stroke:white;">
      <rect x="0" y="0" width="739" style="stroke:none;" height="975" />
    </g>
    <g transform="translate(4,710)" style="font-size:11; fill:url(#linearGradient1); text-rendering:geometricPrecision; font-family:sans-serif; stroke:url(#linearGradient1); font-weight:bold;">
      <rect x="0" y="0" width="340" style="clip-path:url(#clipPath1); stroke:none;" height="140" />
    </g>
    <g transform="translate(4,710)" style="stroke-linecap:butt; font-size:11; text-rendering:geometricPrecision; stroke-linejoin:round; font-family:sans-serif; font-weight:bold; stroke-width:2; stroke-miterlimit:0;">
      <rect x="0" y="0" width="340" style="clip-path:url(#clipPath1); fill:none;" height="140" />
      <line x1="0" x2="340" y1="15" style="clip-path:url(#clipPath1); fill:none;" y2="15" />
    </g>
    <g style="text-rendering:geometricPrecision; font-size:11; font-family:sans-serif;" transform="translate(4,725)">
      <text x="2" y="14" style="clip-path:url(#clipPath2); stroke:none;" xml:space="preserve">-provider : WorldObject</text>
      <text x="2" y="29" style="clip-path:url(#clipPath2); stroke:none;" xml:space="preserve">-consumer : WorldObject</text>
    </g>
    <g transform="translate(4,725)" style="stroke-linecap:butt; font-size:11; text-rendering:geometricPrecision; stroke-linejoin:bevel; font-family:sans-serif; stroke-width:2; stroke-miterlimit:0;">
      <line x1="0" x2="340" y1="34" style="clip-path:url(#clipPath2); fill:none;" y2="34" />
    </g>
    <g style="text-rendering:geometricPrecision; font-size:11; font-family:sans-serif;" transform="translate(4,725)">
      <text x="2" y="48" style="clip-path:url(#clipPath2); stroke:none;" xml:space="preserve">+BelongingFunctor(provider : WorldObject, consumer : WorldObject)</text>
      <text x="2" y="63" style="clip-path:url(#clipPath2); stroke:none;" xml:space="preserve">+has(modelName : String) : boolean</text>
      <text x="2" y="78" style="clip-path:url(#clipPath2); stroke:none;" xml:space="preserve">+has(modelName : String, expressionString : String) : boolean</text>
      <text x="2" y="93" style="clip-path:url(#clipPath2); stroke:none;" xml:space="preserve">+takes(modelName : String) : boolean</text>
      <text x="2" y="108" style="clip-path:url(#clipPath2); stroke:none;" xml:space="preserve">+takes(modelName : String, expressionString : String) : boolean</text>
    </g>
    <g transform="translate(4,710)" style="text-rendering:geometricPrecision; font-size:11; font-weight:bold; font-family:sans-serif;">
      <text x="122" y="12" style="clip-path:url(#clipPath3); stroke:none;" xml:space="preserve">BelongingFunctor</text>
    </g>
    <g transform="translate(494,620)" style="font-size:11; fill:url(#linearGradient2); text-rendering:geometricPrecision; font-family:sans-serif; stroke:url(#linearGradient2); font-weight:bold;">
      <rect x="0" y="0" width="130" style="clip-path:url(#clipPath4); stroke:none;" height="70" />
    </g>
    <g transform="translate(494,620)" style="stroke-linecap:butt; font-size:11; text-rendering:geometricPrecision; stroke-linejoin:round; font-family:sans-serif; font-weight:bold; stroke-width:2; stroke-miterlimit:0;">
      <rect x="0" y="0" width="130" style="clip-path:url(#clipPath4); fill:none;" height="70" />
      <line x1="0" x2="130" y1="30" style="clip-path:url(#clipPath4); fill:none;" y2="30" />
    </g>
    <g style="text-rendering:geometricPrecision; font-size:11; font-family:sans-serif;" transform="translate(494,650)">
      <text x="2" y="14" style="clip-path:url(#clipPath5); stroke:none;" xml:space="preserve">&lt;&lt;Constant&gt;&gt;  VIRTUAL</text>
      <text x="2" y="29" style="clip-path:url(#clipPath5); stroke:none;" xml:space="preserve">&lt;&lt;Constant&gt;&gt;  REAL</text>
    </g>
    <g transform="translate(494,620)" style="text-rendering:geometricPrecision; font-size:11; font-weight:bold; font-family:sans-serif;">
      <text x="35" y="12" style="clip-path:url(#clipPath6); stroke:none;" xml:space="preserve">&lt;&lt;Enum&gt;&gt;</text>
      <text x="23" y="27" style="clip-path:url(#clipPath6); stroke:none;" xml:space="preserve">ExecutionMode</text>
    </g>
    <g transform="translate(354,0)" style="font-size:11; fill:url(#linearGradient3); text-rendering:geometricPrecision; font-family:sans-serif; stroke:url(#linearGradient3); font-weight:bold;">
      <rect x="0" y="0" width="260" style="clip-path:url(#clipPath7); stroke:none;" height="100" />
    </g>
    <g transform="translate(354,0)" style="stroke-linecap:butt; font-size:11; text-rendering:geometricPrecision; stroke-linejoin:round; font-family:sans-serif; font-weight:bold; stroke-width:2; stroke-miterlimit:0;">
      <rect x="0" y="0" width="260" style="clip-path:url(#clipPath7); fill:none;" height="100" />
      <line x1="0" x2="260" y1="15" style="clip-path:url(#clipPath7); fill:none;" y2="15" />
    </g>
    <g style="text-rendering:geometricPrecision; font-size:11; font-family:sans-serif;" transform="translate(354,15)">
      <text x="2" y="14" style="clip-path:url(#clipPath8); stroke:none;" xml:space="preserve">+IdBasedU3duJexlContext()</text>
      <text x="2" y="29" style="clip-path:url(#clipPath8); stroke:none;" xml:space="preserve">#getProperty(name : String) : Property&lt;?&gt;</text>
      <text x="2" y="44" style="clip-path:url(#clipPath8); font-style:italic; stroke:none;" xml:space="preserve">#getWorldObjectMap() : Map&lt;Long, WorldObject&gt;</text>
      <text x="2" y="59" style="clip-path:url(#clipPath8); stroke:none;" xml:space="preserve">#getSpecial(name : String) : WorldObject</text>
      <text x="2" y="74" style="clip-path:url(#clipPath8); stroke:none;" xml:space="preserve">#canHandleSpecial(name : String) : boolean</text>
    </g>
    <g transform="translate(354,0)" style="font-size:11; text-rendering:geometricPrecision; font-family:sans-serif; font-style:italic; font-weight:bold;">
      <text x="63" y="12" style="clip-path:url(#clipPath9); stroke:none;" xml:space="preserve">IdBasedU3duJexlContext</text>
    </g>
    <g transform="translate(4,590)" style="font-size:11; fill:url(#linearGradient4); text-rendering:geometricPrecision; font-family:sans-serif; stroke:url(#linearGradient4); font-weight:bold;">
      <rect x="0" y="0" width="320" style="clip-path:url(#clipPath10); stroke:none;" height="90" />
    </g>
    <g transform="translate(4,590)" style="stroke-linecap:butt; font-size:11; text-rendering:geometricPrecision; stroke-linejoin:round; font-family:sans-serif; font-weight:bold; stroke-width:2; stroke-miterlimit:0;">
      <rect x="0" y="0" width="320" style="clip-path:url(#clipPath10); fill:none;" height="90" />
      <line x1="0" x2="320" y1="15" style="clip-path:url(#clipPath10); fill:none;" y2="15" />
    </g>
    <g style="text-rendering:geometricPrecision; font-size:11; font-family:sans-serif;" transform="translate(4,605)">
      <text x="2" y="14" style="clip-path:url(#clipPath11); stroke:none;" xml:space="preserve">+NAMESPACE : String = "loc"</text>
      <line x1="2" x2="142" y1="16" style="clip-path:url(#clipPath11); fill:none;" y2="16" />
    </g>
    <g transform="translate(4,605)" style="stroke-linecap:butt; font-size:11; text-rendering:geometricPrecision; stroke-linejoin:bevel; font-family:sans-serif; stroke-width:2; stroke-miterlimit:0;">
      <line x1="0" x2="320" y1="19" style="clip-path:url(#clipPath11); fill:none;" y2="19" />
    </g>
    <g style="text-rendering:geometricPrecision; font-size:11; font-family:sans-serif;" transform="translate(4,605)">
      <text x="2" y="33" style="clip-path:url(#clipPath11); stroke:none;" xml:space="preserve">+LocationFunctor(context : ServiceAwareU3duJexlContext)</text>
      <text x="2" y="48" style="clip-path:url(#clipPath11); stroke:none;" xml:space="preserve">+isOn(what : WorldObject, where : WorldObject) : boolean</text>
      <text x="2" y="63" style="clip-path:url(#clipPath11); stroke:none;" xml:space="preserve">+setNear(object : WorldObject, destination : WorldObject) : void</text>
    </g>
    <g transform="translate(4,590)" style="text-rendering:geometricPrecision; font-size:11; font-weight:bold; font-family:sans-serif;">
      <text x="116" y="12" style="clip-path:url(#clipPath12); stroke:none;" xml:space="preserve">LocationFunctor</text>
    </g>
    <g transform="translate(394,220)" style="font-size:11; fill:url(#linearGradient5); text-rendering:geometricPrecision; font-family:sans-serif; stroke:url(#linearGradient5); font-weight:bold;">
      <rect x="0" y="0" width="260" style="clip-path:url(#clipPath13); stroke:none;" height="80" />
    </g>
    <g transform="translate(394,220)" style="stroke-linecap:butt; font-size:11; text-rendering:geometricPrecision; stroke-linejoin:round; font-family:sans-serif; font-weight:bold; stroke-width:2; stroke-miterlimit:0;">
      <rect x="0" y="0" width="260" style="clip-path:url(#clipPath13); fill:none;" height="80" />
      <line x1="0" x2="260" y1="15" style="clip-path:url(#clipPath13); fill:none;" y2="15" />
    </g>
    <g style="text-rendering:geometricPrecision; font-size:11; font-family:sans-serif;" transform="translate(394,235)">
      <text x="2" y="14" style="clip-path:url(#clipPath14); stroke:none;" xml:space="preserve">-agent : Agent</text>
    </g>
    <g transform="translate(394,235)" style="stroke-linecap:butt; font-size:11; text-rendering:geometricPrecision; stroke-linejoin:bevel; font-family:sans-serif; stroke-width:2; stroke-miterlimit:0;">
      <line x1="0" x2="260" y1="19" style="clip-path:url(#clipPath14); fill:none;" y2="19" />
    </g>
    <g style="text-rendering:geometricPrecision; font-size:11; font-family:sans-serif;" transform="translate(394,235)">
      <text x="2" y="33" style="clip-path:url(#clipPath14); stroke:none;" xml:space="preserve">+MemoryAwareU3duJexlContext(agent : Agent)</text>
      <text x="2" y="48" style="clip-path:url(#clipPath14); stroke:none;" xml:space="preserve">#getWorldObjectMap() : Map&lt;Long, WorldObject&gt;</text>
    </g>
    <g transform="translate(394,220)" style="text-rendering:geometricPrecision; font-size:11; font-weight:bold; font-family:sans-serif;">
      <text x="46" y="12" style="clip-path:url(#clipPath9); stroke:none;" xml:space="preserve">MemoryAwareU3duJexlContext</text>
    </g>
    <g transform="translate(4,330)" style="font-size:11; fill:url(#linearGradient6); text-rendering:geometricPrecision; font-family:sans-serif; stroke:url(#linearGradient6); font-weight:bold;">
      <rect x="0" y="0" width="720" style="clip-path:url(#clipPath15); stroke:none;" height="210" />
    </g>
    <g transform="translate(4,330)" style="stroke-linecap:butt; font-size:11; text-rendering:geometricPrecision; stroke-linejoin:round; font-family:sans-serif; font-weight:bold; stroke-width:2; stroke-miterlimit:0;">
      <rect x="0" y="0" width="720" style="clip-path:url(#clipPath15); fill:none;" height="210" />
      <line x1="0" x2="720" y1="15" style="clip-path:url(#clipPath15); fill:none;" y2="15" />
    </g>
    <g style="text-rendering:geometricPrecision; font-size:11; font-family:sans-serif;" transform="translate(4,345)">
      <text x="2" y="14" style="clip-path:url(#clipPath16); stroke:none;" xml:space="preserve">+PROVIDER_PREFIX : String = "this"</text>
      <line x1="2" x2="173" y1="16" style="clip-path:url(#clipPath16); fill:none;" y2="16" />
      <text x="2" y="29" style="clip-path:url(#clipPath16); stroke:none;" xml:space="preserve">+CONSUMER_PREFIX : String = "other"</text>
      <line x1="2" x2="187" y1="31" style="clip-path:url(#clipPath16); fill:none;" y2="31" />
      <text x="2" y="44" style="clip-path:url(#clipPath16); stroke:none;" xml:space="preserve">-thisObject : WorldObject</text>
      <text x="2" y="59" style="clip-path:url(#clipPath16); stroke:none;" xml:space="preserve">-otherObject : WorldObject</text>
    </g>
    <g transform="translate(4,345)" style="stroke-linecap:butt; font-size:11; text-rendering:geometricPrecision; stroke-linejoin:bevel; font-family:sans-serif; stroke-width:2; stroke-miterlimit:0;">
      <line x1="0" x2="720" y1="64" style="clip-path:url(#clipPath16); fill:none;" y2="64" />
    </g>
    <g style="text-rendering:geometricPrecision; font-size:11; font-family:sans-serif;" transform="translate(4,345)">
      <text x="2" y="78" style="clip-path:url(#clipPath16); stroke:none;" xml:space="preserve">+ServiceAwareU3duJexlContext(thisObject : WorldObject, otherObject : WorldObject, parameters : Map&lt;String, Object&gt;, mode : ExecutionMode)</text>
      <text x="2" y="93" style="clip-path:url(#clipPath16); stroke:none;" xml:space="preserve">+ServiceAwareU3duJexlContext(thisObject : WorldObject)</text>
      <text x="2" y="108" style="clip-path:url(#clipPath16); stroke:none;" xml:space="preserve">+getConsumer() : WorldObject</text>
      <text x="2" y="123" style="clip-path:url(#clipPath16); stroke:none;" xml:space="preserve">#getProperty(fullName : String) : Property&lt;?&gt;</text>
      <text x="2" y="138" style="clip-path:url(#clipPath16); stroke:none;" xml:space="preserve">+getProvider() : WorldObject</text>
      <text x="2" y="153" style="clip-path:url(#clipPath16); stroke:none;" xml:space="preserve">#getSpecial(name : String) : WorldObject</text>
      <text x="2" y="168" style="clip-path:url(#clipPath16); stroke:none;" xml:space="preserve">#canHandleSpecial(name : String) : boolean</text>
    </g>
    <g transform="translate(4,330)" style="text-rendering:geometricPrecision; font-size:11; font-weight:bold; font-family:sans-serif;">
      <text x="278" y="12" style="clip-path:url(#clipPath17); stroke:none;" xml:space="preserve">ServiceAwareU3duJexlContext</text>
    </g>
    <g transform="translate(364,770)" style="font-size:11; fill:url(#linearGradient7); text-rendering:geometricPrecision; font-family:sans-serif; stroke:url(#linearGradient7); font-weight:bold;">
      <rect x="0" y="0" width="370" style="clip-path:url(#clipPath18); stroke:none;" height="90" />
    </g>
    <g transform="translate(364,770)" style="stroke-linecap:butt; font-size:11; text-rendering:geometricPrecision; stroke-linejoin:round; font-family:sans-serif; font-weight:bold; stroke-width:2; stroke-miterlimit:0;">
      <rect x="0" y="0" width="370" style="clip-path:url(#clipPath18); fill:none;" height="90" />
      <line x1="0" x2="370" y1="15" style="clip-path:url(#clipPath18); fill:none;" y2="15" />
    </g>
    <g style="text-rendering:geometricPrecision; font-size:11; font-family:sans-serif;" transform="translate(364,785)">
      <text x="2" y="14" style="clip-path:url(#clipPath19); stroke:none;" xml:space="preserve">-engine : ServiceAwareU3duJexlEngine = null</text>
      <line x1="2" x2="222" y1="16" style="clip-path:url(#clipPath19); fill:none;" y2="16" />
    </g>
    <g transform="translate(364,785)" style="stroke-linecap:butt; font-size:11; text-rendering:geometricPrecision; stroke-linejoin:bevel; font-family:sans-serif; stroke-width:2; stroke-miterlimit:0;">
      <line x1="0" x2="370" y1="19" style="clip-path:url(#clipPath19); fill:none;" y2="19" />
    </g>
    <g style="text-rendering:geometricPrecision; font-size:11; font-family:sans-serif;" transform="translate(364,785)">
      <text x="2" y="33" style="clip-path:url(#clipPath19); stroke:none;" xml:space="preserve">-ServiceAwareU3duJexlEngine()</text>
      <text x="2" y="48" style="clip-path:url(#clipPath19); stroke:none;" xml:space="preserve">+getInstance() : ServiceAwareU3duJexlEngine</text>
      <line x1="2" x2="228" y1="50" style="clip-path:url(#clipPath19); fill:none;" y2="50" />
      <text x="2" y="63" style="clip-path:url(#clipPath19); stroke:none;" xml:space="preserve">+setFunctorsParameters(context : ServiceAwareU3duJexlContext) : void</text>
    </g>
    <g transform="translate(364,770)" style="text-rendering:geometricPrecision; font-size:11; font-weight:bold; font-family:sans-serif;">
      <text x="106" y="12" style="clip-path:url(#clipPath20); stroke:none;" xml:space="preserve">ServiceAwareU3duJexlEngine</text>
    </g>
    <g transform="translate(4,880)" style="font-size:11; fill:url(#linearGradient8); text-rendering:geometricPrecision; font-family:sans-serif; stroke:url(#linearGradient8); font-weight:bold;">
      <rect x="0" y="0" width="240" style="clip-path:url(#clipPath21); stroke:none;" height="90" />
    </g>
    <g transform="translate(4,880)" style="stroke-linecap:butt; font-size:11; text-rendering:geometricPrecision; stroke-linejoin:round; font-family:sans-serif; font-weight:bold; stroke-width:2; stroke-miterlimit:0;">
      <rect x="0" y="0" width="240" style="clip-path:url(#clipPath21); fill:none;" height="90" />
      <line x1="0" x2="240" y1="15" style="clip-path:url(#clipPath21); fill:none;" y2="15" />
    </g>
    <g style="text-rendering:geometricPrecision; font-size:11; font-family:sans-serif;" transform="translate(4,895)">
      <text x="2" y="14" style="clip-path:url(#clipPath22); stroke:none;" xml:space="preserve">+NAMESPACE : String = "eval"</text>
      <line x1="2" x2="148" y1="16" style="clip-path:url(#clipPath22); fill:none;" y2="16" />
      <text x="2" y="29" style="clip-path:url(#clipPath22); stroke:none;" xml:space="preserve">-context : JexlContext</text>
    </g>
    <g transform="translate(4,895)" style="stroke-linecap:butt; font-size:11; text-rendering:geometricPrecision; stroke-linejoin:bevel; font-family:sans-serif; stroke-width:2; stroke-miterlimit:0;">
      <line x1="0" x2="240" y1="34" style="clip-path:url(#clipPath22); fill:none;" y2="34" />
    </g>
    <g style="text-rendering:geometricPrecision; font-size:11; font-family:sans-serif;" transform="translate(4,895)">
      <text x="2" y="48" style="clip-path:url(#clipPath22); stroke:none;" xml:space="preserve">+StringEvaluationFunctor(context : JexlContext)</text>
      <text x="2" y="63" style="clip-path:url(#clipPath22); stroke:none;" xml:space="preserve">+string(string : String) : Object</text>
    </g>
    <g transform="translate(4,880)" style="text-rendering:geometricPrecision; font-size:11; font-weight:bold; font-family:sans-serif;">
      <text x="55" y="12" style="clip-path:url(#clipPath23); stroke:none;" xml:space="preserve">StringEvaluationFunctor</text>
    </g>
    <g transform="translate(4,0)" style="font-size:11; fill:url(#linearGradient9); text-rendering:geometricPrecision; font-family:sans-serif; stroke:url(#linearGradient9); font-weight:bold;">
      <rect x="0" y="0" width="310" style="clip-path:url(#clipPath24); stroke:none;" height="200" />
    </g>
    <g transform="translate(4,0)" style="stroke-linecap:butt; font-size:11; text-rendering:geometricPrecision; stroke-linejoin:round; font-family:sans-serif; font-weight:bold; stroke-width:2; stroke-miterlimit:0;">
      <rect x="0" y="0" width="310" style="clip-path:url(#clipPath24); fill:none;" height="200" />
      <line x1="0" x2="310" y1="15" style="clip-path:url(#clipPath24); fill:none;" y2="15" />
    </g>
    <g style="text-rendering:geometricPrecision; font-size:11; font-family:sans-serif;" transform="translate(4,15)">
      <text x="2" y="14" style="clip-path:url(#clipPath25); stroke:none;" xml:space="preserve">#logger : Logger = Logger.getLogger(U3duJexlContext.class)</text>
      <line x1="2" x2="297" y1="16" style="clip-path:url(#clipPath25); fill:none;" y2="16" />
      <text x="2" y="29" style="clip-path:url(#clipPath25); stroke:none;" xml:space="preserve">+PARAMETERS_MAP_NAME : String = "param"</text>
      <line x1="2" x2="227" y1="31" style="clip-path:url(#clipPath25); fill:none;" y2="31" />
      <text x="2" y="44" style="clip-path:url(#clipPath25); stroke:none;" xml:space="preserve">-parameters : Map&lt;String, Object&gt;</text>
    </g>
    <g transform="translate(4,15)" style="stroke-linecap:butt; font-size:11; text-rendering:geometricPrecision; stroke-linejoin:bevel; font-family:sans-serif; stroke-width:2; stroke-miterlimit:0;">
      <line x1="0" x2="310" y1="49" style="clip-path:url(#clipPath25); fill:none;" y2="49" />
    </g>
    <g style="text-rendering:geometricPrecision; font-size:11; font-family:sans-serif;" transform="translate(4,15)">
      <text x="2" y="63" style="clip-path:url(#clipPath25); stroke:none;" xml:space="preserve">+U3duJexlContext()</text>
      <text x="2" y="78" style="clip-path:url(#clipPath25); stroke:none;" xml:space="preserve">+U3duJexlContext(params : Map&lt;String, Object&gt;)</text>
      <text x="2" y="93" style="clip-path:url(#clipPath25); stroke:none;" xml:space="preserve">+get(name : String) : Object</text>
      <text x="2" y="108" style="clip-path:url(#clipPath25); font-style:italic; stroke:none;" xml:space="preserve">#getSpecial(name : String) : Object</text>
      <text x="2" y="123" style="clip-path:url(#clipPath25); font-style:italic; stroke:none;" xml:space="preserve">#canHandleSpecial(name : String) : boolean</text>
      <text x="2" y="138" style="clip-path:url(#clipPath25); stroke:none;" xml:space="preserve">+has(name : String) : boolean</text>
      <text x="2" y="153" style="clip-path:url(#clipPath25); stroke:none;" xml:space="preserve">+set(name : String, value : Object) : void</text>
      <text x="2" y="168" style="clip-path:url(#clipPath25); font-style:italic; stroke:none;" xml:space="preserve">#getProperty(fullName : String) : Property&lt;?&gt;</text>
    </g>
    <g transform="translate(4,0)" style="font-size:11; text-rendering:geometricPrecision; font-family:sans-serif; font-style:italic; font-weight:bold;">
      <text x="110" y="12" style="clip-path:url(#clipPath26); stroke:none;" xml:space="preserve">U3duJexlContext</text>
    </g>
    <g transform="translate(394,140)" style="font-size:11; fill:url(#linearGradient10); text-rendering:geometricPrecision; font-family:sans-serif; stroke:url(#linearGradient10); font-weight:bold;">
      <rect x="0" y="0" width="260" style="clip-path:url(#clipPath27); stroke:none;" height="40" />
    </g>
    <g transform="translate(394,140)" style="stroke-linecap:butt; font-size:11; text-rendering:geometricPrecision; stroke-linejoin:round; font-family:sans-serif; font-weight:bold; stroke-width:2; stroke-miterlimit:0;">
      <rect x="0" y="0" width="260" style="clip-path:url(#clipPath27); fill:none;" height="40" />
      <line x1="0" x2="260" y1="15" style="clip-path:url(#clipPath27); fill:none;" y2="15" />
    </g>
    <g style="text-rendering:geometricPrecision; font-size:11; font-family:sans-serif;" transform="translate(394,155)">
      <text x="2" y="14" style="clip-path:url(#clipPath28); stroke:none;" xml:space="preserve">#getWorldObjectMap() : Map&lt;Long, WorldObject&gt;</text>
    </g>
    <g transform="translate(394,140)" style="text-rendering:geometricPrecision; font-size:11; font-weight:bold; font-family:sans-serif;">
      <text x="52" y="12" style="clip-path:url(#clipPath9); stroke:none;" xml:space="preserve">WorldAwareU3duJexlContext</text>
    </g>
    <g transform="translate(290,16)" style="stroke-linecap:butt; font-size:11; text-rendering:geometricPrecision; font-family:sans-serif; stroke-linejoin:round; stroke-width:2;">
      <line x1="83" x2="83" y1="83" style="clip-path:url(#clipPath32); fill:none;" y2="253" />
      <line x1="83" x2="102" y1="253" style="clip-path:url(#clipPath32); fill:none;" y2="253" />
      <polygon style="fill:white; clip-path:url(#clipPath32); stroke:none;" points=" 83 83 75 96 90 96" />
      <polygon style="fill:none; clip-path:url(#clipPath32);" points=" 83 83 75 96 90 96" />
    </g>
    <g transform="translate(113,490)" style="stroke-linecap:butt; font-size:11; text-rendering:geometricPrecision; font-family:sans-serif; stroke-linejoin:round; stroke-width:2;">
      <line x1="50" x2="50" y1="71" style="clip-path:url(#clipPath33); fill:none;" y2="50" />
      <polygon style="fill:none; clip-path:url(#clipPath33);" points=" 50 99 57 85 50 71 42 85" />
    </g>
    <g transform="translate(480,456)" style="stroke-linecap:butt; font-size:11; text-rendering:geometricPrecision; font-family:sans-serif; stroke-linejoin:round; stroke-width:2;">
      <line x1="83" x2="83" y1="83" style="clip-path:url(#clipPath34); fill:none;" y2="162" />
    </g>
    <g transform="translate(600,456)" style="stroke-linecap:butt; font-size:11; stroke-dashoffset:1; text-rendering:geometricPrecision; stroke-linejoin:round; font-family:sans-serif; stroke-dasharray:5; stroke-width:2;">
      <line x1="83" x2="83" y1="312" style="clip-path:url(#clipPath35); fill:none;" y2="83" />
      <line x1="83" x2="75" y1="83" style="clip-path:url(#clipPath35); stroke-dashoffset:0; fill:none; stroke-dasharray:none;" y2="96" />
      <line x1="83" x2="90" y1="83" style="clip-path:url(#clipPath35); stroke-dashoffset:0; fill:none; stroke-dasharray:none;" y2="96" />
    </g>
    <g transform="translate(294,770)" style="stroke-linecap:butt; font-size:11; stroke-dashoffset:1; text-rendering:geometricPrecision; stroke-linejoin:round; font-family:sans-serif; stroke-dasharray:5; stroke-width:2;">
      <line x1="69" x2="50" y1="50" style="clip-path:url(#clipPath36); fill:none;" y2="50" />
      <line x1="50" x2="63" y1="50" style="clip-path:url(#clipPath36); stroke-dashoffset:0; fill:none; stroke-dasharray:none;" y2="57" />
      <line x1="50" x2="63" y1="50" style="clip-path:url(#clipPath36); stroke-dashoffset:0; fill:none; stroke-dasharray:none;" y2="42" />
    </g>
    <g transform="translate(274,599)" style="stroke-linecap:butt; font-size:11; stroke-dashoffset:1; text-rendering:geometricPrecision; stroke-linejoin:round; font-family:sans-serif; stroke-dasharray:5; stroke-width:2;">
      <line x1="149" x2="149" y1="170" style="clip-path:url(#clipPath37); fill:none;" y2="50" />
      <line x1="149" x2="50" y1="50" style="clip-path:url(#clipPath37); fill:none;" y2="50" />
      <line x1="50" x2="63" y1="50" style="clip-path:url(#clipPath37); stroke-dashoffset:0; fill:none; stroke-dasharray:none;" y2="57" />
      <line x1="50" x2="63" y1="50" style="clip-path:url(#clipPath37); stroke-dashoffset:0; fill:none; stroke-dasharray:none;" y2="42" />
    </g>
    <g transform="translate(194,810)" style="stroke-linecap:butt; font-size:11; stroke-dashoffset:1; text-rendering:geometricPrecision; stroke-linejoin:round; font-family:sans-serif; stroke-dasharray:5; stroke-width:2;">
      <line x1="230" x2="230" y1="50" style="clip-path:url(#clipPath38); fill:none;" y2="130" />
      <line x1="230" x2="50" y1="130" style="clip-path:url(#clipPath38); fill:none;" y2="130" />
      <line x1="50" x2="63" y1="130" style="clip-path:url(#clipPath38); stroke-dashoffset:0; fill:none; stroke-dasharray:none;" y2="137" />
      <line x1="50" x2="63" y1="130" style="clip-path:url(#clipPath38); stroke-dashoffset:0; fill:none; stroke-dasharray:none;" y2="122" />
    </g>
    <g transform="translate(90,116)" style="stroke-linecap:butt; font-size:11; text-rendering:geometricPrecision; font-family:sans-serif; stroke-linejoin:round; stroke-width:2;">
      <line x1="83" x2="83" y1="83" style="clip-path:url(#clipPath39); fill:none;" y2="212" />
      <polygon style="fill:white; clip-path:url(#clipPath39); stroke:none;" points=" 83 83 75 96 90 96" />
      <polygon style="fill:none; clip-path:url(#clipPath39);" points=" 83 83 75 96 90 96" />
    </g>
    <g transform="translate(230,-34)" style="stroke-linecap:butt; font-size:11; text-rendering:geometricPrecision; font-family:sans-serif; stroke-linejoin:round; stroke-width:2;">
      <line x1="83" x2="122" y1="83" style="clip-path:url(#clipPath40); fill:none;" y2="83" />
      <polygon style="fill:white; clip-path:url(#clipPath40); stroke:none;" points=" 83 83 96 90 96 75" />
      <polygon style="fill:none; clip-path:url(#clipPath40);" points=" 83 83 96 90 96 75" />
    </g>
    <g transform="translate(320,16)" style="stroke-linecap:butt; font-size:11; text-rendering:geometricPrecision; font-family:sans-serif; stroke-linejoin:round; stroke-width:2;">
      <line x1="83" x2="83" y1="83" style="clip-path:url(#clipPath41); fill:none;" y2="122" />
      <polygon style="fill:white; clip-path:url(#clipPath41); stroke:none;" points=" 83 83 75 96 90 96" />
      <polygon style="fill:none; clip-path:url(#clipPath41);" points=" 83 83 75 96 90 96" />
    </g>
    <g style="text-rendering:geometricPrecision; font-size:11; font-family:sans-serif;" transform="translate(524,600)">
      <text x="17" y="14" style="clip-path:url(#clipPath42); stroke:none;" xml:space="preserve">1</text>
    </g>
    <g style="text-rendering:geometricPrecision; font-size:11; font-family:sans-serif;" transform="translate(564,600)">
      <text x="6" y="14" style="clip-path:url(#clipPath43); stroke:none;" xml:space="preserve">-executionMode</text>
    </g>
    <g style="text-rendering:geometricPrecision; font-size:11; font-family:sans-serif;" transform="translate(164,540)">
      <text x="17" y="14" style="clip-path:url(#clipPath42); stroke:none;" xml:space="preserve">1</text>
    </g>
    <g style="text-rendering:geometricPrecision; font-size:11; font-family:sans-serif;" transform="translate(114,540)">
      <text x="4" y="14" style="clip-path:url(#clipPath44); stroke:none;" xml:space="preserve">-context</text>
    </g>
  </g>
</svg>
