<?xml version="1.0" encoding="UTF-8"?>

<!DOCTYPE svg PUBLIC '-//W3C//DTD SVG 1.0//EN' 'http://www.w3.org/TR/2001/REC-SVG-20010904/DTD/svg10.dtd'>
<svg style="fill-opacity:1; color-rendering:auto; color-interpolation:auto; text-rendering:auto; stroke:black; stroke-linecap:square; stroke-miterlimit:10; shape-rendering:auto; stroke-opacity:1; fill:black; stroke-dasharray:none; font-weight:normal; stroke-width:1; font-family:&apos;Dialog&apos;; font-style:normal; stroke-linejoin:miter; font-size:12; stroke-dashoffset:0; image-rendering:auto;" xmlns="http://www.w3.org/2000/svg" width="779" xmlns:xlink="http://www.w3.org/1999/xlink" height="819">
  <!--Generated by the Batik Graphics2D SVG Generator-->
  <defs id="genericDefs" />
  <g>
    <defs id="defs1">
      <linearGradient x1="190" gradientUnits="userSpaceOnUse" x2="190" y1="260" y2="0" id="linearGradient1" spreadMethod="reflect">
        <stop style="stop-opacity:0.498; stop-color:rgb(0,255,255);" offset="0%" />
        <stop style="stop-opacity:0.498; stop-color:rgb(255,255,255);" offset="100%" />
      </linearGradient>
      <linearGradient x1="170" gradientUnits="userSpaceOnUse" x2="170" y1="110" y2="0" id="linearGradient2" spreadMethod="reflect">
        <stop style="stop-opacity:0.498; stop-color:rgb(255,255,0);" offset="0%" />
        <stop style="stop-opacity:0.498; stop-color:rgb(255,255,255);" offset="100%" />
      </linearGradient>
      <linearGradient x1="150" gradientUnits="userSpaceOnUse" x2="150" y1="170" y2="0" id="linearGradient3" spreadMethod="reflect">
        <stop style="stop-opacity:0.498; stop-color:rgb(255,255,0);" offset="0%" />
        <stop style="stop-opacity:0.498; stop-color:rgb(255,255,255);" offset="100%" />
      </linearGradient>
      <linearGradient x1="165" gradientUnits="userSpaceOnUse" x2="165" y1="420" y2="0" id="linearGradient4" spreadMethod="reflect">
        <stop style="stop-opacity:0.498; stop-color:rgb(255,255,0);" offset="0%" />
        <stop style="stop-opacity:0.498; stop-color:rgb(255,255,255);" offset="100%" />
      </linearGradient>
      <linearGradient x1="100" gradientUnits="userSpaceOnUse" x2="100" y1="100" y2="0" id="linearGradient5" spreadMethod="reflect">
        <stop style="stop-opacity:0.498; stop-color:rgb(255,255,0);" offset="0%" />
        <stop style="stop-opacity:0.498; stop-color:rgb(255,255,255);" offset="100%" />
      </linearGradient>
      <linearGradient x1="125" gradientUnits="userSpaceOnUse" x2="125" y1="180" y2="0" id="linearGradient6" spreadMethod="reflect">
        <stop style="stop-opacity:0.498; stop-color:rgb(255,255,0);" offset="0%" />
        <stop style="stop-opacity:0.498; stop-color:rgb(255,255,255);" offset="100%" />
      </linearGradient>
      <linearGradient x1="115" gradientUnits="userSpaceOnUse" x2="115" y1="70" y2="0" id="linearGradient7" spreadMethod="reflect">
        <stop style="stop-opacity:0.498; stop-color:rgb(255,255,0);" offset="0%" />
        <stop style="stop-opacity:0.498; stop-color:rgb(255,255,255);" offset="100%" />
      </linearGradient>
      <clipPath clipPathUnits="userSpaceOnUse" id="clipPath1">
        <path d="M-4 -4 L388 -4 L388 268 L-4 268 L-4 -4 Z" />
      </clipPath>
      <clipPath clipPathUnits="userSpaceOnUse" id="clipPath2">
        <path d="M0 0 L0 253 L380 253 L380 0 Z" />
      </clipPath>
      <clipPath clipPathUnits="userSpaceOnUse" id="clipPath3">
        <path d="M0 0 L380 0 L380 15 L0 15 L0 0 Z" />
      </clipPath>
      <clipPath clipPathUnits="userSpaceOnUse" id="clipPath4">
        <path d="M-4 -4 L348 -4 L348 118 L-4 118 L-4 -4 Z" />
      </clipPath>
      <clipPath clipPathUnits="userSpaceOnUse" id="clipPath5">
        <path d="M0 0 L0 103 L340 103 L340 0 Z" />
      </clipPath>
      <clipPath clipPathUnits="userSpaceOnUse" id="clipPath6">
        <path d="M0 0 L340 0 L340 15 L0 15 L0 0 Z" />
      </clipPath>
      <clipPath clipPathUnits="userSpaceOnUse" id="clipPath7">
        <path d="M-4 -4 L308 -4 L308 178 L-4 178 L-4 -4 Z" />
      </clipPath>
      <clipPath clipPathUnits="userSpaceOnUse" id="clipPath8">
        <path d="M0 0 L0 163 L300 163 L300 0 Z" />
      </clipPath>
      <clipPath clipPathUnits="userSpaceOnUse" id="clipPath9">
        <path d="M0 0 L300 0 L300 15 L0 15 L0 0 Z" />
      </clipPath>
      <clipPath clipPathUnits="userSpaceOnUse" id="clipPath10">
        <path d="M-4 -4 L338 -4 L338 428 L-4 428 L-4 -4 Z" />
      </clipPath>
      <clipPath clipPathUnits="userSpaceOnUse" id="clipPath11">
        <path d="M0 0 L0 413 L330 413 L330 0 Z" />
      </clipPath>
      <clipPath clipPathUnits="userSpaceOnUse" id="clipPath12">
        <path d="M0 0 L330 0 L330 15 L0 15 L0 0 Z" />
      </clipPath>
      <clipPath clipPathUnits="userSpaceOnUse" id="clipPath13">
        <path d="M-3 -3 L47 -3 L47 27 L-3 27 L-3 -3 Z" />
      </clipPath>
      <clipPath clipPathUnits="userSpaceOnUse" id="clipPath14">
        <path d="M-3 -3 L87 -3 L87 27 L-3 27 L-3 -3 Z" />
      </clipPath>
      <clipPath clipPathUnits="userSpaceOnUse" id="clipPath15">
        <path d="M-3 -3 L147 -3 L147 27 L-3 27 L-3 -3 Z" />
      </clipPath>
      <clipPath clipPathUnits="userSpaceOnUse" id="clipPath16">
        <path d="M-3 -3 L127 -3 L127 27 L-3 27 L-3 -3 Z" />
      </clipPath>
      <clipPath clipPathUnits="userSpaceOnUse" id="clipPath17">
        <path d="M-3 -3 L67 -3 L67 27 L-3 27 L-3 -3 Z" />
      </clipPath>
      <clipPath clipPathUnits="userSpaceOnUse" id="clipPath18">
        <path d="M-4 -4 L208 -4 L208 108 L-4 108 L-4 -4 Z" />
      </clipPath>
      <clipPath clipPathUnits="userSpaceOnUse" id="clipPath19">
        <path d="M0 0 L0 78 L200 78 L200 0 Z" />
      </clipPath>
      <clipPath clipPathUnits="userSpaceOnUse" id="clipPath20">
        <path d="M0 0 L200 0 L200 30 L0 30 L0 0 Z" />
      </clipPath>
      <clipPath clipPathUnits="userSpaceOnUse" id="clipPath21">
        <path d="M-4 -4 L258 -4 L258 188 L-4 188 L-4 -4 Z" />
      </clipPath>
      <clipPath clipPathUnits="userSpaceOnUse" id="clipPath22">
        <path d="M0 0 L0 173 L250 173 L250 0 Z" />
      </clipPath>
      <clipPath clipPathUnits="userSpaceOnUse" id="clipPath23">
        <path d="M0 0 L250 0 L250 15 L0 15 L0 0 Z" />
      </clipPath>
      <clipPath clipPathUnits="userSpaceOnUse" id="clipPath24">
        <path d="M-4 -4 L238 -4 L238 78 L-4 78 L-4 -4 Z" />
      </clipPath>
      <clipPath clipPathUnits="userSpaceOnUse" id="clipPath25">
        <path d="M0 0 L0 48 L230 48 L230 0 Z" />
      </clipPath>
      <clipPath clipPathUnits="userSpaceOnUse" id="clipPath26">
        <path d="M0 0 L230 0 L230 30 L0 30 L0 0 Z" />
      </clipPath>
      <clipPath clipPathUnits="userSpaceOnUse" id="clipPath27">
        <path d="M-3 -3 L97 -3 L97 27 L-3 27 L-3 -3 Z" />
      </clipPath>
      <clipPath clipPathUnits="userSpaceOnUse" id="clipPath28">
        <path d="M0 0 L129 0 L129 208 L0 208 L0 0 Z" />
      </clipPath>
      <clipPath clipPathUnits="userSpaceOnUse" id="clipPath29">
        <path d="M0 0 L218 0 L218 129 L0 129 L0 0 Z" />
      </clipPath>
      <clipPath clipPathUnits="userSpaceOnUse" id="clipPath30">
        <path d="M0 0 L188 0 L188 129 L0 129 L0 0 Z" />
      </clipPath>
      <clipPath clipPathUnits="userSpaceOnUse" id="clipPath31">
        <path d="M0 0 L129 0 L129 188 L0 188 L0 0 Z" />
      </clipPath>
      <clipPath clipPathUnits="userSpaceOnUse" id="clipPath32">
        <path d="M0 0 L129 0 L129 198 L0 198 L0 0 Z" />
      </clipPath>
      <clipPath clipPathUnits="userSpaceOnUse" id="clipPath33">
        <path d="M0 0 L279 0 L279 339 L0 339 L0 0 Z" />
      </clipPath>
      <clipPath clipPathUnits="userSpaceOnUse" id="clipPath34">
        <path d="M0 0 L339 0 L339 339 L0 339 L0 0 Z" />
      </clipPath>
      <clipPath clipPathUnits="userSpaceOnUse" id="clipPath35">
        <path d="M0 0 L40 0 L40 20 L0 20 L0 0 Z" />
      </clipPath>
      <clipPath clipPathUnits="userSpaceOnUse" id="clipPath36">
        <path d="M0 0 L258 0 L258 15 L0 15 L0 0 Z" />
      </clipPath>
      <clipPath clipPathUnits="userSpaceOnUse" id="clipPath37">
        <path d="M0 0 L158 0 L158 15 L0 15 L0 0 Z" />
      </clipPath>
      <clipPath clipPathUnits="userSpaceOnUse" id="clipPath38">
        <path d="M0 0 L90 0 L90 20 L0 20 L0 0 Z" />
      </clipPath>
      <clipPath clipPathUnits="userSpaceOnUse" id="clipPath39">
        <path d="M0 0 L80 0 L80 20 L0 20 L0 0 Z" />
      </clipPath>
      <clipPath clipPathUnits="userSpaceOnUse" id="clipPath40">
        <path d="M0 0 L140 0 L140 20 L0 20 L0 0 Z" />
      </clipPath>
      <clipPath clipPathUnits="userSpaceOnUse" id="clipPath41">
        <path d="M0 0 L60 0 L60 20 L0 20 L0 0 Z" />
      </clipPath>
      <clipPath clipPathUnits="userSpaceOnUse" id="clipPath42">
        <path d="M0 0 L120 0 L120 20 L0 20 L0 0 Z" />
      </clipPath>
    </defs>
    <g style="fill:white; text-rendering:geometricPrecision; stroke:white;">
      <rect x="0" y="0" width="779" style="stroke:none;" height="819" />
    </g>
    <g transform="translate(394,244)" style="font-size:11; fill:url(#linearGradient1); text-rendering:geometricPrecision; font-family:sans-serif; stroke:url(#linearGradient1); font-weight:bold;">
      <rect x="0" y="0" width="380" style="clip-path:url(#clipPath1); stroke:none;" height="260" />
    </g>
    <g transform="translate(394,244)" style="stroke-linecap:butt; font-size:11; text-rendering:geometricPrecision; stroke-linejoin:round; font-family:sans-serif; font-weight:bold; stroke-width:2; stroke-miterlimit:0;">
      <rect x="0" y="0" width="380" style="clip-path:url(#clipPath1); fill:none;" height="260" />
      <line x1="0" x2="380" y1="15" style="clip-path:url(#clipPath1); fill:none;" y2="15" />
    </g>
    <g style="text-rendering:geometricPrecision; font-size:11; font-family:sans-serif;" transform="translate(394,259)">
      <text x="2" y="14" style="clip-path:url(#clipPath2); stroke:none;" xml:space="preserve">-maxSize : int</text>
      <text x="2" y="29" style="clip-path:url(#clipPath2); stroke:none;" xml:space="preserve">+INITIAL_KNOWN_PROPERTIES : String[] = { Internal.Agent.NAME }</text>
      <line x1="2" x2="321" y1="31" style="clip-path:url(#clipPath2); fill:none;" y2="31" />
    </g>
    <g transform="translate(394,259)" style="stroke-linecap:butt; font-size:11; text-rendering:geometricPrecision; stroke-linejoin:bevel; font-family:sans-serif; stroke-width:2; stroke-miterlimit:0;">
      <line x1="0" x2="380" y1="34" style="clip-path:url(#clipPath2); fill:none;" y2="34" />
    </g>
    <g style="text-rendering:geometricPrecision; font-size:11; font-family:sans-serif;" transform="translate(394,259)">
      <text x="2" y="48" style="clip-path:url(#clipPath2); stroke:none;" xml:space="preserve">+Memory(ownerAgent : Agent, maxSize : int)</text>
      <text x="2" y="63" style="clip-path:url(#clipPath2); stroke:none;" xml:space="preserve">+readResolve() : Memory</text>
      <text x="2" y="78" style="clip-path:url(#clipPath2); stroke:none;" xml:space="preserve">+initializeKnowledge() : void</text>
      <text x="2" y="93" style="clip-path:url(#clipPath2); stroke:none;" xml:space="preserve">+forget(memoryElement : MemoryElement) : void</text>
      <text x="2" y="108" style="clip-path:url(#clipPath2); stroke:none;" xml:space="preserve">+forgetFirstPossibleElement() : boolean</text>
      <text x="2" y="123" style="clip-path:url(#clipPath2); stroke:none;" xml:space="preserve">+remember(worldObject : WorldObject, forgettable : boolean) : WorldObject</text>
      <text x="2" y="138" style="clip-path:url(#clipPath2); stroke:none;" xml:space="preserve">+remember(worldObject : WorldObject) : WorldObject</text>
      <text x="2" y="153" style="clip-path:url(#clipPath2); stroke:none;" xml:space="preserve">+getKnowledgeAboutOwner() : Agent</text>
      <text x="2" y="168" style="clip-path:url(#clipPath2); stroke:none;" xml:space="preserve">+getKnowledgeAbout(object : WorldObject) : WorldObject</text>
      <text x="2" y="183" style="clip-path:url(#clipPath2); stroke:none;" xml:space="preserve">+getKnowledges() : List&lt;WorldObject&gt;</text>
      <text x="2" y="198" style="clip-path:url(#clipPath2); stroke:none;" xml:space="preserve">+toString() : String</text>
      <text x="2" y="213" style="clip-path:url(#clipPath2); stroke:none;" xml:space="preserve">+setAgent(agent : Agent) : void</text>
      <text x="2" y="228" style="clip-path:url(#clipPath2); stroke:none;" xml:space="preserve">+deepDataClone() : Memory</text>
    </g>
    <g transform="translate(394,244)" style="text-rendering:geometricPrecision; font-size:11; font-weight:bold; font-family:sans-serif;">
      <text x="168" y="12" style="clip-path:url(#clipPath3); stroke:none;" xml:space="preserve">Memory</text>
    </g>
    <g transform="translate(424,54)" style="font-size:11; fill:url(#linearGradient2); text-rendering:geometricPrecision; font-family:sans-serif; stroke:url(#linearGradient2); font-weight:bold;">
      <rect x="0" y="0" width="340" style="clip-path:url(#clipPath4); stroke:none;" height="110" />
    </g>
    <g transform="translate(424,54)" style="stroke-linecap:butt; font-size:11; text-rendering:geometricPrecision; stroke-linejoin:round; font-family:sans-serif; font-weight:bold; stroke-width:2; stroke-miterlimit:0;">
      <rect x="0" y="0" width="340" style="clip-path:url(#clipPath4); fill:none;" height="110" />
      <line x1="0" x2="340" y1="15" style="clip-path:url(#clipPath4); fill:none;" y2="15" />
    </g>
    <g style="text-rendering:geometricPrecision; font-size:11; font-family:sans-serif;" transform="translate(424,69)">
      <text x="2" y="14" style="clip-path:url(#clipPath5); stroke:none;" xml:space="preserve">&lt;&lt;Property&gt;&gt; -forgettable : boolean</text>
      <text x="2" y="29" style="clip-path:url(#clipPath5); stroke:none;" xml:space="preserve">&lt;&lt;Property&gt;&gt; -worldObject : WorldObject</text>
    </g>
    <g transform="translate(424,69)" style="stroke-linecap:butt; font-size:11; text-rendering:geometricPrecision; stroke-linejoin:bevel; font-family:sans-serif; stroke-width:2; stroke-miterlimit:0;">
      <line x1="0" x2="340" y1="34" style="clip-path:url(#clipPath5); fill:none;" y2="34" />
    </g>
    <g style="text-rendering:geometricPrecision; font-size:11; font-family:sans-serif;" transform="translate(424,69)">
      <text x="2" y="48" style="clip-path:url(#clipPath5); stroke:none;" xml:space="preserve">+MemoryElement(worldObject : WorldObject, forgettable : boolean)</text>
      <text x="2" y="63" style="clip-path:url(#clipPath5); stroke:none;" xml:space="preserve">+toString() : String</text>
      <text x="2" y="78" style="clip-path:url(#clipPath5); stroke:none;" xml:space="preserve">+deepDataClone() : MemoryElement</text>
    </g>
    <g transform="translate(424,54)" style="text-rendering:geometricPrecision; font-size:11; font-weight:bold; font-family:sans-serif;">
      <text x="127" y="12" style="clip-path:url(#clipPath6); stroke:none;" xml:space="preserve">MemoryElement</text>
    </g>
    <g transform="translate(4,484)" style="font-size:11; fill:url(#linearGradient3); text-rendering:geometricPrecision; font-family:sans-serif; stroke:url(#linearGradient3); font-weight:bold;">
      <rect x="0" y="0" width="300" style="clip-path:url(#clipPath7); stroke:none;" height="170" />
    </g>
    <g transform="translate(4,484)" style="stroke-linecap:butt; font-size:11; text-rendering:geometricPrecision; stroke-linejoin:round; font-family:sans-serif; font-weight:bold; stroke-width:2; stroke-miterlimit:0;">
      <rect x="0" y="0" width="300" style="clip-path:url(#clipPath7); fill:none;" height="170" />
      <line x1="0" x2="300" y1="15" style="clip-path:url(#clipPath7); fill:none;" y2="15" />
    </g>
    <g style="text-rendering:geometricPrecision; font-size:11; font-family:sans-serif;" transform="translate(4,499)">
      <text x="2" y="14" style="clip-path:url(#clipPath8); stroke:none;" xml:space="preserve">+DEFAULT_MEMORY_SIZE : int = 100</text>
      <line x1="2" x2="183" y1="16" style="clip-path:url(#clipPath8); fill:none;" y2="16" />
    </g>
    <g transform="translate(4,499)" style="stroke-linecap:butt; font-size:11; text-rendering:geometricPrecision; stroke-linejoin:bevel; font-family:sans-serif; stroke-width:2; stroke-miterlimit:0;">
      <line x1="0" x2="300" y1="19" style="clip-path:url(#clipPath8); fill:none;" y2="19" />
    </g>
    <g style="text-rendering:geometricPrecision; font-size:11; font-family:sans-serif;" transform="translate(4,499)">
      <text x="2" y="33" style="clip-path:url(#clipPath8); stroke:none;" xml:space="preserve">+Agent(modelName : String, id : long)</text>
      <text x="2" y="48" style="clip-path:url(#clipPath8); stroke:none;" xml:space="preserve">-Agent(modelName : String, id : long, initMemory : boolean)</text>
      <text x="2" y="63" style="clip-path:url(#clipPath8); stroke:none;" xml:space="preserve">+toString() : String</text>
      <text x="2" y="78" style="clip-path:url(#clipPath8); stroke:none;" xml:space="preserve">+sendMessage(m : Message) : void</text>
      <text x="2" y="93" style="clip-path:url(#clipPath8); stroke:none;" xml:space="preserve">+getGauges() : List&lt;Gauge&gt;</text>
      <text x="2" y="108" style="clip-path:url(#clipPath8); stroke:none;" xml:space="preserve">+getEmptyClone() : Agent</text>
      <text x="2" y="123" style="clip-path:url(#clipPath8); stroke:none;" xml:space="preserve">+deepDataClone() : Agent</text>
      <text x="2" y="138" style="clip-path:url(#clipPath8); stroke:none;" xml:space="preserve">+toShortString() : String</text>
    </g>
    <g transform="translate(4,484)" style="text-rendering:geometricPrecision; font-size:11; font-weight:bold; font-family:sans-serif;">
      <text x="133" y="12" style="clip-path:url(#clipPath9); stroke:none;" xml:space="preserve">Agent</text>
    </g>
    <g transform="translate(4,4)" style="font-size:11; fill:url(#linearGradient4); text-rendering:geometricPrecision; font-family:sans-serif; stroke:url(#linearGradient4); font-weight:bold;">
      <rect x="0" y="0" width="330" style="clip-path:url(#clipPath10); stroke:none;" height="420" />
    </g>
    <g transform="translate(4,4)" style="stroke-linecap:butt; font-size:11; text-rendering:geometricPrecision; stroke-linejoin:round; font-family:sans-serif; font-weight:bold; stroke-width:2; stroke-miterlimit:0;">
      <rect x="0" y="0" width="330" style="clip-path:url(#clipPath10); fill:none;" height="420" />
      <line x1="0" x2="330" y1="15" style="clip-path:url(#clipPath10); fill:none;" y2="15" />
    </g>
    <g style="text-rendering:geometricPrecision; font-size:11; font-family:sans-serif;" transform="translate(4,19)">
      <text x="2" y="14" style="clip-path:url(#clipPath11); stroke:none;" xml:space="preserve">&lt;&lt;Property&gt;&gt; #id : long</text>
      <text x="2" y="29" style="clip-path:url(#clipPath11); stroke:none;" xml:space="preserve">&lt;&lt;Property&gt;&gt; -modelName : String</text>
      <text x="2" y="44" style="clip-path:url(#clipPath11); stroke:none;" xml:space="preserve">&lt;&lt;Property&gt;&gt; #pause : boolean</text>
      <text x="2" y="59" style="clip-path:url(#clipPath11); stroke:none;" xml:space="preserve">&lt;&lt;Property&gt;&gt; #alive : boolean</text>
      <text x="2" y="74" style="clip-path:url(#clipPath11); stroke:none;" xml:space="preserve">&lt;&lt;Property&gt;&gt; -services : Service</text>
      <text x="2" y="89" style="clip-path:url(#clipPath11); stroke:none;" xml:space="preserve">&lt;&lt;Property&gt;&gt; -position : Oriented2DPosition</text>
      <text x="2" y="104" style="clip-path:url(#clipPath11); stroke:none;" xml:space="preserve">&lt;&lt;Property&gt;&gt; #animation : Animation</text>
      <text x="2" y="119" style="clip-path:url(#clipPath11); stroke:none;" xml:space="preserve">&lt;&lt;Property&gt;&gt; -belongings : WorldObject</text>
      <text x="2" y="134" style="clip-path:url(#clipPath11); stroke:none;" xml:space="preserve">&lt;&lt;Property&gt;&gt; -categories : Category</text>
      <text x="2" y="149" style="clip-path:url(#clipPath11); stroke:none;" xml:space="preserve">-WALKABLE : Category = new Category("Walkable")</text>
      <line x1="2" x2="257" y1="151" style="clip-path:url(#clipPath11); fill:none;" y2="151" />
    </g>
    <g transform="translate(4,19)" style="stroke-linecap:butt; font-size:11; text-rendering:geometricPrecision; stroke-linejoin:bevel; font-family:sans-serif; stroke-width:2; stroke-miterlimit:0;">
      <line x1="0" x2="330" y1="154" style="clip-path:url(#clipPath11); fill:none;" y2="154" />
    </g>
    <g style="text-rendering:geometricPrecision; font-size:11; font-family:sans-serif;" transform="translate(4,19)">
      <text x="2" y="168" style="clip-path:url(#clipPath11); stroke:none;" xml:space="preserve">+WorldObject(modelName : String, id : long)</text>
      <text x="2" y="183" style="clip-path:url(#clipPath11); stroke:none;" xml:space="preserve">-WorldObject(modelName : String, id : long, initContent : boolean)</text>
      <text x="2" y="198" style="clip-path:url(#clipPath11); stroke:none;" xml:space="preserve">-behave() : void</text>
      <text x="2" y="213" style="clip-path:url(#clipPath11); stroke:none;" xml:space="preserve">+sleep() : void</text>
      <text x="2" y="228" style="clip-path:url(#clipPath11); stroke:none;" xml:space="preserve">+toString() : String</text>
      <text x="2" y="243" style="clip-path:url(#clipPath11); stroke:none;" xml:space="preserve">+wakeUp() : void</text>
      <text x="2" y="258" style="clip-path:url(#clipPath11); stroke:none;" xml:space="preserve">+kill() : void</text>
      <text x="2" y="273" style="clip-path:url(#clipPath11); stroke:none;" xml:space="preserve">+revive() : void</text>
      <text x="2" y="288" style="clip-path:url(#clipPath11); stroke:none;" xml:space="preserve">+getEmptyClone() : WorldObject</text>
      <text x="2" y="303" style="clip-path:url(#clipPath11); stroke:none;" xml:space="preserve">+deepDataClone() : WorldObject</text>
      <text x="2" y="318" style="clip-path:url(#clipPath11); stroke:none;" xml:space="preserve">+hashCode() : int</text>
      <text x="2" y="333" style="clip-path:url(#clipPath11); stroke:none;" xml:space="preserve">+equals(obj : Object) : boolean</text>
      <text x="2" y="348" style="clip-path:url(#clipPath11); stroke:none;" xml:space="preserve">+isWalkable() : boolean</text>
      <text x="2" y="363" style="clip-path:url(#clipPath11); stroke:none;" xml:space="preserve">+toShortString() : String</text>
      <text x="2" y="378" style="clip-path:url(#clipPath11); stroke:none;" xml:space="preserve">+readResolve() : WorldObject</text>
      <text x="2" y="393" style="clip-path:url(#clipPath11); stroke:none;" xml:space="preserve">+interruptAnimation() : void</text>
    </g>
    <g transform="translate(4,4)" style="text-rendering:geometricPrecision; font-size:11; font-weight:bold; font-family:sans-serif;">
      <text x="131" y="12" style="clip-path:url(#clipPath12); stroke:none;" xml:space="preserve">WorldObject</text>
    </g>
    <g transform="translate(64,714)" style="font-size:11; fill:url(#linearGradient5); text-rendering:geometricPrecision; font-family:sans-serif; stroke:url(#linearGradient5); font-weight:bold;">
      <rect x="0" y="0" width="200" style="clip-path:url(#clipPath18); stroke:none;" height="100" />
    </g>
    <g transform="translate(64,714)" style="stroke-linecap:butt; font-size:11; text-rendering:geometricPrecision; stroke-linejoin:round; font-family:sans-serif; font-weight:bold; stroke-width:2; stroke-miterlimit:0;">
      <rect x="0" y="0" width="200" style="clip-path:url(#clipPath18); fill:none;" height="100" />
      <line x1="0" x2="200" y1="30" style="clip-path:url(#clipPath18); fill:none;" y2="30" />
    </g>
    <g style="text-rendering:geometricPrecision; font-size:11; font-family:sans-serif;" transform="translate(64,744)">
      <text x="2" y="14" style="clip-path:url(#clipPath19); stroke:none;" xml:space="preserve">+cons(element : PlanElement) : Plan</text>
      <text x="2" y="29" style="clip-path:url(#clipPath19); stroke:none;" xml:space="preserve">+append(element : PlanElement) : Plan</text>
      <text x="2" y="44" style="clip-path:url(#clipPath19); stroke:none;" xml:space="preserve">+get(i : int) : PlanElement</text>
      <text x="2" y="59" style="clip-path:url(#clipPath19); stroke:none;" xml:space="preserve">+size() : int</text>
    </g>
    <g transform="translate(64,714)" style="text-rendering:geometricPrecision; font-size:11; font-weight:bold; font-family:sans-serif;">
      <text x="64" y="12" style="clip-path:url(#clipPath20); stroke:none;" xml:space="preserve">&lt;&lt;Interface&gt;&gt;</text>
      <text x="87" y="27" style="clip-path:url(#clipPath20); stroke:none;" xml:space="preserve">Plan</text>
    </g>
    <g transform="translate(524,574)" style="font-size:11; fill:url(#linearGradient6); text-rendering:geometricPrecision; font-family:sans-serif; stroke:url(#linearGradient6); font-weight:bold;">
      <rect x="0" y="0" width="250" style="clip-path:url(#clipPath21); stroke:none;" height="180" />
    </g>
    <g transform="translate(524,574)" style="stroke-linecap:butt; font-size:11; text-rendering:geometricPrecision; stroke-linejoin:round; font-family:sans-serif; font-weight:bold; stroke-width:2; stroke-miterlimit:0;">
      <rect x="0" y="0" width="250" style="clip-path:url(#clipPath21); fill:none;" height="180" />
      <line x1="0" x2="250" y1="15" style="clip-path:url(#clipPath21); fill:none;" y2="15" />
    </g>
    <g style="text-rendering:geometricPrecision; font-size:11; font-family:sans-serif;" transform="translate(524,589)">
      <text x="2" y="14" style="clip-path:url(#clipPath22); stroke:none;" xml:space="preserve">&lt;&lt;Property&gt;&gt; -successCondition : String</text>
      <text x="2" y="29" style="clip-path:url(#clipPath22); stroke:none;" xml:space="preserve">&lt;&lt;Property&gt;&gt; -priority : Integer</text>
      <text x="2" y="44" style="clip-path:url(#clipPath22); stroke:none;" xml:space="preserve">&lt;&lt;Property&gt;&gt; -reachable : boolean</text>
      <text x="2" y="59" style="clip-path:url(#clipPath22); stroke:none;" xml:space="preserve">&lt;&lt;Property&gt;&gt; -reached : boolean</text>
    </g>
    <g transform="translate(524,589)" style="stroke-linecap:butt; font-size:11; text-rendering:geometricPrecision; stroke-linejoin:bevel; font-family:sans-serif; stroke-width:2; stroke-miterlimit:0;">
      <line x1="0" x2="250" y1="64" style="clip-path:url(#clipPath22); fill:none;" y2="64" />
    </g>
    <g style="text-rendering:geometricPrecision; font-size:11; font-family:sans-serif;" transform="translate(524,589)">
      <text x="2" y="78" style="clip-path:url(#clipPath22); stroke:none;" xml:space="preserve">+Goal(successCondition : String, priority : int)</text>
      <text x="2" y="93" style="clip-path:url(#clipPath22); stroke:none;" xml:space="preserve">+Goal(successCondition : String)</text>
      <text x="2" y="108" style="clip-path:url(#clipPath22); stroke:none;" xml:space="preserve">+setPriority(priority : int) : void</text>
      <text x="2" y="123" style="clip-path:url(#clipPath22); stroke:none;" xml:space="preserve">+seemsReached(context : JexlContext) : boolean</text>
      <text x="2" y="138" style="clip-path:url(#clipPath22); stroke:none;" xml:space="preserve">+toString() : String</text>
      <text x="2" y="153" style="clip-path:url(#clipPath22); stroke:none;" xml:space="preserve">+clone() : Goal</text>
    </g>
    <g transform="translate(524,574)" style="text-rendering:geometricPrecision; font-size:11; font-weight:bold; font-family:sans-serif;">
      <text x="112" y="12" style="clip-path:url(#clipPath23); stroke:none;" xml:space="preserve">Goal</text>
    </g>
    <g transform="translate(284,714)" style="font-size:11; fill:url(#linearGradient7); text-rendering:geometricPrecision; font-family:sans-serif; stroke:url(#linearGradient7); font-weight:bold;">
      <rect x="0" y="0" width="230" style="clip-path:url(#clipPath24); stroke:none;" height="70" />
    </g>
    <g transform="translate(284,714)" style="stroke-linecap:butt; font-size:11; text-rendering:geometricPrecision; stroke-linejoin:round; font-family:sans-serif; font-weight:bold; stroke-width:2; stroke-miterlimit:0;">
      <rect x="0" y="0" width="230" style="clip-path:url(#clipPath24); fill:none;" height="70" />
      <line x1="0" x2="230" y1="30" style="clip-path:url(#clipPath24); fill:none;" y2="30" />
    </g>
    <g style="text-rendering:geometricPrecision; font-size:11; font-family:sans-serif;" transform="translate(284,744)">
      <text x="2" y="14" style="clip-path:url(#clipPath25); stroke:none;" xml:space="preserve">+STOP_CONVERSATION : Message = null</text>
      <line x1="2" x2="203" y1="16" style="clip-path:url(#clipPath25); fill:none;" y2="16" />
      <text x="2" y="29" style="clip-path:url(#clipPath25); stroke:none;" xml:space="preserve">&lt;&lt;Property&gt;&gt; +sender : Agent</text>
    </g>
    <g transform="translate(284,714)" style="text-rendering:geometricPrecision; font-size:11; font-weight:bold; font-family:sans-serif;">
      <text x="79" y="12" style="clip-path:url(#clipPath26); stroke:none;" xml:space="preserve">&lt;&lt;Interface&gt;&gt;</text>
      <text x="91" y="27" style="clip-path:url(#clipPath26); stroke:none;" xml:space="preserve">Message</text>
    </g>
    <g transform="translate(562,102)" style="stroke-linecap:butt; font-size:11; text-rendering:geometricPrecision; font-family:sans-serif; stroke-linejoin:round; stroke-width:2;">
      <line x1="63" x2="63" y1="113" style="clip-path:url(#clipPath28); fill:none;" y2="63" />
      <polygon style="clip-path:url(#clipPath28); stroke:none;" points=" 63 141 70 127 63 113 55 127" />
      <polygon style="fill:none; clip-path:url(#clipPath28);" points=" 63 141 70 127 63 113 55 127" />
    </g>
    <g transform="translate(242,432)" style="stroke-linecap:butt; font-size:11; text-rendering:geometricPrecision; font-family:sans-serif; stroke-linejoin:round; stroke-width:2;">
      <line x1="63" x2="123" y1="63" style="clip-path:url(#clipPath29); fill:none;" y2="63" />
      <polygon style="fill:none; clip-path:url(#clipPath29);" points=" 151 63 137 55 123 63 137 70" />
    </g>
    <g transform="translate(242,432)" style="stroke-linecap:butt; font-size:11; text-rendering:geometricPrecision; font-family:sans-serif; stroke-linejoin:round; stroke-width:2;">
      <line x1="123" x2="91" y1="63" style="clip-path:url(#clipPath29); fill:none;" y2="63" />
      <polygon style="fill:none; clip-path:url(#clipPath29);" points=" 151 63 137 55 123 63 137 70" />
      <polygon style="clip-path:url(#clipPath29); stroke:none;" points=" 63 63 76 70 91 63 76 55" />
      <polygon style="fill:none; clip-path:url(#clipPath29);" points=" 63 63 76 70 91 63 76 55" />
    </g>
    <g transform="translate(272,192)" style="stroke-linecap:butt; font-size:11; text-rendering:geometricPrecision; font-family:sans-serif; stroke-linejoin:round; stroke-width:2;">
      <line x1="93" x2="63" y1="63" style="clip-path:url(#clipPath30); fill:none;" y2="63" />
      <polygon style="fill:none; clip-path:url(#clipPath30);" points=" 121 63 107 55 93 63 107 70" />
    </g>
    <g transform="translate(272,52)" style="stroke-linecap:butt; font-size:11; text-rendering:geometricPrecision; font-family:sans-serif; stroke-linejoin:round; stroke-width:2;">
      <line x1="123" x2="63" y1="63" style="clip-path:url(#clipPath29); fill:none;" y2="63" />
      <polygon style="fill:none; clip-path:url(#clipPath29);" points=" 151 63 137 55 123 63 137 70" />
    </g>
    <g transform="translate(82,362)" style="stroke-linecap:butt; font-size:11; text-rendering:geometricPrecision; font-family:sans-serif; stroke-linejoin:round; stroke-width:2;">
      <line x1="63" x2="63" y1="63" style="clip-path:url(#clipPath31); fill:none;" y2="121" />
      <polygon style="fill:white; clip-path:url(#clipPath31); stroke:none;" points=" 63 63 55 76 70 76" />
      <polygon style="fill:none; clip-path:url(#clipPath31);" points=" 63 63 55 76 70 76" />
    </g>
    <g transform="translate(572,442)" style="stroke-linecap:butt; font-size:11; text-rendering:geometricPrecision; font-family:sans-serif; stroke-linejoin:round; stroke-width:2;">
      <line x1="63" x2="63" y1="91" style="clip-path:url(#clipPath32); fill:none;" y2="131" />
      <polygon style="fill:none; clip-path:url(#clipPath32);" points=" 63 63 55 76 63 91 70 76" />
    </g>
    <g transform="translate(332,442)" style="stroke-linecap:butt; font-size:11; text-rendering:geometricPrecision; font-family:sans-serif; stroke-linejoin:round; stroke-width:2;">
      <line x1="197" x2="63" y1="85" style="clip-path:url(#clipPath33); fill:none;" y2="273" />
      <polygon style="fill:none; clip-path:url(#clipPath33);" points=" 213 63 199 69 197 85 211 77" />
    </g>
    <g transform="translate(202,442)" style="stroke-linecap:butt; font-size:11; text-rendering:geometricPrecision; font-family:sans-serif; stroke-linejoin:round; stroke-width:2;">
      <line x1="254" x2="63" y1="82" style="clip-path:url(#clipPath34); fill:none;" y2="273" />
      <polygon style="fill:none; clip-path:url(#clipPath34);" points=" 273 63 259 66 254 82 269 76" />
    </g>
    <g transform="translate(522,102)" style="stroke-linecap:butt; font-size:11; text-rendering:geometricPrecision; font-family:sans-serif; stroke-linejoin:round; stroke-width:2;">
      <line x1="63" x2="63" y1="113" style="clip-path:url(#clipPath28); fill:none;" y2="63" />
      <polygon style="clip-path:url(#clipPath28); stroke:none;" points=" 63 141 70 127 63 113 55 127" />
      <polygon style="fill:none; clip-path:url(#clipPath28);" points=" 63 141 70 127 63 113 55 127" />
    </g>
    <g style="text-rendering:geometricPrecision; font-size:11; font-family:sans-serif;" transform="translate(574,164)">
      <text x="18" y="14" style="clip-path:url(#clipPath35); stroke:none;" xml:space="preserve">*</text>
    </g>
    <g style="text-rendering:geometricPrecision; font-size:11; font-family:sans-serif;" transform="translate(334,164)">
      <text x="16" y="12" style="clip-path:url(#clipPath36); stroke:none;" xml:space="preserve">Map&lt;Long, MemoryElement&gt;  memoryElements</text>
    </g>
    <g style="text-rendering:geometricPrecision; font-size:11; font-family:sans-serif;" transform="translate(274,694)">
      <text x="18" y="14" style="clip-path:url(#clipPath35); stroke:none;" xml:space="preserve">*</text>
    </g>
    <g style="text-rendering:geometricPrecision; font-size:11; font-family:sans-serif;" transform="translate(114,694)">
      <text x="13" y="12" style="clip-path:url(#clipPath37); stroke:none;" xml:space="preserve">Map&lt;Goal, Plan&gt; pastPlans</text>
    </g>
    <g style="text-rendering:geometricPrecision; font-size:11; font-family:sans-serif;" transform="translate(364,694)">
      <text x="18" y="14" style="clip-path:url(#clipPath35); stroke:none;" xml:space="preserve">*</text>
    </g>
    <g style="text-rendering:geometricPrecision; font-size:11; font-family:sans-serif;" transform="translate(414,694)">
      <text x="10" y="14" style="clip-path:url(#clipPath38); stroke:none;" xml:space="preserve">messageInbox</text>
    </g>
    <g style="text-rendering:geometricPrecision; font-size:11; font-family:sans-serif;" transform="translate(624,554)">
      <text x="18" y="14" style="clip-path:url(#clipPath35); stroke:none;" xml:space="preserve">*</text>
    </g>
    <g style="text-rendering:geometricPrecision; font-size:11; font-family:sans-serif;" transform="translate(594,554)">
      <text x="7" y="14" style="clip-path:url(#clipPath35); stroke:none;" xml:space="preserve">goals</text>
    </g>
    <g style="text-rendering:geometricPrecision; font-size:11; font-family:sans-serif;" transform="translate(294,504)">
      <text x="17" y="14" style="clip-path:url(#clipPath35); stroke:none;" xml:space="preserve">1</text>
    </g>
    <g style="text-rendering:geometricPrecision; font-size:11; font-family:sans-serif;" transform="translate(254,464)">
      <text x="9" y="14" style="clip-path:url(#clipPath39); stroke:none;" xml:space="preserve">ownerAgent</text>
    </g>
    <g style="text-rendering:geometricPrecision; font-size:11; font-family:sans-serif;" transform="translate(594,164)">
      <text x="18" y="14" style="clip-path:url(#clipPath35); stroke:none;" xml:space="preserve">*</text>
    </g>
    <g style="text-rendering:geometricPrecision; font-size:11; font-family:sans-serif;" transform="translate(624,164)">
      <text x="8" y="14" style="clip-path:url(#clipPath40); stroke:none;" xml:space="preserve">insertionOrderedElements</text>
    </g>
    <g style="text-rendering:geometricPrecision; font-size:11; font-family:sans-serif;" transform="translate(334,94)">
      <text x="17" y="14" style="clip-path:url(#clipPath35); stroke:none;" xml:space="preserve">1</text>
    </g>
    <g style="text-rendering:geometricPrecision; font-size:11; font-family:sans-serif;" transform="translate(324,114)">
      <text x="10" y="14" style="clip-path:url(#clipPath39); stroke:none;" xml:space="preserve">worldObject</text>
    </g>
    <g style="text-rendering:geometricPrecision; font-size:11; font-family:sans-serif;" transform="translate(364,504)">
      <text x="17" y="14" style="clip-path:url(#clipPath35); stroke:none;" xml:space="preserve">1</text>
    </g>
    <g style="text-rendering:geometricPrecision; font-size:11; font-family:sans-serif;" transform="translate(334,464)">
      <text x="11" y="14" style="clip-path:url(#clipPath41); stroke:none;" xml:space="preserve">memory</text>
    </g>
    <g style="text-rendering:geometricPrecision; font-size:11; font-family:sans-serif;" transform="translate(334,254)">
      <text x="18" y="14" style="clip-path:url(#clipPath35); stroke:none;" xml:space="preserve">*</text>
    </g>
    <g style="text-rendering:geometricPrecision; font-size:11; font-family:sans-serif;" transform="translate(324,224)">
      <text x="12" y="14" style="clip-path:url(#clipPath42); stroke:none;" xml:space="preserve">surroundingObjects</text>
    </g>
  </g>
</svg>
