<?xml version="1.0" encoding="UTF-8"?>

<!DOCTYPE svg PUBLIC '-//W3C//DTD SVG 1.0//EN' 'http://www.w3.org/TR/2001/REC-SVG-20010904/DTD/svg10.dtd'>
<svg style="fill-opacity:1; color-rendering:auto; color-interpolation:auto; text-rendering:auto; stroke:black; stroke-linecap:square; stroke-miterlimit:10; shape-rendering:auto; stroke-opacity:1; fill:black; stroke-dasharray:none; font-weight:normal; stroke-width:1; font-family:&apos;Dialog&apos;; font-style:normal; stroke-linejoin:miter; font-size:12; stroke-dashoffset:0; image-rendering:auto;" xmlns="http://www.w3.org/2000/svg" width="759" xmlns:xlink="http://www.w3.org/1999/xlink" height="475">
  <!--Generated by the Batik Graphics2D SVG Generator-->
  <defs id="genericDefs" />
  <g>
    <defs id="defs1">
      <linearGradient x1="100" gradientUnits="userSpaceOnUse" x2="100" y1="60" y2="0" id="linearGradient1" spreadMethod="reflect">
        <stop style="stop-opacity:0.498; stop-color:rgb(255,255,0);" offset="0%" />
        <stop style="stop-opacity:0.498; stop-color:rgb(255,255,255);" offset="100%" />
      </linearGradient>
      <linearGradient x1="95" gradientUnits="userSpaceOnUse" x2="95" y1="60" y2="0" id="linearGradient2" spreadMethod="reflect">
        <stop style="stop-opacity:0.498; stop-color:rgb(255,255,0);" offset="0%" />
        <stop style="stop-opacity:0.498; stop-color:rgb(255,255,255);" offset="100%" />
      </linearGradient>
      <linearGradient x1="70" gradientUnits="userSpaceOnUse" x2="70" y1="40" y2="0" id="linearGradient3" spreadMethod="reflect">
        <stop style="stop-opacity:0.498; stop-color:rgb(255,255,0);" offset="0%" />
        <stop style="stop-opacity:0.498; stop-color:rgb(255,255,255);" offset="100%" />
      </linearGradient>
      <linearGradient x1="70" gradientUnits="userSpaceOnUse" x2="70" y1="40" y2="0" id="linearGradient4" spreadMethod="reflect">
        <stop style="stop-opacity:0.498; stop-color:rgb(255,255,0);" offset="0%" />
        <stop style="stop-opacity:0.498; stop-color:rgb(255,255,255);" offset="100%" />
      </linearGradient>
      <linearGradient x1="70" gradientUnits="userSpaceOnUse" x2="70" y1="40" y2="0" id="linearGradient5" spreadMethod="reflect">
        <stop style="stop-opacity:0.498; stop-color:rgb(255,255,0);" offset="0%" />
        <stop style="stop-opacity:0.498; stop-color:rgb(255,255,255);" offset="100%" />
      </linearGradient>
      <linearGradient x1="70" gradientUnits="userSpaceOnUse" x2="70" y1="40" y2="0" id="linearGradient6" spreadMethod="reflect">
        <stop style="stop-opacity:0.498; stop-color:rgb(255,255,0);" offset="0%" />
        <stop style="stop-opacity:0.498; stop-color:rgb(255,255,255);" offset="100%" />
      </linearGradient>
      <linearGradient x1="90" gradientUnits="userSpaceOnUse" x2="90" y1="40" y2="0" id="linearGradient7" spreadMethod="reflect">
        <stop style="stop-opacity:0.498; stop-color:rgb(255,255,0);" offset="0%" />
        <stop style="stop-opacity:0.498; stop-color:rgb(255,255,255);" offset="100%" />
      </linearGradient>
      <linearGradient x1="100" gradientUnits="userSpaceOnUse" x2="100" y1="120" y2="0" id="linearGradient8" spreadMethod="reflect">
        <stop style="stop-opacity:0.498; stop-color:rgb(0,255,255);" offset="0%" />
        <stop style="stop-opacity:0.498; stop-color:rgb(255,255,255);" offset="100%" />
      </linearGradient>
      <linearGradient x1="65" gradientUnits="userSpaceOnUse" x2="65" y1="40" y2="0" id="linearGradient9" spreadMethod="reflect">
        <stop style="stop-opacity:0.498; stop-color:rgb(255,255,0);" offset="0%" />
        <stop style="stop-opacity:0.498; stop-color:rgb(255,255,255);" offset="100%" />
      </linearGradient>
      <linearGradient x1="55" gradientUnits="userSpaceOnUse" x2="55" y1="50" y2="0" id="linearGradient10" spreadMethod="reflect">
        <stop style="stop-opacity:0.498; stop-color:rgb(255,255,0);" offset="0%" />
        <stop style="stop-opacity:0.498; stop-color:rgb(255,255,255);" offset="100%" />
      </linearGradient>
      <linearGradient x1="95" gradientUnits="userSpaceOnUse" x2="95" y1="110" y2="0" id="linearGradient11" spreadMethod="reflect">
        <stop style="stop-opacity:0.498; stop-color:rgb(255,255,0);" offset="0%" />
        <stop style="stop-opacity:0.498; stop-color:rgb(255,255,255);" offset="100%" />
      </linearGradient>
      <clipPath clipPathUnits="userSpaceOnUse" id="clipPath1">
        <path d="M-4 -19 L214 -19 L214 67 L-4 67 L-4 -19 Z" />
      </clipPath>
      <clipPath clipPathUnits="userSpaceOnUse" id="clipPath2">
        <path d="M0 0 L0 52 L200 52 L200 0 Z" />
      </clipPath>
      <clipPath clipPathUnits="userSpaceOnUse" id="clipPath3">
        <path d="M0 0 L200 0 L200 15 L0 15 L0 0 Z" />
      </clipPath>
      <clipPath clipPathUnits="userSpaceOnUse" id="clipPath4">
        <path d="M-4 -19 L204 -19 L204 67 L-4 67 L-4 -19 Z" />
      </clipPath>
      <clipPath clipPathUnits="userSpaceOnUse" id="clipPath5">
        <path d="M0 0 L0 52 L190 52 L190 0 Z" />
      </clipPath>
      <clipPath clipPathUnits="userSpaceOnUse" id="clipPath6">
        <path d="M0 0 L190 0 L190 15 L0 15 L0 0 Z" />
      </clipPath>
      <clipPath clipPathUnits="userSpaceOnUse" id="clipPath7">
        <path d="M-4 -4 L148 -4 L148 48 L-4 48 L-4 -4 Z" />
      </clipPath>
      <clipPath clipPathUnits="userSpaceOnUse" id="clipPath8">
        <path d="M0 0 L0 33 L140 33 L140 0 Z" />
      </clipPath>
      <clipPath clipPathUnits="userSpaceOnUse" id="clipPath9">
        <path d="M0 0 L140 0 L140 15 L0 15 L0 0 Z" />
      </clipPath>
      <clipPath clipPathUnits="userSpaceOnUse" id="clipPath10">
        <path d="M-4 -19 L194 -19 L194 47 L-4 47 L-4 -19 Z" />
      </clipPath>
      <clipPath clipPathUnits="userSpaceOnUse" id="clipPath11">
        <path d="M0 0 L0 17 L180 17 L180 0 Z" />
      </clipPath>
      <clipPath clipPathUnits="userSpaceOnUse" id="clipPath12">
        <path d="M0 0 L180 0 L180 30 L0 30 L0 0 Z" />
      </clipPath>
      <clipPath clipPathUnits="userSpaceOnUse" id="clipPath13">
        <path d="M-4 -19 L214 -19 L214 127 L-4 127 L-4 -19 Z" />
      </clipPath>
      <clipPath clipPathUnits="userSpaceOnUse" id="clipPath14">
        <path d="M0 0 L0 97 L200 97 L200 0 Z" />
      </clipPath>
      <clipPath clipPathUnits="userSpaceOnUse" id="clipPath15">
        <path d="M0 0 L200 0 L200 30 L0 30 L0 0 Z" />
      </clipPath>
      <clipPath clipPathUnits="userSpaceOnUse" id="clipPath16">
        <path d="M-4 -4 L138 -4 L138 48 L-4 48 L-4 -4 Z" />
      </clipPath>
      <clipPath clipPathUnits="userSpaceOnUse" id="clipPath17">
        <path d="M0 0 L0 33 L130 33 L130 0 Z" />
      </clipPath>
      <clipPath clipPathUnits="userSpaceOnUse" id="clipPath18">
        <path d="M0 0 L130 0 L130 15 L0 15 L0 0 Z" />
      </clipPath>
      <clipPath clipPathUnits="userSpaceOnUse" id="clipPath19">
        <path d="M-4 -4 L118 -4 L118 58 L-4 58 L-4 -4 Z" />
      </clipPath>
      <clipPath clipPathUnits="userSpaceOnUse" id="clipPath20">
        <path d="M0 0 L0 43 L110 43 L110 0 Z" />
      </clipPath>
      <clipPath clipPathUnits="userSpaceOnUse" id="clipPath21">
        <path d="M0 0 L110 0 L110 15 L0 15 L0 0 Z" />
      </clipPath>
      <clipPath clipPathUnits="userSpaceOnUse" id="clipPath22">
        <path d="M-3 -3 L21 -3 L21 28 L-3 28 L-3 -3 Z" />
      </clipPath>
      <clipPath clipPathUnits="userSpaceOnUse" id="clipPath23">
        <path d="M0 0 L14 0 L14 21 L0 21 L0 0 Z" />
      </clipPath>
      <clipPath clipPathUnits="userSpaceOnUse" id="clipPath24">
        <path d="M-3 -3 L155 -3 L155 28 L-3 28 L-3 -3 Z" />
      </clipPath>
      <clipPath clipPathUnits="userSpaceOnUse" id="clipPath25">
        <path d="M0 0 L148 0 L148 21 L0 21 L0 0 Z" />
      </clipPath>
      <clipPath clipPathUnits="userSpaceOnUse" id="clipPath26">
        <path d="M-4 -4 L198 -4 L198 118 L-4 118 L-4 -4 Z" />
      </clipPath>
      <clipPath clipPathUnits="userSpaceOnUse" id="clipPath27">
        <path d="M0 0 L0 88 L190 88 L190 0 Z" />
      </clipPath>
      <clipPath clipPathUnits="userSpaceOnUse" id="clipPath28">
        <path d="M0 0 L190 0 L190 30 L0 30 L0 0 Z" />
      </clipPath>
      <clipPath clipPathUnits="userSpaceOnUse" id="clipPath29">
        <path d="M-3 -3 L57 -3 L57 27 L-3 27 L-3 -3 Z" />
      </clipPath>
      <clipPath clipPathUnits="userSpaceOnUse" id="clipPath30">
        <path d="M-3 -3 L47 -3 L47 27 L-3 27 L-3 -3 Z" />
      </clipPath>
      <clipPath clipPathUnits="userSpaceOnUse" id="clipPath31">
        <path d="M0 0 L289 0 L289 179 L0 179 L0 0 Z" />
      </clipPath>
      <clipPath clipPathUnits="userSpaceOnUse" id="clipPath32">
        <path d="M0 0 L129 0 L129 248 L0 248 L0 0 Z" />
      </clipPath>
      <clipPath clipPathUnits="userSpaceOnUse" id="clipPath33">
        <path d="M0 0 L204 0 L204 244 L0 244 L0 0 Z" />
      </clipPath>
      <clipPath clipPathUnits="userSpaceOnUse" id="clipPath34">
        <path d="M0 0 L233 0 L233 249 L0 249 L0 0 Z" />
      </clipPath>
      <clipPath clipPathUnits="userSpaceOnUse" id="clipPath35">
        <path d="M0 0 L129 0 L129 168 L0 168 L0 0 Z" />
      </clipPath>
      <clipPath clipPathUnits="userSpaceOnUse" id="clipPath36">
        <path d="M0 0 L189 0 L189 239 L0 239 L0 0 Z" />
      </clipPath>
      <clipPath clipPathUnits="userSpaceOnUse" id="clipPath37">
        <path d="M0 0 L129 0 L129 238 L0 238 L0 0 Z" />
      </clipPath>
      <clipPath clipPathUnits="userSpaceOnUse" id="clipPath38">
        <path d="M0 0 L129 0 L129 178 L0 178 L0 0 Z" />
      </clipPath>
      <clipPath clipPathUnits="userSpaceOnUse" id="clipPath39">
        <path d="M0 0 L229 0 L229 204 L0 204 L0 0 Z" />
      </clipPath>
      <clipPath clipPathUnits="userSpaceOnUse" id="clipPath40">
        <path d="M0 0 L58 0 L58 14 L0 14 L0 0 Z" />
      </clipPath>
      <clipPath clipPathUnits="userSpaceOnUse" id="clipPath41">
        <path d="M0 0 L40 0 L40 20 L0 20 L0 0 Z" />
      </clipPath>
      <clipPath clipPathUnits="userSpaceOnUse" id="clipPath42">
        <path d="M0 0 L50 0 L50 20 L0 20 L0 0 Z" />
      </clipPath>
    </defs>
    <g style="fill:white; text-rendering:geometricPrecision; stroke:white;">
      <rect x="0" y="0" width="759" style="stroke:none;" height="475" />
    </g>
    <g transform="translate(494,330.5)" style="font-size:11; fill:url(#linearGradient1); text-rendering:geometricPrecision; font-family:sans-serif; stroke:url(#linearGradient1); font-weight:bold;">
      <rect x="0" y="0" width="200" style="clip-path:url(#clipPath1); stroke:none;" height="60" />
    </g>
    <g transform="translate(494,330.5)" style="stroke-linecap:butt; font-size:11; text-rendering:geometricPrecision; stroke-linejoin:round; font-family:sans-serif; font-weight:bold; stroke-width:2; stroke-miterlimit:0;">
      <rect x="0" y="0" width="200" style="clip-path:url(#clipPath1); fill:none;" height="60" />
      <line x1="0" x2="200" y1="15" style="clip-path:url(#clipPath1); fill:none;" y2="15" />
    </g>
    <g style="text-rendering:geometricPrecision; font-size:11; font-family:sans-serif;" transform="translate(494,345.5)">
      <text x="2" y="14" style="clip-path:url(#clipPath2); stroke:none;" xml:space="preserve">&lt;&lt;Property&gt;&gt; -minValue : T</text>
      <text x="2" y="29" style="clip-path:url(#clipPath2); stroke:none;" xml:space="preserve">&lt;&lt;Property&gt;&gt; -maxValue : T</text>
    </g>
    <g transform="translate(494,330.5)" style="font-size:11; text-rendering:geometricPrecision; font-family:sans-serif; font-style:italic; font-weight:bold;">
      <text x="17" y="12" style="clip-path:url(#clipPath3); stroke:none;" xml:space="preserve">AbstractNumericPropertyModel</text>
    </g>
    <g transform="translate(184,250.5)" style="font-size:11; fill:url(#linearGradient2); text-rendering:geometricPrecision; font-family:sans-serif; stroke:url(#linearGradient2); font-weight:bold;">
      <rect x="0" y="0" width="190" style="clip-path:url(#clipPath4); stroke:none;" height="60" />
    </g>
    <g transform="translate(184,250.5)" style="stroke-linecap:butt; font-size:11; text-rendering:geometricPrecision; stroke-linejoin:round; font-family:sans-serif; font-weight:bold; stroke-width:2; stroke-miterlimit:0;">
      <rect x="0" y="0" width="190" style="clip-path:url(#clipPath4); fill:none;" height="60" />
      <line x1="0" x2="190" y1="15" style="clip-path:url(#clipPath4); fill:none;" y2="15" />
    </g>
    <g style="text-rendering:geometricPrecision; font-size:11; font-family:sans-serif;" transform="translate(184,265.5)">
      <text x="2" y="14" style="clip-path:url(#clipPath5); stroke:none;" xml:space="preserve">&lt;&lt;Property&gt;&gt; -name : String</text>
      <text x="2" y="29" style="clip-path:url(#clipPath5); stroke:none;" xml:space="preserve">&lt;&lt;Property&gt;&gt; -defaultValue : T</text>
    </g>
    <g transform="translate(184,250.5)" style="font-size:11; text-rendering:geometricPrecision; font-family:sans-serif; font-style:italic; font-weight:bold;">
      <text x="34" y="12" style="clip-path:url(#clipPath6); stroke:none;" xml:space="preserve">AbstractPropertyModel</text>
    </g>
    <g transform="translate(154,429.5)" style="font-size:11; fill:url(#linearGradient3); text-rendering:geometricPrecision; font-family:sans-serif; stroke:url(#linearGradient3); font-weight:bold;">
      <rect x="0" y="0" width="140" style="clip-path:url(#clipPath7); stroke:none;" height="40" />
    </g>
    <g transform="translate(154,429.5)" style="stroke-linecap:butt; font-size:11; text-rendering:geometricPrecision; stroke-linejoin:round; font-family:sans-serif; font-weight:bold; stroke-width:2; stroke-miterlimit:0;">
      <rect x="0" y="0" width="140" style="clip-path:url(#clipPath7); fill:none;" height="40" />
      <line x1="0" x2="140" y1="15" style="clip-path:url(#clipPath7); fill:none;" y2="15" />
    </g>
    <g transform="translate(154,429.5)" style="text-rendering:geometricPrecision; font-size:11; font-weight:bold; font-family:sans-serif;">
      <text x="9" y="12" style="clip-path:url(#clipPath9); stroke:none;" xml:space="preserve">BooleanPropertyModel</text>
    </g>
    <g transform="translate(614,429.5)" style="font-size:11; fill:url(#linearGradient4); text-rendering:geometricPrecision; font-family:sans-serif; stroke:url(#linearGradient4); font-weight:bold;">
      <rect x="0" y="0" width="140" style="clip-path:url(#clipPath7); stroke:none;" height="40" />
    </g>
    <g transform="translate(614,429.5)" style="stroke-linecap:butt; font-size:11; text-rendering:geometricPrecision; stroke-linejoin:round; font-family:sans-serif; font-weight:bold; stroke-width:2; stroke-miterlimit:0;">
      <rect x="0" y="0" width="140" style="clip-path:url(#clipPath7); fill:none;" height="40" />
      <line x1="0" x2="140" y1="15" style="clip-path:url(#clipPath7); fill:none;" y2="15" />
    </g>
    <g transform="translate(614,429.5)" style="text-rendering:geometricPrecision; font-size:11; font-weight:bold; font-family:sans-serif;">
      <text x="12" y="12" style="clip-path:url(#clipPath9); stroke:none;" xml:space="preserve">DoublePropertyModel</text>
    </g>
    <g transform="translate(4,429.5)" style="font-size:11; fill:url(#linearGradient5); text-rendering:geometricPrecision; font-family:sans-serif; stroke:url(#linearGradient5); font-weight:bold;">
      <rect x="0" y="0" width="140" style="clip-path:url(#clipPath7); stroke:none;" height="40" />
    </g>
    <g transform="translate(4,429.5)" style="stroke-linecap:butt; font-size:11; text-rendering:geometricPrecision; stroke-linejoin:round; font-family:sans-serif; font-weight:bold; stroke-width:2; stroke-miterlimit:0;">
      <rect x="0" y="0" width="140" style="clip-path:url(#clipPath7); fill:none;" height="40" />
      <line x1="0" x2="140" y1="15" style="clip-path:url(#clipPath7); fill:none;" y2="15" />
    </g>
    <g transform="translate(4,429.5)" style="text-rendering:geometricPrecision; font-size:11; font-weight:bold; font-family:sans-serif;">
      <text x="16" y="12" style="clip-path:url(#clipPath9); stroke:none;" xml:space="preserve">EnumPropertyModel</text>
    </g>
    <g transform="translate(454,429.5)" style="font-size:11; fill:url(#linearGradient6); text-rendering:geometricPrecision; font-family:sans-serif; stroke:url(#linearGradient6); font-weight:bold;">
      <rect x="0" y="0" width="140" style="clip-path:url(#clipPath7); stroke:none;" height="40" />
    </g>
    <g transform="translate(454,429.5)" style="stroke-linecap:butt; font-size:11; text-rendering:geometricPrecision; stroke-linejoin:round; font-family:sans-serif; font-weight:bold; stroke-width:2; stroke-miterlimit:0;">
      <rect x="0" y="0" width="140" style="clip-path:url(#clipPath7); fill:none;" height="40" />
      <line x1="0" x2="140" y1="15" style="clip-path:url(#clipPath7); fill:none;" y2="15" />
    </g>
    <g transform="translate(454,429.5)" style="stroke-linecap:butt; font-size:11; text-rendering:geometricPrecision; stroke-linejoin:round; font-family:sans-serif; font-weight:bold; stroke-width:2; stroke-miterlimit:0;">
      <text x="13" y="12" style="clip-path:url(#clipPath9); stroke:none;" xml:space="preserve">IntegerPropertyModel</text>
    </g>
    <g transform="translate(454,250.5)" style="font-size:11; fill:url(#linearGradient7); text-rendering:geometricPrecision; font-family:sans-serif; stroke:url(#linearGradient7); font-weight:bold;">
      <rect x="0" y="0" width="180" style="clip-path:url(#clipPath10); stroke:none;" height="40" />
    </g>
    <g transform="translate(454,250.5)" style="stroke-linecap:butt; font-size:11; text-rendering:geometricPrecision; stroke-linejoin:round; font-family:sans-serif; font-weight:bold; stroke-width:2; stroke-miterlimit:0;">
      <rect x="0" y="0" width="180" style="clip-path:url(#clipPath10); fill:none;" height="40" />
      <line x1="0" x2="180" y1="30" style="clip-path:url(#clipPath10); fill:none;" y2="30" />
    </g>
    <g transform="translate(454,250.5)" style="text-rendering:geometricPrecision; font-size:11; font-weight:bold; font-family:sans-serif;">
      <text x="53" y="12" style="clip-path:url(#clipPath12); stroke:none;" xml:space="preserve">&lt;&lt;Interface&gt;&gt;</text>
      <text x="28" y="27" style="clip-path:url(#clipPath12); stroke:none;" xml:space="preserve">NumericPropertyModel</text>
    </g>
    <g transform="translate(344,20.5)" style="font-size:11; fill:url(#linearGradient8); text-rendering:geometricPrecision; font-family:sans-serif; stroke:url(#linearGradient8); font-weight:bold;">
      <rect x="0" y="0" width="200" style="clip-path:url(#clipPath13); stroke:none;" height="120" />
    </g>
    <g transform="translate(344,20.5)" style="stroke-linecap:butt; font-size:11; text-rendering:geometricPrecision; stroke-linejoin:round; font-family:sans-serif; font-weight:bold; stroke-width:2; stroke-miterlimit:0;">
      <rect x="0" y="0" width="200" style="clip-path:url(#clipPath13); fill:none;" height="120" />
      <line x1="0" x2="200" y1="30" style="clip-path:url(#clipPath13); fill:none;" y2="30" />
    </g>
    <g style="text-rendering:geometricPrecision; font-size:11; font-family:sans-serif;" transform="translate(344,50.5)">
      <text x="2" y="14" style="clip-path:url(#clipPath14); stroke:none;" xml:space="preserve">&lt;&lt;Property&gt;&gt; +defaultValue : T</text>
      <text x="2" y="29" style="clip-path:url(#clipPath14); stroke:none;" xml:space="preserve">&lt;&lt;Property&gt;&gt; +name : String</text>
      <text x="2" y="44" style="clip-path:url(#clipPath14); stroke:none;" xml:space="preserve">&lt;&lt;Property&gt;&gt; +type : Class&lt;T&gt;</text>
      <text x="2" y="59" style="clip-path:url(#clipPath14); stroke:none;" xml:space="preserve">&lt;&lt;Property&gt;&gt; +visibility : Visibility</text>
    </g>
    <g transform="translate(344,50.5)" style="stroke-linecap:butt; font-size:11; text-rendering:geometricPrecision; stroke-linejoin:bevel; font-family:sans-serif; stroke-width:2; stroke-miterlimit:0;">
      <line x1="0" x2="200" y1="64" style="clip-path:url(#clipPath14); fill:none;" y2="64" />
    </g>
    <g style="text-rendering:geometricPrecision; font-size:11; font-family:sans-serif;" transform="translate(344,50.5)">
      <text x="2" y="78" style="clip-path:url(#clipPath14); stroke:none;" xml:space="preserve">+isAcceptable(newValue : T) : boolean</text>
    </g>
    <g transform="translate(344,20.5)" style="text-rendering:geometricPrecision; font-size:11; font-weight:bold; font-family:sans-serif;">
      <text x="63" y="12" style="clip-path:url(#clipPath15); stroke:none;" xml:space="preserve">&lt;&lt;Interface&gt;&gt;</text>
      <text x="60" y="27" style="clip-path:url(#clipPath15); stroke:none;" xml:space="preserve">PropertyModel</text>
    </g>
    <g transform="translate(304,429.5)" style="font-size:11; fill:url(#linearGradient9); text-rendering:geometricPrecision; font-family:sans-serif; stroke:url(#linearGradient9); font-weight:bold;">
      <rect x="0" y="0" width="130" style="clip-path:url(#clipPath16); stroke:none;" height="40" />
    </g>
    <g transform="translate(304,429.5)" style="stroke-linecap:butt; font-size:11; text-rendering:geometricPrecision; stroke-linejoin:round; font-family:sans-serif; font-weight:bold; stroke-width:2; stroke-miterlimit:0;">
      <rect x="0" y="0" width="130" style="clip-path:url(#clipPath16); fill:none;" height="40" />
      <line x1="0" x2="130" y1="15" style="clip-path:url(#clipPath16); fill:none;" y2="15" />
    </g>
    <g transform="translate(304,429.5)" style="text-rendering:geometricPrecision; font-size:11; font-weight:bold; font-family:sans-serif;">
      <text x="10" y="12" style="clip-path:url(#clipPath18); stroke:none;" xml:space="preserve">StringPropertyModel</text>
    </g>
    <g transform="translate(14,329.5)" style="font-size:11; fill:url(#linearGradient10); text-rendering:geometricPrecision; font-family:sans-serif; stroke:url(#linearGradient10); font-weight:bold;">
      <rect x="0" y="0" width="110" style="clip-path:url(#clipPath19); stroke:none;" height="50" />
    </g>
    <g transform="translate(14,329.5)" style="stroke-linecap:butt; font-size:11; text-rendering:geometricPrecision; stroke-linejoin:round; font-family:sans-serif; font-weight:bold; stroke-width:2; stroke-miterlimit:0;">
      <rect x="0" y="0" width="110" style="clip-path:url(#clipPath19); fill:none;" height="50" />
      <line x1="0" x2="110" y1="15" style="clip-path:url(#clipPath19); fill:none;" y2="15" />
    </g>
    <g style="text-rendering:geometricPrecision; font-size:11; font-family:sans-serif;" transform="translate(14,344.5)">
      <text x="2" y="14" style="clip-path:url(#clipPath20); stroke:none;" xml:space="preserve">-element : String</text>
    </g>
    <g transform="translate(14,329.5)" style="text-rendering:geometricPrecision; font-size:11; font-weight:bold; font-family:sans-serif;">
      <text x="17" y="12" style="clip-path:url(#clipPath21); stroke:none;" xml:space="preserve">EnumElement</text>
    </g>
    <g transform="translate(370,231.5)" style="font-size:11; fill:white; text-rendering:geometricPrecision; font-family:sans-serif; stroke:white;">
      <rect x="0" y="0" width="13" style="clip-path:url(#clipPath22); stroke:none;" height="20" />
    </g>
    <g transform="translate(370,231.5)" style="stroke-linecap:butt; font-size:11; text-rendering:geometricPrecision; stroke-linejoin:bevel; font-family:sans-serif; stroke-dasharray:8,3; stroke-miterlimit:0;">
      <rect x="0" y="0" width="13" style="clip-path:url(#clipPath22); fill:none;" height="20" />
    </g>
    <g transform="translate(370,231.5)" style="stroke-linecap:butt; font-size:11; text-rendering:geometricPrecision; stroke-linejoin:bevel; font-family:sans-serif; stroke-dasharray:8,3; stroke-miterlimit:0;">
      <text x="3" y="15" style="clip-path:url(#clipPath23); stroke:none;" xml:space="preserve">T</text>
    </g>
    <g transform="translate(540,1.5)" style="font-size:11; fill:white; text-rendering:geometricPrecision; font-family:sans-serif; stroke:white;">
      <rect x="0" y="0" width="13" style="clip-path:url(#clipPath22); stroke:none;" height="20" />
    </g>
    <g transform="translate(540,1.5)" style="stroke-linecap:butt; font-size:11; text-rendering:geometricPrecision; stroke-linejoin:bevel; font-family:sans-serif; stroke-dasharray:8,3; stroke-miterlimit:0;">
      <rect x="0" y="0" width="13" style="clip-path:url(#clipPath22); fill:none;" height="20" />
    </g>
    <g transform="translate(540,1.5)" style="stroke-linecap:butt; font-size:11; text-rendering:geometricPrecision; stroke-linejoin:bevel; font-family:sans-serif; stroke-dasharray:8,3; stroke-miterlimit:0;">
      <text x="3" y="15" style="clip-path:url(#clipPath23); stroke:none;" xml:space="preserve">T</text>
    </g>
    <g transform="translate(496,231.5)" style="font-size:11; fill:white; text-rendering:geometricPrecision; font-family:sans-serif; stroke:white;">
      <rect x="0" y="0" width="147" style="clip-path:url(#clipPath24); stroke:none;" height="20" />
    </g>
    <g transform="translate(496,231.5)" style="stroke-linecap:butt; font-size:11; text-rendering:geometricPrecision; stroke-linejoin:bevel; font-family:sans-serif; stroke-dasharray:8,3; stroke-miterlimit:0;">
      <rect x="0" y="0" width="147" style="clip-path:url(#clipPath24); fill:none;" height="20" />
    </g>
    <g transform="translate(496,231.5)" style="stroke-linecap:butt; font-size:11; text-rendering:geometricPrecision; stroke-linejoin:bevel; font-family:sans-serif; stroke-dasharray:8,3; stroke-miterlimit:0;">
      <text x="3" y="15" style="clip-path:url(#clipPath25); stroke:none;" xml:space="preserve">T : Number, Comparable&lt;T&gt;</text>
    </g>
    <g transform="translate(556,311.5)" style="font-size:11; fill:white; text-rendering:geometricPrecision; font-family:sans-serif; stroke:white;">
      <rect x="0" y="0" width="147" style="clip-path:url(#clipPath24); stroke:none;" height="20" />
    </g>
    <g transform="translate(556,311.5)" style="stroke-linecap:butt; font-size:11; text-rendering:geometricPrecision; stroke-linejoin:bevel; font-family:sans-serif; stroke-dasharray:8,3; stroke-miterlimit:0;">
      <rect x="0" y="0" width="147" style="clip-path:url(#clipPath24); fill:none;" height="20" />
    </g>
    <g transform="translate(556,311.5)" style="stroke-linecap:butt; font-size:11; text-rendering:geometricPrecision; stroke-linejoin:bevel; font-family:sans-serif; stroke-dasharray:8,3; stroke-miterlimit:0;">
      <text x="3" y="15" style="clip-path:url(#clipPath25); stroke:none;" xml:space="preserve">T : Number, Comparable&lt;T&gt;</text>
    </g>
    <g transform="translate(54,99.5)" style="font-size:11; fill:url(#linearGradient11); text-rendering:geometricPrecision; font-family:sans-serif; stroke:url(#linearGradient11); font-weight:bold;">
      <rect x="0" y="0" width="190" style="clip-path:url(#clipPath26); stroke:none;" height="110" />
    </g>
    <g transform="translate(54,99.5)" style="stroke-linecap:butt; font-size:11; text-rendering:geometricPrecision; stroke-linejoin:round; font-family:sans-serif; font-weight:bold; stroke-width:2; stroke-miterlimit:0;">
      <rect x="0" y="0" width="190" style="clip-path:url(#clipPath26); fill:none;" height="110" />
      <line x1="0" x2="190" y1="30" style="clip-path:url(#clipPath26); fill:none;" y2="30" />
    </g>
    <g style="text-rendering:geometricPrecision; font-size:11; font-family:sans-serif;" transform="translate(54,129.5)">
      <text x="2" y="14" style="clip-path:url(#clipPath27); stroke:none;" xml:space="preserve">&lt;&lt;Constant&gt;&gt;  PUBLIC</text>
      <text x="2" y="29" style="clip-path:url(#clipPath27); stroke:none;" xml:space="preserve">&lt;&lt;Constant&gt;&gt;  PRIVATE</text>
    </g>
    <g transform="translate(54,129.5)" style="stroke-linecap:butt; font-size:11; text-rendering:geometricPrecision; stroke-linejoin:bevel; font-family:sans-serif; stroke-width:2; stroke-miterlimit:0;">
      <line x1="0" x2="190" y1="34" style="clip-path:url(#clipPath27); fill:none;" y2="34" />
    </g>
    <g style="text-rendering:geometricPrecision; font-size:11; font-family:sans-serif;" transform="translate(54,129.5)">
      <text x="2" y="48" style="clip-path:url(#clipPath27); stroke:none;" xml:space="preserve">+fromString(string : String) : Visibility</text>
      <line x1="2" x2="178" y1="50" style="clip-path:url(#clipPath27); fill:none;" y2="50" />
      <text x="2" y="63" style="clip-path:url(#clipPath27); stroke:none;" xml:space="preserve">+toString() : String</text>
    </g>
    <g transform="translate(54,99.5)" style="text-rendering:geometricPrecision; font-size:11; font-weight:bold; font-family:sans-serif;">
      <text x="66" y="12" style="clip-path:url(#clipPath28); stroke:none;" xml:space="preserve">&lt;&lt;Enum&gt;&gt;</text>
      <text x="71" y="27" style="clip-path:url(#clipPath28); stroke:none;" xml:space="preserve">Visibility</text>
    </g>
    <g transform="translate(272,247.5)" style="stroke-linecap:butt; font-size:11; text-rendering:geometricPrecision; font-family:sans-serif; stroke-linejoin:round; stroke-width:2;">
      <line x1="63" x2="223" y1="63" style="clip-path:url(#clipPath31); fill:none;" y2="113" />
      <polygon style="fill:white; clip-path:url(#clipPath31); stroke:none;" points=" 63 63 73 73 77 59" />
      <polygon style="fill:none; clip-path:url(#clipPath31);" points=" 63 63 73 73 77 59" />
    </g>
    <g transform="translate(212,247.5)" style="stroke-linecap:butt; font-size:11; text-rendering:geometricPrecision; font-family:sans-serif; stroke-linejoin:round; stroke-width:2;">
      <line x1="63" x2="63" y1="63" style="clip-path:url(#clipPath32); fill:none;" y2="181" />
      <polygon style="fill:white; clip-path:url(#clipPath32); stroke:none;" points=" 63 63 55 76 70 76" />
      <polygon style="fill:none; clip-path:url(#clipPath32);" points=" 63 63 55 76 70 76" />
    </g>
    <g transform="translate(554,289.5)" style="stroke-linecap:butt; font-size:11; text-rendering:geometricPrecision; font-family:sans-serif; stroke-linejoin:round; stroke-width:2;">
      <line x1="100" x2="100" y1="100" style="clip-path:url(#clipPath33); fill:none;" y2="140" />
      <polygon style="fill:white; clip-path:url(#clipPath33); stroke:none;" points=" 100 100 92 113 107 113" />
      <polygon style="fill:none; clip-path:url(#clipPath33);" points=" 100 100 92 113 107 113" />
    </g>
    <g transform="translate(58,247.5)" style="stroke-linecap:butt; font-size:11; text-rendering:geometricPrecision; font-family:sans-serif; stroke-linejoin:round; stroke-width:2;">
      <line x1="166" x2="63" y1="63" style="clip-path:url(#clipPath34); fill:none;" y2="183" />
      <polygon style="fill:white; clip-path:url(#clipPath34); stroke:none;" points=" 166 63 152 67 163 76" />
      <polygon style="fill:none; clip-path:url(#clipPath34);" points=" 166 63 152 67 163 76" />
    </g>
    <g transform="translate(474,289.5)" style="stroke-linecap:butt; font-size:11; text-rendering:geometricPrecision; font-family:sans-serif; stroke-linejoin:round; stroke-width:2;">
      <line x1="100" x2="100" y1="100" style="clip-path:url(#clipPath33); fill:none;" y2="140" />
      <polygon style="fill:white; clip-path:url(#clipPath33); stroke:none;" points=" 100 100 92 113 107 113" />
      <polygon style="fill:none; clip-path:url(#clipPath33);" points=" 100 100 92 113 107 113" />
    </g>
    <g transform="translate(472,227.5)" style="stroke-linecap:butt; font-size:11; stroke-dashoffset:1; text-rendering:geometricPrecision; stroke-linejoin:round; font-family:sans-serif; stroke-dasharray:5; stroke-width:2;">
      <line x1="63" x2="63" y1="63" style="clip-path:url(#clipPath35); fill:none;" y2="101" />
    </g>
    <g transform="translate(472,227.5)" style="stroke-linecap:butt; font-size:11; fill:white; text-rendering:geometricPrecision; stroke-linejoin:round; font-family:sans-serif; stroke:white; stroke-width:2;">
      <polygon style="clip-path:url(#clipPath35); stroke:none;" points=" 63 63 55 76 70 76" />
      <polygon style="fill:none; clip-path:url(#clipPath35); stroke:black;" points=" 63 63 55 76 70 76" />
    </g>
    <g transform="translate(222,77.5)" style="stroke-linecap:butt; font-size:11; stroke-dashoffset:1; text-rendering:geometricPrecision; stroke-linejoin:round; font-family:sans-serif; stroke-dasharray:5; stroke-width:2;">
      <line x1="123" x2="63" y1="63" style="clip-path:url(#clipPath36); fill:none;" y2="173" />
    </g>
    <g transform="translate(222,77.5)" style="stroke-linecap:butt; font-size:11; fill:white; text-rendering:geometricPrecision; stroke-linejoin:round; font-family:sans-serif; stroke:white; stroke-width:2;">
      <polygon style="clip-path:url(#clipPath36); stroke:none;" points=" 123 63 110 70 123 77" />
      <polygon style="fill:none; clip-path:url(#clipPath36); stroke:black;" points=" 123 63 110 70 123 77" />
    </g>
    <g transform="translate(412,77.5)" style="stroke-linecap:butt; font-size:11; text-rendering:geometricPrecision; font-family:sans-serif; stroke-linejoin:round; stroke-width:2;">
      <line x1="63" x2="63" y1="63" style="clip-path:url(#clipPath37); fill:none;" y2="171" />
      <polygon style="fill:white; clip-path:url(#clipPath37); stroke:none;" points=" 63 63 55 76 70 76" />
      <polygon style="fill:none; clip-path:url(#clipPath37);" points=" 63 63 55 76 70 76" />
    </g>
    <g transform="translate(242,247.5)" style="stroke-linecap:butt; font-size:11; text-rendering:geometricPrecision; font-family:sans-serif; stroke-linejoin:round; stroke-width:2;">
      <line x1="63" x2="63" y1="63" style="clip-path:url(#clipPath32); fill:none;" y2="181" />
      <polygon style="fill:white; clip-path:url(#clipPath32); stroke:none;" points=" 63 63 55 76 70 76" />
      <polygon style="fill:none; clip-path:url(#clipPath32);" points=" 63 63 55 76 70 76" />
    </g>
    <g transform="translate(2,317.5)" style="stroke-linecap:butt; font-size:11; text-rendering:geometricPrecision; font-family:sans-serif; stroke-linejoin:round; stroke-width:2;">
      <line x1="63" x2="63" y1="83" style="clip-path:url(#clipPath38); fill:none;" y2="63" />
      <polygon style="fill:none; clip-path:url(#clipPath38);" points=" 63 111 70 97 63 83 55 97" />
    </g>
    <g transform="translate(182,21.5)" style="stroke-linecap:butt; font-size:11; text-rendering:geometricPrecision; font-family:sans-serif; stroke-linejoin:round; stroke-width:2;">
      <line x1="141" x2="63" y1="79" style="clip-path:url(#clipPath39); fill:none;" y2="138" />
      <polygon style="clip-path:url(#clipPath39); stroke:none;" points=" 163 63 148 64 141 79 156 76" />
      <polygon style="fill:none; clip-path:url(#clipPath39);" points=" 163 63 148 64 141 79 156 76" />
    </g>
    <g style="text-rendering:geometricPrecision; font-size:11; font-family:sans-serif;" transform="translate(259,115.5)">
      <text x="10" y="12" style="clip-path:url(#clipPath40); stroke:none;" xml:space="preserve">visibility</text>
    </g>
    <g style="text-rendering:geometricPrecision; font-size:11; font-family:sans-serif;" transform="translate(34,379.5)">
      <text x="18" y="14" style="clip-path:url(#clipPath41); stroke:none;" xml:space="preserve">*</text>
    </g>
    <g style="text-rendering:geometricPrecision; font-size:11; font-family:sans-serif;" transform="translate(64,379.5)">
      <text x="6" y="14" style="clip-path:url(#clipPath42); stroke:none;" xml:space="preserve">-values</text>
    </g>
  </g>
</svg>
