<?xml version="1.0" encoding="UTF-8"?>

<!DOCTYPE svg PUBLIC '-//W3C//DTD SVG 1.0//EN' 'http://www.w3.org/TR/2001/REC-SVG-20010904/DTD/svg10.dtd'>
<svg style="fill-opacity:1; color-rendering:auto; color-interpolation:auto; text-rendering:auto; stroke:black; stroke-linecap:square; stroke-miterlimit:10; shape-rendering:auto; stroke-opacity:1; fill:black; stroke-dasharray:none; font-weight:normal; stroke-width:1; font-family:&apos;Dialog&apos;; font-style:normal; stroke-linejoin:miter; font-size:12; stroke-dashoffset:0; image-rendering:auto;" xmlns="http://www.w3.org/2000/svg" width="708" xmlns:xlink="http://www.w3.org/1999/xlink" height="948">
  <!--Generated by the Batik Graphics2D SVG Generator-->
  <defs id="genericDefs" />
  <g>
    <defs id="defs1">
      <linearGradient x1="350" gradientUnits="userSpaceOnUse" x2="350" y1="190" y2="0" id="linearGradient1" spreadMethod="reflect">
        <stop style="stop-opacity:0.498; stop-color:rgb(0,255,255);" offset="0%" />
        <stop style="stop-opacity:0.498; stop-color:rgb(255,255,255);" offset="100%" />
      </linearGradient>
      <linearGradient x1="120" gradientUnits="userSpaceOnUse" x2="120" y1="90" y2="0" id="linearGradient2" spreadMethod="reflect">
        <stop style="stop-opacity:0.498; stop-color:rgb(255,255,0);" offset="0%" />
        <stop style="stop-opacity:0.498; stop-color:rgb(255,255,255);" offset="100%" />
      </linearGradient>
      <linearGradient x1="290" gradientUnits="userSpaceOnUse" x2="290" y1="150" y2="0" id="linearGradient3" spreadMethod="reflect">
        <stop style="stop-opacity:0.498; stop-color:rgb(255,255,0);" offset="0%" />
        <stop style="stop-opacity:0.498; stop-color:rgb(255,255,255);" offset="100%" />
      </linearGradient>
      <linearGradient x1="290" gradientUnits="userSpaceOnUse" x2="290" y1="60" y2="0" id="linearGradient4" spreadMethod="reflect">
        <stop style="stop-opacity:0.498; stop-color:rgb(255,255,0);" offset="0%" />
        <stop style="stop-opacity:0.498; stop-color:rgb(255,255,255);" offset="100%" />
      </linearGradient>
      <linearGradient x1="80" gradientUnits="userSpaceOnUse" x2="80" y1="120" y2="0" id="linearGradient5" spreadMethod="reflect">
        <stop style="stop-opacity:0.498; stop-color:rgb(255,255,0);" offset="0%" />
        <stop style="stop-opacity:0.498; stop-color:rgb(255,255,255);" offset="100%" />
      </linearGradient>
      <linearGradient x1="325" gradientUnits="userSpaceOnUse" x2="325" y1="240" y2="0" id="linearGradient6" spreadMethod="reflect">
        <stop style="stop-opacity:0.498; stop-color:rgb(255,255,0);" offset="0%" />
        <stop style="stop-opacity:0.498; stop-color:rgb(255,255,255);" offset="100%" />
      </linearGradient>
      <clipPath clipPathUnits="userSpaceOnUse" id="clipPath1">
        <path d="M-4 -4 L708 -4 L708 198 L-4 198 L-4 -4 Z" />
      </clipPath>
      <clipPath clipPathUnits="userSpaceOnUse" id="clipPath2">
        <path d="M0 0 L0 183 L700 183 L700 0 Z" />
      </clipPath>
      <clipPath clipPathUnits="userSpaceOnUse" id="clipPath3">
        <path d="M0 0 L700 0 L700 15 L0 15 L0 0 Z" />
      </clipPath>
      <clipPath clipPathUnits="userSpaceOnUse" id="clipPath4">
        <path d="M-4 -4 L248 -4 L248 98 L-4 98 L-4 -4 Z" />
      </clipPath>
      <clipPath clipPathUnits="userSpaceOnUse" id="clipPath5">
        <path d="M0 0 L0 68 L240 68 L240 0 Z" />
      </clipPath>
      <clipPath clipPathUnits="userSpaceOnUse" id="clipPath6">
        <path d="M0 0 L240 0 L240 30 L0 30 L0 0 Z" />
      </clipPath>
      <clipPath clipPathUnits="userSpaceOnUse" id="clipPath7">
        <path d="M-4 -4 L588 -4 L588 158 L-4 158 L-4 -4 Z" />
      </clipPath>
      <clipPath clipPathUnits="userSpaceOnUse" id="clipPath8">
        <path d="M0 0 L0 143 L580 143 L580 0 Z" />
      </clipPath>
      <clipPath clipPathUnits="userSpaceOnUse" id="clipPath9">
        <path d="M0 0 L580 0 L580 15 L0 15 L0 0 Z" />
      </clipPath>
      <clipPath clipPathUnits="userSpaceOnUse" id="clipPath10">
        <path d="M-4 -4 L588 -4 L588 68 L-4 68 L-4 -4 Z" />
      </clipPath>
      <clipPath clipPathUnits="userSpaceOnUse" id="clipPath11">
        <path d="M0 0 L0 38 L580 38 L580 0 Z" />
      </clipPath>
      <clipPath clipPathUnits="userSpaceOnUse" id="clipPath12">
        <path d="M0 0 L580 0 L580 30 L0 30 L0 0 Z" />
      </clipPath>
      <clipPath clipPathUnits="userSpaceOnUse" id="clipPath13">
        <path d="M-3 -3 L47 -3 L47 27 L-3 27 L-3 -3 Z" />
      </clipPath>
      <clipPath clipPathUnits="userSpaceOnUse" id="clipPath14">
        <path d="M-4 -4 L168 -4 L168 128 L-4 128 L-4 -4 Z" />
      </clipPath>
      <clipPath clipPathUnits="userSpaceOnUse" id="clipPath15">
        <path d="M0 0 L0 113 L160 113 L160 0 Z" />
      </clipPath>
      <clipPath clipPathUnits="userSpaceOnUse" id="clipPath16">
        <path d="M0 0 L160 0 L160 15 L0 15 L0 0 Z" />
      </clipPath>
      <clipPath clipPathUnits="userSpaceOnUse" id="clipPath17">
        <path d="M-4 -4 L658 -4 L658 248 L-4 248 L-4 -4 Z" />
      </clipPath>
      <clipPath clipPathUnits="userSpaceOnUse" id="clipPath18">
        <path d="M0 0 L0 233 L650 233 L650 0 Z" />
      </clipPath>
      <clipPath clipPathUnits="userSpaceOnUse" id="clipPath19">
        <path d="M0 0 L650 0 L650 15 L0 15 L0 0 Z" />
      </clipPath>
      <clipPath clipPathUnits="userSpaceOnUse" id="clipPath20">
        <path d="M-3 -3 L127 -3 L127 27 L-3 27 L-3 -3 Z" />
      </clipPath>
      <clipPath clipPathUnits="userSpaceOnUse" id="clipPath21">
        <path d="M-3 -3 L117 -3 L117 27 L-3 27 L-3 -3 Z" />
      </clipPath>
      <clipPath clipPathUnits="userSpaceOnUse" id="clipPath22">
        <path d="M-3 -3 L77 -3 L77 27 L-3 27 L-3 -3 Z" />
      </clipPath>
      <clipPath clipPathUnits="userSpaceOnUse" id="clipPath23">
        <path d="M0 0 L170 0 L170 200 L0 200 L0 0 Z" />
      </clipPath>
      <clipPath clipPathUnits="userSpaceOnUse" id="clipPath24">
        <path d="M0 0 L204 0 L204 414 L0 414 L0 0 Z" />
      </clipPath>
      <clipPath clipPathUnits="userSpaceOnUse" id="clipPath25">
        <path d="M0 0 L204 0 L204 244 L0 244 L0 0 Z" />
      </clipPath>
      <clipPath clipPathUnits="userSpaceOnUse" id="clipPath26">
        <path d="M0 0 L204 0 L204 284 L0 284 L0 0 Z" />
      </clipPath>
      <clipPath clipPathUnits="userSpaceOnUse" id="clipPath27">
        <path d="M0 0 L204 0 L204 254 L0 254 L0 0 Z" />
      </clipPath>
      <clipPath clipPathUnits="userSpaceOnUse" id="clipPath28">
        <path d="M0 0 L204 0 L204 264 L0 264 L0 0 Z" />
      </clipPath>
      <clipPath clipPathUnits="userSpaceOnUse" id="clipPath29">
        <path d="M0 0 L40 0 L40 20 L0 20 L0 0 Z" />
      </clipPath>
      <clipPath clipPathUnits="userSpaceOnUse" id="clipPath30">
        <path d="M0 0 L70 0 L70 20 L0 20 L0 0 Z" />
      </clipPath>
      <clipPath clipPathUnits="userSpaceOnUse" id="clipPath31">
        <path d="M0 0 L110 0 L110 20 L0 20 L0 0 Z" />
      </clipPath>
      <clipPath clipPathUnits="userSpaceOnUse" id="clipPath32">
        <path d="M0 0 L120 0 L120 20 L0 20 L0 0 Z" />
      </clipPath>
      <clipPath clipPathUnits="userSpaceOnUse" id="clipPath33">
        <path d="M0 0 L348 0 L348 16 L0 16 L0 0 Z" />
      </clipPath>
      <clipPath clipPathUnits="userSpaceOnUse" id="clipPath34">
        <path d="M0 0 L78 0 L78 16 L0 16 L0 0 Z" />
      </clipPath>
    </defs>
    <g style="fill:white; text-rendering:geometricPrecision; stroke:white;">
      <rect x="0" y="0" width="708" style="stroke:none;" height="948" />
    </g>
    <g transform="translate(4,304)" style="font-size:11; fill:url(#linearGradient1); text-rendering:geometricPrecision; font-family:sans-serif; stroke:url(#linearGradient1); font-weight:bold;">
      <rect x="0" y="0" width="700" style="clip-path:url(#clipPath1); stroke:none;" height="190" />
    </g>
    <g transform="translate(4,304)" style="stroke-linecap:butt; font-size:11; text-rendering:geometricPrecision; stroke-linejoin:round; font-family:sans-serif; font-weight:bold; stroke-width:2; stroke-miterlimit:0;">
      <rect x="0" y="0" width="700" style="clip-path:url(#clipPath1); fill:none;" height="190" />
      <line x1="0" x2="700" y1="15" style="clip-path:url(#clipPath1); fill:none;" y2="15" />
    </g>
    <g style="text-rendering:geometricPrecision; font-size:11; font-family:sans-serif;" transform="translate(4,319)">
      <text x="2" y="14" style="clip-path:url(#clipPath2); stroke:none;" xml:space="preserve">&lt;&lt;Property&gt;&gt; -name : String</text>
      <text x="2" y="29" style="clip-path:url(#clipPath2); stroke:none;" xml:space="preserve">&lt;&lt;Property&gt;&gt; -active : boolean</text>
      <text x="2" y="44" style="clip-path:url(#clipPath2); stroke:none;" xml:space="preserve">&lt;&lt;Property&gt;&gt; -maxDistanceForUsage : int</text>
    </g>
    <g transform="translate(4,319)" style="stroke-linecap:butt; font-size:11; text-rendering:geometricPrecision; stroke-linejoin:bevel; font-family:sans-serif; stroke-width:2; stroke-miterlimit:0;">
      <line x1="0" x2="700" y1="49" style="clip-path:url(#clipPath2); fill:none;" y2="49" />
    </g>
    <g style="text-rendering:geometricPrecision; font-size:11; font-family:sans-serif;" transform="translate(4,319)">
      <text x="2" y="63" style="clip-path:url(#clipPath2); stroke:none;" xml:space="preserve">-readResolve() : Object</text>
      <text x="2" y="78" style="clip-path:url(#clipPath2); stroke:none;" xml:space="preserve">+applyEffects(provider : WorldObject, consumer : WorldObject, parameters : Map&lt;String, Object&gt;, mode : ExecutionMode) : ExecutionStatus</text>
      <text x="2" y="93" style="clip-path:url(#clipPath2); stroke:none;" xml:space="preserve">+execute(provider : WorldObject, consumer : WorldObject, parameters : Map&lt;String, Object&gt;, mode : ExecutionMode) : ExecutionStatus</text>
      <text x="2" y="108" style="clip-path:url(#clipPath2); stroke:none;" xml:space="preserve">+getStorageLabel() : String</text>
      <text x="2" y="123" style="clip-path:url(#clipPath2); stroke:none;" xml:space="preserve">+isUsable(provider : WorldObject, consumer : WorldObject, parameters : Map&lt;String, Object&gt;) : boolean</text>
      <text x="2" y="138" style="clip-path:url(#clipPath2); stroke:none;" xml:space="preserve">+toString() : String</text>
      <text x="2" y="153" style="clip-path:url(#clipPath2); stroke:none;" xml:space="preserve">+Service(name : String, active : boolean, maxDistanceForUsage : int, providerCategories : Set&lt;Category&gt;, consumerCategories : Set&lt;Category...</text>
    </g>
    <g transform="translate(4,304)" style="text-rendering:geometricPrecision; font-size:11; font-weight:bold; font-family:sans-serif;">
      <text x="329" y="12" style="clip-path:url(#clipPath3); stroke:none;" xml:space="preserve">Service</text>
    </g>
    <g transform="translate(4,534)" style="font-size:11; fill:url(#linearGradient2); text-rendering:geometricPrecision; font-family:sans-serif; stroke:url(#linearGradient2); font-weight:bold;">
      <rect x="0" y="0" width="240" style="clip-path:url(#clipPath4); stroke:none;" height="90" />
    </g>
    <g transform="translate(4,534)" style="stroke-linecap:butt; font-size:11; text-rendering:geometricPrecision; stroke-linejoin:round; font-family:sans-serif; font-weight:bold; stroke-width:2; stroke-miterlimit:0;">
      <rect x="0" y="0" width="240" style="clip-path:url(#clipPath4); fill:none;" height="90" />
      <line x1="0" x2="240" y1="30" style="clip-path:url(#clipPath4); fill:none;" y2="30" />
    </g>
    <g style="text-rendering:geometricPrecision; font-size:11; font-family:sans-serif;" transform="translate(4,564)">
      <text x="2" y="14" style="clip-path:url(#clipPath5); stroke:none;" xml:space="preserve">&lt;&lt;Constant&gt;&gt;  CONTINUE_NEXT_TIME</text>
      <text x="2" y="29" style="clip-path:url(#clipPath5); stroke:none;" xml:space="preserve">&lt;&lt;Constant&gt;&gt;  SUCCESSFUL_TERMINATION</text>
      <text x="2" y="44" style="clip-path:url(#clipPath5); stroke:none;" xml:space="preserve">&lt;&lt;Constant&gt;&gt;  FAILURE</text>
    </g>
    <g transform="translate(4,534)" style="text-rendering:geometricPrecision; font-size:11; font-weight:bold; font-family:sans-serif;">
      <text x="91" y="12" style="clip-path:url(#clipPath6); stroke:none;" xml:space="preserve">&lt;&lt;Enum&gt;&gt;</text>
      <text x="76" y="27" style="clip-path:url(#clipPath6); stroke:none;" xml:space="preserve">ExecutionStatus</text>
    </g>
    <g transform="translate(4,794)" style="font-size:11; fill:url(#linearGradient3); text-rendering:geometricPrecision; font-family:sans-serif; stroke:url(#linearGradient3); font-weight:bold;">
      <rect x="0" y="0" width="580" style="clip-path:url(#clipPath7); stroke:none;" height="150" />
    </g>
    <g transform="translate(4,794)" style="stroke-linecap:butt; font-size:11; text-rendering:geometricPrecision; stroke-linejoin:round; font-family:sans-serif; font-weight:bold; stroke-width:2; stroke-miterlimit:0;">
      <rect x="0" y="0" width="580" style="clip-path:url(#clipPath7); fill:none;" height="150" />
      <line x1="0" x2="580" y1="15" style="clip-path:url(#clipPath7); fill:none;" y2="15" />
    </g>
    <g style="text-rendering:geometricPrecision; font-size:11; font-family:sans-serif;" transform="translate(4,809)">
      <text x="2" y="14" style="clip-path:url(#clipPath8); stroke:none;" xml:space="preserve">-canWalk : boolean</text>
      <text x="2" y="29" style="clip-path:url(#clipPath8); stroke:none;" xml:space="preserve">-TRAFFIC_LIGHT_RANGE : int = 10</text>
      <line x1="2" x2="169" y1="31" style="clip-path:url(#clipPath8); fill:none;" y2="31" />
      <text x="2" y="44" style="clip-path:url(#clipPath8); stroke:none;" xml:space="preserve">-path : WorldObject</text>
      <text x="2" y="59" style="clip-path:url(#clipPath8); stroke:none;" xml:space="preserve">-nextPlace : WorldObject</text>
    </g>
    <g transform="translate(4,809)" style="stroke-linecap:butt; font-size:11; text-rendering:geometricPrecision; stroke-linejoin:bevel; font-family:sans-serif; stroke-width:2; stroke-miterlimit:0;">
      <line x1="0" x2="580" y1="64" style="clip-path:url(#clipPath8); fill:none;" y2="64" />
    </g>
    <g style="text-rendering:geometricPrecision; font-size:11; font-family:sans-serif;" transform="translate(4,809)">
      <text x="2" y="78" style="clip-path:url(#clipPath8); stroke:none;" xml:space="preserve">+initPath(source : WorldObject, destination : WorldObject) : void</text>
      <text x="2" y="93" style="clip-path:url(#clipPath8); stroke:none;" xml:space="preserve">+executeStep(provider : WorldObject, consumer : WorldObject, parameters : Map&lt;String, Object&gt;) : ExecutionStatus</text>
      <text x="2" y="108" style="clip-path:url(#clipPath8); stroke:none;" xml:space="preserve">-stopAtPedestrianCrossing(agent : WorldObject, animation : Animation) : boolean</text>
      <text x="2" y="123" style="clip-path:url(#clipPath8); stroke:none;" xml:space="preserve">+getStorageLabel() : String</text>
    </g>
    <g transform="translate(4,794)" style="text-rendering:geometricPrecision; font-size:11; font-weight:bold; font-family:sans-serif;">
      <text x="269" y="12" style="clip-path:url(#clipPath9); stroke:none;" xml:space="preserve">WalkTo</text>
    </g>
    <g transform="translate(4,704)" style="font-size:11; fill:url(#linearGradient4); text-rendering:geometricPrecision; font-family:sans-serif; stroke:url(#linearGradient4); font-weight:bold;">
      <rect x="0" y="0" width="580" style="clip-path:url(#clipPath10); stroke:none;" height="60" />
    </g>
    <g transform="translate(4,704)" style="stroke-linecap:butt; font-size:11; text-rendering:geometricPrecision; stroke-linejoin:round; font-family:sans-serif; font-weight:bold; stroke-width:2; stroke-miterlimit:0;">
      <rect x="0" y="0" width="580" style="clip-path:url(#clipPath10); fill:none;" height="60" />
      <line x1="0" x2="580" y1="30" style="clip-path:url(#clipPath10); fill:none;" y2="30" />
    </g>
    <g style="text-rendering:geometricPrecision; font-size:11; font-family:sans-serif;" transform="translate(4,734)">
      <text x="2" y="14" style="clip-path:url(#clipPath11); stroke:none;" xml:space="preserve">+executeStep(provider : WorldObject, consumer : WorldObject, parameters : Map&lt;String, Object&gt;) : ExecutionStatus</text>
    </g>
    <g transform="translate(4,704)" style="text-rendering:geometricPrecision; font-size:11; font-weight:bold; font-family:sans-serif;">
      <text x="254" y="12" style="clip-path:url(#clipPath12); stroke:none;" xml:space="preserve">&lt;&lt;Interface&gt;&gt;</text>
      <text x="272" y="27" style="clip-path:url(#clipPath12); stroke:none;" xml:space="preserve">Action</text>
    </g>
    <g transform="translate(424,544)" style="font-size:11; fill:url(#linearGradient5); text-rendering:geometricPrecision; font-family:sans-serif; stroke:url(#linearGradient5); font-weight:bold;">
      <rect x="0" y="0" width="160" style="clip-path:url(#clipPath14); stroke:none;" height="120" />
    </g>
    <g transform="translate(424,544)" style="stroke-linecap:butt; font-size:11; text-rendering:geometricPrecision; stroke-linejoin:round; font-family:sans-serif; font-weight:bold; stroke-width:2; stroke-miterlimit:0;">
      <rect x="0" y="0" width="160" style="clip-path:url(#clipPath14); fill:none;" height="120" />
      <line x1="0" x2="160" y1="15" style="clip-path:url(#clipPath14); fill:none;" y2="15" />
    </g>
    <g style="text-rendering:geometricPrecision; font-size:11; font-family:sans-serif;" transform="translate(424,559)">
      <text x="2" y="14" style="clip-path:url(#clipPath15); stroke:none;" xml:space="preserve">&lt;&lt;Property&gt;&gt; -name : String</text>
    </g>
    <g transform="translate(424,559)" style="stroke-linecap:butt; font-size:11; text-rendering:geometricPrecision; stroke-linejoin:bevel; font-family:sans-serif; stroke-width:2; stroke-miterlimit:0;">
      <line x1="0" x2="160" y1="19" style="clip-path:url(#clipPath15); fill:none;" y2="19" />
    </g>
    <g style="text-rendering:geometricPrecision; font-size:11; font-family:sans-serif;" transform="translate(424,559)">
      <text x="2" y="33" style="clip-path:url(#clipPath15); stroke:none;" xml:space="preserve">+Category(name : String)</text>
      <text x="2" y="48" style="clip-path:url(#clipPath15); stroke:none;" xml:space="preserve">+equals(obj : Object) : boolean</text>
      <text x="2" y="63" style="clip-path:url(#clipPath15); stroke:none;" xml:space="preserve">+getStorageLabel() : String</text>
      <text x="2" y="78" style="clip-path:url(#clipPath15); stroke:none;" xml:space="preserve">+hashCode() : int</text>
      <text x="2" y="93" style="clip-path:url(#clipPath15); stroke:none;" xml:space="preserve">+toString() : String</text>
    </g>
    <g transform="translate(424,544)" style="text-rendering:geometricPrecision; font-size:11; font-weight:bold; font-family:sans-serif;">
      <text x="56" y="12" style="clip-path:url(#clipPath16); stroke:none;" xml:space="preserve">Category</text>
    </g>
    <g transform="translate(4,4)" style="font-size:11; fill:url(#linearGradient6); text-rendering:geometricPrecision; font-family:sans-serif; stroke:url(#linearGradient6); font-weight:bold;">
      <rect x="0" y="0" width="650" style="clip-path:url(#clipPath17); stroke:none;" height="240" />
    </g>
    <g transform="translate(4,4)" style="stroke-linecap:butt; font-size:11; text-rendering:geometricPrecision; stroke-linejoin:round; font-family:sans-serif; font-weight:bold; stroke-width:2; stroke-miterlimit:0;">
      <rect x="0" y="0" width="650" style="clip-path:url(#clipPath17); fill:none;" height="240" />
      <line x1="0" x2="650" y1="15" style="clip-path:url(#clipPath17); fill:none;" y2="15" />
    </g>
    <g style="text-rendering:geometricPrecision; font-size:11; font-family:sans-serif;" transform="translate(4,19)">
      <text x="2" y="14" style="clip-path:url(#clipPath18); stroke:none;" xml:space="preserve">-conditions : Condition</text>
      <text x="2" y="29" style="clip-path:url(#clipPath18); stroke:none;" xml:space="preserve">-effects : Effect</text>
    </g>
    <g transform="translate(4,19)" style="stroke-linecap:butt; font-size:11; text-rendering:geometricPrecision; stroke-linejoin:bevel; font-family:sans-serif; stroke-width:2; stroke-miterlimit:0;">
      <line x1="0" x2="650" y1="34" style="clip-path:url(#clipPath18); fill:none;" y2="34" />
    </g>
    <g style="text-rendering:geometricPrecision; font-size:11; font-family:sans-serif;" transform="translate(4,19)">
      <text x="2" y="48" style="clip-path:url(#clipPath18); stroke:none;" xml:space="preserve">+StatementsGroup(conditions : List&lt;Condition&gt;, effects : List&lt;Effect&gt;)</text>
      <text x="2" y="63" style="clip-path:url(#clipPath18); stroke:none;" xml:space="preserve">+checkConditions(provider : WorldObject, consumer : WorldObject, parameters : Map&lt;String, Object&gt;) : boolean</text>
      <text x="2" y="78" style="clip-path:url(#clipPath18); stroke:none;" xml:space="preserve">+executeEffects(provider : WorldObject, consumer : WorldObject, parameters : Map&lt;String, Object&gt;, mode : ExecutionMode) : void</text>
      <text x="2" y="93" style="clip-path:url(#clipPath18); stroke:none;" xml:space="preserve">+getActions() : List&lt;Effect&gt;</text>
      <text x="2" y="108" style="clip-path:url(#clipPath18); stroke:none;" xml:space="preserve">+getFalseStatements(provider : WorldObject, consumer : WorldObject, parameters : Map&lt;String, Object&gt;) : Collection&lt;Condition&gt;</text>
      <text x="2" y="123" style="clip-path:url(#clipPath18); stroke:none;" xml:space="preserve">+getTests() : List&lt;Condition&gt;</text>
      <text x="2" y="138" style="clip-path:url(#clipPath18); stroke:none;" xml:space="preserve">+setActions(actions : List&lt;Effect&gt;) : void</text>
      <text x="2" y="153" style="clip-path:url(#clipPath18); stroke:none;" xml:space="preserve">+setTests(tests : List&lt;Condition&gt;) : void</text>
      <text x="2" y="168" style="clip-path:url(#clipPath18); stroke:none;" xml:space="preserve">+toString() : String</text>
      <text x="2" y="183" style="clip-path:url(#clipPath18); stroke:none;" xml:space="preserve">+hashCode() : int</text>
      <text x="2" y="198" style="clip-path:url(#clipPath18); stroke:none;" xml:space="preserve">+equals(obj : Object) : boolean</text>
      <text x="2" y="213" style="clip-path:url(#clipPath18); stroke:none;" xml:space="preserve">+readResolve() : StatementsGroup</text>
    </g>
    <g transform="translate(4,4)" style="text-rendering:geometricPrecision; font-size:11; font-weight:bold; font-family:sans-serif;">
      <text x="278" y="12" style="clip-path:url(#clipPath19); stroke:none;" xml:space="preserve">StatementsGroup</text>
    </g>
    <g transform="translate(190,680)" style="stroke-linecap:butt; font-size:11; stroke-dashoffset:1; text-rendering:geometricPrecision; stroke-linejoin:round; font-family:sans-serif; stroke-dasharray:5; stroke-width:2;">
      <line x1="84" x2="84" y1="84" style="clip-path:url(#clipPath23); fill:none;" y2="112" />
    </g>
    <g transform="translate(190,680)" style="stroke-linecap:butt; font-size:11; fill:white; text-rendering:geometricPrecision; stroke-linejoin:round; font-family:sans-serif; stroke:white; stroke-width:2;">
      <polygon style="clip-path:url(#clipPath23); stroke:none;" points=" 84 84 76 97 91 97" />
      <polygon style="fill:none; clip-path:url(#clipPath23); stroke:black;" points=" 84 84 76 97 91 97" />
    </g>
    <g transform="translate(174,394)" style="stroke-linecap:butt; font-size:11; text-rendering:geometricPrecision; font-family:sans-serif; stroke-linejoin:round; stroke-width:2;">
      <line x1="100" x2="100" y1="128" style="clip-path:url(#clipPath24); fill:none;" y2="310" />
      <polygon style="fill:none; clip-path:url(#clipPath24);" points=" 100 100 92 113 100 128 107 113" />
    </g>
    <g transform="translate(234,394)" style="stroke-linecap:butt; font-size:11; text-rendering:geometricPrecision; font-family:sans-serif; stroke-linejoin:round; stroke-width:2;">
      <line x1="100" x2="100" y1="128" style="clip-path:url(#clipPath24); fill:none;" y2="310" />
      <polygon style="fill:none; clip-path:url(#clipPath24);" points=" 100 100 92 113 100 128 107 113" />
    </g>
    <g transform="translate(24,394)" style="stroke-linecap:butt; font-size:11; stroke-dashoffset:1; text-rendering:geometricPrecision; stroke-linejoin:round; font-family:sans-serif; stroke-dasharray:5; stroke-width:2;">
      <line x1="100" x2="100" y1="100" style="clip-path:url(#clipPath25); fill:none;" y2="140" />
      <line x1="100" x2="107" y1="140" style="clip-path:url(#clipPath25); stroke-dashoffset:0; fill:none; stroke-dasharray:none;" y2="126" />
      <line x1="100" x2="92" y1="140" style="clip-path:url(#clipPath25); stroke-dashoffset:0; fill:none; stroke-dasharray:none;" y2="126" />
    </g>
    <g transform="translate(24,524)" style="stroke-linecap:butt; font-size:11; stroke-dashoffset:1; text-rendering:geometricPrecision; stroke-linejoin:round; font-family:sans-serif; stroke-dasharray:5; stroke-width:2;">
      <line x1="100" x2="100" y1="180" style="clip-path:url(#clipPath26); fill:none;" y2="100" />
      <line x1="100" x2="92" y1="100" style="clip-path:url(#clipPath26); stroke-dashoffset:0; fill:none; stroke-dasharray:none;" y2="113" />
      <line x1="100" x2="107" y1="100" style="clip-path:url(#clipPath26); stroke-dashoffset:0; fill:none; stroke-dasharray:none;" y2="113" />
    </g>
    <g transform="translate(434,394)" style="stroke-linecap:butt; font-size:11; text-rendering:geometricPrecision; font-family:sans-serif; stroke-linejoin:round; stroke-width:2;">
      <line x1="100" x2="100" y1="100" style="clip-path:url(#clipPath27); fill:none;" y2="150" />
    </g>
    <g transform="translate(384,394)" style="stroke-linecap:butt; font-size:11; text-rendering:geometricPrecision; font-family:sans-serif; stroke-linejoin:round; stroke-width:2;">
      <line x1="100" x2="100" y1="100" style="clip-path:url(#clipPath27); fill:none;" y2="150" />
    </g>
    <g transform="translate(214,144)" style="stroke-linecap:butt; font-size:11; text-rendering:geometricPrecision; font-family:sans-serif; stroke-linejoin:round; stroke-width:2;">
      <line x1="100" x2="100" y1="132" style="clip-path:url(#clipPath28); fill:none;" y2="100" />
      <polygon style="clip-path:url(#clipPath28); stroke:none;" points=" 100 160 107 146 100 132 92 146" />
      <polygon style="fill:none; clip-path:url(#clipPath28);" points=" 100 160 107 146 100 132 92 146" />
    </g>
    <g style="text-rendering:geometricPrecision; font-size:11; font-family:sans-serif;" transform="translate(284,244)">
      <text x="17" y="14" style="clip-path:url(#clipPath29); stroke:none;" xml:space="preserve">1</text>
    </g>
    <g style="text-rendering:geometricPrecision; font-size:11; font-family:sans-serif;" transform="translate(314,244)">
      <text x="8" y="14" style="clip-path:url(#clipPath30); stroke:none;" xml:space="preserve">statements</text>
    </g>
    <g style="text-rendering:geometricPrecision; font-size:11; font-family:sans-serif;" transform="translate(474,524)">
      <text x="18" y="14" style="clip-path:url(#clipPath29); stroke:none;" xml:space="preserve">*</text>
    </g>
    <g style="text-rendering:geometricPrecision; font-size:11; font-family:sans-serif;" transform="translate(364,524)">
      <text x="8" y="14" style="clip-path:url(#clipPath31); stroke:none;" xml:space="preserve">providerCategories</text>
    </g>
    <g style="text-rendering:geometricPrecision; font-size:11; font-family:sans-serif;" transform="translate(504,524)">
      <text x="18" y="14" style="clip-path:url(#clipPath29); stroke:none;" xml:space="preserve">*</text>
    </g>
    <g style="text-rendering:geometricPrecision; font-size:11; font-family:sans-serif;" transform="translate(544,524)">
      <text x="9" y="14" style="clip-path:url(#clipPath32); stroke:none;" xml:space="preserve">consumerCategories</text>
    </g>
    <g style="text-rendering:geometricPrecision; font-size:11; font-family:sans-serif;" transform="translate(304,684)">
      <text x="18" y="14" style="clip-path:url(#clipPath29); stroke:none;" xml:space="preserve">*</text>
    </g>
    <g style="text-rendering:geometricPrecision; font-size:11; font-family:sans-serif;" transform="translate(334,682)">
      <text x="14" y="12" style="clip-path:url(#clipPath33); stroke:none;" xml:space="preserve">runningActions : Map&lt;Couple&lt;WorldObject, WorldObject&gt;, Action&gt;</text>
    </g>
    <g style="text-rendering:geometricPrecision; font-size:11; font-family:sans-serif;" transform="translate(208,682)">
      <text x="10" y="12" style="clip-path:url(#clipPath34); stroke:none;" xml:space="preserve">actionClass</text>
    </g>
  </g>
</svg>
