<?xml version="1.0" encoding="UTF-8"?>

<!DOCTYPE svg PUBLIC '-//W3C//DTD SVG 1.0//EN' 'http://www.w3.org/TR/2001/REC-SVG-20010904/DTD/svg10.dtd'>
<svg style="fill-opacity:1; color-rendering:auto; color-interpolation:auto; text-rendering:auto; stroke:black; stroke-linecap:square; stroke-miterlimit:10; shape-rendering:auto; stroke-opacity:1; fill:black; stroke-dasharray:none; font-weight:normal; stroke-width:1; font-family:&apos;Dialog&apos;; font-style:normal; stroke-linejoin:miter; font-size:12; stroke-dashoffset:0; image-rendering:auto;" xmlns="http://www.w3.org/2000/svg" width="679" xmlns:xlink="http://www.w3.org/1999/xlink" height="579">
  <!--Generated by the Batik Graphics2D SVG Generator-->
  <defs id="genericDefs" />
  <g>
    <defs id="defs1">
      <linearGradient x1="85" gradientUnits="userSpaceOnUse" x2="85" y1="70" y2="0" id="linearGradient1" spreadMethod="reflect">
        <stop style="stop-opacity:0.498; stop-color:rgb(255,255,0);" offset="0%" />
        <stop style="stop-opacity:0.498; stop-color:rgb(255,255,255);" offset="100%" />
      </linearGradient>
      <linearGradient x1="140" gradientUnits="userSpaceOnUse" x2="140" y1="170" y2="0" id="linearGradient2" spreadMethod="reflect">
        <stop style="stop-opacity:0.498; stop-color:rgb(255,255,0);" offset="0%" />
        <stop style="stop-opacity:0.498; stop-color:rgb(255,255,255);" offset="100%" />
      </linearGradient>
      <linearGradient x1="95" gradientUnits="userSpaceOnUse" x2="95" y1="210" y2="0" id="linearGradient3" spreadMethod="reflect">
        <stop style="stop-opacity:0.498; stop-color:rgb(0,255,255);" offset="0%" />
        <stop style="stop-opacity:0.498; stop-color:rgb(255,255,255);" offset="100%" />
      </linearGradient>
      <linearGradient x1="180" gradientUnits="userSpaceOnUse" x2="180" y1="90" y2="0" id="linearGradient4" spreadMethod="reflect">
        <stop style="stop-opacity:0.498; stop-color:rgb(255,255,0);" offset="0%" />
        <stop style="stop-opacity:0.498; stop-color:rgb(255,255,255);" offset="100%" />
      </linearGradient>
      <clipPath clipPathUnits="userSpaceOnUse" id="clipPath1">
        <path d="M-4 -4 L178 -4 L178 78 L-4 78 L-4 -4 Z" />
      </clipPath>
      <clipPath clipPathUnits="userSpaceOnUse" id="clipPath2">
        <path d="M0 0 L0 48 L170 48 L170 0 Z" />
      </clipPath>
      <clipPath clipPathUnits="userSpaceOnUse" id="clipPath3">
        <path d="M0 0 L170 0 L170 30 L0 30 L0 0 Z" />
      </clipPath>
      <clipPath clipPathUnits="userSpaceOnUse" id="clipPath4">
        <path d="M-4 -4 L288 -4 L288 178 L-4 178 L-4 -4 Z" />
      </clipPath>
      <clipPath clipPathUnits="userSpaceOnUse" id="clipPath5">
        <path d="M0 0 L0 148 L280 148 L280 0 Z" />
      </clipPath>
      <clipPath clipPathUnits="userSpaceOnUse" id="clipPath6">
        <path d="M0 0 L280 0 L280 30 L0 30 L0 0 Z" />
      </clipPath>
      <clipPath clipPathUnits="userSpaceOnUse" id="clipPath7">
        <path d="M-4 -4 L198 -4 L198 218 L-4 218 L-4 -4 Z" />
      </clipPath>
      <clipPath clipPathUnits="userSpaceOnUse" id="clipPath8">
        <path d="M0 0 L0 203 L190 203 L190 0 Z" />
      </clipPath>
      <clipPath clipPathUnits="userSpaceOnUse" id="clipPath9">
        <path d="M0 0 L190 0 L190 15 L0 15 L0 0 Z" />
      </clipPath>
      <clipPath clipPathUnits="userSpaceOnUse" id="clipPath10">
        <path d="M-4 -4 L368 -4 L368 98 L-4 98 L-4 -4 Z" />
      </clipPath>
      <clipPath clipPathUnits="userSpaceOnUse" id="clipPath11">
        <path d="M0 0 L0 53 L360 53 L360 0 Z" />
      </clipPath>
      <clipPath clipPathUnits="userSpaceOnUse" id="clipPath12">
        <path d="M0 0 L360 0 L360 45 L0 45 L0 0 Z" />
      </clipPath>
      <clipPath clipPathUnits="userSpaceOnUse" id="clipPath13">
        <path d="M-3 -3 L47 -3 L47 27 L-3 27 L-3 -3 Z" />
      </clipPath>
      <clipPath clipPathUnits="userSpaceOnUse" id="clipPath14">
        <path d="M0 0 L115 0 L115 154 L0 154 L0 0 Z" />
      </clipPath>
      <clipPath clipPathUnits="userSpaceOnUse" id="clipPath15">
        <path d="M0 0 L116 0 L116 195 L0 195 L0 0 Z" />
      </clipPath>
      <clipPath clipPathUnits="userSpaceOnUse" id="clipPath16">
        <path d="M0 0 L116 0 L116 185 L0 185 L0 0 Z" />
      </clipPath>
      <clipPath clipPathUnits="userSpaceOnUse" id="clipPath17">
        <path d="M0 0 L115 0 L115 184 L0 184 L0 0 Z" />
      </clipPath>
      <clipPath clipPathUnits="userSpaceOnUse" id="clipPath18">
        <path d="M0 0 L73 0 L73 15 L0 15 L0 0 Z" />
      </clipPath>
      <clipPath clipPathUnits="userSpaceOnUse" id="clipPath19">
        <path d="M0 0 L40 0 L40 20 L0 20 L0 0 Z" />
      </clipPath>
    </defs>
    <g style="fill:white; text-rendering:geometricPrecision; stroke:white;">
      <rect x="0" y="0" width="679" style="stroke:none;" height="579" />
    </g>
    <g transform="translate(214,4)" style="font-size:11; fill:url(#linearGradient1); text-rendering:geometricPrecision; font-family:sans-serif; stroke:url(#linearGradient1); font-weight:bold;">
      <rect x="0" y="0" width="170" style="clip-path:url(#clipPath1); stroke:none;" height="70" />
    </g>
    <g transform="translate(214,4)" style="stroke-linecap:butt; font-size:11; text-rendering:geometricPrecision; stroke-linejoin:round; font-family:sans-serif; font-weight:bold; stroke-width:2; stroke-miterlimit:0;">
      <rect x="0" y="0" width="170" style="clip-path:url(#clipPath1); fill:none;" height="70" />
      <line x1="0" x2="170" y1="30" style="clip-path:url(#clipPath1); fill:none;" y2="30" />
    </g>
    <g style="text-rendering:geometricPrecision; font-size:11; font-family:sans-serif;" transform="translate(214,34)">
      <text x="2" y="14" style="clip-path:url(#clipPath2); stroke:none;" xml:space="preserve">+init(object : WorldObject) : void</text>
      <text x="2" y="29" style="clip-path:url(#clipPath2); stroke:none;" xml:space="preserve">+behave() : void</text>
    </g>
    <g transform="translate(214,4)" style="text-rendering:geometricPrecision; font-size:11; font-weight:bold; font-family:sans-serif;">
      <text x="49" y="12" style="clip-path:url(#clipPath3); stroke:none;" xml:space="preserve">&lt;&lt;Interface&gt;&gt;</text>
      <text x="60" y="27" style="clip-path:url(#clipPath3); stroke:none;" xml:space="preserve">Behavior</text>
    </g>
    <g transform="translate(4,404)" style="font-size:11; fill:url(#linearGradient2); text-rendering:geometricPrecision; font-family:sans-serif; stroke:url(#linearGradient2); font-weight:bold;">
      <rect x="0" y="0" width="280" style="clip-path:url(#clipPath4); stroke:none;" height="170" />
    </g>
    <g transform="translate(4,404)" style="stroke-linecap:butt; font-size:11; text-rendering:geometricPrecision; stroke-linejoin:round; font-family:sans-serif; font-weight:bold; stroke-width:2; stroke-miterlimit:0;">
      <rect x="0" y="0" width="280" style="clip-path:url(#clipPath4); fill:none;" height="170" />
      <line x1="0" x2="280" y1="30" style="clip-path:url(#clipPath4); fill:none;" y2="30" />
    </g>
    <g style="text-rendering:geometricPrecision; font-size:11; font-family:sans-serif;" transform="translate(4,434)">
      <text x="2" y="14" style="clip-path:url(#clipPath5); stroke:none;" xml:space="preserve">&lt;&lt;Constant&gt;&gt;  GREEN = "GREEN", 800</text>
      <text x="2" y="29" style="clip-path:url(#clipPath5); stroke:none;" xml:space="preserve">&lt;&lt;Constant&gt;&gt;  ORANGE = "ORANGE", 1000</text>
      <text x="2" y="44" style="clip-path:url(#clipPath5); stroke:none;" xml:space="preserve">&lt;&lt;Constant&gt;&gt;  RED = "RED", 2200</text>
      <text x="2" y="59" style="clip-path:url(#clipPath5); stroke:none;" xml:space="preserve">~NUMBER_OF_ELEMENTS_IN_A_PERIOD : int</text>
      <line x1="2" x2="219" y1="61" style="clip-path:url(#clipPath5); fill:none;" y2="61" />
      <text x="2" y="74" style="clip-path:url(#clipPath5); stroke:none;" xml:space="preserve">&lt;&lt;Property&gt;&gt; -phaseEnd : int</text>
      <text x="2" y="89" style="clip-path:url(#clipPath5); stroke:none;" xml:space="preserve">&lt;&lt;Property&gt;&gt; -enumElement : EnumElement</text>
    </g>
    <g transform="translate(4,434)" style="stroke-linecap:butt; font-size:11; text-rendering:geometricPrecision; stroke-linejoin:bevel; font-family:sans-serif; stroke-width:2; stroke-miterlimit:0;">
      <line x1="0" x2="280" y1="94" style="clip-path:url(#clipPath5); fill:none;" y2="94" />
    </g>
    <g style="text-rendering:geometricPrecision; font-size:11; font-family:sans-serif;" transform="translate(4,434)">
      <text x="2" y="108" style="clip-path:url(#clipPath5); stroke:none;" xml:space="preserve">-LightState(enumElementName : String, phaseEnd : int)</text>
      <text x="2" y="123" style="clip-path:url(#clipPath5); stroke:none;" xml:space="preserve">+getNext() : LightState</text>
    </g>
    <g transform="translate(4,404)" style="text-rendering:geometricPrecision; font-size:11; font-weight:bold; font-family:sans-serif;">
      <text x="111" y="12" style="clip-path:url(#clipPath6); stroke:none;" xml:space="preserve">&lt;&lt;Enum&gt;&gt;</text>
      <text x="113" y="27" style="clip-path:url(#clipPath6); stroke:none;" xml:space="preserve">LightState</text>
    </g>
    <g transform="translate(204,114)" style="font-size:11; fill:url(#linearGradient3); text-rendering:geometricPrecision; font-family:sans-serif; stroke:url(#linearGradient3); font-weight:bold;">
      <rect x="0" y="0" width="190" style="clip-path:url(#clipPath7); stroke:none;" height="210" />
    </g>
    <g transform="translate(204,114)" style="stroke-linecap:butt; font-size:11; text-rendering:geometricPrecision; stroke-linejoin:round; font-family:sans-serif; font-weight:bold; stroke-width:2; stroke-miterlimit:0;">
      <rect x="0" y="0" width="190" style="clip-path:url(#clipPath7); fill:none;" height="210" />
      <line x1="0" x2="190" y1="15" style="clip-path:url(#clipPath7); fill:none;" y2="15" />
    </g>
    <g style="text-rendering:geometricPrecision; font-size:11; font-family:sans-serif;" transform="translate(204,129)">
      <text x="2" y="14" style="clip-path:url(#clipPath8); stroke:none;" xml:space="preserve">-timer : int</text>
      <text x="2" y="29" style="clip-path:url(#clipPath8); stroke:none;" xml:space="preserve">-state : LightState</text>
      <text x="2" y="44" style="clip-path:url(#clipPath8); stroke:none;" xml:space="preserve">-object : WorldObject</text>
      <text x="2" y="59" style="clip-path:url(#clipPath8); stroke:none;" xml:space="preserve">-group : Collection&lt;WorldObject&gt;</text>
    </g>
    <g transform="translate(204,129)" style="stroke-linecap:butt; font-size:11; text-rendering:geometricPrecision; stroke-linejoin:bevel; font-family:sans-serif; stroke-width:2; stroke-miterlimit:0;">
      <line x1="0" x2="190" y1="64" style="clip-path:url(#clipPath8); fill:none;" y2="64" />
    </g>
    <g style="text-rendering:geometricPrecision; font-size:11; font-family:sans-serif;" transform="translate(204,129)">
      <text x="2" y="78" style="clip-path:url(#clipPath8); stroke:none;" xml:space="preserve">+TrafficLightBehavior()</text>
      <text x="2" y="93" style="clip-path:url(#clipPath8); stroke:none;" xml:space="preserve">+behave() : void</text>
      <text x="2" y="108" style="clip-path:url(#clipPath8); stroke:none;" xml:space="preserve">-register(object : WorldObject) : void</text>
      <text x="2" y="123" style="clip-path:url(#clipPath8); stroke:none;" xml:space="preserve">-electMaster() : WorldObject</text>
      <text x="2" y="138" style="clip-path:url(#clipPath8); stroke:none;" xml:space="preserve">-tic() : void</text>
      <text x="2" y="153" style="clip-path:url(#clipPath8); stroke:none;" xml:space="preserve">-updateGraphicalColor() : void</text>
      <text x="2" y="168" style="clip-path:url(#clipPath8); stroke:none;" xml:space="preserve">+getStorageLabel() : String</text>
      <text x="2" y="183" style="clip-path:url(#clipPath8); stroke:none;" xml:space="preserve">+init(object : WorldObject) : void</text>
    </g>
    <g transform="translate(204,114)" style="text-rendering:geometricPrecision; font-size:11; font-weight:bold; font-family:sans-serif;">
      <text x="41" y="12" style="clip-path:url(#clipPath9); stroke:none;" xml:space="preserve">TrafficLightBehavior</text>
    </g>
    <g transform="translate(314,394)" style="font-size:11; fill:url(#linearGradient4); text-rendering:geometricPrecision; font-family:sans-serif; stroke:url(#linearGradient4); font-weight:bold;">
      <rect x="0" y="0" width="360" style="clip-path:url(#clipPath10); stroke:none;" height="90" />
    </g>
    <g transform="translate(314,394)" style="stroke-linecap:butt; font-size:11; text-rendering:geometricPrecision; stroke-linejoin:round; font-family:sans-serif; font-weight:bold; stroke-width:2; stroke-miterlimit:0;">
      <rect x="0" y="0" width="360" style="clip-path:url(#clipPath10); fill:none;" height="90" />
      <line x1="0" x2="360" y1="45" style="clip-path:url(#clipPath10); fill:none;" y2="45" />
    </g>
    <g style="text-rendering:geometricPrecision; font-size:11; font-family:sans-serif;" transform="translate(314,439)">
      <text x="2" y="14" style="clip-path:url(#clipPath11); stroke:none;" xml:space="preserve">&lt;&lt;Constant&gt;&gt;  NOT_CONNECTED</text>
      <text x="2" y="29" style="clip-path:url(#clipPath11); stroke:none;" xml:space="preserve">&lt;&lt;Constant&gt;&gt;  CONNECTED</text>
    </g>
    <g transform="translate(314,394)" style="text-rendering:geometricPrecision; font-size:11; font-weight:bold; font-family:sans-serif;">
      <text x="151" y="12" style="clip-path:url(#clipPath12); stroke:none;" xml:space="preserve">&lt;&lt;Enum&gt;&gt;</text>
      <text x="149" y="27" style="clip-path:url(#clipPath12); stroke:none;" xml:space="preserve">Connection</text>
      <text x="12" y="42" style="clip-path:url(#clipPath12); stroke:none; font-weight:normal;" xml:space="preserve">(::n7::saceca::u3du::model::ai::object::behavior::TrafficLightBehavior)</text>
    </g>
    <g transform="translate(238,18)" style="stroke-linecap:butt; font-size:11; stroke-dashoffset:1; text-rendering:geometricPrecision; stroke-linejoin:round; font-family:sans-serif; stroke-dasharray:5; stroke-width:2;">
      <line x1="56" x2="56" y1="56" style="clip-path:url(#clipPath14); fill:none;" y2="94" />
    </g>
    <g transform="translate(238,18)" style="stroke-linecap:butt; font-size:11; fill:white; text-rendering:geometricPrecision; stroke-linejoin:round; font-family:sans-serif; stroke:white; stroke-width:2;">
      <polygon style="clip-path:url(#clipPath14); stroke:none;" points=" 56 56 48 69 63 69" />
      <polygon style="fill:none; clip-path:url(#clipPath14); stroke:black;" points=" 56 56 48 69 63 69" />
    </g>
    <g transform="translate(227,268)" style="stroke-linecap:butt; font-size:11; text-rendering:geometricPrecision; font-family:sans-serif; stroke-linejoin:round; stroke-width:2;">
      <line x1="57" x2="56" y1="84" style="clip-path:url(#clipPath15); fill:none;" y2="136" />
      <polygon style="clip-path:url(#clipPath15); stroke:none;" points=" 57 56 49 69 57 84 64 69" />
      <polygon style="fill:none; clip-path:url(#clipPath15);" points=" 57 56 49 69 57 84 64 69" />
    </g>
    <g transform="translate(258,268)" style="stroke-linecap:butt; font-size:11; text-rendering:geometricPrecision; font-family:sans-serif; stroke-linejoin:round; stroke-width:2;">
      <line x1="56" x2="57" y1="56" style="clip-path:url(#clipPath16); fill:none;" y2="126" />
      <circle style="fill:none; clip-path:url(#clipPath16);" r="6" cx="56" cy="66" />
      <line x1="61" x2="51" y1="66" style="clip-path:url(#clipPath16); fill:none;" y2="66" />
    </g>
    <g transform="translate(318,268)" style="stroke-linecap:butt; font-size:11; text-rendering:geometricPrecision; font-family:sans-serif; stroke-linejoin:round; stroke-width:2;">
      <line x1="56" x2="56" y1="84" style="clip-path:url(#clipPath17); fill:none;" y2="124" />
      <polygon style="clip-path:url(#clipPath17); stroke:none;" points=" 56 56 48 69 56 84 63 69" />
      <polygon style="fill:none; clip-path:url(#clipPath17);" points=" 56 56 48 69 56 84 63 69" />
    </g>
    <g style="text-rendering:geometricPrecision; font-size:11; font-family:sans-serif;" transform="translate(374,374)">
      <text x="10" y="12" style="clip-path:url(#clipPath18); stroke:none;" xml:space="preserve">connection</text>
    </g>
    <g style="text-rendering:geometricPrecision; font-size:11; font-family:sans-serif;" transform="translate(284,384)">
      <text x="17" y="14" style="clip-path:url(#clipPath19); stroke:none;" xml:space="preserve">1</text>
    </g>
    <g style="text-rendering:geometricPrecision; font-size:11; font-family:sans-serif;" transform="translate(244,384)">
      <text x="6" y="14" style="clip-path:url(#clipPath19); stroke:none;" xml:space="preserve">-state</text>
    </g>
  </g>
</svg>
