<?xml version="1.0" encoding="UTF-8"?>

<!DOCTYPE svg PUBLIC '-//W3C//DTD SVG 1.0//EN' 'http://www.w3.org/TR/2001/REC-SVG-20010904/DTD/svg10.dtd'>
<svg style="fill-opacity:1; color-rendering:auto; color-interpolation:auto; text-rendering:auto; stroke:black; stroke-linecap:square; stroke-miterlimit:10; shape-rendering:auto; stroke-opacity:1; fill:black; stroke-dasharray:none; font-weight:normal; stroke-width:1; font-family:&apos;Dialog&apos;; font-style:normal; stroke-linejoin:miter; font-size:12; stroke-dashoffset:0; image-rendering:auto;" xmlns="http://www.w3.org/2000/svg" width="897" xmlns:xlink="http://www.w3.org/1999/xlink" height="888">
  <!--Generated by the Batik Graphics2D SVG Generator-->
  <defs id="genericDefs" />
  <g>
    <defs id="defs1">
      <linearGradient x1="160" gradientUnits="userSpaceOnUse" x2="160" y1="250" y2="0" id="linearGradient1" spreadMethod="reflect">
        <stop style="stop-opacity:0.498; stop-color:rgb(255,255,0);" offset="0%" />
        <stop style="stop-opacity:0.498; stop-color:rgb(255,255,255);" offset="100%" />
      </linearGradient>
      <linearGradient x1="80" gradientUnits="userSpaceOnUse" x2="80" y1="120" y2="0" id="linearGradient2" spreadMethod="reflect">
        <stop style="stop-opacity:0.498; stop-color:rgb(255,255,0);" offset="0%" />
        <stop style="stop-opacity:0.498; stop-color:rgb(255,255,255);" offset="100%" />
      </linearGradient>
      <linearGradient x1="165" gradientUnits="userSpaceOnUse" x2="165" y1="390" y2="0" id="linearGradient3" spreadMethod="reflect">
        <stop style="stop-opacity:0.498; stop-color:rgb(0,255,255);" offset="0%" />
        <stop style="stop-opacity:0.498; stop-color:rgb(255,255,255);" offset="100%" />
      </linearGradient>
      <linearGradient x1="60" gradientUnits="userSpaceOnUse" x2="60" y1="60" y2="0" id="linearGradient4" spreadMethod="reflect">
        <stop style="stop-opacity:0.498; stop-color:rgb(255,255,0);" offset="0%" />
        <stop style="stop-opacity:0.498; stop-color:rgb(255,255,255);" offset="100%" />
      </linearGradient>
      <linearGradient x1="85" gradientUnits="userSpaceOnUse" x2="85" y1="70" y2="0" id="linearGradient5" spreadMethod="reflect">
        <stop style="stop-opacity:0.498; stop-color:rgb(255,255,0);" offset="0%" />
        <stop style="stop-opacity:0.498; stop-color:rgb(255,255,255);" offset="100%" />
      </linearGradient>
      <linearGradient x1="190" gradientUnits="userSpaceOnUse" x2="190" y1="390" y2="0" id="linearGradient6" spreadMethod="reflect">
        <stop style="stop-opacity:0.498; stop-color:rgb(255,255,0);" offset="0%" />
        <stop style="stop-opacity:0.498; stop-color:rgb(255,255,255);" offset="100%" />
      </linearGradient>
      <linearGradient x1="100" gradientUnits="userSpaceOnUse" x2="100" y1="120" y2="0" id="linearGradient7" spreadMethod="reflect">
        <stop style="stop-opacity:0.498; stop-color:rgb(255,255,0);" offset="0%" />
        <stop style="stop-opacity:0.498; stop-color:rgb(255,255,255);" offset="100%" />
      </linearGradient>
      <linearGradient x1="110" gradientUnits="userSpaceOnUse" x2="110" y1="150" y2="0" id="linearGradient8" spreadMethod="reflect">
        <stop style="stop-opacity:0.498; stop-color:rgb(255,255,0);" offset="0%" />
        <stop style="stop-opacity:0.498; stop-color:rgb(255,255,255);" offset="100%" />
      </linearGradient>
      <clipPath clipPathUnits="userSpaceOnUse" id="clipPath1">
        <path d="M-4 -4 L328 -4 L328 258 L-4 258 L-4 -4 Z" />
      </clipPath>
      <clipPath clipPathUnits="userSpaceOnUse" id="clipPath2">
        <path d="M0 0 L0 243 L320 243 L320 0 Z" />
      </clipPath>
      <clipPath clipPathUnits="userSpaceOnUse" id="clipPath3">
        <path d="M0 0 L320 0 L320 15 L0 15 L0 0 Z" />
      </clipPath>
      <clipPath clipPathUnits="userSpaceOnUse" id="clipPath4">
        <path d="M-4 -4 L168 -4 L168 128 L-4 128 L-4 -4 Z" />
      </clipPath>
      <clipPath clipPathUnits="userSpaceOnUse" id="clipPath5">
        <path d="M0 0 L0 113 L160 113 L160 0 Z" />
      </clipPath>
      <clipPath clipPathUnits="userSpaceOnUse" id="clipPath6">
        <path d="M0 0 L160 0 L160 15 L0 15 L0 0 Z" />
      </clipPath>
      <clipPath clipPathUnits="userSpaceOnUse" id="clipPath7">
        <path d="M-4 -4 L338 -4 L338 398 L-4 398 L-4 -4 Z" />
      </clipPath>
      <clipPath clipPathUnits="userSpaceOnUse" id="clipPath8">
        <path d="M0 0 L0 383 L330 383 L330 0 Z" />
      </clipPath>
      <clipPath clipPathUnits="userSpaceOnUse" id="clipPath9">
        <path d="M0 0 L330 0 L330 15 L0 15 L0 0 Z" />
      </clipPath>
      <clipPath clipPathUnits="userSpaceOnUse" id="clipPath10">
        <path d="M-3 -3 L77 -3 L77 27 L-3 27 L-3 -3 Z" />
      </clipPath>
      <clipPath clipPathUnits="userSpaceOnUse" id="clipPath11">
        <path d="M-3 -3 L47 -3 L47 27 L-3 27 L-3 -3 Z" />
      </clipPath>
      <clipPath clipPathUnits="userSpaceOnUse" id="clipPath12">
        <path d="M-4 -4 L128 -4 L128 68 L-4 68 L-4 -4 Z" />
      </clipPath>
      <clipPath clipPathUnits="userSpaceOnUse" id="clipPath13">
        <path d="M0 0 L0 53 L120 53 L120 0 Z" />
      </clipPath>
      <clipPath clipPathUnits="userSpaceOnUse" id="clipPath14">
        <path d="M0 0 L120 0 L120 15 L0 15 L0 0 Z" />
      </clipPath>
      <clipPath clipPathUnits="userSpaceOnUse" id="clipPath15">
        <path d="M-4 -4 L178 -4 L178 78 L-4 78 L-4 -4 Z" />
      </clipPath>
      <clipPath clipPathUnits="userSpaceOnUse" id="clipPath16">
        <path d="M0 0 L0 48 L170 48 L170 0 Z" />
      </clipPath>
      <clipPath clipPathUnits="userSpaceOnUse" id="clipPath17">
        <path d="M0 0 L170 0 L170 30 L0 30 L0 0 Z" />
      </clipPath>
      <clipPath clipPathUnits="userSpaceOnUse" id="clipPath18">
        <path d="M-3 -3 L67 -3 L67 27 L-3 27 L-3 -3 Z" />
      </clipPath>
      <clipPath clipPathUnits="userSpaceOnUse" id="clipPath19">
        <path d="M-4 -4 L388 -4 L388 398 L-4 398 L-4 -4 Z" />
      </clipPath>
      <clipPath clipPathUnits="userSpaceOnUse" id="clipPath20">
        <path d="M0 0 L0 383 L380 383 L380 0 Z" />
      </clipPath>
      <clipPath clipPathUnits="userSpaceOnUse" id="clipPath21">
        <path d="M0 0 L380 0 L380 15 L0 15 L0 0 Z" />
      </clipPath>
      <clipPath clipPathUnits="userSpaceOnUse" id="clipPath22">
        <path d="M-4 -19 L214 -19 L214 127 L-4 127 L-4 -19 Z" />
      </clipPath>
      <clipPath clipPathUnits="userSpaceOnUse" id="clipPath23">
        <path d="M0 0 L0 97 L200 97 L200 0 Z" />
      </clipPath>
      <clipPath clipPathUnits="userSpaceOnUse" id="clipPath24">
        <path d="M0 0 L200 0 L200 30 L0 30 L0 0 Z" />
      </clipPath>
      <clipPath clipPathUnits="userSpaceOnUse" id="clipPath25">
        <path d="M-3 -3 L127 -3 L127 27 L-3 27 L-3 -3 Z" />
      </clipPath>
      <clipPath clipPathUnits="userSpaceOnUse" id="clipPath26">
        <path d="M-3 -3 L21 -3 L21 29 L-3 29 L-3 -3 Z" />
      </clipPath>
      <clipPath clipPathUnits="userSpaceOnUse" id="clipPath27">
        <path d="M0 0 L13 0 L13 22 L0 22 L0 0 Z" />
      </clipPath>
      <clipPath clipPathUnits="userSpaceOnUse" id="clipPath28">
        <path d="M-4 -19 L234 -19 L234 157 L-4 157 L-4 -19 Z" />
      </clipPath>
      <clipPath clipPathUnits="userSpaceOnUse" id="clipPath29">
        <path d="M0 0 L0 142 L220 142 L220 0 Z" />
      </clipPath>
      <clipPath clipPathUnits="userSpaceOnUse" id="clipPath30">
        <path d="M0 0 L220 0 L220 15 L0 15 L0 0 Z" />
      </clipPath>
      <clipPath clipPathUnits="userSpaceOnUse" id="clipPath31">
        <path d="M-3 -3 L57 -3 L57 27 L-3 27 L-3 -3 Z" />
      </clipPath>
      <clipPath clipPathUnits="userSpaceOnUse" id="clipPath32">
        <path d="M-3 -3 L107 -3 L107 27 L-3 27 L-3 -3 Z" />
      </clipPath>
      <clipPath clipPathUnits="userSpaceOnUse" id="clipPath33">
        <path d="M0 0 L239 0 L239 171 L0 171 L0 0 Z" />
      </clipPath>
      <clipPath clipPathUnits="userSpaceOnUse" id="clipPath34">
        <path d="M0 0 L171 0 L171 249 L0 249 L0 0 Z" />
      </clipPath>
      <clipPath clipPathUnits="userSpaceOnUse" id="clipPath35">
        <path d="M0 0 L229 0 L229 171 L0 171 L0 0 Z" />
      </clipPath>
      <clipPath clipPathUnits="userSpaceOnUse" id="clipPath36">
        <path d="M0 0 L254 0 L254 115 L0 115 L0 0 Z" />
      </clipPath>
      <clipPath clipPathUnits="userSpaceOnUse" id="clipPath37">
        <path d="M0 0 L171 0 L171 261 L0 261 L0 0 Z" />
      </clipPath>
      <clipPath clipPathUnits="userSpaceOnUse" id="clipPath38">
        <path d="M0 0 L311 0 L311 261 L0 261 L0 0 Z" />
      </clipPath>
      <clipPath clipPathUnits="userSpaceOnUse" id="clipPath39">
        <path d="M0 0 L301 0 L301 271 L0 271 L0 0 Z" />
      </clipPath>
      <clipPath clipPathUnits="userSpaceOnUse" id="clipPath40">
        <path d="M0 0 L147 0 L147 225 L0 225 L0 0 Z" />
      </clipPath>
      <clipPath clipPathUnits="userSpaceOnUse" id="clipPath41">
        <path d="M0 0 L171 0 L171 259 L0 259 L0 0 Z" />
      </clipPath>
      <clipPath clipPathUnits="userSpaceOnUse" id="clipPath42">
        <path d="M0 0 L100 0 L100 20 L0 20 L0 0 Z" />
      </clipPath>
      <clipPath clipPathUnits="userSpaceOnUse" id="clipPath43">
        <path d="M0 0 L40 0 L40 20 L0 20 L0 0 Z" />
      </clipPath>
      <clipPath clipPathUnits="userSpaceOnUse" id="clipPath44">
        <path d="M0 0 L70 0 L70 20 L0 20 L0 0 Z" />
      </clipPath>
      <clipPath clipPathUnits="userSpaceOnUse" id="clipPath45">
        <path d="M0 0 L60 0 L60 20 L0 20 L0 0 Z" />
      </clipPath>
      <clipPath clipPathUnits="userSpaceOnUse" id="clipPath46">
        <path d="M0 0 L120 0 L120 20 L0 20 L0 0 Z" />
      </clipPath>
      <clipPath clipPathUnits="userSpaceOnUse" id="clipPath47">
        <path d="M0 0 L183 0 L183 15 L0 15 L0 0 Z" />
      </clipPath>
      <clipPath clipPathUnits="userSpaceOnUse" id="clipPath48">
        <path d="M0 0 L50 0 L50 20 L0 20 L0 0 Z" />
      </clipPath>
    </defs>
    <g style="fill:white; text-rendering:geometricPrecision; stroke:white;">
      <rect x="0" y="0" width="897" style="stroke:none;" height="888" />
    </g>
    <g transform="translate(4,634)" style="font-size:11; fill:url(#linearGradient1); text-rendering:geometricPrecision; font-family:sans-serif; stroke:url(#linearGradient1); font-weight:bold;">
      <rect x="0" y="0" width="320" style="clip-path:url(#clipPath1); stroke:none;" height="250" />
    </g>
    <g transform="translate(4,634)" style="stroke-linecap:butt; font-size:11; text-rendering:geometricPrecision; stroke-linejoin:round; font-family:sans-serif; font-weight:bold; stroke-width:2; stroke-miterlimit:0;">
      <rect x="0" y="0" width="320" style="clip-path:url(#clipPath1); fill:none;" height="250" />
      <line x1="0" x2="320" y1="15" style="clip-path:url(#clipPath1); fill:none;" y2="15" />
    </g>
    <g style="text-rendering:geometricPrecision; font-size:11; font-family:sans-serif;" transform="translate(4,649)">
      <text x="2" y="14" style="clip-path:url(#clipPath2); stroke:none;" xml:space="preserve">+DEFAULT_MEMORY_SIZE : int = 100</text>
      <line x1="2" x2="183" y1="16" style="clip-path:url(#clipPath2); fill:none;" y2="16" />
      <text x="2" y="29" style="clip-path:url(#clipPath2); stroke:none;" xml:space="preserve">&lt;&lt;Property&gt;&gt; -memory : Memory</text>
      <text x="2" y="44" style="clip-path:url(#clipPath2); stroke:none;" xml:space="preserve">&lt;&lt;Property&gt;&gt; -perceptionModule : PerceptionModule</text>
      <text x="2" y="59" style="clip-path:url(#clipPath2); stroke:none;" xml:space="preserve">&lt;&lt;Property&gt;&gt; -communicationModule : CommunicationModule</text>
      <text x="2" y="74" style="clip-path:url(#clipPath2); stroke:none;" xml:space="preserve">&lt;&lt;Property&gt;&gt; -reasoningModule : ReasoningModule</text>
      <text x="2" y="89" style="clip-path:url(#clipPath2); stroke:none;" xml:space="preserve">&lt;&lt;Property&gt;&gt; -planningModule : PlanningModule</text>
      <text x="2" y="104" style="clip-path:url(#clipPath2); stroke:none;" xml:space="preserve">&lt;&lt;Property&gt;&gt; -emotionModule : EmotionModule</text>
    </g>
    <g transform="translate(4,649)" style="stroke-linecap:butt; font-size:11; text-rendering:geometricPrecision; stroke-linejoin:bevel; font-family:sans-serif; stroke-width:2; stroke-miterlimit:0;">
      <line x1="0" x2="320" y1="109" style="clip-path:url(#clipPath2); fill:none;" y2="109" />
    </g>
    <g style="text-rendering:geometricPrecision; font-size:11; font-family:sans-serif;" transform="translate(4,649)">
      <text x="2" y="123" style="clip-path:url(#clipPath2); stroke:none;" xml:space="preserve">+Agent(modelName : String, id : long)</text>
      <text x="2" y="138" style="clip-path:url(#clipPath2); stroke:none;" xml:space="preserve">-Agent(modelName : String, id : long, initMemory : boolean)</text>
      <text x="2" y="153" style="clip-path:url(#clipPath2); stroke:none;" xml:space="preserve">+toString() : String</text>
      <text x="2" y="168" style="clip-path:url(#clipPath2); stroke:none;" xml:space="preserve">+sendMessage(m : Message) : void</text>
      <text x="2" y="183" style="clip-path:url(#clipPath2); stroke:none;" xml:space="preserve">+getGauges() : List&lt;Gauge&gt;</text>
      <text x="2" y="198" style="clip-path:url(#clipPath2); stroke:none;" xml:space="preserve">+getEmptyClone() : Agent</text>
      <text x="2" y="213" style="clip-path:url(#clipPath2); stroke:none;" xml:space="preserve">+deepDataClone() : Agent</text>
      <text x="2" y="228" style="clip-path:url(#clipPath2); stroke:none;" xml:space="preserve">+toShortString() : String</text>
    </g>
    <g transform="translate(4,634)" style="text-rendering:geometricPrecision; font-size:11; font-weight:bold; font-family:sans-serif;">
      <text x="143" y="12" style="clip-path:url(#clipPath3); stroke:none;" xml:space="preserve">Agent</text>
    </g>
    <g transform="translate(474,4)" style="font-size:11; fill:url(#linearGradient2); text-rendering:geometricPrecision; font-family:sans-serif; stroke:url(#linearGradient2); font-weight:bold;">
      <rect x="0" y="0" width="160" style="clip-path:url(#clipPath4); stroke:none;" height="120" />
    </g>
    <g transform="translate(474,4)" style="stroke-linecap:butt; font-size:11; text-rendering:geometricPrecision; stroke-linejoin:round; font-family:sans-serif; font-weight:bold; stroke-width:2; stroke-miterlimit:0;">
      <rect x="0" y="0" width="160" style="clip-path:url(#clipPath4); fill:none;" height="120" />
      <line x1="0" x2="160" y1="15" style="clip-path:url(#clipPath4); fill:none;" y2="15" />
    </g>
    <g style="text-rendering:geometricPrecision; font-size:11; font-family:sans-serif;" transform="translate(474,19)">
      <text x="2" y="14" style="clip-path:url(#clipPath5); stroke:none;" xml:space="preserve">&lt;&lt;Property&gt;&gt; -name : String</text>
    </g>
    <g transform="translate(474,19)" style="stroke-linecap:butt; font-size:11; text-rendering:geometricPrecision; stroke-linejoin:bevel; font-family:sans-serif; stroke-width:2; stroke-miterlimit:0;">
      <line x1="0" x2="160" y1="19" style="clip-path:url(#clipPath5); fill:none;" y2="19" />
    </g>
    <g style="text-rendering:geometricPrecision; font-size:11; font-family:sans-serif;" transform="translate(474,19)">
      <text x="2" y="33" style="clip-path:url(#clipPath5); stroke:none;" xml:space="preserve">+Category(name : String)</text>
      <text x="2" y="48" style="clip-path:url(#clipPath5); stroke:none;" xml:space="preserve">+equals(obj : Object) : boolean</text>
      <text x="2" y="63" style="clip-path:url(#clipPath5); stroke:none;" xml:space="preserve">+getStorageLabel() : String</text>
      <text x="2" y="78" style="clip-path:url(#clipPath5); stroke:none;" xml:space="preserve">+hashCode() : int</text>
      <text x="2" y="93" style="clip-path:url(#clipPath5); stroke:none;" xml:space="preserve">+toString() : String</text>
    </g>
    <g transform="translate(474,4)" style="text-rendering:geometricPrecision; font-size:11; font-weight:bold; font-family:sans-serif;">
      <text x="56" y="12" style="clip-path:url(#clipPath6); stroke:none;" xml:space="preserve">Category</text>
    </g>
    <g transform="translate(4,164)" style="font-size:11; fill:url(#linearGradient3); text-rendering:geometricPrecision; font-family:sans-serif; stroke:url(#linearGradient3); font-weight:bold;">
      <rect x="0" y="0" width="330" style="clip-path:url(#clipPath7); stroke:none;" height="390" />
    </g>
    <g transform="translate(4,164)" style="stroke-linecap:butt; font-size:11; text-rendering:geometricPrecision; stroke-linejoin:round; font-family:sans-serif; font-weight:bold; stroke-width:2; stroke-miterlimit:0;">
      <rect x="0" y="0" width="330" style="clip-path:url(#clipPath7); fill:none;" height="390" />
      <line x1="0" x2="330" y1="15" style="clip-path:url(#clipPath7); fill:none;" y2="15" />
    </g>
    <g style="text-rendering:geometricPrecision; font-size:11; font-family:sans-serif;" transform="translate(4,179)">
      <text x="2" y="14" style="clip-path:url(#clipPath8); stroke:none;" xml:space="preserve">&lt;&lt;Property&gt;&gt; #id : long</text>
      <text x="2" y="29" style="clip-path:url(#clipPath8); stroke:none;" xml:space="preserve">&lt;&lt;Property&gt;&gt; -modelName : String</text>
      <text x="2" y="44" style="clip-path:url(#clipPath8); stroke:none;" xml:space="preserve">&lt;&lt;Property&gt;&gt; #pause : boolean</text>
      <text x="2" y="59" style="clip-path:url(#clipPath8); stroke:none;" xml:space="preserve">&lt;&lt;Property&gt;&gt; #alive : boolean</text>
      <text x="2" y="74" style="clip-path:url(#clipPath8); stroke:none;" xml:space="preserve">&lt;&lt;Property&gt;&gt; -services : Service</text>
      <text x="2" y="89" style="clip-path:url(#clipPath8); stroke:none;" xml:space="preserve">&lt;&lt;Property&gt;&gt; -position : Oriented2DPosition</text>
      <text x="2" y="104" style="clip-path:url(#clipPath8); stroke:none;" xml:space="preserve">&lt;&lt;Property&gt;&gt; #animation : Animation</text>
    </g>
    <g transform="translate(4,179)" style="stroke-linecap:butt; font-size:11; text-rendering:geometricPrecision; stroke-linejoin:bevel; font-family:sans-serif; stroke-width:2; stroke-miterlimit:0;">
      <line x1="0" x2="330" y1="109" style="clip-path:url(#clipPath8); fill:none;" y2="109" />
    </g>
    <g style="text-rendering:geometricPrecision; font-size:11; font-family:sans-serif;" transform="translate(4,179)">
      <text x="2" y="123" style="clip-path:url(#clipPath8); stroke:none;" xml:space="preserve">+WorldObject(modelName : String, id : long)</text>
      <text x="2" y="138" style="clip-path:url(#clipPath8); stroke:none;" xml:space="preserve">-WorldObject(modelName : String, id : long, initContent : boolean)</text>
      <text x="2" y="153" style="clip-path:url(#clipPath8); stroke:none;" xml:space="preserve">-behave() : void</text>
      <text x="2" y="168" style="clip-path:url(#clipPath8); stroke:none;" xml:space="preserve">+sleep() : void</text>
      <text x="2" y="183" style="clip-path:url(#clipPath8); stroke:none;" xml:space="preserve">+toString() : String</text>
      <text x="2" y="198" style="clip-path:url(#clipPath8); stroke:none;" xml:space="preserve">+wakeUp() : void</text>
      <text x="2" y="213" style="clip-path:url(#clipPath8); stroke:none;" xml:space="preserve">+kill() : void</text>
      <text x="2" y="228" style="clip-path:url(#clipPath8); stroke:none;" xml:space="preserve">+revive() : void</text>
      <text x="2" y="243" style="clip-path:url(#clipPath8); stroke:none;" xml:space="preserve">+getEmptyClone() : WorldObject</text>
      <text x="2" y="258" style="clip-path:url(#clipPath8); stroke:none;" xml:space="preserve">+deepDataClone() : WorldObject</text>
      <text x="2" y="273" style="clip-path:url(#clipPath8); stroke:none;" xml:space="preserve">+hashCode() : int</text>
      <text x="2" y="288" style="clip-path:url(#clipPath8); stroke:none;" xml:space="preserve">+equals(obj : Object) : boolean</text>
      <text x="2" y="303" style="clip-path:url(#clipPath8); stroke:none;" xml:space="preserve">+isWalkable() : boolean</text>
      <text x="2" y="318" style="clip-path:url(#clipPath8); stroke:none;" xml:space="preserve">+toShortString() : String</text>
      <text x="2" y="333" style="clip-path:url(#clipPath8); stroke:none;" xml:space="preserve">+readResolve() : WorldObject</text>
      <text x="2" y="348" style="clip-path:url(#clipPath8); stroke:none;" xml:space="preserve">+isAnimating() : boolean</text>
      <text x="2" y="363" style="clip-path:url(#clipPath8); stroke:none;" xml:space="preserve">+interruptAnimation() : void</text>
    </g>
    <g transform="translate(4,164)" style="text-rendering:geometricPrecision; font-size:11; font-weight:bold; font-family:sans-serif;">
      <text x="131" y="12" style="clip-path:url(#clipPath9); stroke:none;" xml:space="preserve">WorldObject</text>
    </g>
    <g transform="translate(64,14)" style="font-size:11; fill:url(#linearGradient4); text-rendering:geometricPrecision; font-family:sans-serif; stroke:url(#linearGradient4); font-weight:bold;">
      <rect x="0" y="0" width="120" style="clip-path:url(#clipPath12); stroke:none;" height="60" />
    </g>
    <g transform="translate(64,14)" style="stroke-linecap:butt; font-size:11; text-rendering:geometricPrecision; stroke-linejoin:round; font-family:sans-serif; font-weight:bold; stroke-width:2; stroke-miterlimit:0;">
      <rect x="0" y="0" width="120" style="clip-path:url(#clipPath12); fill:none;" height="60" />
      <line x1="0" x2="120" y1="15" style="clip-path:url(#clipPath12); fill:none;" y2="15" />
    </g>
    <g style="text-rendering:geometricPrecision; font-size:11; font-family:sans-serif;" transform="translate(64,29)">
      <text x="2" y="14" style="clip-path:url(#clipPath13); stroke:none;" xml:space="preserve">+BehavioralThread()</text>
      <text x="2" y="29" style="clip-path:url(#clipPath13); stroke:none;" xml:space="preserve">+run() : void</text>
    </g>
    <g transform="translate(64,14)" style="text-rendering:geometricPrecision; font-size:11; font-weight:bold; font-family:sans-serif;">
      <text x="13" y="12" style="clip-path:url(#clipPath14); stroke:none;" xml:space="preserve">BehavioralThread</text>
    </g>
    <g transform="translate(244,4)" style="font-size:11; fill:url(#linearGradient5); text-rendering:geometricPrecision; font-family:sans-serif; stroke:url(#linearGradient5); font-weight:bold;">
      <rect x="0" y="0" width="170" style="clip-path:url(#clipPath15); stroke:none;" height="70" />
    </g>
    <g transform="translate(244,4)" style="stroke-linecap:butt; font-size:11; text-rendering:geometricPrecision; stroke-linejoin:round; font-family:sans-serif; font-weight:bold; stroke-width:2; stroke-miterlimit:0;">
      <rect x="0" y="0" width="170" style="clip-path:url(#clipPath15); fill:none;" height="70" />
      <line x1="0" x2="170" y1="30" style="clip-path:url(#clipPath15); fill:none;" y2="30" />
    </g>
    <g style="text-rendering:geometricPrecision; font-size:11; font-family:sans-serif;" transform="translate(244,34)">
      <text x="2" y="14" style="clip-path:url(#clipPath16); stroke:none;" xml:space="preserve">+init(object : WorldObject) : void</text>
      <text x="2" y="29" style="clip-path:url(#clipPath16); stroke:none;" xml:space="preserve">+behave() : void</text>
    </g>
    <g transform="translate(244,4)" style="text-rendering:geometricPrecision; font-size:11; font-weight:bold; font-family:sans-serif;">
      <text x="49" y="12" style="clip-path:url(#clipPath17); stroke:none;" xml:space="preserve">&lt;&lt;Interface&gt;&gt;</text>
      <text x="60" y="27" style="clip-path:url(#clipPath17); stroke:none;" xml:space="preserve">Behavior</text>
    </g>
    <g transform="translate(474,164)" style="font-size:11; fill:url(#linearGradient6); text-rendering:geometricPrecision; font-family:sans-serif; stroke:url(#linearGradient6); font-weight:bold;">
      <rect x="0" y="0" width="380" style="clip-path:url(#clipPath19); stroke:none;" height="390" />
    </g>
    <g transform="translate(474,164)" style="stroke-linecap:butt; font-size:11; text-rendering:geometricPrecision; stroke-linejoin:round; font-family:sans-serif; font-weight:bold; stroke-width:2; stroke-miterlimit:0;">
      <rect x="0" y="0" width="380" style="clip-path:url(#clipPath19); fill:none;" height="390" />
      <line x1="0" x2="380" y1="15" style="clip-path:url(#clipPath19); fill:none;" y2="15" />
    </g>
    <g style="text-rendering:geometricPrecision; font-size:11; font-family:sans-serif;" transform="translate(474,179)">
      <text x="2" y="14" style="clip-path:url(#clipPath20); stroke:none;" xml:space="preserve">+PROPERTY_TYPE_WILDCARD : Class&lt;?&gt;</text>
      <line x1="2" x2="208" y1="16" style="clip-path:url(#clipPath20); fill:none;" y2="16" />
    </g>
    <g transform="translate(474,179)" style="stroke-linecap:butt; font-size:11; text-rendering:geometricPrecision; stroke-linejoin:bevel; font-family:sans-serif; stroke-width:2; stroke-miterlimit:0;">
      <line x1="0" x2="380" y1="19" style="clip-path:url(#clipPath20); fill:none;" y2="19" />
    </g>
    <g style="text-rendering:geometricPrecision; font-size:11; font-family:sans-serif;" transform="translate(474,179)">
      <text x="2" y="33" style="clip-path:url(#clipPath20); stroke:none;" xml:space="preserve">+PropertiesContainer()</text>
      <text x="2" y="48" style="clip-path:url(#clipPath20); stroke:none;" xml:space="preserve">+addProperty(property : Property&lt;?&gt;) : void</text>
      <text x="2" y="63" style="clip-path:url(#clipPath20); stroke:none;" xml:space="preserve">+getBoolean(propertyName : String) : boolean</text>
      <text x="2" y="78" style="clip-path:url(#clipPath20); stroke:none;" xml:space="preserve">+getDouble(propertyName : String) : double</text>
      <text x="2" y="93" style="clip-path:url(#clipPath20); stroke:none;" xml:space="preserve">+getEnumerationElement(propertyName : String) : EnumElement</text>
      <text x="2" y="108" style="clip-path:url(#clipPath20); stroke:none;" xml:space="preserve">+getInt(propertyName : String) : int</text>
      <text x="2" y="123" style="clip-path:url(#clipPath20); stroke:none;" xml:space="preserve">+getPropertiesNames() : Set&lt;String&gt;</text>
      <text x="2" y="138" style="clip-path:url(#clipPath20); stroke:none;" xml:space="preserve">+getProperty(clazz : Class&lt;?&gt;, propertyName : String) : Property&lt;?&gt;</text>
      <text x="2" y="153" style="clip-path:url(#clipPath20); stroke:none;" xml:space="preserve">+getProperty(propertyName : String) : Property&lt;?&gt;</text>
      <text x="2" y="168" style="clip-path:url(#clipPath20); stroke:none;" xml:space="preserve">+getProperties() : Collection&lt;Property&lt;?&gt;&gt;</text>
      <text x="2" y="183" style="clip-path:url(#clipPath20); stroke:none;" xml:space="preserve">+getProperties(filter : PropertyFilter) : Collection&lt;Property&lt;?&gt;&gt;</text>
      <text x="2" y="198" style="clip-path:url(#clipPath20); stroke:none;" xml:space="preserve">+getString(propertyName : String) : String</text>
      <text x="2" y="213" style="clip-path:url(#clipPath20); stroke:none;" xml:space="preserve">+removeProperty(propertyName : String) : void</text>
      <text x="2" y="228" style="clip-path:url(#clipPath20); stroke:none;" xml:space="preserve">+setBoolean(propertyName : String, newValue : Boolean) : void</text>
      <text x="2" y="243" style="clip-path:url(#clipPath20); stroke:none;" xml:space="preserve">+setDouble(propertyName : String, newValue : Double) : void</text>
      <text x="2" y="258" style="clip-path:url(#clipPath20); stroke:none;" xml:space="preserve">+setEnumElement(propertyName : String, newValue : EnumElement) : void</text>
      <text x="2" y="273" style="clip-path:url(#clipPath20); stroke:none;" xml:space="preserve">+setInt(propertyName : String, newValue : int) : void</text>
      <text x="2" y="288" style="clip-path:url(#clipPath20); stroke:none;" xml:space="preserve">+setString(propertyName : String, newValue : String) : void</text>
      <text x="2" y="303" style="clip-path:url(#clipPath20); stroke:none;" xml:space="preserve">+toString() : String</text>
      <text x="2" y="318" style="clip-path:url(#clipPath20); stroke:none;" xml:space="preserve">+clone() : PropertiesContainer</text>
      <text x="2" y="333" style="clip-path:url(#clipPath20); stroke:none;" xml:space="preserve">+hashCode() : int</text>
      <text x="2" y="348" style="clip-path:url(#clipPath20); stroke:none;" xml:space="preserve">+equals(obj : Object) : boolean</text>
      <text x="2" y="363" style="clip-path:url(#clipPath20); stroke:none;" xml:space="preserve">+readResolve() : PropertiesContainer</text>
    </g>
    <g transform="translate(474,164)" style="text-rendering:geometricPrecision; font-size:11; font-weight:bold; font-family:sans-serif;">
      <text x="137" y="12" style="clip-path:url(#clipPath21); stroke:none;" xml:space="preserve">PropertiesContainer</text>
    </g>
    <g transform="translate(684,645)" style="font-size:11; fill:url(#linearGradient7); text-rendering:geometricPrecision; font-family:sans-serif; stroke:url(#linearGradient7); font-weight:bold;">
      <rect x="0" y="0" width="200" style="clip-path:url(#clipPath22); stroke:none;" height="120" />
    </g>
    <g transform="translate(684,645)" style="stroke-linecap:butt; font-size:11; text-rendering:geometricPrecision; stroke-linejoin:round; font-family:sans-serif; font-weight:bold; stroke-width:2; stroke-miterlimit:0;">
      <rect x="0" y="0" width="200" style="clip-path:url(#clipPath22); fill:none;" height="120" />
      <line x1="0" x2="200" y1="30" style="clip-path:url(#clipPath22); fill:none;" y2="30" />
    </g>
    <g style="text-rendering:geometricPrecision; font-size:11; font-family:sans-serif;" transform="translate(684,675)">
      <text x="2" y="14" style="clip-path:url(#clipPath23); stroke:none;" xml:space="preserve">&lt;&lt;Property&gt;&gt; +defaultValue : T</text>
      <text x="2" y="29" style="clip-path:url(#clipPath23); stroke:none;" xml:space="preserve">&lt;&lt;Property&gt;&gt; +name : String</text>
      <text x="2" y="44" style="clip-path:url(#clipPath23); stroke:none;" xml:space="preserve">&lt;&lt;Property&gt;&gt; +type : Class&lt;T&gt;</text>
      <text x="2" y="59" style="clip-path:url(#clipPath23); stroke:none;" xml:space="preserve">&lt;&lt;Property&gt;&gt; +visibility : Visibility</text>
    </g>
    <g transform="translate(684,675)" style="stroke-linecap:butt; font-size:11; text-rendering:geometricPrecision; stroke-linejoin:bevel; font-family:sans-serif; stroke-width:2; stroke-miterlimit:0;">
      <line x1="0" x2="200" y1="64" style="clip-path:url(#clipPath23); fill:none;" y2="64" />
    </g>
    <g style="text-rendering:geometricPrecision; font-size:11; font-family:sans-serif;" transform="translate(684,675)">
      <text x="2" y="78" style="clip-path:url(#clipPath23); stroke:none;" xml:space="preserve">+isAcceptable(newValue : T) : boolean</text>
    </g>
    <g transform="translate(684,645)" style="text-rendering:geometricPrecision; font-size:11; font-weight:bold; font-family:sans-serif;">
      <text x="63" y="12" style="clip-path:url(#clipPath24); stroke:none;" xml:space="preserve">&lt;&lt;Interface&gt;&gt;</text>
      <text x="60" y="27" style="clip-path:url(#clipPath24); stroke:none;" xml:space="preserve">PropertyModel</text>
    </g>
    <g transform="translate(880,626)" style="font-size:11; fill:white; text-rendering:geometricPrecision; font-family:sans-serif; stroke:white;">
      <rect x="0" y="0" width="13" style="clip-path:url(#clipPath26); stroke:none;" height="21" />
    </g>
    <g transform="translate(880,626)" style="stroke-linecap:butt; font-size:11; text-rendering:geometricPrecision; stroke-linejoin:bevel; font-family:sans-serif; stroke-dasharray:8,3; stroke-miterlimit:0;">
      <rect x="0" y="0" width="13" style="clip-path:url(#clipPath26); fill:none;" height="21" />
    </g>
    <g transform="translate(880,626)" style="stroke-linecap:butt; font-size:11; text-rendering:geometricPrecision; stroke-linejoin:bevel; font-family:sans-serif; stroke-dasharray:8,3; stroke-miterlimit:0;">
      <text x="3" y="15" style="clip-path:url(#clipPath27); stroke:none;" xml:space="preserve">T</text>
    </g>
    <g transform="translate(394,635)" style="font-size:11; fill:url(#linearGradient8); text-rendering:geometricPrecision; font-family:sans-serif; stroke:url(#linearGradient8); font-weight:bold;">
      <rect x="0" y="0" width="220" style="clip-path:url(#clipPath28); stroke:none;" height="150" />
    </g>
    <g transform="translate(394,635)" style="stroke-linecap:butt; font-size:11; text-rendering:geometricPrecision; stroke-linejoin:round; font-family:sans-serif; font-weight:bold; stroke-width:2; stroke-miterlimit:0;">
      <rect x="0" y="0" width="220" style="clip-path:url(#clipPath28); fill:none;" height="150" />
      <line x1="0" x2="220" y1="15" style="clip-path:url(#clipPath28); fill:none;" y2="15" />
    </g>
    <g style="text-rendering:geometricPrecision; font-size:11; font-family:sans-serif;" transform="translate(394,650)">
      <text x="2" y="14" style="clip-path:url(#clipPath29); stroke:none;" xml:space="preserve">+SEPARATOR : String = "_"</text>
      <line x1="2" x2="134" y1="16" style="clip-path:url(#clipPath29); fill:none;" y2="16" />
      <text x="2" y="29" style="clip-path:url(#clipPath29); stroke:none;" xml:space="preserve">&lt;&lt;Property&gt;&gt; -value : T</text>
      <text x="2" y="44" style="clip-path:url(#clipPath29); stroke:none;" xml:space="preserve">&lt;&lt;Property&gt;&gt; -model : PropertyModel&lt;T&gt;</text>
    </g>
    <g transform="translate(394,650)" style="stroke-linecap:butt; font-size:11; text-rendering:geometricPrecision; stroke-linejoin:bevel; font-family:sans-serif; stroke-width:2; stroke-miterlimit:0;">
      <line x1="0" x2="220" y1="49" style="clip-path:url(#clipPath29); fill:none;" y2="49" />
    </g>
    <g style="text-rendering:geometricPrecision; font-size:11; font-family:sans-serif;" transform="translate(394,650)">
      <text x="2" y="63" style="clip-path:url(#clipPath29); stroke:none;" xml:space="preserve">+Property(model : PropertyModel&lt;T&gt;)</text>
      <text x="2" y="78" style="clip-path:url(#clipPath29); stroke:none;" xml:space="preserve">+equals(obj : Object) : boolean</text>
      <text x="2" y="93" style="clip-path:url(#clipPath29); stroke:none;" xml:space="preserve">+hashCode() : int</text>
      <text x="2" y="108" style="clip-path:url(#clipPath29); stroke:none;" xml:space="preserve">+toString() : String</text>
      <text x="2" y="123" style="clip-path:url(#clipPath29); stroke:none;" xml:space="preserve">+clone() : Property&lt;T&gt;</text>
    </g>
    <g transform="translate(394,635)" style="text-rendering:geometricPrecision; font-size:11; font-weight:bold; font-family:sans-serif;">
      <text x="86" y="12" style="clip-path:url(#clipPath30); stroke:none;" xml:space="preserve">Property</text>
    </g>
    <g transform="translate(610,616)" style="font-size:11; fill:white; text-rendering:geometricPrecision; font-family:sans-serif; stroke:white;">
      <rect x="0" y="0" width="13" style="clip-path:url(#clipPath26); stroke:none;" height="21" />
    </g>
    <g transform="translate(610,616)" style="stroke-linecap:butt; font-size:11; text-rendering:geometricPrecision; stroke-linejoin:bevel; font-family:sans-serif; stroke-dasharray:8,3; stroke-miterlimit:0;">
      <rect x="0" y="0" width="13" style="clip-path:url(#clipPath26); fill:none;" height="21" />
    </g>
    <g transform="translate(610,616)" style="stroke-linecap:butt; font-size:11; text-rendering:geometricPrecision; stroke-linejoin:bevel; font-family:sans-serif; stroke-dasharray:8,3; stroke-miterlimit:0;">
      <text x="3" y="15" style="clip-path:url(#clipPath27); stroke:none;" xml:space="preserve">T</text>
    </g>
    <g transform="translate(531,631)" style="stroke-linecap:butt; font-size:11; text-rendering:geometricPrecision; font-family:sans-serif; stroke-linejoin:round; stroke-width:2;">
      <line x1="111" x2="152" y1="83" style="clip-path:url(#clipPath33); fill:none;" y2="83" />
      <polygon style="fill:none; clip-path:url(#clipPath33);" points=" 83 83 96 90 111 83 96 75" />
    </g>
    <g transform="translate(421,471)" style="stroke-linecap:butt; font-size:11; text-rendering:geometricPrecision; font-family:sans-serif; stroke-linejoin:round; stroke-width:2;">
      <line x1="83" x2="83" y1="111" style="clip-path:url(#clipPath34); fill:none;" y2="162" />
      <polygon style="clip-path:url(#clipPath34); stroke:none;" points=" 83 83 75 96 83 111 90 96" />
      <polygon style="fill:none; clip-path:url(#clipPath34);" points=" 83 83 75 96 83 111 90 96" />
    </g>
    <g transform="translate(101,-9)" style="stroke-linecap:butt; font-size:11; stroke-dashoffset:1; text-rendering:geometricPrecision; stroke-linejoin:round; font-family:sans-serif; stroke-dasharray:5; stroke-width:2;">
      <line x1="83" x2="142" y1="83" style="clip-path:url(#clipPath35); fill:none;" y2="83" />
      <line x1="142" x2="128" y1="83" style="clip-path:url(#clipPath35); stroke-dashoffset:0; fill:none; stroke-dasharray:none;" y2="75" />
      <line x1="142" x2="128" y1="83" style="clip-path:url(#clipPath35); stroke-dashoffset:0; fill:none; stroke-dasharray:none;" y2="90" />
    </g>
    <g transform="translate(278,308)" style="stroke-linecap:butt; font-size:11; text-rendering:geometricPrecision; font-family:sans-serif; stroke-linejoin:round; stroke-width:2;">
      <line x1="84" x2="194" y1="56" style="clip-path:url(#clipPath36); fill:none;" y2="56" />
      <polygon style="clip-path:url(#clipPath36); stroke:none;" points=" 56 56 69 63 84 56 69 48" />
      <polygon style="fill:none; clip-path:url(#clipPath36);" points=" 56 56 69 63 84 56 69 48" />
    </g>
    <g transform="translate(251,-9)" style="stroke-linecap:butt; font-size:11; text-rendering:geometricPrecision; font-family:sans-serif; stroke-linejoin:round; stroke-width:2;">
      <line x1="83" x2="83" y1="145" style="clip-path:url(#clipPath37); fill:none;" y2="83" />
      <polygon style="clip-path:url(#clipPath37); stroke:none;" points=" 83 173 90 159 83 145 75 159" />
      <polygon style="fill:none; clip-path:url(#clipPath37);" points=" 83 173 90 159 83 145 75 159" />
    </g>
    <g transform="translate(251,41)" style="stroke-linecap:butt; font-size:11; text-rendering:geometricPrecision; font-family:sans-serif; stroke-linejoin:round; stroke-width:2;">
      <line x1="106" x2="223" y1="158" style="clip-path:url(#clipPath38); fill:none;" y2="83" />
      <polygon style="fill:none; clip-path:url(#clipPath38);" points=" 83 173 97 172 106 158 90 160" />
    </g>
    <g transform="translate(191,431)" style="stroke-linecap:butt; font-size:11; text-rendering:geometricPrecision; font-family:sans-serif; stroke-linejoin:round; stroke-width:2;">
      <line x1="171" x2="213" y1="83" style="clip-path:url(#clipPath39); fill:none;" y2="83" />
      <line x1="213" x2="213" y1="83" style="clip-path:url(#clipPath39); fill:none;" y2="183" />
      <line x1="213" x2="83" y1="183" style="clip-path:url(#clipPath39); fill:none;" y2="183" />
      <line x1="83" x2="83" y1="183" style="clip-path:url(#clipPath39); fill:none;" y2="123" />
      <polygon style="fill:none; clip-path:url(#clipPath39);" points=" 143 83 156 90 171 83 156 75" />
    </g>
    <g transform="translate(93,483)" style="stroke-linecap:butt; font-size:11; text-rendering:geometricPrecision; font-family:sans-serif; stroke-linejoin:round; stroke-width:2;">
      <line x1="71" x2="71" y1="71" style="clip-path:url(#clipPath40); fill:none;" y2="150" />
      <polygon style="fill:white; clip-path:url(#clipPath40); stroke:none;" points=" 71 71 63 84 78 84" />
      <polygon style="fill:none; clip-path:url(#clipPath40);" points=" 71 71 63 84 78 84" />
    </g>
    <g transform="translate(21,-9)" style="stroke-linecap:butt; font-size:11; text-rendering:geometricPrecision; font-family:sans-serif; stroke-linejoin:round; stroke-width:2;">
      <line x1="83" x2="83" y1="172" style="clip-path:url(#clipPath41); fill:none;" y2="83" />
      <circle style="fill:none; clip-path:url(#clipPath41);" r="6" cx="83" cy="162" />
      <line x1="88" x2="78" y1="162" style="clip-path:url(#clipPath41); fill:none;" y2="162" />
    </g>
    <g transform="translate(51,-9)" style="stroke-linecap:butt; font-size:11; text-rendering:geometricPrecision; font-family:sans-serif; stroke-linejoin:round; stroke-width:2;">
      <line x1="83" x2="83" y1="144" style="clip-path:url(#clipPath41); fill:none;" y2="83" />
      <polygon style="clip-path:url(#clipPath41); stroke:none;" points=" 83 172 90 158 83 144 75 158" />
      <polygon style="fill:none; clip-path:url(#clipPath41);" points=" 83 172 90 158 83 144 75 158" />
    </g>
    <g style="text-rendering:geometricPrecision; font-size:11; font-family:sans-serif;" transform="translate(134,74)">
      <text x="5" y="14" style="clip-path:url(#clipPath42); stroke:none;" xml:space="preserve">-behavioralThread</text>
    </g>
    <g style="text-rendering:geometricPrecision; font-size:11; font-family:sans-serif;" transform="translate(94,74)">
      <text x="17" y="14" style="clip-path:url(#clipPath43); stroke:none;" xml:space="preserve">1</text>
    </g>
    <g style="text-rendering:geometricPrecision; font-size:11; font-family:sans-serif;" transform="translate(274,564)">
      <text x="6" y="14" style="clip-path:url(#clipPath44); stroke:none;" xml:space="preserve">-belongings</text>
    </g>
    <g style="text-rendering:geometricPrecision; font-size:11; font-family:sans-serif;" transform="translate(254,554)">
      <text x="18" y="14" style="clip-path:url(#clipPath43); stroke:none;" xml:space="preserve">*</text>
    </g>
    <g style="text-rendering:geometricPrecision; font-size:11; font-family:sans-serif;" transform="translate(404,114)">
      <text x="7" y="14" style="clip-path:url(#clipPath44); stroke:none;" xml:space="preserve">-categories</text>
    </g>
    <g style="text-rendering:geometricPrecision; font-size:11; font-family:sans-serif;" transform="translate(444,134)">
      <text x="18" y="14" style="clip-path:url(#clipPath43); stroke:none;" xml:space="preserve">*</text>
    </g>
    <g style="text-rendering:geometricPrecision; font-size:11; font-family:sans-serif;" transform="translate(334,74)">
      <text x="6" y="14" style="clip-path:url(#clipPath45); stroke:none;" xml:space="preserve">#behavior</text>
    </g>
    <g style="text-rendering:geometricPrecision; font-size:11; font-family:sans-serif;" transform="translate(294,74)">
      <text x="17" y="14" style="clip-path:url(#clipPath43); stroke:none;" xml:space="preserve">1</text>
    </g>
    <g style="text-rendering:geometricPrecision; font-size:11; font-family:sans-serif;" transform="translate(354,344)">
      <text x="10" y="14" style="clip-path:url(#clipPath46); stroke:none;" xml:space="preserve">-propertiesContainer</text>
    </g>
    <g style="text-rendering:geometricPrecision; font-size:11; font-family:sans-serif;" transform="translate(434,354)">
      <text x="17" y="14" style="clip-path:url(#clipPath43); stroke:none;" xml:space="preserve">1</text>
    </g>
    <g style="text-rendering:geometricPrecision; font-size:11; font-family:sans-serif;" transform="translate(514,584)">
      <text x="12" y="12" style="clip-path:url(#clipPath47); stroke:none;" xml:space="preserve">Map&lt;String, Property&gt; properties</text>
    </g>
    <g style="text-rendering:geometricPrecision; font-size:11; font-family:sans-serif;" transform="translate(654,714)">
      <text x="17" y="14" style="clip-path:url(#clipPath43); stroke:none;" xml:space="preserve">1</text>
    </g>
    <g style="text-rendering:geometricPrecision; font-size:11; font-family:sans-serif;" transform="translate(634,684)">
      <text x="9" y="14" style="clip-path:url(#clipPath48); stroke:none;" xml:space="preserve">-model</text>
    </g>
  </g>
</svg>
