<?xml version="1.0" encoding="UTF-8"?>

<!DOCTYPE svg PUBLIC '-//W3C//DTD SVG 1.0//EN' 'http://www.w3.org/TR/2001/REC-SVG-20010904/DTD/svg10.dtd'>
<svg style="fill-opacity:1; color-rendering:auto; color-interpolation:auto; text-rendering:auto; stroke:black; stroke-linecap:square; stroke-miterlimit:10; shape-rendering:auto; stroke-opacity:1; fill:black; stroke-dasharray:none; font-weight:normal; stroke-width:1; font-family:&apos;Dialog&apos;; font-style:normal; stroke-linejoin:miter; font-size:12; stroke-dashoffset:0; image-rendering:auto;" xmlns="http://www.w3.org/2000/svg" width="617" xmlns:xlink="http://www.w3.org/1999/xlink" height="145">
  <!--Generated by the Batik Graphics2D SVG Generator-->
  <defs id="genericDefs" />
  <g>
    <defs id="defs1">
      <linearGradient x1="120" gradientUnits="userSpaceOnUse" x2="120" y1="120" y2="0" id="linearGradient1" spreadMethod="reflect">
        <stop style="stop-opacity:0.498; stop-color:rgb(0,255,255);" offset="0%" />
        <stop style="stop-opacity:0.498; stop-color:rgb(255,255,255);" offset="100%" />
      </linearGradient>
      <linearGradient x1="100" gradientUnits="userSpaceOnUse" x2="100" y1="120" y2="0" id="linearGradient2" spreadMethod="reflect">
        <stop style="stop-opacity:0.498; stop-color:rgb(255,255,0);" offset="0%" />
        <stop style="stop-opacity:0.498; stop-color:rgb(255,255,255);" offset="100%" />
      </linearGradient>
      <clipPath clipPathUnits="userSpaceOnUse" id="clipPath1">
        <path d="M-4 -4 L248 -4 L248 128 L-4 128 L-4 -4 Z" />
      </clipPath>
      <clipPath clipPathUnits="userSpaceOnUse" id="clipPath2">
        <path d="M0 0 L0 113 L240 113 L240 0 Z" />
      </clipPath>
      <clipPath clipPathUnits="userSpaceOnUse" id="clipPath3">
        <path d="M0 0 L240 0 L240 15 L0 15 L0 0 Z" />
      </clipPath>
      <clipPath clipPathUnits="userSpaceOnUse" id="clipPath4">
        <path d="M-4 -19 L214 -19 L214 127 L-4 127 L-4 -19 Z" />
      </clipPath>
      <clipPath clipPathUnits="userSpaceOnUse" id="clipPath5">
        <path d="M0 0 L0 97 L200 97 L200 0 Z" />
      </clipPath>
      <clipPath clipPathUnits="userSpaceOnUse" id="clipPath6">
        <path d="M0 0 L200 0 L200 30 L0 30 L0 0 Z" />
      </clipPath>
      <clipPath clipPathUnits="userSpaceOnUse" id="clipPath7">
        <path d="M-3 -3 L21 -3 L21 28 L-3 28 L-3 -3 Z" />
      </clipPath>
      <clipPath clipPathUnits="userSpaceOnUse" id="clipPath8">
        <path d="M0 0 L14 0 L14 21 L0 21 L0 0 Z" />
      </clipPath>
      <clipPath clipPathUnits="userSpaceOnUse" id="clipPath9">
        <path d="M-3 -3 L47 -3 L47 27 L-3 27 L-3 -3 Z" />
      </clipPath>
      <clipPath clipPathUnits="userSpaceOnUse" id="clipPath10">
        <path d="M0 0 L288 0 L288 129 L0 129 L0 0 Z" />
      </clipPath>
      <clipPath clipPathUnits="userSpaceOnUse" id="clipPath11">
        <path d="M0 0 L69 0 L69 15 L0 15 L0 0 Z" />
      </clipPath>
      <clipPath clipPathUnits="userSpaceOnUse" id="clipPath12">
        <path d="M0 0 L40 0 L40 20 L0 20 L0 0 Z" />
      </clipPath>
    </defs>
    <g style="fill:white; text-rendering:geometricPrecision; stroke:white;">
      <rect x="0" y="0" width="617" style="stroke:none;" height="145" />
    </g>
    <g transform="translate(4,19.5)" style="font-size:11; fill:url(#linearGradient1); text-rendering:geometricPrecision; font-family:sans-serif; stroke:url(#linearGradient1); font-weight:bold;">
      <rect x="0" y="0" width="240" style="clip-path:url(#clipPath1); stroke:none;" height="120" />
    </g>
    <g transform="translate(4,19.5)" style="stroke-linecap:butt; font-size:11; text-rendering:geometricPrecision; stroke-linejoin:round; font-family:sans-serif; font-weight:bold; stroke-width:2; stroke-miterlimit:0;">
      <rect x="0" y="0" width="240" style="clip-path:url(#clipPath1); fill:none;" height="120" />
      <line x1="0" x2="240" y1="15" style="clip-path:url(#clipPath1); fill:none;" y2="15" />
    </g>
    <g style="text-rendering:geometricPrecision; font-size:11; font-family:sans-serif;" transform="translate(4,34.5)">
      <text x="2" y="14" style="clip-path:url(#clipPath2); stroke:none;" xml:space="preserve">&lt;&lt;Property&gt;&gt; -name : String</text>
      <text x="2" y="29" style="clip-path:url(#clipPath2); stroke:none;" xml:space="preserve">&lt;&lt;Property&gt;&gt; -behaviorName : String</text>
      <text x="2" y="44" style="clip-path:url(#clipPath2); stroke:none;" xml:space="preserve">&lt;&lt;Property&gt;&gt; -categoriesNames : Set&lt;String&gt;</text>
      <text x="2" y="59" style="clip-path:url(#clipPath2); stroke:none;" xml:space="preserve">&lt;&lt;Property&gt;&gt; -servicesNames : Set&lt;String&gt;</text>
    </g>
    <g transform="translate(4,34.5)" style="stroke-linecap:butt; font-size:11; text-rendering:geometricPrecision; stroke-linejoin:bevel; font-family:sans-serif; stroke-width:2; stroke-miterlimit:0;">
      <line x1="0" x2="240" y1="64" style="clip-path:url(#clipPath2); fill:none;" y2="64" />
    </g>
    <g style="text-rendering:geometricPrecision; font-size:11; font-family:sans-serif;" transform="translate(4,34.5)">
      <text x="2" y="78" style="clip-path:url(#clipPath2); stroke:none;" xml:space="preserve">+WorldObjectModel(name : String)</text>
      <text x="2" y="93" style="clip-path:url(#clipPath2); stroke:none;" xml:space="preserve">+equals(obj : Object) : boolean</text>
    </g>
    <g transform="translate(4,19.5)" style="text-rendering:geometricPrecision; font-size:11; font-weight:bold; font-family:sans-serif;">
      <text x="70" y="12" style="clip-path:url(#clipPath3); stroke:none;" xml:space="preserve">WorldObjectModel</text>
    </g>
    <g transform="translate(404,20.5)" style="font-size:11; fill:url(#linearGradient2); text-rendering:geometricPrecision; font-family:sans-serif; stroke:url(#linearGradient2); font-weight:bold;">
      <rect x="0" y="0" width="200" style="clip-path:url(#clipPath4); stroke:none;" height="120" />
    </g>
    <g transform="translate(404,20.5)" style="stroke-linecap:butt; font-size:11; text-rendering:geometricPrecision; stroke-linejoin:round; font-family:sans-serif; font-weight:bold; stroke-width:2; stroke-miterlimit:0;">
      <rect x="0" y="0" width="200" style="clip-path:url(#clipPath4); fill:none;" height="120" />
      <line x1="0" x2="200" y1="30" style="clip-path:url(#clipPath4); fill:none;" y2="30" />
    </g>
    <g style="text-rendering:geometricPrecision; font-size:11; font-family:sans-serif;" transform="translate(404,50.5)">
      <text x="2" y="14" style="clip-path:url(#clipPath5); stroke:none;" xml:space="preserve">&lt;&lt;Property&gt;&gt; +defaultValue : T</text>
      <text x="2" y="29" style="clip-path:url(#clipPath5); stroke:none;" xml:space="preserve">&lt;&lt;Property&gt;&gt; +name : String</text>
      <text x="2" y="44" style="clip-path:url(#clipPath5); stroke:none;" xml:space="preserve">&lt;&lt;Property&gt;&gt; +type : Class&lt;T&gt;</text>
      <text x="2" y="59" style="clip-path:url(#clipPath5); stroke:none;" xml:space="preserve">&lt;&lt;Property&gt;&gt; +visibility : Visibility</text>
    </g>
    <g transform="translate(404,50.5)" style="stroke-linecap:butt; font-size:11; text-rendering:geometricPrecision; stroke-linejoin:bevel; font-family:sans-serif; stroke-width:2; stroke-miterlimit:0;">
      <line x1="0" x2="200" y1="64" style="clip-path:url(#clipPath5); fill:none;" y2="64" />
    </g>
    <g style="text-rendering:geometricPrecision; font-size:11; font-family:sans-serif;" transform="translate(404,50.5)">
      <text x="2" y="78" style="clip-path:url(#clipPath5); stroke:none;" xml:space="preserve">+isAcceptable(newValue : T) : boolean</text>
    </g>
    <g transform="translate(404,20.5)" style="text-rendering:geometricPrecision; font-size:11; font-weight:bold; font-family:sans-serif;">
      <text x="63" y="12" style="clip-path:url(#clipPath6); stroke:none;" xml:space="preserve">&lt;&lt;Interface&gt;&gt;</text>
      <text x="60" y="27" style="clip-path:url(#clipPath6); stroke:none;" xml:space="preserve">PropertyModel</text>
    </g>
    <g transform="translate(600,1.5)" style="font-size:11; fill:white; text-rendering:geometricPrecision; font-family:sans-serif; stroke:white;">
      <rect x="0" y="0" width="13" style="clip-path:url(#clipPath7); stroke:none;" height="20" />
    </g>
    <g transform="translate(600,1.5)" style="stroke-linecap:butt; font-size:11; text-rendering:geometricPrecision; stroke-linejoin:bevel; font-family:sans-serif; stroke-dasharray:8,3; stroke-miterlimit:0;">
      <rect x="0" y="0" width="13" style="clip-path:url(#clipPath7); fill:none;" height="20" />
    </g>
    <g transform="translate(600,1.5)" style="stroke-linecap:butt; font-size:11; text-rendering:geometricPrecision; stroke-linejoin:bevel; font-family:sans-serif; stroke-dasharray:8,3; stroke-miterlimit:0;">
      <text x="3" y="15" style="clip-path:url(#clipPath8); stroke:none;" xml:space="preserve">T</text>
    </g>
    <g transform="translate(182,17.5)" style="stroke-linecap:butt; font-size:11; text-rendering:geometricPrecision; font-family:sans-serif; stroke-linejoin:round; stroke-width:2;">
      <line x1="91" x2="221" y1="63" style="clip-path:url(#clipPath10); fill:none;" y2="63" />
      <polygon style="clip-path:url(#clipPath10); stroke:none;" points=" 63 63 76 70 91 63 76 55" />
      <polygon style="fill:none; clip-path:url(#clipPath10);" points=" 63 63 76 70 91 63 76 55" />
    </g>
    <g style="text-rendering:geometricPrecision; font-size:11; font-family:sans-serif;" transform="translate(333,59.5)">
      <text x="10" y="12" style="clip-path:url(#clipPath11); stroke:none;" xml:space="preserve">properties</text>
    </g>
    <g style="text-rendering:geometricPrecision; font-size:11; font-family:sans-serif;" transform="translate(364,79.5)">
      <text x="18" y="14" style="clip-path:url(#clipPath12); stroke:none;" xml:space="preserve">*</text>
    </g>
  </g>
</svg>
